<svg width="80" height="80" viewBox="0 0 80 80" fill="none" xmlns="http://www.w3.org/2000/svg">
<circle cx="40.0001" cy="39.9999" r="31.8182" fill="white"/>
<path d="M40.6665 43.3334L37.6665 46.3334C37.0554 46.9445 36.7498 47.7223 36.7498 48.6667C36.7498 49.6112 37.0554 50.3889 37.6665 51C38.2776 51.6112 39.0554 51.9167 39.9998 51.9167C40.9443 51.9167 41.7221 51.6112 42.3332 51L50.9998 42.3334C51.6665 41.6667 51.9998 40.8889 51.9998 40C51.9998 39.1112 51.6665 38.3334 50.9998 37.6667L42.3332 29C41.7221 28.3889 40.9443 28.0834 39.9998 28.0834C39.0554 28.0834 38.2776 28.3889 37.6665 29C37.0554 29.6112 36.7498 30.3889 36.7498 31.3334C36.7498 32.2778 37.0554 33.0556 37.6665 33.6667L40.6665 36.6667L29.9998 36.6667C29.0554 36.6667 28.2632 36.9867 27.6232 37.6267C26.9832 38.2667 26.6643 39.0578 26.6665 40C26.6665 40.9445 26.9865 41.7367 27.6265 42.3767C28.2665 43.0167 29.0576 43.3356 29.9998 43.3334L40.6665 43.3334ZM73.3332 40C73.3332 44.6111 72.4576 48.9445 70.7065 53C68.9554 57.0556 66.5809 60.5834 63.5832 63.5834C60.5832 66.5834 57.0554 68.9578 52.9998 70.7067C48.9443 72.4556 44.6109 73.3312 39.9998 73.3334C35.3887 73.3334 31.0554 72.4578 26.9998 70.7067C22.9443 68.9556 19.4165 66.5812 16.4165 63.5834C13.4165 60.5834 11.0421 57.0556 9.29317 53C7.54428 48.9445 6.66872 44.6112 6.6665 40C6.6665 35.3889 7.54206 31.0556 9.29317 27C11.0443 22.9445 13.4187 19.4167 16.4165 16.4167C19.4165 13.4167 22.9443 11.0412 26.9998 9.29004C31.0554 7.53893 35.3887 6.66449 39.9998 6.66671C44.6109 6.66671 48.9443 7.54226 52.9998 9.29337C57.0554 11.0445 60.5832 13.4189 63.5832 16.4167C66.5832 19.4167 68.9587 22.9445 70.7098 27C72.4609 31.0556 73.3354 35.3889 73.3332 40Z" fill="url(#paint0_linear_29_5)"/>
<defs>
<linearGradient id="paint0_linear_29_5" x1="39.9998" y1="73.3334" x2="39.9998" y2="6.6667" gradientUnits="userSpaceOnUse">
<stop stop-color="#CB0177"/>
<stop offset="1" stop-color="#FF87C8"/>
</linearGradient>
</defs>
</svg>
