<svg width="80" height="80" viewBox="0 0 80 80" fill="none" xmlns="http://www.w3.org/2000/svg">
<circle cx="39.9997" cy="40.0002" r="31.8182" transform="rotate(-180 39.9997 40.0002)" fill="white"/>
<path d="M39.3333 36.6667L42.3333 33.6667C42.9444 33.0556 43.2499 32.2779 43.2499 31.3334C43.2499 30.389 42.9444 29.6112 42.3333 29.0001C41.7221 28.389 40.9444 28.0834 39.9999 28.0834C39.0555 28.0834 38.2777 28.389 37.6666 29.0001L28.9999 37.6667C28.3333 38.3334 27.9999 39.1112 27.9999 40.0001C27.9999 40.889 28.3333 41.6667 28.9999 42.3334L37.6666 51.0001C38.2777 51.6112 39.0555 51.9167 39.9999 51.9167C40.9444 51.9167 41.7221 51.6112 42.3333 51.0001C42.9444 50.389 43.2499 49.6112 43.2499 48.6667C43.2499 47.7223 42.9444 46.9445 42.3333 46.3334L39.3333 43.3334L49.9999 43.3334C50.9444 43.3334 51.7366 43.0134 52.3766 42.3734C53.0166 41.7334 53.3355 40.9423 53.3333 40.0001C53.3333 39.0556 53.0133 38.2634 52.3733 37.6234C51.7333 36.9834 50.9421 36.6645 49.9999 36.6667L39.3333 36.6667ZM6.66659 40.0001C6.66659 35.389 7.54214 31.0556 9.29325 27.0001C11.0444 22.9445 13.4188 19.4167 16.4166 16.4167C19.4166 13.4167 22.9444 11.0423 26.9999 9.29341C31.0555 7.54452 35.3888 6.66897 39.9999 6.66675C44.611 6.66675 48.9444 7.5423 52.9999 9.29341C57.0555 11.0445 60.5833 13.419 63.5833 16.4167C66.5833 19.4167 68.9577 22.9445 70.7066 27.0001C72.4555 31.0556 73.331 35.389 73.3333 40.0001C73.3333 44.6112 72.4577 48.9445 70.7066 53.0001C68.9555 57.0556 66.581 60.5834 63.5832 63.5834C60.5832 66.5834 57.0555 68.959 52.9999 70.7101C48.9444 72.4612 44.611 73.3356 39.9999 73.3334C35.3888 73.3334 31.0555 72.4579 26.9999 70.7067C22.9444 68.9556 19.4166 66.5812 16.4166 63.5834C13.4166 60.5834 11.041 57.0556 9.28992 53.0001C7.53881 48.9445 6.66436 44.6112 6.66659 40.0001Z" fill="url(#paint0_linear_29_9)"/>
<defs>
<linearGradient id="paint0_linear_29_9" x1="39.9999" y1="6.66675" x2="39.9999" y2="73.3334" gradientUnits="userSpaceOnUse">
<stop stop-color="#CB0177"/>
<stop offset="1" stop-color="#FF87C8"/>
</linearGradient>
</defs>
</svg>
