<svg width="50" height="50" viewBox="0 0 50 50" fill="none" xmlns="http://www.w3.org/2000/svg">
<circle cx="24.9999" cy="25.0001" r="19.8864" transform="rotate(-180 24.9999 25.0001)" fill="white"/>
<path d="M24.5832 22.9167L26.4582 21.0417C26.8402 20.6598 27.0312 20.1737 27.0312 19.5834C27.0312 18.9931 26.8402 18.507 26.4582 18.1251C26.0763 17.7431 25.5902 17.5522 24.9999 17.5522C24.4096 17.5522 23.9235 17.7431 23.5416 18.1251L18.1249 23.5417C17.7082 23.9584 17.4999 24.4445 17.4999 25.0001C17.4999 25.5556 17.7082 26.0417 18.1249 26.4584L23.5416 31.8751C23.9235 32.257 24.4096 32.448 24.9999 32.448C25.5902 32.448 26.0763 32.257 26.4582 31.8751C26.8402 31.4931 27.0312 31.007 27.0312 30.4168C27.0312 29.8265 26.8402 29.3404 26.4582 28.9584L24.5832 27.0834L31.2499 27.0834C31.8402 27.0834 32.3353 26.8834 32.7353 26.4834C33.1353 26.0834 33.3346 25.589 33.3333 25.0001C33.3333 24.4098 33.1332 23.9147 32.7332 23.5147C32.3332 23.1147 31.8388 22.9154 31.2499 22.9167L24.5832 22.9167ZM4.16658 25.0001C4.16658 22.1181 4.7138 19.4098 5.80825 16.8751C6.90269 14.3404 8.38672 12.1355 10.2603 10.2605C12.1353 8.3855 14.3402 6.90147 16.8749 5.80841C19.4096 4.71536 22.118 4.16814 24.9999 4.16675C27.8819 4.16675 30.5902 4.71397 33.1249 5.80841C35.6596 6.90286 37.8645 8.38689 39.7395 10.2605C41.6145 12.1355 43.0985 14.3404 44.1916 16.8751C45.2846 19.4098 45.8319 22.1181 45.8333 25.0001C45.8333 27.882 45.286 30.5904 44.1916 33.1251C43.0971 35.6598 41.6131 37.8647 39.7395 39.7397C37.8645 41.6147 35.6596 43.0994 33.1249 44.1938C30.5902 45.2883 27.8819 45.8348 24.9999 45.8334C22.118 45.8334 19.4096 45.2862 16.8749 44.1917C14.3402 43.0973 12.1353 41.6133 10.2603 39.7397C8.38533 37.8647 6.90061 35.6598 5.80617 33.1251C4.71172 30.5904 4.16519 27.882 4.16658 25.0001Z" fill="url(#paint0_linear_29_9)"/>
<defs>
<linearGradient id="paint0_linear_29_9" x1="24.9999" y1="4.16675" x2="24.9999" y2="45.8334" gradientUnits="userSpaceOnUse">
<stop stop-color="#CB0177"/>
<stop offset="1" stop-color="#FF87C8"/>
</linearGradient>
</defs>
</svg>
