<svg width="50" height="50" viewBox="0 0 50 50" fill="none" xmlns="http://www.w3.org/2000/svg">
<circle cx="24.9999" cy="25" r="19.8864" fill="white"/>
<path d="M25.4165 27.0834L23.5415 28.9584C23.1596 29.3403 22.9686 29.8264 22.9686 30.4167C22.9686 31.007 23.1596 31.4931 23.5415 31.875C23.9234 32.257 24.4096 32.448 24.9998 32.448C25.5901 32.448 26.0762 32.257 26.4582 31.875L31.8748 26.4584C32.2915 26.0417 32.4998 25.5556 32.4998 25C32.4998 24.4445 32.2915 23.9584 31.8748 23.5417L26.4582 18.125C26.0762 17.7431 25.5901 17.5521 24.9998 17.5521C24.4096 17.5521 23.9234 17.7431 23.5415 18.125C23.1596 18.507 22.9686 18.9931 22.9686 19.5834C22.9686 20.1736 23.1596 20.6598 23.5415 21.0417L25.4165 22.9167L18.7498 22.9167C18.1596 22.9167 17.6644 23.1167 17.2644 23.5167C16.8644 23.9167 16.6651 24.4111 16.6665 25C16.6665 25.5903 16.8665 26.0855 17.2665 26.4855C17.6665 26.8855 18.1609 27.0848 18.7498 27.0834L25.4165 27.0834ZM45.8332 25C45.8332 27.882 45.286 30.5903 44.1915 33.125C43.0971 35.6598 41.613 37.8646 39.7394 39.7396C37.8644 41.6146 35.6596 43.0986 33.1248 44.1917C30.5901 45.2848 27.8818 45.832 24.9998 45.8334C22.1179 45.8334 19.4096 45.2862 16.8748 44.1917C14.3401 43.0973 12.1353 41.6132 10.2603 39.7396C8.38525 37.8646 6.90123 35.6598 5.80817 33.125C4.71511 30.5903 4.16789 27.882 4.1665 25C4.1665 22.1181 4.71373 19.4098 5.80817 16.875C6.90261 14.3403 8.38664 12.1355 10.2603 10.2605C12.1353 8.38545 14.3401 6.90073 16.8748 5.80629C19.4096 4.71184 22.1179 4.16531 24.9998 4.1667C27.8818 4.1667 30.5901 4.71393 33.1248 5.80837C35.6596 6.90281 37.8644 8.38684 39.7394 10.2605C41.6144 12.1355 43.0991 14.3403 44.1936 16.875C45.288 19.4098 45.8346 22.1181 45.8332 25Z" fill="url(#paint0_linear_29_5)"/>
<defs>
<linearGradient id="paint0_linear_29_5" x1="24.9998" y1="45.8334" x2="24.9998" y2="4.1667" gradientUnits="userSpaceOnUse">
<stop stop-color="#CB0177"/>
<stop offset="1" stop-color="#FF87C8"/>
</linearGradient>
</defs>
</svg>
