<svg width="580" height="142" viewBox="0 0 580 142" fill="none" xmlns="http://www.w3.org/2000/svg">
<g clip-path="url(#clip0_34_309)">
<path d="M131.512 127.14H131.631L131.576 127.076L131.512 127.14Z" fill="#1E1E1C"/>
<path d="M104.312 38.4418L107.127 46.7157L130.1 23.7956L144.007 37.6627V26.5876L130.1 12.7205L104.312 38.4418Z" fill="#DF1683"/>
<path d="M144.006 111.525V94.578L135.516 103.056L144.006 111.525Z" fill="#FFCD00"/>
<path d="M0 111.525V94.578L8.49062 103.056L0 111.525Z" fill="#DF1683"/>
<path d="M85.1843 85.1354L83.7073 80.4791L79.0439 85.1354H85.1843Z" fill="#C2D500"/>
<path d="M109.765 54.4887L110.433 56.4552L112.617 62.7162L130.443 44.9348L144.006 58.468V47.4022L130.443 33.8597L109.765 54.4887Z" fill="#C2D500"/>
<path d="M54.6677 109.447H51.3235L49.8836 114.215L48.3044 119.455L45.9263 127.358H36.7204L22.4146 141.624L31.286 141.55H33.5805L65.7687 109.447H54.6677Z" fill="#C2D500"/>
<path d="M117.642 16.134L112.087 10.5965L99.2119 23.4432L102.027 31.7078L117.642 16.134Z" fill="#3CB4E5"/>
<path d="M76.3493 57.327L73.6739 48.914L68.9735 53.6075L64.0779 69.5616L76.3493 57.327Z" fill="#3CB4E5"/>
<path d="M132.117 118.695L144.007 130.558V119.492L126.199 101.73L132.117 118.695Z" fill="#3CB4E5"/>
<path d="M114.883 69.2277L117.744 77.4459L130.146 65.0722L142.482 77.3809L125.891 93.9379L131.437 99.4755L144.006 86.9348V67.827L130.146 53.9971L114.883 69.2277Z" fill="#004987"/>
<path d="M75.3743 109.447L43.1211 141.624L49.9675 141.55H54.2871L86.466 109.447H75.3743Z" fill="#004987"/>
<path d="M131.632 126.848H131.511L120.475 126.783L120.54 126.848H114.344L99.6018 141.55H103.791H110.703L122.993 129.297L135.283 141.55H144.006V139.185L131.632 126.848Z" fill="#DF1683"/>
<path d="M95.6082 118.695L92.9885 110.374L61.6736 141.624L71.2975 141.55H72.8396L94.3355 120.105L95.6082 118.695Z" fill="#FFCD00"/>
<path d="M98.1719 126.848L97.3544 124.223L79.918 141.615L87.1452 141.55H91.084L105.826 126.848H98.1719Z" fill="#3CB4E5"/>
<path d="M64.1811 -0.293167L49.2715 13.9449H55.7556H61.0599L75.3007 -0.256065L64.1811 -0.293167Z" fill="#C2D500"/>
<path d="M87.8334 -0.293167H82.7613L68.5112 13.9449H77.3084H79.6122L93.8252 -0.293167H87.8334Z" fill="#004987"/>
<path d="M104.859 -0.293167L101.022 -0.283891L86.7537 13.9449H95.9874L96.4705 15.327L112.068 -0.293167H104.859Z" fill="#DF1683"/>
<path d="M144.006 18.1746V13.7223L141.776 15.9484L144.006 18.1746Z" fill="#004987"/>
<path d="M122.409 10.986L130.203 3.21298L138.266 11.2642L143.821 5.72667L137.82 -0.256111H122.586L116.863 5.4484L122.409 10.986Z" fill="#3CB4E5"/>
<path d="M135.078 77.1028L129.523 71.5652L119.268 81.8055L122.129 90.0237L135.078 77.1028Z" fill="#FFCD00"/>
<path d="M39.9353 38.4418L37.1299 46.7157L14.1476 23.7956L0.241211 37.6627V26.5876L14.1476 12.7205L39.9353 38.4418Z" fill="#004987"/>
<path d="M34.4824 54.4887L33.8135 56.4552L31.6398 62.7162L13.8132 44.9348L0.241211 58.468V47.4022L13.8132 33.8597L34.4824 54.4887Z" fill="#3CB4E5"/>
<path d="M54.0105 -0.293167H43.1139L32.208 10.6428L32.1616 10.5964L26.6157 16.134L42.2314 31.7078L45.0368 23.4432L37.8375 16.2546L54.0105 -0.293167Z" fill="#3CB4E5"/>
<path d="M12.1411 118.695L0.241211 130.558V119.492L18.0492 101.73L12.1411 118.695Z" fill="#3CB4E5"/>
<path d="M29.3731 69.2277L26.5027 77.4459L14.1012 65.0722L1.76469 77.3809L18.3651 93.9379L12.8099 99.4755L0.241211 86.9348V67.827L14.1012 53.9971L29.3731 69.2277Z" fill="#C2D500"/>
<path d="M15.411 126.848H15.5317L26.5677 126.783L11.7695 141.55H3.03735H0.241211L15.411 126.848Z" fill="#DF1683"/>
<path d="M0.241211 18.1746V13.7223L2.47998 15.9484L0.241211 18.1746Z" fill="#3CB4E5"/>
<path d="M21.8401 10.986L14.0461 3.21298L5.98285 11.2642L0.437012 5.72667L6.42875 -0.256111H21.6728L27.3859 5.4484L21.8401 10.986Z" fill="#FFCD00"/>
<path d="M9.17822 77.1028L14.7241 71.5652L24.989 81.8055L22.1278 90.0237L9.17822 77.1028Z" fill="#004987"/>
<path d="M79.7128 67.9106L78.5237 64.1725L65.7042 76.9636L62.3321 80.3307L60.019 82.8073L59.3037 85.1355H68.296H68.6118L81.1991 72.5855L79.7128 67.9106Z" fill="#DF1683"/>
<path d="M118.822 141.624H128.055L123.215 136.495L118.822 141.624Z" fill="#C2D500"/>
<path d="M202.8 17.2604L220.338 63.62H207.9L205.605 57.0251H187.667L185.373 63.62H172.869L190.408 17.2604H202.781H202.8ZM201.88 46.5065L196.576 31.3594L191.336 46.5065H201.871H201.88Z" fill="white"/>
<path d="M222.372 75.2424V66.3007C224.007 67.3489 227.407 67.8683 230.091 67.8683C236.436 67.8683 239.381 64.7981 239.381 61.533V60.42H238.991C238.731 61.0043 235.656 64.2693 229.896 64.2693C222.242 64.2693 213.667 58.4628 213.667 46.6456C213.667 34.8285 222.242 29.0127 229.896 29.0127C235.656 29.0127 238.731 32.2777 238.991 32.862H239.381V29.662H250.705V60.5498C250.705 74.3241 239.771 77.1996 232.247 77.1996C228.782 77.1996 224.657 76.7451 222.362 75.2424M232.247 54.2795C236.306 54.2795 239.641 51.469 239.641 46.6364C239.641 41.8038 236.306 38.9932 232.247 38.9932C228.187 38.9932 224.787 41.8687 224.787 46.6364C224.787 51.404 228.252 54.2795 232.247 54.2795" fill="white"/>
<path d="M285.141 63.62H273.817V59.6408C271.857 62.3864 268.642 64.2786 264.128 64.2786C257.253 64.2786 251.494 60.0304 251.494 49.6509L251.559 29.6712H262.883L262.818 47.6938C262.818 51.2185 264.518 54.2888 268.382 54.2888C272.247 54.2888 273.817 51.2185 273.817 47.6938L273.882 29.6712H285.206L285.141 63.62V63.62Z" fill="white"/>
<path d="M284.418 46.6456C284.418 34.7636 292.927 29.0127 300.516 29.0127C306.471 29.0127 309.676 32.2777 309.945 32.862H310.14V29.662H321.464V63.62H310.14V60.42H309.945C309.685 61.0043 306.48 64.2693 300.516 64.2693C292.927 64.2693 284.418 58.5277 284.418 46.6456ZM302.941 54.2888C307.001 54.2888 310.4 51.4782 310.4 46.6456C310.4 41.813 307.001 39.0025 302.941 39.0025C298.881 39.0025 295.547 41.878 295.547 46.6456C295.547 51.4133 299.012 54.2888 302.941 54.2888Z" fill="white"/>
<path d="M320.35 54.4836L329.249 52.0719C329.704 53.2499 330.494 55.5317 333.504 55.5317C335.073 55.5317 336.383 54.8175 336.383 53.3798C336.383 52.6655 335.993 51.7472 334.228 51.2278L329.249 49.4005C323.62 47.4433 321.195 43.7145 321.195 39.3457C321.195 32.8157 327.15 29.0312 334.024 29.0312C340.898 29.0312 345.543 32.8157 346.658 38.5016L337.823 40.6536C337.108 38.0379 335.464 37.6483 334.488 37.6483C332.723 37.6483 332.129 38.8263 332.129 39.5405C332.129 40.3197 332.584 41.2379 334.553 41.7574L339.198 43.4548C342.468 44.503 347.512 47.0445 347.512 53.3798C347.512 60.2344 341.623 64.2786 333.699 64.2786C326.694 64.2786 321.399 61.1435 320.35 54.4836" fill="white"/>
<path d="M345.096 46.5807C345.096 35.0882 354.19 29.0126 363.359 29.0126C369.379 29.0126 374.618 31.7582 378.083 37.37L369.899 42.722C368.394 40.8298 366.295 39.1324 363.359 39.1324C359.43 39.1324 356.225 42.1377 356.225 46.5714C356.225 51.0052 359.43 54.1403 363.359 54.1403C366.304 54.1403 368.394 52.4429 369.899 50.5507L378.083 55.9027C374.618 61.3846 369.379 64.2601 363.359 64.2601C354.2 64.2601 345.096 58.1845 345.096 46.5621" fill="white"/>
<path d="M374.611 46.6456C374.611 34.7635 383.12 29.0126 390.71 29.0126C396.664 29.0126 399.869 32.2777 400.139 32.862H400.334V29.6619H411.658V63.62H400.334V60.4199H400.139C399.879 61.0043 396.674 64.2693 390.71 64.2693C383.12 64.2693 374.611 58.5277 374.611 46.6456ZM393.134 54.2887C397.194 54.2887 400.594 51.4782 400.594 46.6456C400.594 41.813 397.194 39.0025 393.134 39.0025C389.075 39.0025 385.74 41.8779 385.74 46.6456C385.74 51.4133 389.205 54.2887 393.134 54.2887Z" fill="white"/>
<path d="M423.834 17.2604H412.51V63.6201H423.834V17.2604Z" fill="white"/>
<path d="M436.004 29.6712H424.68V63.62H436.004V29.6712Z" fill="white"/>
<path d="M435.222 46.7106C435.222 35.218 443.861 29.0126 452.696 29.0126C461.53 29.0126 471.739 34.9583 469.389 51.0144H446.286C447.661 53.76 450.606 55.1236 454.535 55.1236C457.285 55.1236 459.774 54.6041 462.255 52.9067L467.234 58.1938C464.484 61.6536 459.709 64.2693 453.29 64.2693C443.731 64.2693 435.222 57.8691 435.222 46.7013M459.44 43.0467C458.65 39.8466 455.706 38.4089 452.826 38.4089C449.946 38.4089 447.066 39.8466 445.887 43.0467H459.431H459.44Z" fill="white"/>
<path d="M468.926 29.6712H480.25V33.6505C482.21 30.9049 485.424 29.0127 489.939 29.0127C496.813 29.0127 502.572 33.2609 502.572 43.6403V63.62H491.248V45.5975C491.248 42.0728 489.549 39.0025 485.684 39.0025C481.82 39.0025 480.25 42.0728 480.25 45.5975V63.62H468.926V29.6712V29.6712Z" fill="white"/>
<path d="M505.972 52.2574V38.548H500.798V29.6712H505.972V20.9892H517.296V29.6712H524.495V38.548H517.296V50.56C517.296 52.1275 518.215 54.0847 521.42 54.0847C522.21 54.0847 523.445 53.9548 524.625 53.5653V62.1174C523.315 63.5551 520.241 64.0096 517.686 64.0096C510.877 64.0096 505.972 60.7446 505.972 52.2574" fill="white"/>
<path d="M522.081 46.7106C522.081 35.2181 530.72 29.0127 539.555 29.0127C548.389 29.0127 558.598 34.9583 556.248 51.0145H533.145C534.52 53.7601 537.464 55.1236 541.394 55.1236C544.144 55.1236 546.633 54.6041 549.114 52.9067L554.093 58.1938C551.343 61.6536 546.568 64.2693 540.149 64.2693C530.59 64.2693 522.081 57.8692 522.081 46.7013M546.299 43.0467C545.509 39.8466 542.564 38.4089 539.685 38.4089C536.805 38.4089 533.925 39.8466 532.745 43.0467H546.29H546.299Z" fill="white"/>
<path d="M552.838 54.4836L561.737 52.0719C562.192 53.2499 562.982 55.5317 565.992 55.5317C567.562 55.5317 568.872 54.8175 568.872 53.3798C568.872 52.6655 568.481 51.7473 566.716 51.2278L561.737 49.4005C556.108 47.4434 553.683 43.7146 553.683 39.3457C553.683 32.8157 559.638 29.0312 566.512 29.0312C573.386 29.0312 578.031 32.8157 579.146 38.5016L570.311 40.6536C569.596 38.0379 567.952 37.6483 566.977 37.6483C565.212 37.6483 564.617 38.8263 564.617 39.5405C564.617 40.3197 565.072 41.238 567.042 41.7574L571.686 43.4548C574.956 44.503 580 47.0445 580 53.3798C580 60.2345 574.111 64.2786 566.187 64.2786C559.183 64.2786 553.888 61.1435 552.838 54.4836" fill="white"/>
<path d="M424.252 21.824C424.252 17.9747 427.197 15.4888 430.597 15.4888C433.997 15.4888 436.951 17.9654 436.951 21.824C436.951 25.6827 433.941 28.1593 430.597 28.1593C427.253 28.1593 424.252 25.6827 424.252 21.824Z" fill="white"/>
<path d="M254.571 101.675C254.571 101.118 254.655 100.719 255.128 99.8847C262.319 86.9081 265.858 78.4951 265.979 75.6382C265.979 75.3228 266.136 75.0816 266.935 74.9611C268.84 74.5993 276.476 74.488 278.185 74.488C279.374 74.488 280.294 76.1947 280.294 77.6603C280.294 78.458 280.015 79.2093 279.383 79.5618C278.269 79.5618 276.206 79.4412 275.249 79.4412C273.624 79.4412 272.388 79.5618 271.952 80.1925C271.153 81.3056 267.186 87.3718 267.186 87.8913C267.186 88.3272 267.502 88.522 267.902 88.522C268.7 88.522 270.688 88.522 270.958 88.5591C271.636 88.6426 272.268 89.867 272.268 90.943C272.268 91.7778 271.868 92.5662 270.837 92.6868C266.666 93.1598 263.879 94.041 263.879 94.041C263.322 94.5976 261.176 98.3635 261.176 99.2354C261.176 99.5879 261.492 99.7084 262.17 99.7084C263.721 99.7084 265.273 99.356 267.14 99.356C268.812 99.356 270.317 100.747 270.317 102.927C270.317 103.521 270.122 103.92 269.639 103.92C267.093 103.92 262.523 104.754 260.219 105.747C259.857 105.905 259.587 105.905 258.863 105.905C257.349 105.905 254.571 102.769 254.571 101.656V101.675Z" fill="white"/>
<path d="M272.09 100.525C272.09 95.9611 281.789 80.2481 283.219 76.5193C283.572 75.6103 284.455 75.4062 285.124 75.4062C286.313 75.4062 288.263 76.8718 288.263 78.226C288.263 78.5878 288.143 78.9403 287.985 79.1814C284.13 85.0158 278.286 94.3378 275.825 100.33C275.741 100.571 275.667 100.886 275.667 101.165C275.667 101.517 275.788 101.795 276.02 101.795C276.103 101.795 276.178 101.758 276.298 101.675C276.735 101.359 278.602 99.8104 280.47 97.4266C281.621 96.1187 285.514 91.314 286.229 90.3215C286.35 90.1638 286.424 90.0803 286.545 90.0803C286.907 90.0803 287.139 90.8316 287.139 90.8316C286.062 92.5383 283.684 95.8683 281.454 98.9293C280.182 100.673 277.961 103.53 276.447 104.801C276.094 105.116 275.648 105.274 275.295 105.274C273.586 105.274 272.072 102.333 272.072 100.515L272.09 100.525Z" fill="white"/>
<path d="M282.904 111.637C282.904 109.81 284.372 107.945 286.323 107.945C286.36 107.945 286.406 107.982 286.406 108.029C286.211 108.502 286.128 109.021 286.128 109.541C286.128 111.043 286.843 112.398 287.837 112.398C288.468 112.398 289.23 111.841 289.945 110.338C291.135 107.88 292.249 105.376 293.243 103.038C291.971 104.114 290.782 104.504 289.788 104.504C288.32 104.504 287.363 103.632 287.363 102.677C287.363 97.204 293.68 85.3312 296.783 85.3312C298.213 85.3312 300.201 86.6855 300.201 88.2252C300.201 88.6241 300.043 89.0971 299.727 89.496C301.195 89.6166 302.83 90.6462 302.83 92.1117C302.83 92.5477 302.709 92.9836 302.393 93.4567C299.532 97.8255 296.987 102.825 293.726 109.93C292.537 112.592 290.187 115.171 287.762 115.171C284.27 115.171 282.913 113.427 282.913 111.637H282.904ZM294.349 100.404C295.621 97.269 296.653 94.5697 297.331 92.9465C297.414 92.594 297.451 92.3158 297.451 92.1117C297.451 91.7592 297.331 91.6386 297.173 91.6386C295.547 91.6386 290.577 98.8644 290.577 101.48C290.577 101.638 290.856 101.879 291.413 101.879C292.045 101.879 293.002 101.564 294.358 100.413L294.349 100.404Z" fill="white"/>
<path d="M302.021 100.33C302.021 97.7884 304.882 92.2323 306.313 88.5035C306.675 87.5945 307.548 87.3904 308.217 87.3904C309.406 87.3904 311.199 88.6983 311.199 90.0525C311.199 90.405 311.078 90.7667 310.92 91.0079C308.022 95.3767 305.393 100.376 305.393 101.165C305.393 101.517 305.514 101.795 305.746 101.795C305.83 101.795 305.904 101.758 306.025 101.675C306.461 101.36 308.329 99.8105 310.196 97.4266C311.348 96.1188 315.24 91.314 315.955 90.3215C316.076 90.1638 316.15 90.0803 316.271 90.0803C316.633 90.0803 316.866 90.8317 316.866 90.8317C315.797 92.5384 313.41 95.8683 311.181 98.9293C309.908 100.673 307.688 103.53 306.173 104.801C305.82 105.116 305.458 105.237 305.096 105.237C303.424 105.237 301.993 102.139 301.993 100.311L302.021 100.33ZM308.821 83.7451C308.821 82.3537 310.447 80.0534 311.998 80.0534C313.782 80.0534 315.138 81.8343 315.138 82.8732C315.138 83.912 313.707 86.2866 312.63 86.2866C311.283 86.2866 308.812 84.9787 308.812 83.7451H308.821Z" fill="white"/>
<path d="M305.395 111.637C305.395 109.81 306.862 107.945 308.813 107.945C308.85 107.945 308.897 107.982 308.897 108.029C308.702 108.502 308.618 109.021 308.618 109.541C308.618 111.043 309.333 112.397 310.327 112.397C310.959 112.397 311.721 111.841 312.436 110.338C313.625 107.88 314.74 105.376 315.734 103.038C314.461 104.114 313.272 104.504 312.278 104.504C310.81 104.504 309.853 103.632 309.853 102.677C309.853 97.204 316.17 85.3312 319.273 85.3312C320.704 85.3312 322.692 86.6854 322.692 88.2251C322.692 88.624 322.534 89.0971 322.218 89.4959C323.686 89.6165 325.321 90.6461 325.321 92.1116C325.321 92.5476 325.2 92.9835 324.884 93.4566C322.023 97.8254 319.477 102.825 316.217 109.93C315.028 112.592 312.678 115.171 310.253 115.171C306.76 115.171 305.404 113.427 305.404 111.637H305.395ZM316.839 100.404C318.112 97.2689 319.143 94.5697 319.821 92.9464C319.905 92.594 319.942 92.3157 319.942 92.1116C319.942 91.7592 319.821 91.6386 319.663 91.6386C318.038 91.6386 313.068 98.8643 313.068 101.48C313.068 101.638 313.346 101.879 313.904 101.879C314.535 101.879 315.492 101.564 316.848 100.413L316.839 100.404Z" fill="white"/>
<path d="M323.47 102.667C323.47 97.1948 330.345 85.4796 333.447 85.4796C333.642 85.4796 333.847 85.5167 334.126 85.6373C334.999 85.9991 336.429 87.0658 336.429 88.253C336.429 88.6519 336.234 89.0878 335.835 89.4867C337.303 89.6073 338.975 90.674 338.975 92.1024C338.975 92.5384 338.854 92.9743 338.501 93.4474C337.265 95.0706 335.445 98.011 334.924 99.4766C334.609 100.348 334.488 100.905 334.488 101.304C334.488 101.777 334.683 101.981 334.924 101.981C335.203 101.981 335.556 101.74 335.881 101.424C336.281 101.063 337.786 99.2447 339.374 97.4174C340.526 96.1095 344.418 91.3047 345.134 90.3122C345.254 90.1545 345.329 90.0711 345.449 90.0711C345.802 90.0711 346.044 90.8224 346.044 90.8224C344.966 92.5291 342.625 95.8591 340.359 98.92C338.092 102.018 335.668 105.348 334.2 105.348C333.011 105.348 331.812 104.393 331.692 101.777C330.14 103.289 328.19 105.506 327 105.506C325.486 105.506 323.461 104.272 323.461 102.649L323.47 102.667ZM327.409 102.547C329.193 101.081 332.574 95.2469 333.094 93.8184C333.178 93.6607 333.178 93.503 333.178 93.3825C333.178 92.9465 332.862 92.5848 332.5 92.5848C331.19 92.5848 326.378 100.163 326.378 102.269C326.378 102.621 326.536 102.788 326.778 102.788C326.973 102.788 327.177 102.714 327.409 102.547Z" fill="white"/>
<path d="M338.661 102.584C338.661 99.727 344.904 85.8785 347.997 85.8785C348.991 85.8785 350.738 87.0287 350.738 88.2623C350.738 88.6983 350.543 89.1714 349.939 89.6537C348.908 90.5256 345.053 95.4881 345.053 96.1652C345.053 96.2394 345.09 96.2858 345.136 96.2858C345.972 96.2858 351.537 89.1435 353.209 88.4664C354.677 88.587 356.349 89.6537 356.349 91.0821C356.349 91.5181 356.228 91.954 355.875 92.4271C354.639 94.0503 352.819 96.9907 352.298 98.4563C351.983 99.3282 351.862 99.8847 351.862 100.284C351.862 100.757 352.057 100.961 352.298 100.961C353.209 100.961 355.16 98.5026 356.07 97.4267C357.222 96.1188 361.114 91.314 361.829 90.3215C361.95 90.1639 362.025 90.0804 362.145 90.0804C362.498 90.0804 362.74 90.8317 362.74 90.8317C361.662 92.5384 359.321 95.8684 357.055 98.9293C355.345 101.267 352.363 104.402 350.413 104.402C349.261 104.402 348.462 103.289 348.462 100.311C348.462 97.7699 349.214 96.7403 349.214 96.7403C348.694 96.7403 347.226 97.8905 346.195 99.1612C344.727 100.951 343.455 103.409 342.86 105.116C342.665 105.673 342.34 105.914 341.903 105.914C340.993 105.914 338.643 104.365 338.643 102.584H338.661Z" fill="white"/>
<path d="M356.338 101.397C356.338 99.0591 358.726 94.1338 361.224 89.4125C358.763 88.5777 358.438 87.2698 358.438 85.999C358.438 85.5631 358.679 85.4054 358.995 85.4054C359.71 85.4054 361.457 85.6466 363.25 85.6837C364.875 82.7433 366.231 80.211 366.752 78.8939C367.105 77.9849 367.987 77.7808 368.656 77.7808C369.845 77.7808 371.796 79.2464 371.796 80.6006C371.796 80.9531 371.675 81.3148 371.517 81.556C370.56 83.0216 369.492 84.5335 368.415 86.0825C369.288 86.7133 370.523 87.3533 370.523 88.1046C370.523 88.5406 370.282 88.6611 369.966 88.6982L366.269 89.1342C363.686 92.9001 361.178 96.7959 359.747 100.33C359.589 100.766 359.552 101.165 359.552 101.443C359.552 101.842 359.673 102.074 359.989 102.074C360.23 102.074 360.621 101.916 361.141 101.601C361.773 101.202 363.844 99.6528 365.59 97.4359C366.742 96.128 370.635 91.3233 371.35 90.3308C371.471 90.1731 371.545 90.0896 371.666 90.0896C372.028 90.0896 372.26 90.8409 372.26 90.8409C371.183 92.5476 368.805 95.8776 366.575 98.9385C365.303 100.682 362.72 103.586 361.169 104.81C360.853 105.051 360.537 105.163 360.138 105.163C358.465 105.163 356.32 103.178 356.32 101.397H356.338Z" fill="white"/>
<path d="M365.841 100.562C365.841 94.6068 371.489 85.7579 375.818 85.7579C377.174 85.7579 377.406 87.8635 378.605 88.6519C379.404 89.1713 380.908 89.3661 380.908 91.3882C380.908 93.2897 372.919 98.5675 369.501 100.358C369.417 100.914 369.38 101.471 369.38 101.981C369.38 102.853 369.78 103.372 370.653 103.372C373.393 103.372 376.533 100.478 379.199 97.4174C380.351 96.1095 384.243 91.3047 384.959 90.3122C385.079 90.1545 385.154 90.0711 385.274 90.0711C385.637 90.0711 385.869 90.8224 385.869 90.8224C384.791 92.5291 382.45 95.822 380.184 98.92C377.443 102.649 373.625 105.821 371.127 105.821C369.612 105.821 365.841 103.558 365.841 100.543V100.562ZM377.286 90.7946C377.165 90.7575 377.007 90.7111 376.886 90.7111C374.099 91.3882 371.442 94.5976 370.17 98.0574C375.019 94.7645 376.533 92.3065 377.286 90.7946V90.7946Z" fill="white"/>
<path d="M386.063 102.667C386.063 96.4341 392.622 87.7428 395.046 85.8042C395.483 85.5631 395.761 85.4889 396.04 85.4889C397.192 85.4889 398.344 86.6019 398.985 87.548C400.778 83.7821 402.32 80.2017 403.834 76.5193C404.187 75.6103 405.07 75.4062 405.738 75.4062C406.927 75.4062 408.878 76.8718 408.878 78.226C408.878 78.5878 408.758 78.9403 408.6 79.1814C404.308 84.8952 397.071 98.8272 397.071 101.322C397.071 101.795 397.266 101.999 397.508 101.999C397.787 101.999 398.14 101.758 398.465 101.443C398.864 101.081 400.369 99.2632 401.967 97.4359C403.119 96.128 407.011 91.3232 407.726 90.3307C407.847 90.1731 407.921 90.0896 408.042 90.0896C408.405 90.0896 408.637 90.8409 408.637 90.8409C407.559 92.5476 405.218 95.8776 402.952 98.9385C400.685 102.037 398.26 105.367 396.793 105.367C395.604 105.367 394.405 104.411 394.284 101.795C392.733 103.307 390.792 105.524 389.593 105.524C388.079 105.524 386.054 104.291 386.054 102.667H386.063ZM390.002 102.547C391.358 101.434 394.136 97.1112 395.604 94.4955L396.514 92.6311C396.551 92.5105 396.588 92.3899 396.588 92.2786C396.588 91.8427 396.272 91.4438 395.91 91.4438C394.6 91.4438 388.952 100.172 388.952 102.278C388.952 102.63 389.11 102.797 389.352 102.797C389.547 102.797 389.751 102.723 389.983 102.556L390.002 102.547Z" fill="white"/>
<path d="M402.284 100.562C402.284 94.6068 407.932 85.7579 412.261 85.7579C413.617 85.7579 413.849 87.8635 415.048 88.6519C415.847 89.1713 417.352 89.3661 417.352 91.3882C417.352 93.2897 409.363 98.5675 405.944 100.358C405.86 100.914 405.823 101.471 405.823 101.981C405.823 102.853 406.223 103.372 407.096 103.372C409.836 103.372 412.976 100.478 415.642 97.4174C416.794 96.1095 420.686 91.3047 421.402 90.3122C421.523 90.1545 421.597 90.0711 421.718 90.0711C422.08 90.0711 422.312 90.8224 422.312 90.8224C421.235 92.5291 418.894 95.8219 416.627 98.92C413.887 102.649 410.069 105.821 407.57 105.821C406.055 105.821 402.284 103.558 402.284 100.543V100.562ZM413.729 90.7946C413.608 90.7575 413.45 90.7111 413.329 90.7111C410.542 91.3882 407.886 94.5976 406.613 98.0574C411.462 94.7645 412.976 92.3065 413.729 90.7946V90.7946Z" fill="white"/>
<path d="M421.632 103.382C427.475 91.6294 434.907 77.5861 435.344 75.8793C435.622 74.8126 436.858 74.488 437.731 74.488C439.598 74.488 442.339 75.7959 442.339 77.7808C442.339 78.0962 442.264 78.458 442.097 78.8104L438.558 90.674C441.103 87.6594 449.408 74.9611 449.882 74.2005C450.16 73.7274 450.476 73.5697 450.876 73.5697C453.616 73.5697 455.808 76.2318 455.808 77.382C455.808 77.9385 455.725 77.855 455.056 79.2093C448.498 91.9076 446.593 96.6753 444.401 104.81C444.401 105.84 443.37 105.886 443.37 105.886C442.301 105.886 439.793 103.901 439.793 102.788C439.83 102.157 443.333 92.9094 446.194 85.0529C442.617 90.7296 437.369 100.135 436.616 101.285C436.421 101.601 436.143 101.721 435.864 101.721C434.508 101.721 432.566 98.9015 432.566 97.8348L435.669 87.4739C431.414 94.1802 427.364 102.083 426.008 105.292C425.729 105.923 425.413 106.044 425.097 106.044C424.14 106.044 421.642 104.532 421.642 103.382H421.632Z" fill="white"/>
<path d="M448.063 100.562C448.063 94.6068 453.711 85.7579 458.04 85.7579C459.396 85.7579 459.629 87.8635 460.827 88.6519C461.626 89.1713 463.131 89.3661 463.131 91.3882C463.131 93.2897 455.142 98.5675 451.723 100.358C451.64 100.914 451.603 101.471 451.603 101.981C451.603 102.853 452.002 103.372 452.875 103.372C455.616 103.372 458.755 100.478 461.422 97.4174C462.573 96.1095 466.466 91.3047 467.181 90.3122C467.302 90.1545 467.376 90.0711 467.497 90.0711C467.859 90.0711 468.091 90.8224 468.091 90.8224C467.014 92.5291 464.673 95.822 462.406 98.92C459.666 102.649 455.848 105.821 453.349 105.821C451.835 105.821 448.063 103.558 448.063 100.543V100.562ZM459.508 90.7946C459.387 90.7575 459.229 90.7111 459.108 90.7111C456.322 91.3882 453.665 94.5976 452.392 98.0574C457.241 94.7645 458.755 92.3065 459.508 90.7946V90.7946ZM459.861 84.4037C459.861 84.2831 460.019 84.1254 460.418 83.9677C463.475 82.734 463.242 78.8846 464.794 78.8846C466.503 78.8846 467.46 79.8771 467.46 81.0644C467.46 82.734 465.555 84.7561 461.375 84.7561C460.502 84.7561 459.861 84.6355 459.861 84.4037Z" fill="white"/>
<path d="M459.664 107.908C459.906 103.864 462.368 99.6157 465.266 95.7292C464.746 92.9465 464.513 90.3679 464.513 89.2641C464.513 87.6408 466.344 86.5278 467.737 86.5278C468.61 86.5278 469.363 86.9637 469.363 87.9933C469.363 88.587 469.325 89.5423 469.325 90.6925C470.793 88.9487 472.149 87.3162 473.264 85.8877C473.422 85.693 473.58 85.6095 473.738 85.6095C475.41 85.6095 476.404 87.8727 476.404 89.3012C476.404 90.136 475.884 90.4514 475.447 90.6925C474.295 91.4067 471.908 93.5123 469.446 96.2115C469.604 99.1519 470.041 101.693 471.072 101.693C471.508 101.378 473.376 99.829 475.243 97.4452C476.395 96.1373 480.287 91.3325 481.002 90.34C481.123 90.1824 481.197 90.0989 481.318 90.0989C481.671 90.0989 481.913 90.8502 481.913 90.8502C480.835 92.5569 478.457 95.8869 476.228 98.9478C474.955 100.692 472.725 103.549 471.221 104.819C470.905 105.098 470.589 105.172 470.264 105.172C468.471 105.172 467.161 102.788 466.251 99.8569C463.863 102.909 461.875 106.164 461.401 108.789C461.364 109.068 461.123 109.225 460.881 109.225C460.361 109.225 459.646 108.669 459.646 107.917L459.664 107.908Z" fill="white"/>
<path d="M475.8 100.33C475.8 97.7884 478.661 92.2323 480.092 88.5035C480.454 87.5945 481.327 87.3905 481.996 87.3905C483.185 87.3905 484.978 88.6983 484.978 90.0526C484.978 90.405 484.857 90.7668 484.699 91.0079C481.801 95.3768 479.172 100.376 479.172 101.165C479.172 101.517 479.293 101.796 479.525 101.796C479.609 101.796 479.683 101.758 479.804 101.675C480.24 101.36 482.108 99.8105 483.975 97.4267C485.127 96.1188 489.019 91.314 489.734 90.3216C489.855 90.1639 489.929 90.0804 490.05 90.0804C490.413 90.0804 490.645 90.8317 490.645 90.8317C489.576 92.5384 487.189 95.8684 484.96 98.9293C483.687 100.673 481.467 103.53 479.952 104.801C479.599 105.116 479.237 105.237 478.875 105.237C477.203 105.237 475.772 102.139 475.772 100.311L475.8 100.33ZM482.6 83.7451C482.6 82.3538 484.226 80.0534 485.777 80.0534C487.561 80.0534 488.917 81.8343 488.917 82.8732C488.917 83.9121 487.486 86.2867 486.409 86.2867C485.062 86.2867 482.591 84.9788 482.591 83.7451H482.6Z" fill="white"/>
<path d="M484.059 100.599C484.059 95.9982 489.503 88.4107 493.116 85.6744C493.516 85.359 493.952 85.2385 494.389 85.2385C496.34 85.2385 497.965 86.3886 497.965 88.3365C497.965 89.3661 498.959 89.8021 498.959 90.4792C498.959 90.674 498.876 90.878 498.681 91.1099C497.928 91.9818 495.346 95.6735 494.742 97.8533C494.658 98.0945 494.463 98.2058 494.222 98.2058C493.386 98.2058 491.881 96.8516 491.881 96.1002C491.881 95.7849 492.317 95.0706 492.317 94.8666C492.317 94.6254 492.196 94.5048 492.001 94.5048C490.654 94.5048 487.747 100.617 487.747 102.324C487.747 103.075 488.341 103.354 489.094 103.354C491.834 103.354 494.974 100.46 497.64 97.3988C498.792 96.0909 502.684 91.2862 503.4 90.2937C503.52 90.136 503.595 90.0525 503.715 90.0525C504.078 90.0525 504.31 90.8038 504.31 90.8038C503.232 92.5106 500.891 95.8034 498.625 98.9015C495.884 102.63 492.587 106.164 489.205 106.164C487.375 106.164 484.04 103.864 484.04 100.571L484.059 100.599Z" fill="white"/>
<path d="M497.018 101.554C497.018 95.6828 503.019 85.4796 506.038 85.4796C506.948 85.4796 507.543 86.7133 508.583 87.344C510.608 87.344 512.039 89.0136 512.039 90.3215C512.039 91.0357 510.887 93.5401 509.252 96.2765H509.335C510.45 96.2765 511.797 95.6828 513.07 94.2173C514.259 92.8259 515.968 90.9986 516.451 90.3308C516.572 90.1731 516.646 90.0896 516.767 90.0896C517.12 90.0896 517.362 90.8409 517.362 90.8409C516.646 91.9911 515.457 93.7813 514.305 95.4045C512.68 97.7049 510.487 98.7345 508.657 98.7345C508.341 98.7345 508.063 98.7345 507.784 98.6603C505.397 102.231 502.536 105.561 500.548 105.561C498.002 105.561 497.008 103.938 497.008 101.554H497.018ZM505.406 96.8701C505.211 96.4341 505.09 95.9147 505.09 95.3582C505.09 94.5234 505.285 93.5772 505.843 92.4642H505.722C504.013 92.4642 499.795 98.2985 499.795 102.862C499.795 103.215 499.953 103.382 500.195 103.382C501.272 103.382 503.892 99.8847 505.406 96.8701V96.8701Z" fill="white"/>
</g>
<defs>
<clipPath id="clip0_34_309">
<rect width="580" height="141.917" fill="white"/>
</clipPath>
</defs>
</svg>
