<svg width="1200" height="191" viewBox="0 0 1200 191" fill="none" xmlns="http://www.w3.org/2000/svg">
<g clip-path="url(#clip0_33_141)">
<path opacity="0.25" d="M1200 122.989L1200 76.6993C1152.21 54.4993 1096.41 44.5292 1042 48.6992C971.64 54.0692 905.67 82.0092 835.2 86.1992C761.36 90.5592 687.66 69.3192 617 50.9392C547.73 32.9392 478.7 26.0592 407.6 37.8592C371.45 43.8592 337.75 55.6992 303.15 67.1992C210.51 97.9892 87 137.279 4.58707e-06 70.5192L0 122.989L1200 122.989Z" fill="white"/>
<path opacity="0.5" d="M1200 122.989L1200 107.179C1187 86.0693 1172.36 66.1293 1152.31 50.9393C1100.59 11.7192 1035 11.9892 975.42 31.4092C944.27 41.5592 915.33 57.4792 885.75 71.2092C844.83 90.2092 801.02 117.209 754.92 120.879C718.66 123.729 684.02 111.459 656.32 89.3192C624.55 63.9292 594 27.3192 552.69 16.3192C512.25 5.5292 471.34 23.0092 433.56 40.5992C395.78 58.1892 358.4 79.5992 316.64 83.6492C256.91 89.4992 203.36 60.7692 147.74 44.8092C117.54 36.1492 88.74 38.6392 60.65 52.3092C38.22 63.1992 12.65 79.2392 1.87434e-06 101.549L0 122.989L1200 122.989Z" fill="white"/>
<path d="M1200 122.989L1200 117.359C1050.07 63.9892 885.91 51.6692 724.17 80.4192C681.17 88.0592 639.94 100.539 596.56 106.879C537.56 115.509 484.08 94.6392 431 71.4792C372.07 45.7692 314 27.7492 248.8 32.9892C162.27 39.9892 76.34 78.6992 4.53724e-07 117.799L0 122.989L1200 122.989Z" fill="white"/>
<rect y="123" width="1200" height="68" fill="white"/>
</g>
<defs>
<clipPath id="clip0_33_141">
<rect width="1200" height="191" fill="white"/>
</clipPath>
</defs>
</svg>
