<svg width="80" height="80" viewBox="0 0 80 80" fill="none" xmlns="http://www.w3.org/2000/svg">
<path d="M42.5281 8.30301L5.87305 16.3892L16.5518 65.5718L53.2068 57.4856L42.5281 8.30301Z" fill="white"/>
<path d="M16.5506 66.6023C16.3561 66.6023 16.1651 66.5473 15.9979 66.439C15.7693 66.2911 15.609 66.059 15.551 65.7907L4.87236 16.6109C4.75124 16.0538 5.10094 15.5036 5.65364 15.3832L42.3072 7.29664C42.5733 7.23817 42.8496 7.28804 43.0782 7.43591C43.3068 7.58378 43.4671 7.81591 43.5251 8.08415L54.2037 57.2657C54.3248 57.8228 53.9751 58.373 53.4224 58.4934L16.7689 66.58C16.6973 66.5954 16.6239 66.6023 16.5506 66.6023ZM7.08996 17.1766L17.3302 64.343L51.9844 56.6983L41.7442 9.53193L7.08996 17.1766Z" fill="#270089"/>
<path d="M15.6147 28.4877C15.1438 28.4877 14.7208 28.1593 14.615 27.6761C14.4939 27.119 14.8436 26.5688 15.3963 26.4484L38.0414 21.4534C38.5958 21.3313 39.14 21.6838 39.2594 22.2409C39.3805 22.798 39.0308 23.3483 38.4781 23.4686L15.8347 28.4636C15.7614 28.4791 15.688 28.4877 15.6147 28.4877Z" fill="#270089"/>
<path d="M16.4467 32.3238C15.9759 32.3238 15.5528 31.9954 15.4471 31.5122C15.326 30.9551 15.6756 30.4049 16.2283 30.2845L38.8734 25.2895C39.4261 25.1674 39.972 25.5199 40.0914 26.077C40.2125 26.6341 39.8628 27.1843 39.3101 27.3047L16.6667 32.2997C16.5934 32.3169 16.52 32.3238 16.4467 32.3238Z" fill="#270089"/>
<path d="M17.2814 36.1615C16.8106 36.1615 16.3875 35.8331 16.2818 35.35C16.1607 34.7928 16.5104 34.2426 17.0631 34.1223L39.7082 29.1273C40.2626 29.0052 40.8067 29.3577 40.9261 29.9148C41.0473 30.4719 40.6976 31.0221 40.1449 31.1425L17.5015 36.1375C17.4264 36.1529 17.3531 36.1615 17.2814 36.1615Z" fill="#270089"/>
<path d="M20.454 50.7752C19.9832 50.7752 19.5602 50.4468 19.4544 49.9637C19.3333 49.4066 19.683 48.8563 20.2357 48.736L42.8808 43.741C43.4335 43.6189 43.9793 43.9714 44.0987 44.5285C44.2199 45.0856 43.8702 45.6358 43.3175 45.7562L20.6741 50.7512C20.599 50.7666 20.5257 50.7752 20.454 50.7752Z" fill="#270089"/>
<path d="M25.6415 53.6398C25.1707 53.6398 24.7477 53.3114 24.6419 52.8282C24.5208 52.2711 24.8705 51.7209 25.4232 51.6005L39.3548 48.5279C39.9075 48.4058 40.4534 48.7583 40.5728 49.3154C40.6939 49.8725 40.3442 50.4227 39.7915 50.5431L25.8599 53.6157C25.7865 53.6312 25.7132 53.6398 25.6415 53.6398Z" fill="#270089"/>
<path d="M18.883 22.5126C18.4122 22.5126 17.9891 22.1841 17.8833 21.701C17.7622 21.1439 18.1119 20.5937 18.6646 20.4733L32.5963 17.4006C33.149 17.2785 33.6948 17.631 33.8142 18.1881C33.9354 18.7452 33.5857 19.2955 33.033 19.4158L19.103 22.4885C19.0297 22.5057 18.9546 22.5126 18.883 22.5126Z" fill="#270089"/>
<path d="M60.0444 15.64L23.3894 23.7261L34.0681 72.9087L70.7231 64.8226L60.0444 15.64Z" fill="white"/>
<path d="M34.0667 73.9379C33.8722 73.9379 33.6812 73.8829 33.514 73.7746C33.2854 73.6267 33.1251 73.3946 33.0671 73.1264L22.3885 23.9448C22.2674 23.3877 22.6171 22.8375 23.1698 22.7171L59.8233 14.6306C60.0894 14.5721 60.3657 14.622 60.5943 14.7698C60.8229 14.9177 60.9832 15.1498 61.0412 15.4181L71.7198 64.5996C71.841 65.1567 71.4913 65.7069 70.9386 65.8273L34.285 73.9139C34.2134 73.9311 34.14 73.9379 34.0667 73.9379ZM24.6078 24.5123L34.848 71.6786L69.5022 64.0339L59.2603 16.8676L24.6078 24.5123Z" fill="#270089"/>
<path d="M33.1303 35.8246C32.6595 35.8246 32.2364 35.4961 32.1307 35.013C32.0095 34.4559 32.3592 33.9056 32.9119 33.7853L55.557 28.7903C56.1097 28.6682 56.6556 29.0207 56.775 29.5778C56.8961 30.1349 56.5464 30.6851 55.9937 30.8055L33.3486 35.8005C33.277 35.816 33.2036 35.8246 33.1303 35.8246Z" fill="#270089"/>
<path d="M33.9643 39.6607C33.4935 39.6607 33.0704 39.3323 32.9646 38.8491C32.8435 38.292 33.1932 37.7418 33.7459 37.6214L56.391 32.6264C56.9454 32.5043 57.4896 32.8568 57.609 33.4139C57.7301 33.971 57.3804 34.5212 56.8277 34.6416L34.1826 39.6366C34.1093 39.6538 34.0359 39.6607 33.9643 39.6607Z" fill="#270089"/>
<path d="M34.797 43.4985C34.3262 43.4985 33.9032 43.1701 33.7974 42.6869C33.6763 42.1298 34.026 41.5796 34.5787 41.4592L57.2238 36.4642C57.7765 36.3421 58.3224 36.6946 58.4418 37.2517C58.5629 37.8088 58.2132 38.3591 57.6605 38.4794L35.0154 43.4744C34.9437 43.4916 34.8687 43.4985 34.797 43.4985Z" fill="#270089"/>
<path d="M37.9696 58.1122C37.4988 58.1122 37.0758 57.7837 36.97 57.3006C36.8489 56.7435 37.1986 56.1932 37.7513 56.0729L60.3964 51.0779C60.9491 50.9558 61.495 51.3083 61.6144 51.8654C61.7355 52.4225 61.3858 52.9727 60.8331 53.0931L38.188 58.0881C38.1146 58.1036 38.0413 58.1122 37.9696 58.1122Z" fill="#270089"/>
<path d="M43.1571 60.9767C42.6863 60.9767 42.2633 60.6483 42.1575 60.1652C42.0364 59.6081 42.3861 59.0578 42.9388 58.9375L56.8704 55.8648C57.4231 55.7427 57.969 56.0952 58.0884 56.6523C58.2095 57.2094 57.8598 57.7596 57.3071 57.88L43.3755 60.9527C43.3021 60.9681 43.2288 60.9767 43.1571 60.9767Z" fill="#270089"/>
<path d="M36.3986 29.8495C35.9278 29.8495 35.5047 29.5211 35.399 29.0379C35.2779 28.4808 35.6276 27.9306 36.1802 27.8102L50.1119 24.7375C50.6646 24.6155 51.2105 24.9679 51.3299 25.5251C51.451 26.0822 51.1013 26.6324 50.5486 26.7527L36.6169 29.8254C36.5453 29.8426 36.4702 29.8495 36.3986 29.8495Z" fill="#270089"/>
<path d="M59.5501 56.7727C65.5354 56.7727 70.3874 51.882 70.3874 45.849C70.3874 39.816 65.5354 34.9253 59.5501 34.9253C53.5649 34.9253 48.7129 39.816 48.7129 45.849C48.7129 51.882 53.5649 56.7727 59.5501 56.7727Z" fill="white"/>
<path d="M59.5502 57.8043C53.01 57.8043 47.6895 52.4414 47.6895 45.849C47.6895 39.2566 53.01 33.8936 59.5502 33.8936C66.0904 33.8936 71.411 39.2566 71.411 45.849C71.411 52.4414 66.0904 57.8043 59.5502 57.8043ZM59.5502 35.957C54.1393 35.957 49.7365 40.3949 49.7365 45.849C49.7365 51.3031 54.1393 55.741 59.5502 55.741C64.9611 55.741 69.3639 51.3031 69.3639 45.849C69.3639 40.3949 64.9611 35.957 59.5502 35.957Z" fill="#270089"/>
<path d="M59.7209 52.6477C59.6799 52.6477 59.6373 52.646 59.5964 52.6443C58.8202 52.6013 58.1191 52.168 57.7285 51.4905L53.5031 44.1433C52.8651 43.0343 53.2404 41.614 54.3406 40.9709C55.4409 40.3278 56.8499 40.7061 57.4879 41.8152L59.9478 46.0949L69.9696 32.353C70.7236 31.3196 72.165 31.0978 73.1885 31.8578C74.2138 32.6178 74.4338 34.0708 73.6798 35.1024L61.5751 51.7003C61.1401 52.297 60.4493 52.6477 59.7209 52.6477Z" fill="#F154A9"/>
<path d="M73.189 31.8578C72.1638 31.0978 70.7224 31.3196 69.9701 32.353L61.678 43.7221C61.8042 46.468 61.8929 49.2123 61.4102 51.8998C61.4682 51.8362 61.5227 51.7708 61.5756 51.7003L73.6803 35.1024C74.4343 34.0708 74.2142 32.6178 73.189 31.8578Z" fill="#FEE478"/>
<path d="M59.7211 53.6794C59.6614 53.6794 59.6017 53.6777 59.5437 53.6742C58.4161 53.6123 57.408 52.9899 56.8433 52.0081L52.6179 44.6609C52.1727 43.8854 52.0533 42.9827 52.2802 42.1178C52.5088 41.2529 53.058 40.5273 53.8257 40.0785C54.5933 39.6297 55.4906 39.5077 56.3486 39.7381C57.2067 39.9685 57.9248 40.5221 58.3718 41.2976L60.0486 44.2138L69.1442 31.7426C70.2308 30.2536 72.3171 29.932 73.7943 31.0273C74.5108 31.5569 74.9782 32.3375 75.1129 33.223C75.2477 34.1086 75.0311 34.9941 74.504 35.7145L62.3993 52.3124C61.7766 53.1687 60.7736 53.6794 59.7211 53.6794ZM55.4923 41.6896C55.2705 41.6896 55.0505 41.7481 54.8526 41.8633C54.5575 42.037 54.346 42.3155 54.2573 42.6474C54.1686 42.9792 54.2146 43.3283 54.3869 43.6257L58.6123 50.973C58.8289 51.3513 59.2179 51.5903 59.6494 51.6143C59.6716 51.6161 59.6955 51.616 59.7194 51.616C60.1254 51.616 60.5092 51.42 60.7497 51.0899L72.8544 34.492C73.0574 34.2152 73.1393 33.8747 73.0881 33.5343C73.0369 33.1938 72.8561 32.8946 72.5815 32.69C72.0134 32.2688 71.21 32.3926 70.792 32.9651L59.8439 47.976L56.5977 42.3327C56.4271 42.0353 56.149 41.822 55.8198 41.7326C55.7141 41.7034 55.6032 41.6896 55.4923 41.6896Z" fill="#270089"/>
</svg>
