<svg width="80" height="80" viewBox="0 0 80 80" fill="none" xmlns="http://www.w3.org/2000/svg">
<rect x="8.66675" y="20.6667" width="64" height="40.6667" rx="3" fill="white"/>
<path d="M67.739 24.0033H59.4379C56.4116 33.8096 47.8478 40.6111 39.086 45.2254C34.5281 47.6256 29.7215 49.5456 24.8249 51.136C23.49 51.5694 11.8301 55.0342 11.8301 53.8886V56.7653C11.8301 57.7386 12.6206 58.5281 13.5951 58.5281H67.739C68.7135 58.5281 69.5041 57.7386 69.5041 56.7653V25.7648C69.5028 24.7916 68.7135 24.0033 67.739 24.0033Z" fill="#F154A9"/>
<path d="M67.739 24.0033C66.2975 24.0033 64.8383 23.945 63.4057 24.0413C63.3423 31.9112 62.4731 39.0156 57.8556 45.7512C53.686 51.8317 47.3795 56.4193 40.3054 58.5141C42.7569 57.7816 46.5294 58.5281 49.1446 58.5281C51.8981 58.5281 54.6516 58.5281 57.4051 58.5281C60.8502 58.5281 64.2939 58.5281 67.739 58.5281C68.7135 58.5281 69.504 57.7386 69.504 56.7653V25.7648C69.5028 24.7915 68.7135 24.0033 67.739 24.0033Z" fill="#FEE478"/>
<path d="M69.9255 62.8394H11.4064C9.16047 62.8394 7.33325 61.0145 7.33325 58.7714V23.4013C7.33325 21.1582 9.16047 19.3333 11.4064 19.3333H69.9255C72.1714 19.3333 73.9986 21.1582 73.9986 23.4013V58.7714C73.9999 61.0145 72.1727 62.8394 69.9255 62.8394ZM11.4064 20.9808C10.0703 20.9808 8.98282 22.0669 8.98282 23.4013V58.7714C8.98282 60.1059 10.0703 61.1919 11.4064 61.1919H69.9255C71.2616 61.1919 72.3491 60.1059 72.3491 58.7714V23.4013C72.3491 22.0669 71.2616 20.9808 69.9255 20.9808H11.4064Z" fill="#270089"/>
<path d="M68.2535 59.3519H13.0805C11.936 59.3519 11.0059 58.4217 11.0059 57.2798V25.2516C11.0059 24.1085 11.936 23.1796 13.0805 23.1796H68.2535C69.398 23.1796 70.3281 24.1085 70.3281 25.2516V57.2786C70.3281 58.4217 69.398 59.3519 68.2535 59.3519ZM13.0805 24.827C12.8458 24.827 12.6554 25.0171 12.6554 25.2516V57.2786C12.6554 57.513 12.8458 57.7031 13.0805 57.7031H68.2535C68.4882 57.7031 68.6786 57.513 68.6786 57.2786V25.2516C68.6786 25.0171 68.4882 24.827 68.2535 24.827H13.0805Z" fill="#270089"/>
<path d="M48.9049 62.1057H32.427V66.6667H48.9049V62.1057Z" fill="#270089"/>
<path d="M26.5254 46.8108H18.6836V41.7175C18.6836 40.1854 19.9271 38.9434 21.4612 38.9434H23.7478C25.2819 38.9434 26.5254 40.1854 26.5254 41.7175V46.8108Z" fill="#270089"/>
<path d="M22.6046 38.7026C23.8372 38.7026 24.8365 37.7046 24.8365 36.4734C24.8365 35.2423 23.8372 34.2443 22.6046 34.2443C21.3719 34.2443 20.3726 35.2423 20.3726 36.4734C20.3726 37.7046 21.3719 38.7026 22.6046 38.7026Z" fill="#270089"/>
<path d="M25.66 47.7689H19.9106C17.8867 47.7689 16.241 46.1252 16.241 44.1039V35.7106C16.241 33.6893 17.8867 32.0456 19.9106 32.0456H25.6613C27.6852 32.0456 29.3309 33.6893 29.3309 35.7106V44.1039C29.3309 46.1252 27.6839 47.7689 25.66 47.7689ZM19.9106 33.3129C18.5872 33.3129 17.5099 34.3888 17.5099 35.7106V44.1039C17.5099 45.4257 18.5872 46.5016 19.9106 46.5016H25.6613C26.9847 46.5016 28.062 45.4257 28.062 44.1039V35.7106C28.062 34.3888 26.9847 33.3129 25.6613 33.3129H19.9106Z" fill="#270089"/>
<path d="M62.4581 33.9503H34.6959C34.2403 33.9503 33.8711 33.5815 33.8711 33.1265C33.8711 32.6716 34.2403 32.3028 34.6959 32.3028H62.4581C62.9137 32.3028 63.2829 32.6716 63.2829 33.1265C63.2829 33.5815 62.9137 33.9503 62.4581 33.9503Z" fill="#270089"/>
<path d="M62.4581 40.7468H34.6959C34.2403 40.7468 33.8711 40.378 33.8711 39.923C33.8711 39.4681 34.2403 39.0993 34.6959 39.0993H62.4581C62.9137 39.0993 63.2829 39.4681 63.2829 39.923C63.2829 40.378 62.9137 40.7468 62.4581 40.7468Z" fill="#270089"/>
<path d="M62.4581 47.5445H34.6959C34.2403 47.5445 33.8711 47.1757 33.8711 46.7208C33.8711 46.2658 34.2403 45.897 34.6959 45.897H62.4581C62.9137 45.897 63.2829 46.2658 63.2829 46.7208C63.2829 47.1757 62.9137 47.5445 62.4581 47.5445Z" fill="#270089"/>
</svg>
