<svg width="80" height="80" viewBox="0 0 80 80" fill="none" xmlns="http://www.w3.org/2000/svg">
<path d="M6.16016 12.8644L8.80021 10.0119H69.936L72.8534 10.8546L73.8403 13.5128V59.5428L73.2424 62.136L70.6282 63.8864H10.9396L8.28159 63.1733L6.16016 60.1263V12.8644Z" fill="white"/>
<path d="M69.4154 64.7103H10.5847C7.87219 64.7103 5.60566 62.6428 5.33337 60.0011L5.33503 13.5812C5.50997 10.8255 7.81589 8.66669 10.5847 8.66669H69.4154C72.1842 8.66669 74.4901 10.8255 74.665 13.5812L74.6667 13.6337V60.0011C74.3944 62.6428 72.1278 64.7103 69.4154 64.7103ZM6.98657 58.3479L6.99493 59.2269C6.98919 59.3172 6.98657 59.3909 6.98657 59.459C6.98657 61.4429 8.60067 63.0571 10.5847 63.0571H69.4154C71.3994 63.0571 73.0135 61.4429 73.0135 59.459C73.0135 59.3909 73.0109 59.3172 73.0051 59.2269L73.0135 58.3479V13.6612C72.8815 11.7855 71.3058 10.3199 69.4154 10.3199H10.5847C8.69432 10.3199 7.11863 11.7855 6.98657 13.6612V58.3479Z" fill="#270089"/>
<path d="M73.8403 19.184H6.16016V20.8372H73.8403V19.184Z" fill="#270089"/>
<path d="M67.9052 17.2391C66.4038 17.2391 65.1823 16.0176 65.1823 14.5162C65.1823 13.0148 66.4038 11.7933 67.9052 11.7933C69.4066 11.7933 70.6281 13.0148 70.6281 14.5162C70.6281 16.0176 69.4066 17.2391 67.9052 17.2391ZM67.9052 13.4465C67.3154 13.4465 66.8354 13.9264 66.8354 14.5162C66.8354 15.106 67.3154 15.5859 67.9052 15.5859C68.495 15.5859 68.9749 15.106 68.9749 14.5162C68.9749 13.9264 68.4951 13.4465 67.9052 13.4465Z" fill="#270089"/>
<path d="M60.8062 16.6556C59.6265 16.6556 58.6667 15.6958 58.6667 14.5161C58.6667 13.3364 59.6265 12.3767 60.8062 12.3767C61.9859 12.3767 62.9456 13.3364 62.9456 14.5161C62.9456 15.6958 61.9859 16.6556 60.8062 16.6556ZM60.8062 14.0299C60.5381 14.0299 60.3199 14.248 60.3199 14.5161C60.3199 14.7842 60.5381 15.0024 60.8062 15.0024C61.0743 15.0024 61.2924 14.7842 61.2924 14.5161C61.2924 14.248 61.0743 14.0299 60.8062 14.0299Z" fill="#270089"/>
<path d="M43.9352 39.2991L43.5625 68.7748L50.561 62.0495L53.968 70.8702L57.6139 69.462L54.2975 60.8765L63.9088 60.9155L43.9352 39.2991Z" fill="#F154A9"/>
<path d="M59.0065 60.896L63.7986 60.9155L43.8251 39.2991L43.6731 51.3219C44.7791 50.9853 45.9526 50.8036 47.1686 50.8036C53.1442 50.8036 58.098 55.1762 59.0065 60.896Z" fill="#FEE478"/>
<path d="M53.968 71.9418C53.82 71.9418 53.6721 71.9112 53.5341 71.8501C53.2742 71.735 53.0706 71.5215 52.9684 71.2563L50.1419 63.9387L44.3051 69.5476C43.9938 69.847 43.5326 69.9299 43.1364 69.7582C42.74 69.5863 42.4855 69.1933 42.4909 68.7613L42.8637 39.2856C42.8692 38.8467 43.1415 38.4559 43.551 38.2986C43.9608 38.1412 44.4247 38.2496 44.7223 38.5718L64.6958 60.1883C64.9853 60.5016 65.0613 60.9567 64.8896 61.3472C64.7184 61.7363 64.3334 61.9873 63.9087 61.9873C63.9071 61.9873 63.9058 61.9873 63.9044 61.9873L55.8627 61.9547L58.6135 69.076C58.7159 69.3411 58.7087 69.636 58.5937 69.896C58.4786 70.1558 58.2651 70.3594 57.9999 70.4617L54.3541 71.87C54.2297 71.9179 54.0989 71.9418 53.968 71.9418ZM50.561 60.9779C50.6383 60.9779 50.716 60.9863 50.7931 61.0033C51.1434 61.0811 51.4314 61.3289 51.5607 61.6635L54.5815 69.4844L56.2281 68.8484L53.2979 61.2626C53.1702 60.9323 53.214 60.5603 53.415 60.2686C53.6149 59.9782 53.9449 59.8048 54.2975 59.8048C54.299 59.8048 54.3003 59.8048 54.3017 59.8048L61.4503 59.8338L44.9728 42.0011L44.6665 66.2276L49.8185 61.2769C50.02 61.0831 50.287 60.9779 50.561 60.9779Z" fill="#270089"/>
<path d="M42.26 36.0146C41.834 36.0146 41.4312 35.759 41.264 35.3393L39.499 30.9082C39.28 30.3584 39.5482 29.7351 40.098 29.5161C40.6479 29.2968 41.2712 29.5652 41.4901 30.1151L43.2551 34.5461C43.4741 35.0959 43.206 35.7192 42.6562 35.9382C42.5262 35.99 42.3919 36.0146 42.26 36.0146Z" fill="#270089"/>
<path d="M39.6626 38.9368C39.5213 38.9368 39.3776 38.9088 39.2395 38.8495L34.8581 36.9642C34.3144 36.7304 34.0634 36.0999 34.2972 35.5562C34.531 35.0126 35.1616 34.7615 35.7052 34.9953L40.0866 36.8804C40.6303 37.1143 40.8814 37.7447 40.6474 38.2884C40.473 38.6941 40.0779 38.9368 39.6626 38.9368Z" fill="#270089"/>
<path d="M46.3027 35.9403C46.1614 35.9403 46.0176 35.9122 45.8796 35.8529C45.3358 35.619 45.0848 34.9885 45.3187 34.4448L47.2038 30.0636C47.4376 29.5199 48.0685 29.2688 48.6119 29.5027C49.1556 29.7365 49.4066 30.367 49.1727 30.9106L47.2876 35.2919C47.1131 35.6976 46.7178 35.9403 46.3027 35.9403Z" fill="#270089"/>
<path d="M49.1414 38.8078C48.7155 38.8078 48.3127 38.5521 48.1455 38.1323C47.9265 37.5825 48.1946 36.9592 48.7444 36.7403L53.1754 34.9753C53.7253 34.7559 54.3485 35.0245 54.5675 35.5743C54.7865 36.1241 54.5184 36.7473 53.9686 36.9663L49.5375 38.7315C49.4075 38.7831 49.2733 38.8078 49.1414 38.8078Z" fill="#270089"/>
<path d="M35.6354 44.9052C35.2095 44.9052 34.8067 44.6496 34.6395 44.2298C34.4204 43.68 34.6886 43.0567 35.2385 42.8378L39.6694 41.0728C40.2193 40.8536 40.8425 41.122 41.0616 41.6716C41.2806 42.2214 41.0124 42.8447 40.4626 43.0638L36.0316 44.8288C35.9017 44.8806 35.7673 44.9052 35.6354 44.9052Z" fill="#270089"/>
</svg>
