<svg width="80" height="80" viewBox="0 0 80 80" fill="none" xmlns="http://www.w3.org/2000/svg">
<path d="M66.4503 67.2257H27.2148V12.5187H56.4828C61.9875 12.5187 66.4503 16.985 66.4503 22.4939V67.2257Z" fill="white"/>
<path d="M66.45 68.1081H27.6877C27.2013 68.1081 26.806 67.7125 26.806 67.2257V12.2157C26.806 11.7289 27.2013 11.3333 27.6877 11.3333H55.6992C62.1135 11.3333 67.3332 16.5555 67.3332 22.9762V67.2257C67.3317 67.7125 66.9364 68.1081 66.45 68.1081ZM28.5694 66.3433H65.5683V22.9762C65.5683 17.5291 61.1407 13.0981 55.6977 13.0981H28.5679V66.3433H28.5694Z" fill="#270089"/>
<path d="M65.4981 22.6378C65.4922 22.6378 65.4863 22.6378 65.4804 22.6378L57.5378 22.479C57.097 22.4702 56.7296 22.1363 56.6797 21.6981L55.726 13.4303C55.6701 12.9464 56.0169 12.5082 56.5004 12.4523C56.9853 12.395 57.4217 12.7435 57.4776 13.2273L58.3416 20.729L65.5157 20.8731C66.0021 20.8834 66.39 21.2863 66.3798 21.7731C66.3695 22.254 65.9757 22.6378 65.4981 22.6378Z" fill="#270089"/>
<path d="M61.0481 27.0896H32.4533C31.9669 27.0896 31.5716 26.694 31.5716 26.2073C31.5716 25.7205 31.9669 25.3249 32.4533 25.3249H61.0481C61.5345 25.3249 61.9298 25.7205 61.9298 26.2073C61.9298 26.694 61.536 27.0896 61.0481 27.0896Z" fill="#270089"/>
<path d="M61.0481 32.8133H32.4533C31.9669 32.8133 31.5716 32.4177 31.5716 31.9309C31.5716 31.4441 31.9669 31.0485 32.4533 31.0485H61.0481C61.5345 31.0485 61.9298 31.4441 61.9298 31.9309C61.9298 32.4177 61.536 32.8133 61.0481 32.8133Z" fill="#270089"/>
<path d="M61.0481 38.5354H32.4533C31.9669 38.5354 31.5716 38.1398 31.5716 37.6531C31.5716 37.1663 31.9669 36.7707 32.4533 36.7707H61.0481C61.5345 36.7707 61.9298 37.1663 61.9298 37.6531C61.9298 38.1413 61.536 38.5354 61.0481 38.5354Z" fill="#270089"/>
<path d="M61.0481 44.259H32.4533C31.9669 44.259 31.5716 43.8635 31.5716 43.3767C31.5716 42.8899 31.9669 42.4943 32.4533 42.4943H61.0481C61.5345 42.4943 61.9298 42.8899 61.9298 43.3767C61.9298 43.8649 61.536 44.259 61.0481 44.259Z" fill="#270089"/>
<path d="M61.0481 56.9786H51.1981C50.7117 56.9786 50.3164 56.583 50.3164 56.0962C50.3164 55.6095 50.7117 55.2139 51.1981 55.2139H61.0481C61.5345 55.2139 61.9298 55.6095 61.9298 56.0962C61.9298 56.583 61.536 56.9786 61.0481 56.9786Z" fill="#270089"/>
<path d="M37.0909 67.2256H18.2829C15.6672 67.2256 13.5482 65.1035 13.5482 62.4873V34.1249C13.5482 31.5072 15.6687 29.3866 18.2829 29.3866H37.0909C39.7066 29.3866 41.8257 31.5087 41.8257 34.1249V62.4858C41.8257 65.1035 39.7066 67.2256 37.0909 67.2256Z" fill="#F154A9"/>
<path d="M36.7077 29.3866H35.7775C35.779 29.3895 35.7819 29.391 35.7848 29.3939C43.5908 38.2765 39.6863 56.943 28.3595 60.7151C27.2383 61.0887 13.6881 63.3049 13.6543 63.1417C14.1348 65.4726 16.1965 67.2241 18.6667 67.2241H36.7062C39.5335 67.2241 41.8245 64.9299 41.8245 62.1019V34.5087C41.8259 31.6793 39.535 29.3866 36.7077 29.3866Z" fill="#FEE478"/>
<path d="M37.0912 68.1079H18.2831C15.1854 68.1079 12.6667 65.5858 12.6667 62.4872V34.1248C12.6667 31.0247 15.1869 28.5041 18.2831 28.5041H37.0912C40.1889 28.5041 42.7076 31.0262 42.7076 34.1248V62.4857C42.7076 65.5858 40.1889 68.1079 37.0912 68.1079ZM18.2831 30.2688C16.1582 30.2688 14.4301 31.9983 14.4301 34.1248V62.4857C14.4301 64.6122 16.1582 66.3417 18.2831 66.3417H37.0912C39.2161 66.3417 40.9442 64.6122 40.9442 62.4857V34.1248C40.9442 31.9983 39.2161 30.2688 37.0912 30.2688H18.2831V30.2688Z" fill="#270089"/>
<path d="M37.3778 34.3145H17.8379V41.6278H37.3778V34.3145Z" fill="white"/>
<path d="M37.3779 42.5104H17.8381C17.3517 42.5104 16.9564 42.1148 16.9564 41.6281V34.3147C16.9564 33.8279 17.3517 33.4323 17.8381 33.4323H37.3779C37.8643 33.4323 38.2596 33.8279 38.2596 34.3147V41.6281C38.2596 42.1163 37.8658 42.5104 37.3779 42.5104ZM18.7198 40.7457H36.4962V35.1971H18.7198V40.7457Z" fill="#270089"/>
<path d="M24.189 45.7624H18.2214V50.8493H24.189V45.7624Z" fill="white"/>
<path d="M24.1892 51.7313H18.2215C17.7351 51.7313 17.3398 51.3357 17.3398 50.849V45.7621C17.3398 45.2753 17.7351 44.8797 18.2215 44.8797H24.1892C24.6756 44.8797 25.0708 45.2753 25.0708 45.7621V50.849C25.0708 51.3372 24.6756 51.7313 24.1892 51.7313ZM19.1032 49.9666H23.3075V46.6445H19.1032V49.9666Z" fill="#270089"/>
<path d="M36.6766 45.7624H30.709V50.8493H36.6766V45.7624Z" fill="white"/>
<path d="M36.6768 51.7313H30.7092C30.2228 51.7313 29.8275 51.3357 29.8275 50.849V45.7621C29.8275 45.2753 30.2228 44.8797 30.7092 44.8797H36.6768C37.1632 44.8797 37.5585 45.2753 37.5585 45.7621V50.849C37.5585 51.3372 37.1646 51.7313 36.6768 51.7313ZM31.5909 49.9666H35.7951V46.6445H31.5909V49.9666Z" fill="#270089"/>
<path d="M24.189 54.9828H18.2214V60.0696H24.189V54.9828Z" fill="white"/>
<path d="M24.1892 60.9537H18.2215C17.7351 60.9537 17.3398 60.5581 17.3398 60.0713V54.9844C17.3398 54.4976 17.7351 54.1021 18.2215 54.1021H24.1892C24.6756 54.1021 25.0708 54.4976 25.0708 54.9844V60.0713C25.0708 60.5581 24.6756 60.9537 24.1892 60.9537ZM19.1032 59.1889H23.3075V55.8668H19.1032V59.1889Z" fill="#270089"/>
<path d="M36.6766 54.9828H30.709V60.0696H36.6766V54.9828Z" fill="white"/>
<path d="M36.6768 60.9537H30.7092C30.2228 60.9537 29.8275 60.5581 29.8275 60.0713V54.9844C29.8275 54.4976 30.2228 54.1021 30.7092 54.1021H36.6768C37.1632 54.1021 37.5585 54.4976 37.5585 54.9844V60.0713C37.5585 60.5581 37.1646 60.9537 36.6768 60.9537ZM31.5909 59.1889H35.7951V55.8668H31.5909V59.1889Z" fill="#270089"/>
<path d="M23.2853 37.5353C23.4396 37.5353 23.5718 37.4897 23.6835 37.4C23.7952 37.3088 23.851 37.1794 23.851 37.0103C23.851 36.8809 23.8069 36.7706 23.7173 36.6765C23.6291 36.5838 23.5086 36.5367 23.3573 36.5367C23.2544 36.5367 23.1706 36.5514 23.1045 36.5794C23.0384 36.6073 22.9855 36.6456 22.9473 36.6926C22.9091 36.7397 22.8723 36.8 22.8385 36.8735C22.8047 36.947 22.7724 37.0176 22.7445 37.0823C22.7283 37.1176 22.6975 37.1456 22.6534 37.1647C22.6093 37.1853 22.5593 37.1956 22.502 37.1956C22.4344 37.1956 22.3727 37.1676 22.3169 37.1132C22.261 37.0588 22.2331 36.9868 22.2331 36.8956C22.2331 36.8088 22.2596 36.7162 22.3125 36.6206C22.3654 36.5235 22.4418 36.4323 22.5432 36.3456C22.6446 36.2588 22.7709 36.1882 22.9208 36.1353C23.0722 36.0823 23.2397 36.0558 23.4263 36.0558C23.5894 36.0558 23.7379 36.0779 23.8716 36.122C24.0053 36.1661 24.1214 36.2309 24.2213 36.3147C24.3198 36.3985 24.3947 36.4956 24.4447 36.6059C24.4946 36.7162 24.5196 36.8353 24.5196 36.9632C24.5196 37.1309 24.4829 37.275 24.4109 37.3941C24.3374 37.5147 24.2331 37.6309 24.0979 37.7456C24.2287 37.8162 24.3389 37.8971 24.4285 37.9868C24.5182 38.078 24.5858 38.178 24.6313 38.2868C24.6769 38.3971 24.6989 38.5147 24.6989 38.6427C24.6989 38.7956 24.668 38.9427 24.6078 39.0853C24.5461 39.228 24.4564 39.3545 24.3374 39.4662C24.2184 39.578 24.0773 39.6648 23.9142 39.728C23.7511 39.7912 23.5703 39.8221 23.3719 39.8221C23.1706 39.8221 22.9914 39.7853 22.8312 39.7133C22.6725 39.6412 22.5402 39.5515 22.4374 39.4427C22.3345 39.3339 22.2566 39.2221 22.2037 39.1074C22.1508 38.9912 22.1244 38.8956 22.1244 38.8206C22.1244 38.7236 22.1552 38.6456 22.2184 38.5853C22.2816 38.5265 22.3595 38.4956 22.4535 38.4956C22.5005 38.4956 22.5461 38.5088 22.5887 38.5368C22.6328 38.5647 22.6607 38.5971 22.6739 38.6368C22.7606 38.8706 22.8547 39.0427 22.9546 39.1559C23.0545 39.2692 23.1941 39.325 23.3764 39.325C23.4807 39.325 23.5806 39.3 23.6761 39.2486C23.7731 39.1971 23.8525 39.1221 23.9142 39.0206C23.9774 38.9206 24.0082 38.803 24.0082 38.6706C24.0082 38.475 23.9553 38.3206 23.8481 38.2088C23.7408 38.0971 23.5909 38.0412 23.4014 38.0412C23.3676 38.0412 23.3161 38.0441 23.2456 38.0515C23.175 38.0588 23.1295 38.0618 23.1104 38.0618C23.0178 38.0618 22.9473 38.0383 22.8973 37.9927C22.8473 37.9471 22.8224 37.8824 22.8224 37.8C22.8224 37.7191 22.8532 37.6544 22.9135 37.6044C22.9737 37.5544 23.0634 37.5309 23.1824 37.5309H23.2853V37.5353Z" fill="#270089"/>
<path d="M25.7541 39.8293C25.6439 39.8293 25.5483 39.7955 25.4675 39.7279C25.3867 39.6602 25.347 39.5646 25.347 39.4426C25.347 39.3367 25.3867 39.2485 25.4646 39.1764C25.5439 39.1043 25.6365 39.0676 25.7438 39.0676C25.8246 39.0676 25.8966 39.0896 25.9627 39.1323C26.0274 39.1764 26.0788 39.2396 26.1156 39.3249C26.1523 39.4102 26.1714 39.5146 26.1714 39.6382C26.1714 39.8043 26.1362 39.9602 26.0656 40.1043C25.9951 40.2499 25.9098 40.3646 25.8084 40.4485C25.7071 40.5338 25.6159 40.5749 25.5336 40.5749C25.4822 40.5749 25.4396 40.5573 25.4073 40.5235C25.3749 40.4896 25.3588 40.4499 25.3588 40.4044C25.3588 40.3352 25.3926 40.2808 25.4616 40.2382C25.6556 40.1308 25.7541 39.9941 25.7541 39.8293Z" fill="#270089"/>
<path d="M28.348 39.4426V38.975H27.0857C26.927 38.975 26.8065 38.9397 26.7271 38.8661C26.6478 38.7941 26.6081 38.6955 26.6081 38.572C26.6081 38.5397 26.614 38.5073 26.6257 38.4749C26.6375 38.4426 26.6551 38.4073 26.6786 38.372C26.7021 38.3367 26.7271 38.3014 26.7521 38.2676C26.7771 38.2338 26.8079 38.1926 26.8447 38.1441L28.1775 36.3602C28.2642 36.2425 28.3362 36.1573 28.392 36.1043C28.4479 36.0514 28.5155 36.0249 28.5948 36.0249C28.8491 36.0249 28.9769 36.1705 28.9769 36.4631V38.4102H29.0856C29.215 38.4102 29.3178 38.4279 29.3957 38.4632C29.4736 38.4985 29.5133 38.5749 29.5133 38.6941C29.5133 38.7911 29.4809 38.8617 29.4178 38.9073C29.3546 38.9514 29.2591 38.9735 29.1312 38.9735H28.9784V39.4411C28.9784 39.5705 28.9505 39.6661 28.8932 39.7294C28.8358 39.7926 28.7594 39.8235 28.6639 39.8235C28.5699 39.8235 28.4949 39.7911 28.4361 39.7264C28.3774 39.6632 28.348 39.5691 28.348 39.4426ZM27.2679 38.4117H28.3494V36.9499L27.2679 38.4117Z" fill="#270089"/>
<path d="M31.9876 36.6957H30.7929L30.6504 37.5104C30.8884 37.3825 31.1074 37.3192 31.3087 37.3192C31.4689 37.3192 31.6202 37.3501 31.7598 37.4104C31.8994 37.4707 32.0228 37.5545 32.1286 37.6604C32.2344 37.7663 32.3167 37.8928 32.377 38.0384C32.4372 38.1839 32.4681 38.3413 32.4681 38.5089C32.4681 38.7516 32.4137 38.9737 32.305 39.1737C32.1962 39.3737 32.039 39.531 31.8333 39.6487C31.6276 39.7663 31.391 39.8251 31.1235 39.8251C30.8238 39.8251 30.5798 39.7693 30.3932 39.659C30.2066 39.5487 30.0744 39.4207 29.9965 39.2781C29.9186 39.1354 29.8789 39.009 29.8789 38.9016C29.8789 38.8369 29.9068 38.7737 29.9612 38.7148C30.0156 38.656 30.0846 38.6266 30.1654 38.6266C30.3065 38.6266 30.4108 38.7075 30.4799 38.8707C30.5475 39.0207 30.6371 39.1354 30.7518 39.2193C30.8664 39.3016 30.9928 39.3443 31.1338 39.3443C31.2631 39.3443 31.3763 39.3104 31.4733 39.2443C31.5702 39.1766 31.6452 39.0854 31.6981 38.9678C31.751 38.8501 31.7774 38.7178 31.7774 38.5678C31.7774 38.4075 31.7495 38.2692 31.6922 38.1545C31.6349 38.0398 31.5585 37.956 31.463 37.8986C31.3675 37.8428 31.2617 37.8148 31.1441 37.8148C31.0001 37.8148 30.8972 37.8325 30.8355 37.8678C30.7738 37.9031 30.6842 37.9648 30.5681 38.0531C30.452 38.1413 30.355 38.1854 30.2801 38.1854C30.1978 38.1854 30.1258 38.156 30.0611 38.0957C29.9979 38.0369 29.9656 37.9692 29.9656 37.8928C29.9656 37.8839 29.9744 37.8266 29.9935 37.7222L30.2051 36.5177C30.2286 36.3736 30.2727 36.2692 30.3359 36.203C30.3991 36.1383 30.5034 36.1045 30.6474 36.1045H31.9744C32.2359 36.1045 32.3667 36.2045 32.3667 36.4045C32.3667 36.4913 32.3344 36.5619 32.2712 36.6163C32.2065 36.6692 32.1125 36.6957 31.9876 36.6957Z" fill="#270089"/>
<path d="M34.4664 39.4426V38.975H33.2041C33.0454 38.975 32.9249 38.9397 32.8456 38.8661C32.7662 38.7941 32.7266 38.6955 32.7266 38.572C32.7266 38.5397 32.7324 38.5073 32.7442 38.4749C32.756 38.4426 32.7736 38.4073 32.7971 38.372C32.8206 38.3367 32.8456 38.3014 32.8706 38.2676C32.8956 38.2338 32.9264 38.1926 32.9631 38.1441L34.296 36.3602C34.3827 36.2425 34.4547 36.1573 34.5105 36.1043C34.5664 36.0514 34.634 36.0249 34.7133 36.0249C34.9675 36.0249 35.0954 36.1705 35.0954 36.4631V38.4102H35.2041C35.3334 38.4102 35.4363 38.4279 35.5142 38.4632C35.5921 38.4985 35.6318 38.5749 35.6318 38.6941C35.6318 38.7911 35.5994 38.8617 35.5362 38.9073C35.4731 38.9514 35.3775 38.9735 35.2497 38.9735H35.0969V39.4411C35.0969 39.5705 35.0689 39.6661 35.0116 39.7294C34.9543 39.7926 34.8779 39.8235 34.7824 39.8235C34.6883 39.8235 34.6134 39.7911 34.5546 39.7264C34.4958 39.6632 34.4664 39.5691 34.4664 39.4426ZM33.3849 38.4117H34.4664V36.9499L33.3849 38.4117Z" fill="#270089"/>
</svg>
