<svg width="80" height="80" viewBox="0 0 80 80" fill="none" xmlns="http://www.w3.org/2000/svg">
<path d="M20.8677 6.70198C21.4127 27.4987 18.3007 47.2134 10.9314 65.6643C10.8489 65.8645 10.8126 66.0808 10.8254 66.297C10.8382 66.5132 10.8997 66.7238 11.0052 66.9129C11.1108 67.102 11.2577 67.2648 11.4351 67.3891C11.6124 67.5135 11.8155 67.5962 12.0293 67.631L56.7743 75.2136C57.1006 75.2641 57.4344 75.2025 57.7212 75.039C58.0081 74.8755 58.2311 74.6196 58.354 74.3131C65.9382 55.2111 69.4075 34.7239 68.5352 14.1898C68.5245 13.8647 68.405 13.5526 68.1959 13.3034C67.9868 13.0543 67.7002 12.8825 67.382 12.8155L22.5975 5.23287C22.3835 5.19132 22.163 5.19844 21.9522 5.25365C21.7414 5.30886 21.5457 5.41075 21.3796 5.55182C21.2135 5.69289 21.0813 5.86952 20.9927 6.06861C20.904 6.26771 20.8613 6.48415 20.8677 6.70198V6.70198Z" fill="white" stroke="#270089" stroke-width="2" stroke-miterlimit="10"/>
<path d="M33.11 29.9631C33.7756 25.5436 34.061 21.0751 33.9631 16.6068L24.2085 15.3983C24.2432 19.8657 23.9793 24.3304 23.4186 28.7626L33.11 29.9631Z" stroke="#FEE478" stroke-linecap="round" stroke-linejoin="round"/>
<path d="M29.8322 47.0633C31.0637 42.6048 31.9301 38.0534 32.4229 33.4542L22.6367 32.3879C22.1175 36.8269 21.2995 41.2258 20.1881 45.5546L29.8322 47.0633Z" stroke="#FEE478" stroke-linecap="round" stroke-linejoin="round"/>
<path d="M25.2907 63.7055C26.8167 59.5075 28.0984 55.2246 29.1293 50.8784L19.4063 49.1802C18.3789 53.5293 17.0595 57.8041 15.457 61.9758L15.8599 62.1258L25.2907 63.7055Z" stroke="#FEE478" stroke-linecap="round" stroke-linejoin="round"/>
<path d="M36.4908 8.0211C36.305 7.81609 36.0536 7.68203 35.7799 7.64194H34.0501L34.2476 8.70826V8.76356L29.0267 19.4186L27.8735 16.2592C27.8046 15.9881 27.6606 15.742 27.458 15.5491C27.2554 15.3563 27.0024 15.2246 26.7282 15.1692H24.8168L24.5403 16.5041H25.0853C24.7651 17.3002 24.7343 18.1835 24.9985 19L27.3048 25.3188C27.329 25.3866 27.358 25.4526 27.3917 25.5162L26.7203 26.4088H28.5844C28.9022 26.369 29.2029 26.2427 29.4537 26.0434C29.7044 25.8442 29.8955 25.5799 30.0061 25.2793L36.7751 11.4569C37.057 10.9158 37.1799 10.3059 37.1296 9.69789C37.0793 9.08984 36.8578 8.5085 36.4908 8.0211V8.0211Z" fill="#F154A9" stroke="#270089" stroke-width="2" stroke-miterlimit="10"/>
<path d="M34.7693 8.0211C34.5791 7.81758 34.3259 7.684 34.0505 7.64194C33.7034 7.64212 33.365 7.75017 33.082 7.9511C32.799 8.15203 32.5854 8.43595 32.4708 8.76356L27.2578 19.4186L26.0967 16.2592C26.0284 15.9891 25.8856 15.7437 25.6845 15.5509C25.4833 15.3582 25.2321 15.2259 24.9593 15.1692C24.7663 15.1519 24.5719 15.1793 24.3911 15.2491C24.2103 15.319 24.048 15.4295 23.9167 15.5721C23.5072 16.0256 23.2273 16.581 23.1064 17.18C22.9855 17.7789 23.028 18.3994 23.2295 18.9763L25.5359 25.2951C25.6042 25.5652 25.747 25.8106 25.9482 26.0033C26.1493 26.1961 26.4006 26.3284 26.6733 26.3851H26.8155C27.133 26.3445 27.4333 26.2178 27.6839 26.0187C27.9345 25.8196 28.1259 25.5557 28.2372 25.2556L35.0062 11.4333C35.2864 10.8983 35.4127 10.296 35.3708 9.6936C35.329 9.09116 35.1207 8.51218 34.7693 8.0211Z" fill="#FEE478" stroke="#270089" stroke-width="2" stroke-miterlimit="10"/>
<path d="M34.5241 25.6742C34.3366 25.4657 34.0825 25.3289 33.8053 25.2872C33.7265 25.2793 33.6471 25.2793 33.5683 25.2872H32.0834L32.2809 26.3535V26.4167L27.06 37.0638L25.9068 33.9044C25.8346 33.635 25.6895 33.3907 25.4874 33.1984C25.2854 33.0061 25.0342 32.8732 24.7615 32.8144H22.8501L22.5657 34.1414H23.1186C22.7908 34.936 22.76 35.8219 23.0317 36.6373L25.3381 42.9561C25.3381 43.0272 25.3934 43.0904 25.4171 43.1536L24.7536 44.0461H26.6177C26.9352 44.0055 27.2355 43.8788 27.4861 43.6797C27.7367 43.4806 27.9281 43.2167 28.0394 42.9166L34.8084 29.0943C35.0853 28.5546 35.2054 27.9481 35.1551 27.3436C35.1049 26.7391 34.8863 26.1608 34.5241 25.6742Z" fill="#FEE478" stroke="#270089" stroke-width="2" stroke-miterlimit="10"/>
<path d="M32.7944 25.6743C32.6111 25.4648 32.359 25.3275 32.0835 25.2873C31.7352 25.2869 31.3955 25.3956 31.1122 25.5982C30.8288 25.8008 30.6161 26.087 30.5038 26.4168L25.2829 37.0639L24.1298 33.9045C24.0592 33.6343 23.9146 33.389 23.7123 33.1965C23.51 33.0039 23.2579 32.8716 22.9845 32.8145C22.7916 32.7996 22.5979 32.828 22.4175 32.8977C22.2371 32.9674 22.0745 33.0766 21.9419 33.2174C21.536 33.673 21.2585 34.2283 21.1377 34.8265C21.017 35.4247 21.0573 36.0442 21.2547 36.6216L23.5611 42.9404C23.6299 43.2115 23.774 43.4577 23.9766 43.6505C24.1792 43.8434 24.4321 43.975 24.7063 44.0304H24.8406C25.1584 43.9907 25.4592 43.8643 25.7099 43.6651C25.9607 43.4659 26.1518 43.2015 26.2624 42.9009L33.0314 29.0785C33.3154 28.5461 33.4438 27.9444 33.4019 27.3424C33.36 26.7404 33.1495 26.1623 32.7944 25.6743V25.6743Z" fill="#FEE478" stroke="#270089" stroke-width="2" stroke-miterlimit="10"/>
<path d="M39.0182 20.3901L64.9253 24.3236" stroke="#270089" stroke-miterlimit="10" stroke-linecap="round"/>
<path d="M39.0182 26.8353L64.167 30.7609" stroke="#270089" stroke-miterlimit="10" stroke-linecap="round"/>
<path d="M38.5684 33.2804L63.2827 37.206" stroke="#270089" stroke-miterlimit="10" stroke-linecap="round"/>
<path d="M37.6758 39.7256L62.6192 43.6511" stroke="#270089" stroke-miterlimit="10" stroke-linecap="round"/>
<path d="M35.3691 50.752L61.2841 54.6775" stroke="#270089" stroke-miterlimit="10" stroke-linecap="round"/>
<path d="M33.9713 56.4388L59.8863 60.3644" stroke="#270089" stroke-miterlimit="10" stroke-linecap="round"/>
</svg>
