<svg width="80" height="80" viewBox="0 0 80 80" fill="none" xmlns="http://www.w3.org/2000/svg">
<path d="M45 27.0001C46.6 17.4001 54.7778 15.4446 58.6667 15.6668C72.3334 15.0002 73.6667 26.0001 74 27.0001C74.2667 27.8002 75 40.6668 75.3334 47.0001H42.6667C42.7778 44.3334 43.4 36.6001 45 27.0001Z" fill="white"/>
<path d="M45.4714 57.4244C45.4714 57.4244 47.0024 46.7083 59.5501 46.7083C72.0979 46.7083 74.9954 57.4244 74.9954 57.4244H45.4714Z" fill="#F154A9"/>
<path d="M59.5495 46.1888C59.5495 46.1888 67.1217 52.3001 69.0354 57.4243H74.9679C74.9675 57.4243 71.996 46.7081 59.5495 46.1888Z" fill="#FEE478"/>
<path d="M74.9946 57.6157C74.646 57.6157 74.3268 57.3839 74.2312 57.0315C74.2225 57.0011 73.5021 54.4417 71.3328 51.9301C68.4501 48.5919 64.4856 46.8992 59.5497 46.8992C54.6413 46.8992 50.9184 48.5742 48.4846 51.8778C46.6495 54.3685 46.2583 56.9116 46.2546 56.9371C46.191 57.3694 45.789 57.6687 45.3575 57.6065C44.9253 57.544 44.6253 57.1441 44.6871 56.7117C44.7039 56.5943 45.121 53.8055 47.1648 50.9993C49.0534 48.4064 52.7349 45.3156 59.5497 45.3156C66.3328 45.3156 70.3793 48.3799 72.5795 50.9505C74.9612 53.7334 75.7281 56.5003 75.7596 56.6168C75.8739 57.039 75.6241 57.4738 75.202 57.5879C75.1328 57.6066 75.0631 57.6157 74.9946 57.6157Z" fill="#270089"/>
<path d="M59.4295 43.5212C66.37 43.5212 71.9963 37.8948 71.9963 30.9544C71.9963 24.0139 66.37 18.3875 59.4295 18.3875C52.489 18.3875 46.8627 24.0139 46.8627 30.9544C46.8627 37.8948 52.489 43.5212 59.4295 43.5212Z" fill="white"/>
<g opacity="0.4">
<path opacity="0.4" d="M53.9105 35.959C53.9105 33.8329 52.1869 32.1093 50.0606 32.1093C49.1105 32.1093 48.2415 32.4541 47.5699 33.0246L48.1133 36.2843L51.1727 39.645C52.7566 39.1679 53.9105 37.6985 53.9105 35.959Z" fill="#F154A9"/>
</g>
<g opacity="0.4">
<path opacity="0.4" d="M71.4876 32.9884C70.8221 32.4392 69.9689 32.1093 69.0386 32.1093C66.9125 32.1093 65.189 33.8329 65.189 35.9591C65.189 37.6465 66.2751 39.0793 67.786 39.5993L70.9684 36.1037L71.4876 32.9884Z" fill="#F154A9"/>
</g>
<path d="M59.4295 44.4097C52.0102 44.4097 45.9741 38.3738 45.9741 30.9542C45.9741 23.5349 52.0102 17.4988 59.4295 17.4988C66.8488 17.4988 72.8849 23.5349 72.8849 30.9542C72.8848 38.3737 66.8487 44.4097 59.4295 44.4097ZM59.4295 19.2762C52.9901 19.2762 47.7516 24.515 47.7516 30.9543C47.7516 37.3936 52.9901 42.6325 59.4295 42.6325C65.8688 42.6325 71.1076 37.3938 71.1076 30.9543C71.1076 24.5149 65.8688 19.2762 59.4295 19.2762Z" fill="#270089"/>
<path d="M52.4991 31.6188C53.1181 31.6188 53.62 31.117 53.62 30.4979C53.62 29.8789 53.1181 29.3771 52.4991 29.3771C51.8801 29.3771 51.3783 29.8789 51.3783 30.4979C51.3783 31.117 51.8801 31.6188 52.4991 31.6188Z" fill="#270089"/>
<path d="M66.3591 31.6187C66.9781 31.6187 67.4799 31.1169 67.4799 30.4979C67.4799 29.8789 66.9781 29.3771 66.3591 29.3771C65.7401 29.3771 65.2383 29.8789 65.2383 30.4979C65.2383 31.1169 65.7401 31.6187 66.3591 31.6187Z" fill="#270089"/>
<path d="M57.6464 44.1012V46.5174C57.6464 46.5174 59.6961 48.568 61.4663 46.5174V44.1012H57.6464Z" fill="white"/>
<path d="M59.7359 48.2007C59.7357 48.2007 59.7356 48.2007 59.7354 48.2007C58.3166 48.2007 57.2499 47.1844 57.1326 47.0674L56.9009 46.8455V43.2627H62.3046V46.8121L62.1119 47.025C61.2663 48.005 60.3531 48.2007 59.7359 48.2007ZM58.4849 46.1503C58.778 46.3663 59.2561 46.6169 59.7359 46.6169H59.7361C60.0856 46.6169 60.4098 46.494 60.7209 46.2017V44.8466H58.4849V46.1503Z" fill="#270089"/>
<path d="M47.6835 29.857L47.4557 28.2464C53.5965 27.3779 57.615 24.8613 59.9049 22.9032C62.3591 20.8043 63.3721 18.9285 63.3821 18.9098L64.8185 19.6736C64.7719 19.7611 63.6482 21.8425 60.9622 24.1395C59.3972 25.4778 57.6171 26.619 55.6714 27.5315C53.2483 28.6676 50.5607 29.4501 47.6835 29.857Z" fill="#270089"/>
<path d="M75.2702 48.2421H66.7659C66.3168 48.2421 65.9526 47.878 65.9526 47.4288C65.9526 46.9797 66.3168 46.6155 66.7659 46.6155H74.4385C74.3634 43.5759 74.0337 32.8792 73.003 26.4144C72.4581 22.9957 70.3593 20.1295 67.5044 18.2383C65.493 16.9059 63.021 16.5172 60.6577 16.3501C58.2357 16.1789 54.7246 16.3166 51.7528 17.945C49.0556 19.4231 47.2057 21.9018 46.2545 25.312C46.2533 25.3156 46.2524 25.3192 46.2514 25.3227C46.2389 25.3663 44.9494 30.0592 44.9582 46.3487H53.3642C53.8133 46.3487 54.1775 46.7129 54.1775 47.162C54.1775 47.6111 53.8133 47.9754 53.3642 47.9754H44.1463C43.6981 47.9754 43.3344 47.6128 43.333 47.1645C43.2796 30.0236 44.609 25.147 44.6888 24.8705C45.7636 21.021 47.8798 18.2097 50.979 16.5141C53.6151 15.0719 57.0171 14.4552 60.8175 14.7307C64.1832 14.9748 67.0899 15.7363 69.7494 17.8865C72.4089 20.0368 74.0895 22.8972 74.6094 26.1583C75.8321 33.828 76.0811 47.2795 76.0834 47.4144C76.0873 47.6327 76.0032 47.8432 75.8503 47.9987C75.6975 48.1544 75.4884 48.2421 75.2702 48.2421Z" fill="#270089"/>
<path d="M4.18542 58.1389C4.18542 58.1389 5.83294 46.6089 19.3332 46.6089C32.8335 46.6089 35.9515 58.1389 35.9515 58.1389H4.18542Z" fill="#F154A9"/>
<path d="M19.3334 46.05C19.3334 46.05 27.4804 52.6254 29.5395 58.1388H35.9226C35.922 58.1388 32.725 46.6089 19.3334 46.05Z" fill="#FEE478"/>
<path d="M35.9509 58.3446C35.5761 58.3446 35.2324 58.0955 35.1295 57.7161C35.1202 57.6833 34.3451 54.9296 32.0113 52.2272C28.9097 48.6356 24.6442 46.8144 19.3333 46.8144C14.052 46.8144 10.0464 48.6167 7.42785 52.1711C5.45344 54.851 5.03241 57.5872 5.0284 57.6147C4.95993 58.0798 4.52748 58.402 4.06305 58.3351C3.59801 58.2677 3.27553 57.8374 3.34199 57.3723C3.36003 57.246 3.80873 54.2456 6.00789 51.2261C8.03984 48.4363 12.001 45.1107 19.3333 45.1107C26.6314 45.1107 30.9851 48.4078 33.3525 51.1734C35.9151 54.1675 36.7403 57.1446 36.7742 57.2699C36.8974 57.7241 36.6284 58.192 36.1744 58.3149C36.0996 58.335 36.0247 58.3446 35.9509 58.3446Z" fill="#270089"/>
<path d="M19.2034 43.1798C26.6708 43.1798 32.7244 37.1262 32.7244 29.6587C32.7244 22.1913 26.6708 16.1377 19.2034 16.1377C11.7359 16.1377 5.68231 22.1913 5.68231 29.6587C5.68231 37.1262 11.7359 43.1798 19.2034 43.1798Z" fill="white"/>
<path d="M19.2036 44.136C11.221 44.136 4.72656 37.6419 4.72656 29.6588C4.72656 21.676 11.221 15.1818 19.2036 15.1818C27.1864 15.1818 33.6809 21.6763 33.6809 29.6588C33.6809 37.6416 27.1864 44.136 19.2036 44.136ZM19.2036 17.0938C12.2754 17.0938 6.63882 22.7304 6.63882 29.6587C6.63882 36.587 12.2754 42.2239 19.2036 42.2239C26.132 42.2239 31.7687 36.5873 31.7687 29.6587C31.7686 22.7304 26.1319 17.0938 19.2036 17.0938Z" fill="#270089"/>
<path d="M11.7476 30.3735C12.4136 30.3735 12.9535 29.8336 12.9535 29.1676C12.9535 28.5016 12.4136 27.9617 11.7476 27.9617C11.0815 27.9617 10.5416 28.5016 10.5416 29.1676C10.5416 29.8336 11.0815 30.3735 11.7476 30.3735Z" fill="#270089"/>
<path d="M26.6603 30.3735C27.3264 30.3735 27.8663 29.8336 27.8663 29.1676C27.8663 28.5016 27.3264 27.9617 26.6603 27.9617C25.9943 27.9617 25.4544 28.5016 25.4544 29.1676C25.4544 29.8336 25.9943 30.3735 26.6603 30.3735Z" fill="#270089"/>
<path d="M17.2858 43.804V46.4037C17.2858 46.4037 19.4911 48.6101 21.3958 46.4037V43.804H17.2858Z" fill="white"/>
<path d="M19.5338 48.2147C19.5337 48.2147 19.5336 48.2147 19.5335 48.2147C18.0069 48.2147 16.859 47.1212 16.7329 46.9953L16.4837 46.7566V42.9018H22.2979V46.7207L22.0908 46.9497C21.1804 48.0041 20.1979 48.2147 19.5338 48.2147ZM18.1878 46.0086C18.5031 46.2408 19.0176 46.5106 19.5337 46.5106H19.5338C19.9101 46.5106 20.2588 46.3784 20.5936 46.0639V44.6059H18.1878V46.0086Z" fill="#270089"/>
<path d="M24.1125 65.5115C24.1125 65.5115 25.76 53.9815 39.2603 53.9815C52.7606 53.9815 55.8786 65.5115 55.8786 65.5115H24.1125Z" fill="#F154A9"/>
<path d="M39.2604 53.4228C39.2604 53.4228 47.4075 59.9981 49.4666 65.5115H55.8497C55.8491 65.5115 52.652 53.9817 39.2604 53.4228Z" fill="#FEE478"/>
<path d="M55.8779 65.7173C55.5032 65.7173 55.1595 65.4682 55.0565 65.0888C55.0473 65.056 54.2722 62.3023 51.9383 59.5999C48.8368 56.0083 44.5713 54.1871 39.2603 54.1871C33.9791 54.1871 29.9735 55.9894 27.3549 59.5438C25.3805 62.2237 24.9595 64.9599 24.9555 64.9873C24.887 65.4525 24.4545 65.7747 23.9901 65.7078C23.5251 65.6403 23.2026 65.2101 23.2691 64.745C23.2871 64.6186 23.7358 61.6182 25.935 58.5988C27.9669 55.809 31.9281 52.4834 39.2603 52.4834C46.5585 52.4834 50.9121 55.7805 53.2796 58.546C55.8421 61.5401 56.6673 64.5173 56.7012 64.6426C56.8244 65.0968 56.5555 65.5647 56.1015 65.6876C56.0266 65.7077 55.9517 65.7173 55.8779 65.7173Z" fill="#270089"/>
<path d="M39.1304 50.5525C46.5979 50.5525 52.6515 44.4989 52.6515 37.0315C52.6515 29.564 46.5979 23.5104 39.1304 23.5104C31.663 23.5104 25.6094 29.564 25.6094 37.0315C25.6094 44.4989 31.663 50.5525 39.1304 50.5525Z" fill="white"/>
<path d="M39.1307 51.5087C31.1481 51.5087 24.6536 45.0146 24.6536 37.0315C24.6536 29.0487 31.1481 22.5545 39.1307 22.5545C47.1135 22.5545 53.608 29.049 53.608 37.0315C53.6079 45.0142 47.1134 51.5087 39.1307 51.5087ZM39.1307 24.4665C32.2024 24.4665 26.5659 30.1031 26.5659 37.0314C26.5659 43.9597 32.2024 49.5966 39.1307 49.5966C46.0591 49.5966 51.6957 43.96 51.6957 37.0314C51.6955 30.1031 46.059 24.4665 39.1307 24.4665Z" fill="#270089"/>
<path d="M31.6746 37.7462C32.3406 37.7462 32.8806 37.2063 32.8806 36.5403C32.8806 35.8742 32.3406 35.3343 31.6746 35.3343C31.0086 35.3343 30.4687 35.8742 30.4687 36.5403C30.4687 37.2063 31.0086 37.7462 31.6746 37.7462Z" fill="#270089"/>
<path d="M46.5867 37.7462C47.2528 37.7462 47.7927 37.2063 47.7927 36.5403C47.7927 35.8742 47.2528 35.3343 46.5867 35.3343C45.9207 35.3343 45.3808 35.8742 45.3808 36.5403C45.3808 37.2063 45.9207 37.7462 46.5867 37.7462Z" fill="#270089"/>
<path d="M37.7603 40.9229C37.7603 40.9229 39.4074 42.1583 40.5838 40.9229H37.7603Z" fill="white"/>
<path d="M39.3396 42.4284C38.464 42.4284 37.6474 42.0333 37.1865 41.6874C36.7638 41.3705 36.6785 40.7712 36.9953 40.3487C37.3106 39.928 37.9071 39.8412 38.3293 40.1543C38.4345 40.2304 39.3316 40.8508 39.8914 40.2632C40.2555 39.881 40.8607 39.8659 41.2432 40.2301C41.6255 40.5946 41.6404 41.1995 41.2763 41.5818C40.6803 42.208 39.9935 42.4284 39.3396 42.4284Z" fill="#270089"/>
<path d="M37.2128 51.1766V53.7763C37.2128 53.7763 39.4182 55.9827 41.3228 53.7763V51.1766H37.2128Z" fill="white"/>
<path d="M39.4609 55.5874C39.4608 55.5874 39.4607 55.5874 39.4606 55.5874C37.934 55.5874 36.7861 54.494 36.66 54.368L36.4108 54.1293V50.2745H42.2249V54.0934L42.0178 54.3224C41.1074 55.3768 40.1249 55.5874 39.4609 55.5874ZM38.1148 53.3813C38.4302 53.6135 38.9446 53.8833 39.4608 53.8833H39.4609C39.8371 53.8833 40.1859 53.7511 40.5207 53.4366V51.9786H38.1148V53.3813Z" fill="#270089"/>
</svg>
