<svg width="80" height="80" viewBox="0 0 80 80" fill="none" xmlns="http://www.w3.org/2000/svg">
<path d="M68.4931 47.1851C58.2867 51.6953 40.8079 57.8589 23.9975 56.4064L13.0168 37.2863C13.0168 37.2863 43.4054 36.9921 64.0047 24.0483L77.4148 42.7851C77.4148 42.7851 73.209 45.0367 71.8721 45.7326" fill="white"/>
<path d="M29.129 57.4709C27.3525 57.4709 25.6171 57.3974 23.924 57.2517C23.647 57.2277 23.3997 57.0693 23.2612 56.8288L12.2804 37.7088C12.1306 37.4471 12.1306 37.1261 12.279 36.8644C12.4288 36.6028 12.7058 36.4401 13.0068 36.4373C13.0817 36.4373 20.6778 36.3439 30.675 34.6793C39.8709 33.1476 53.038 29.9357 63.5524 23.3295C63.9326 23.0904 64.4314 23.1894 64.6929 23.5543L78.103 42.2911C78.2458 42.4891 78.2952 42.7395 78.2401 42.9785C78.185 43.2161 78.0295 43.4183 77.8147 43.5343C77.7723 43.5569 73.5892 45.7958 72.2636 46.486C71.8481 46.7024 71.3365 46.5411 71.1203 46.1253C70.904 45.7095 71.0651 45.1975 71.4806 44.9811C72.4289 44.4876 74.8611 43.1892 76.1627 42.4934L63.7771 25.1879C53.1369 31.6654 40.0871 34.8363 30.9252 36.3595C23.3602 37.6168 17.1462 37.9874 14.4582 38.0935L24.5119 55.5984C41.3901 56.9179 59.0697 50.4234 68.1525 46.4096C68.5807 46.2201 69.081 46.4138 69.2703 46.8424C69.4597 47.2709 69.2661 47.7716 68.8379 47.9611C62.1519 50.9156 55.4532 53.2365 48.9283 54.8559C41.9159 56.5955 35.2807 57.4709 29.129 57.4709Z" fill="#270089"/>
<path d="M56.5433 45.6544C57.4854 41.9343 53.8348 37.7988 48.3894 36.4176C42.944 35.0364 37.7659 36.9324 36.8237 40.6526C35.8815 44.3727 39.5321 48.5082 44.9775 49.8894C50.4229 51.2706 55.6011 49.3746 56.5433 45.6544Z" fill="white"/>
<path d="M48.5112 51.1921C47.2859 51.1921 46.0196 51.0322 44.759 50.714C41.9622 50.004 39.5117 48.5827 37.8596 46.7129C36.1284 44.7513 35.4642 42.5266 35.9913 40.4476C36.5185 38.3685 38.1606 36.7279 40.6154 35.8298C42.9586 34.9713 45.7893 34.8907 48.5861 35.5993C51.3828 36.3093 53.8334 37.7292 55.4854 39.6004C57.2167 41.562 57.8809 43.7867 57.3537 45.8658C56.8266 47.9448 55.1844 49.5854 52.7296 50.4849C51.4422 50.9559 50.0078 51.1921 48.5112 51.1921ZM44.8325 36.817C43.5366 36.817 42.3014 37.0193 41.1991 37.4238C39.2856 38.1238 38.0207 39.3458 37.6363 40.8648C36.811 44.1248 40.1929 47.8062 45.1773 49.0692C47.6477 49.6957 50.1237 49.6321 52.1488 48.891C54.0623 48.1909 55.3272 46.9689 55.7116 45.45C56.096 43.931 55.5646 42.2536 54.2164 40.7262C52.7876 39.1082 50.6409 37.8721 48.1706 37.2456C47.0442 36.9584 45.9179 36.817 44.8325 36.817Z" fill="#270089"/>
<path d="M8.09698 40.8855C8.09698 40.8855 37.4823 33.1294 54.2729 15.5184L71.8718 30.3842C71.8718 30.3842 49.1061 52.521 23.4362 56.7215L8.09698 40.8855Z" fill="#F154A9"/>
<path d="M71.8719 30.3828C71.8719 30.3828 55.6466 16.6767 55.6169 16.6526C62.5516 22.5121 56.8153 33.6626 52.3368 38.3001C45.0643 45.8299 33.5903 47.8213 23.921 51.2269C22.4357 51.7502 20.9405 52.2014 19.4368 52.5903L23.4377 56.7201C49.1076 52.5182 71.8719 30.3828 71.8719 30.3828Z" fill="#FEE478"/>
<path d="M23.4365 57.5688C23.2118 57.5688 22.9928 57.4797 22.8331 57.3157L11.6926 46.0054C11.3633 45.6716 11.3676 45.1342 11.7011 44.8047C12.0346 44.4765 12.5716 44.4794 12.9009 44.8131L23.7319 55.8094C36.6785 53.5833 48.8436 46.6942 56.8057 41.2731C63.8012 36.5097 68.8394 32.0377 70.5988 30.4155L54.3538 16.6938C53.1342 17.9893 49.9176 21.1489 44.1997 25.0821C37.6028 29.622 26.3096 36.0656 9.66886 41.2859L10.4716 42.1146C10.798 42.4512 10.7895 42.9887 10.4532 43.314C10.1168 43.6407 9.57983 43.6322 9.25478 43.2956L7.48965 41.474C7.28332 41.2618 7.20418 40.9577 7.27767 40.6706C7.35115 40.3849 7.56879 40.1572 7.85144 40.071C24.9642 34.8592 36.5004 28.3095 43.1638 23.7342C50.3812 18.7785 53.5949 15.0065 53.626 14.9683C53.7715 14.7958 53.9793 14.6883 54.2026 14.6699C54.4273 14.6501 54.6491 14.7208 54.8216 14.8665L72.4205 29.7323C72.6028 29.8865 72.713 30.1114 72.7215 30.3518C72.73 30.5908 72.6367 30.8228 72.4643 30.9897C72.4064 31.0462 66.6178 36.6455 57.7597 42.6761C49.5686 48.2528 36.988 55.3611 23.575 57.5561C23.527 57.5646 23.4818 57.5688 23.4365 57.5688Z" fill="#270089"/>
<path d="M42.1646 45.2483C47.7819 45.2483 52.3356 42.1374 52.3356 38.2998C52.3356 34.4622 47.7819 31.3513 42.1646 31.3513C36.5473 31.3513 31.9935 34.4622 31.9935 38.2998C31.9935 42.1374 36.5473 45.2483 42.1646 45.2483Z" fill="white"/>
<path d="M42.1649 46.0959C39.2791 46.0959 36.5543 45.3209 34.4939 43.9136C32.3344 42.4385 31.1445 40.4443 31.1445 38.3002C31.1445 36.1547 32.3344 34.162 34.4939 32.6868C36.5543 31.2796 39.2791 30.5045 42.1649 30.5045C42.6327 30.5045 43.0128 30.885 43.0128 31.3531C43.0128 31.8213 42.6327 32.2017 42.1649 32.2017C37.0235 32.2017 32.8418 34.9384 32.8418 38.3016C32.8418 41.6649 37.025 44.4016 42.1649 44.4016C47.3062 44.4016 51.488 41.6649 51.488 38.3016C51.488 36.4659 50.2189 34.739 48.0058 33.5637C47.5917 33.3445 47.4348 32.8297 47.6539 32.4167C47.8729 32.0023 48.3873 31.8453 48.8 32.0645C51.5855 33.5439 53.1824 35.8181 53.1824 38.3016C53.1824 40.4457 51.9925 42.4399 49.8331 43.915C47.774 45.3209 45.0507 46.0959 42.1649 46.0959Z" fill="#270089"/>
<path d="M46.3057 32.7997C46.2237 32.7997 46.1403 32.7884 46.0584 32.763C45.5807 32.6173 45.0818 32.4985 44.5731 32.408C44.1123 32.3259 43.8043 31.8861 43.8862 31.425C43.9682 30.9639 44.4063 30.6556 44.8684 30.7376C45.4436 30.8395 46.0103 30.9753 46.553 31.1407C47.001 31.2779 47.254 31.7517 47.1169 32.2001C47.0052 32.565 46.6689 32.7997 46.3057 32.7997Z" fill="#270089"/>
<path d="M32.3253 56.5576V28.7664H4.5553V56.5576" fill="white"/>
<path d="M32.3256 57.4063C31.8578 57.4063 31.4776 57.0258 31.4776 56.5577V29.6151H5.40352V56.5577C5.40352 57.0258 5.02336 57.4063 4.55558 57.4063C4.0878 57.4063 3.70764 57.0258 3.70764 56.5577V28.7665C3.70764 28.2984 4.0878 27.9179 4.55558 27.9179H32.3256C32.7933 27.9179 33.1735 28.2984 33.1735 28.7665V56.5577C33.1735 57.0273 32.7933 57.4063 32.3256 57.4063Z" fill="#270089"/>
<path d="M18.4403 30.5442C26.1088 30.5442 32.3253 29.7122 32.3253 28.6858C32.3253 27.6594 26.1088 26.8274 18.4403 26.8274C10.7718 26.8274 4.5553 27.6594 4.5553 28.6858C4.5553 29.7122 10.7718 30.5442 18.4403 30.5442Z" fill="white"/>
<path d="M18.4406 31.3931C14.6955 31.3931 11.1681 31.1965 8.5098 30.8415C7.1856 30.6647 6.13698 30.4554 5.3908 30.2192C4.93008 30.0736 3.70764 29.686 3.70764 28.6875C3.70764 27.6876 4.93008 27.3015 5.3908 27.1544C6.13698 26.9183 7.1856 26.7089 8.5098 26.5321C11.1681 26.1772 14.6955 25.9806 18.4406 25.9806C22.1856 25.9806 25.713 26.1772 28.3713 26.5321C29.6955 26.7089 30.7441 26.9183 31.4903 27.1544C31.951 27.3001 33.1735 27.6876 33.1735 28.6875C33.1735 29.6875 31.951 30.0736 31.4903 30.2192C30.7441 30.4554 29.6955 30.6647 28.3713 30.8415C25.7116 31.1965 22.1856 31.3931 18.4406 31.3931ZM6.14687 28.6861C7.97842 29.184 12.3623 29.6959 18.4406 29.6959C24.5189 29.6959 28.9027 29.184 30.7343 28.6861C28.9027 28.1883 24.5189 27.6763 18.4406 27.6763C12.3623 27.6763 7.977 28.1883 6.14687 28.6861Z" fill="#270089"/>
<path d="M4.5553 56.4776C4.5553 57.5044 10.7721 58.3361 18.4403 58.3361C26.1085 58.3361 32.3253 57.5044 32.3253 56.4776" fill="white"/>
<path d="M18.4406 59.1841C14.6955 59.1841 11.1681 58.9876 8.5098 58.6326C7.1856 58.4558 6.13698 58.2465 5.3908 58.0103C4.93008 57.8646 3.70764 57.4771 3.70764 56.4786C3.70764 56.0104 4.0878 55.63 4.55558 55.63C4.91737 55.63 5.22686 55.8577 5.3484 56.1773C6.24439 56.7445 11.1116 57.4884 18.4406 57.4884C25.7696 57.4884 30.6367 56.7445 31.5327 56.1773C31.6543 55.8577 31.9638 55.63 32.3256 55.63C32.7933 55.63 33.1735 56.0104 33.1735 56.4786C33.1735 57.4785 31.951 57.8646 31.4903 58.0103C30.7441 58.2465 29.6955 58.4558 28.3713 58.6326C25.7116 58.989 22.1856 59.1841 18.4406 59.1841Z" fill="#270089"/>
<path d="M4.5553 52.9225C4.5553 53.9492 10.7721 54.7809 18.4403 54.7809C26.1085 54.7809 32.3253 53.9492 32.3253 52.9225" fill="white"/>
<path d="M18.4406 55.6299C14.6955 55.6299 11.1681 55.4334 8.5098 55.0784C7.1856 54.9016 6.13698 54.6923 5.3908 54.4561C4.93008 54.3104 3.70764 53.9229 3.70764 52.9244C3.70764 52.4562 4.0878 52.0758 4.55558 52.0758C4.91737 52.0758 5.22686 52.3035 5.3484 52.6231C6.24439 53.1903 11.1116 53.9342 18.4406 53.9342C25.7696 53.9342 30.6367 53.1903 31.5327 52.6231C31.6543 52.3035 31.9638 52.0758 32.3256 52.0758C32.7933 52.0758 33.1735 52.4562 33.1735 52.9244C33.1735 53.9243 31.951 54.3104 31.4903 54.4561C30.7441 54.6923 29.6955 54.9016 28.3713 55.0784C25.7116 55.4334 22.1856 55.6299 18.4406 55.6299Z" fill="#270089"/>
<path d="M4.5553 48.7226C4.5553 49.7494 10.7721 50.581 18.4403 50.581C26.1085 50.581 32.3253 49.7494 32.3253 48.7226" fill="white"/>
<path d="M18.4406 51.4279C14.6955 51.4279 11.1681 51.2313 8.5098 50.8763C7.1856 50.6996 6.13698 50.4902 5.3908 50.2541C4.93008 50.1084 3.70764 49.7209 3.70764 48.7224C3.70764 48.2542 4.0878 47.8738 4.55558 47.8738C4.91737 47.8738 5.22686 48.1015 5.3484 48.4211C6.24439 48.9883 11.1116 49.7322 18.4406 49.7322C25.7696 49.7322 30.6367 48.9883 31.5327 48.4211C31.6543 48.1015 31.9638 47.8738 32.3256 47.8738C32.7933 47.8738 33.1735 48.2542 33.1735 48.7224C33.1735 49.7223 31.951 50.1084 31.4903 50.2541C30.7441 50.4902 29.6955 50.6996 28.3713 50.8763C25.7116 51.2328 22.1856 51.4279 18.4406 51.4279Z" fill="#270089"/>
<path d="M4.5553 44.5204C4.5553 45.5472 10.7721 46.3789 18.4403 46.3789C26.1085 46.3789 32.3253 45.5472 32.3253 44.5204" fill="white"/>
<path d="M18.4406 47.2276C14.6955 47.2276 11.1681 47.031 8.5098 46.676C7.1856 46.4992 6.13698 46.2899 5.3908 46.0537C4.93008 45.9081 3.70764 45.5205 3.70764 44.522C3.70764 44.0539 4.0878 43.6734 4.55558 43.6734C4.91737 43.6734 5.22686 43.9011 5.3484 44.2208C6.24439 44.7879 11.1116 45.5318 18.4406 45.5318C25.7696 45.5318 30.6367 44.7879 31.5327 44.2208C31.6543 43.9011 31.9638 43.6734 32.3256 43.6734C32.7933 43.6734 33.1735 44.0539 33.1735 44.522C33.1735 45.5219 31.951 45.9081 31.4903 46.0537C30.7441 46.2899 29.6955 46.4992 28.3713 46.676C25.7116 47.031 22.1856 47.2276 18.4406 47.2276Z" fill="#270089"/>
<path d="M4.5553 40.3207C4.5553 41.3475 10.7721 42.1792 18.4403 42.1792C26.1085 42.1792 32.3253 41.3475 32.3253 40.3207" fill="white"/>
<path d="M18.4406 43.0274C14.6955 43.0274 11.1681 42.8308 8.5098 42.4758C7.1856 42.299 6.13698 42.0897 5.3908 41.8535C4.93008 41.7078 3.70764 41.3203 3.70764 40.3218C3.70764 39.8537 4.0878 39.4732 4.55558 39.4732C4.91737 39.4732 5.22686 39.7009 5.3484 40.0206C6.24439 40.5877 11.1116 41.3316 18.4406 41.3316C25.7696 41.3316 30.6367 40.5877 31.5327 40.0206C31.6543 39.7009 31.9638 39.4732 32.3256 39.4732C32.7933 39.4732 33.1735 39.8537 33.1735 40.3218C33.1735 41.3217 31.951 41.7093 31.4903 41.8535C30.7441 42.0897 29.6955 42.299 28.3713 42.4758C25.7116 42.8308 22.1856 43.0274 18.4406 43.0274Z" fill="#270089"/>
<path d="M4.5553 36.1183C4.5553 37.145 10.7721 37.9767 18.4403 37.9767C26.1085 37.9767 32.3253 37.145 32.3253 36.1183" fill="white"/>
<path d="M18.4406 38.8252C14.6955 38.8252 11.1681 38.6286 8.5098 38.2736C7.1856 38.0968 6.13698 37.8875 5.3908 37.6513C4.93008 37.5056 3.70764 37.1181 3.70764 36.1182C3.70764 35.6501 4.0878 35.2696 4.55558 35.2696C4.91737 35.2696 5.22686 35.4973 5.3484 35.817C6.24439 36.3841 11.1116 37.128 18.4406 37.128C25.7696 37.128 30.6367 36.3841 31.5327 35.817C31.6543 35.4973 31.9638 35.2696 32.3256 35.2696C32.7933 35.2696 33.1735 35.6501 33.1735 36.1182C33.1735 37.1181 31.951 37.5042 31.4903 37.6513C30.7441 37.8875 29.6955 38.0968 28.3713 38.2736C25.7116 38.63 22.1856 38.8252 18.4406 38.8252Z" fill="#270089"/>
<path d="M4.5553 31.9177C4.5553 32.9445 10.7721 33.7761 18.4403 33.7761C26.1085 33.7761 32.3253 32.9445 32.3253 31.9177" fill="white"/>
<path d="M18.4406 34.6247C14.6955 34.6247 11.1681 34.4281 8.5098 34.0731C7.1856 33.8963 6.13698 33.687 5.3908 33.4508C4.93008 33.3051 3.70764 32.9176 3.70764 31.9177C3.70764 31.4495 4.0878 31.0691 4.55558 31.0691C4.91737 31.0691 5.22686 31.2968 5.3484 31.6164C6.24439 32.1836 11.1116 32.9275 18.4406 32.9275C25.7696 32.9275 30.6367 32.1836 31.5327 31.6164C31.6543 31.2968 31.9638 31.0691 32.3256 31.0691C32.7933 31.0691 33.1735 31.4495 33.1735 31.9177C33.1735 32.9176 31.951 33.3051 31.4903 33.4508C30.7441 33.687 29.6955 33.8963 28.3713 34.0731C25.7116 34.4281 22.1856 34.6247 18.4406 34.6247Z" fill="#270089"/>
<path d="M2.76942 63.3285L4.50063 64.9054C5.25953 65.5956 10.0574 61.5549 15.2186 55.8793C20.3797 50.2037 23.9495 45.0414 23.1906 44.3512L21.4594 42.7743" fill="white"/>
<path d="M4.72819 65.8299C4.44695 65.8299 4.16996 65.7507 3.92971 65.5329L2.1985 63.9559C1.85226 63.6405 1.82683 63.1031 2.14198 62.7566C2.45713 62.41 2.99274 62.3846 3.34039 62.7L4.87375 64.0959C5.98031 63.7155 9.75363 60.6294 14.5925 55.306C19.4328 49.9839 22.1477 45.9333 22.4218 44.7962L20.8899 43.4003C20.5436 43.0849 20.5182 42.5474 20.8334 42.2009C21.1485 41.8544 21.6855 41.829 22.0318 42.1444L23.763 43.7213C24.5021 44.3945 23.9651 45.5599 23.763 45.9984C23.4351 46.7098 22.884 47.6277 22.1236 48.7266C20.5973 50.9343 18.3687 53.6767 15.8475 56.4487C13.3263 59.2208 10.8079 61.7001 8.75589 63.4284C7.73413 64.2897 6.87347 64.9247 6.19653 65.3179C5.91389 65.4819 5.31468 65.8299 4.72819 65.8299Z" fill="#270089"/>
<path d="M13.4247 54.2408C18.5856 48.5649 22.1544 43.4036 21.3959 42.7129C20.6374 42.0222 15.8388 46.0634 10.6779 51.7394C5.51701 57.4153 1.9482 62.5765 2.70672 63.2672C3.46524 63.958 8.26386 59.9167 13.4247 54.2408Z" fill="white"/>
<path d="M2.9376 64.1977C2.65636 64.1977 2.37937 64.1185 2.13912 63.9007C1.4 63.2275 1.93703 62.0621 2.13912 61.6236C2.46699 60.9122 3.01815 59.9944 3.77847 58.8954C5.30476 56.6877 7.53342 53.9453 10.0546 51.1733C12.5758 48.4012 15.0942 45.922 17.1462 44.1951C18.168 43.3338 19.0286 42.6987 19.7056 42.3056C20.1225 42.0623 21.2319 41.4174 21.971 42.0906C22.7101 42.7638 22.1731 43.9292 21.971 44.3676C21.6431 45.079 21.0919 45.9969 20.3316 47.0958C18.8053 49.3036 16.5767 52.0459 14.0555 54.818C11.5343 57.59 9.0159 60.0693 6.96389 61.7976C5.94212 62.6575 5.08147 63.294 4.40453 63.6871C4.12188 63.8498 3.52409 64.1977 2.9376 64.1977ZM20.3288 43.8967C18.729 44.9164 15.3995 47.8171 11.3082 52.3161C7.21685 56.815 4.64477 60.4045 3.77988 62.0946C5.37965 61.0749 8.70922 58.1741 12.8005 53.6752C16.8918 49.1763 19.4653 45.5868 20.3288 43.8967Z" fill="#270089"/>
</svg>
