<svg width="80" height="80" viewBox="0 0 80 80" fill="none" xmlns="http://www.w3.org/2000/svg">
<path d="M42.5281 8.30301L5.87305 16.3892L16.5518 65.5718L53.2068 57.4856L42.5281 8.30301Z" fill="white"/>
<path d="M16.5505 66.6023C16.356 66.6023 16.165 66.5473 15.9978 66.439C15.7692 66.2911 15.6089 66.059 15.5509 65.7907L4.87228 16.6109C4.75117 16.0538 5.10087 15.5036 5.65356 15.3832L42.3071 7.29664C42.5732 7.23817 42.8495 7.28804 43.0781 7.43591C43.3067 7.58378 43.4671 7.81591 43.5251 8.08415L54.2036 57.2657C54.3248 57.8228 53.9751 58.373 53.4224 58.4934L16.7689 66.58C16.6972 66.5954 16.6239 66.6023 16.5505 66.6023ZM7.08988 17.1766L17.3301 64.343L51.9843 56.6983L41.7441 9.53193L7.08988 17.1766Z" fill="#270089"/>
<path d="M15.6146 28.4877C15.1438 28.4877 14.7208 28.1593 14.615 27.6761C14.4939 27.119 14.8436 26.5688 15.3963 26.4484L38.0414 21.4534C38.5958 21.3313 39.14 21.6838 39.2594 22.2409C39.3805 22.798 39.0308 23.3483 38.4781 23.4686L15.8347 28.4636C15.7613 28.4791 15.688 28.4877 15.6146 28.4877Z" fill="#270089"/>
<path d="M16.4468 32.3238C15.976 32.3238 15.5529 31.9954 15.4471 31.5122C15.326 30.9551 15.6757 30.4049 16.2284 30.2845L38.8735 25.2895C39.4262 25.1674 39.9721 25.5199 40.0915 26.077C40.2126 26.6341 39.8629 27.1843 39.3102 27.3047L16.6668 32.2997C16.5935 32.3169 16.5201 32.3238 16.4468 32.3238Z" fill="#270089"/>
<path d="M17.2813 36.1615C16.8105 36.1615 16.3874 35.8331 16.2817 35.35C16.1605 34.7928 16.5102 34.2426 17.0629 34.1223L39.708 29.1273C40.2624 29.0052 40.8066 29.3577 40.926 29.9148C41.0471 30.4719 40.6974 31.0221 40.1447 31.1424L17.5013 36.1375C17.4263 36.1529 17.3529 36.1615 17.2813 36.1615Z" fill="#270089"/>
<path d="M20.4541 50.7752C19.9833 50.7752 19.5602 50.4468 19.4545 49.9637C19.3333 49.4066 19.683 48.8563 20.2357 48.736L42.8808 43.741C43.4335 43.6189 43.9794 43.9714 44.0988 44.5285C44.2199 45.0856 43.8702 45.6358 43.3175 45.7562L20.6741 50.7512C20.5991 50.7666 20.5257 50.7752 20.4541 50.7752Z" fill="#270089"/>
<path d="M25.6414 53.6398C25.1706 53.6398 24.7476 53.3114 24.6418 52.8282C24.5207 52.2711 24.8704 51.7209 25.4231 51.6005L39.3547 48.5279C39.9074 48.4058 40.4533 48.7583 40.5727 49.3154C40.6938 49.8725 40.3441 50.4227 39.7914 50.5431L25.8598 53.6157C25.7864 53.6312 25.7131 53.6398 25.6414 53.6398Z" fill="#270089"/>
<path d="M18.883 22.5126C18.4122 22.5126 17.9891 22.1841 17.8833 21.701C17.7622 21.1439 18.1119 20.5937 18.6646 20.4733L32.5963 17.4006C33.149 17.2785 33.6948 17.631 33.8142 18.1881C33.9354 18.7452 33.5857 19.2955 33.033 19.4158L19.103 22.4885C19.0297 22.5057 18.9546 22.5126 18.883 22.5126Z" fill="#270089"/>
<path d="M60.0444 15.64L23.3894 23.7261L34.0681 72.9087L70.7231 64.8226L60.0444 15.64Z" fill="white"/>
<path d="M34.0668 73.9379C33.8723 73.9379 33.6813 73.8829 33.5141 73.7746C33.2855 73.6267 33.1252 73.3946 33.0672 73.1264L22.3886 23.9448C22.2675 23.3877 22.6172 22.8375 23.1699 22.7171L59.8234 14.6306C60.0895 14.5721 60.3658 14.622 60.5944 14.7698C60.823 14.9177 60.9834 15.1498 61.0414 15.4181L71.72 64.5996C71.8411 65.1567 71.4914 65.7069 70.9387 65.8273L34.2852 73.9139C34.2135 73.9311 34.1402 73.9379 34.0668 73.9379ZM24.6079 24.5123L34.8481 71.6786L69.5024 64.0339L59.2604 16.8676L24.6079 24.5123Z" fill="#270089"/>
<path d="M33.1303 35.8246C32.6595 35.8246 32.2365 35.4961 32.1307 35.013C32.0096 34.4559 32.3593 33.9056 32.912 33.7853L55.5571 28.7903C56.1098 28.6682 56.6556 29.0207 56.775 29.5778C56.8962 30.1349 56.5465 30.6851 55.9938 30.8055L33.3487 35.8005C33.277 35.816 33.2037 35.8246 33.1303 35.8246Z" fill="#270089"/>
<path d="M33.9644 39.6607C33.4936 39.6607 33.0705 39.3323 32.9648 38.8491C32.8436 38.292 33.1933 37.7418 33.746 37.6214L56.3911 32.6264C56.9455 32.5043 57.4897 32.8568 57.6091 33.4139C57.7302 33.971 57.3805 34.5212 56.8278 34.6416L34.1827 39.6366C34.1094 39.6538 34.036 39.6607 33.9644 39.6607Z" fill="#270089"/>
<path d="M34.797 43.4985C34.3262 43.4985 33.9032 43.1701 33.7974 42.6869C33.6763 42.1298 34.026 41.5796 34.5787 41.4592L57.2238 36.4642C57.7765 36.3421 58.3224 36.6946 58.4418 37.2517C58.5629 37.8088 58.2132 38.3591 57.6605 38.4794L35.0154 43.4744C34.9437 43.4916 34.8687 43.4985 34.797 43.4985Z" fill="#270089"/>
<path d="M37.9696 58.1122C37.4988 58.1122 37.0757 57.7837 36.9699 57.3006C36.8488 56.7435 37.1985 56.1932 37.7512 56.0729L60.3963 51.0779C60.949 50.9558 61.4949 51.3083 61.6143 51.8654C61.7354 52.4225 61.3857 52.9727 60.833 53.0931L38.1879 58.0881C38.1146 58.1036 38.0412 58.1122 37.9696 58.1122Z" fill="#270089"/>
<path d="M43.1571 60.9767C42.6863 60.9767 42.2632 60.6483 42.1574 60.1652C42.0363 59.6081 42.386 59.0578 42.9387 58.9375L56.8704 55.8648C57.4231 55.7427 57.9689 56.0952 58.0883 56.6523C58.2095 57.2094 57.8598 57.7596 57.3071 57.88L43.3754 60.9527C43.3021 60.9681 43.2287 60.9767 43.1571 60.9767Z" fill="#270089"/>
<path d="M36.3987 29.8495C35.9279 29.8495 35.5048 29.5211 35.3991 29.0379C35.2779 28.4808 35.6276 27.9306 36.1803 27.8102L50.112 24.7375C50.6647 24.6155 51.2106 24.9679 51.33 25.5251C51.4511 26.0822 51.1014 26.6324 50.5487 26.7527L36.617 29.8254C36.5454 29.8426 36.4703 29.8495 36.3987 29.8495Z" fill="#270089"/>
<path d="M61.3667 57.4C53.9933 57.4 48 51.4 48 44.0334C48 36.6667 54 30.6667 61.3667 30.6667C68.7333 30.6667 74.7333 36.6667 74.7333 44.0334C74.7333 51.4 68.7333 57.4 61.3667 57.4ZM61.3667 33.8467C55.7467 33.8467 51.18 38.4134 51.18 44.0334C51.18 49.6534 55.7467 54.22 61.3667 54.22C66.9867 54.22 71.5533 49.6534 71.5533 44.0334C71.5533 38.4134 66.9867 33.8467 61.3667 33.8467Z" fill="#270089"/>
<path d="M61.3669 54.72C67.3611 54.72 72.2203 49.8608 72.2203 43.8667C72.2203 37.8726 67.3611 33.0134 61.3669 33.0134C55.3728 33.0134 50.5136 37.8726 50.5136 43.8667C50.5136 49.8608 55.3728 54.72 61.3669 54.72Z" fill="#FEE478"/>
<path d="M65.2256 39.0211L65.7099 39.4496C66.0436 39.7448 66.0747 40.2546 65.7795 40.5883L62.9646 43.7699L66.1488 46.587C66.4824 46.8822 66.5136 47.392 66.2184 47.7257L65.7899 48.21C65.4947 48.5437 64.9849 48.5749 64.6512 48.2797L61.4671 45.4626L58.6497 48.6471C58.3545 48.9807 57.8447 49.0119 57.5111 48.7167L57.0267 48.2882C56.6931 47.993 56.6619 47.4832 56.9571 47.1495L59.7745 43.9651L56.5925 41.1499C56.2588 40.8547 56.2276 40.3449 56.5228 40.0112L56.9513 39.5269C57.2465 39.1932 57.7563 39.162 58.09 39.4572L61.272 42.2724L64.0869 39.0908C64.3821 38.7571 64.8919 38.7259 65.2256 39.0211Z" fill="#F154A9"/>
</svg>
