<svg width="80" height="80" viewBox="0 0 80 80" fill="none" xmlns="http://www.w3.org/2000/svg">
<path d="M57.7615 59.8818L20.444 68.012C13.0142 53.3026 9.27328 37.0196 9.54074 20.5569L9.57374 18.5563L46.8895 10.4243L46.8565 12.373C46.5821 28.8341 50.3144 45.1153 57.7337 59.8265L57.7615 59.8818Z" fill="white"/>
<path d="M20.4443 69.0496C20.0571 69.0496 19.6941 68.8334 19.5135 68.4772C12.0385 53.6796 8.2298 37.1027 8.499 20.5396L8.532 18.5391C8.53894 18.0584 8.87935 17.6451 9.35174 17.5431L46.6675 9.41114C46.9784 9.3437 47.3049 9.42151 47.5498 9.62209C47.7964 9.82266 47.9371 10.1253 47.9318 10.4417L47.8988 12.3904C47.6279 28.6163 51.3515 44.8594 58.6649 59.3614L58.6927 59.4168C58.8369 59.7038 58.8404 60.0392 58.7014 60.328C58.5625 60.6168 58.2985 60.826 57.9841 60.8934L20.6667 69.0271C20.5937 69.0427 20.5173 69.0496 20.4443 69.0496ZM10.6022 19.3932L10.5831 20.5725C10.3226 36.5338 13.9298 52.509 21.0157 66.826L56.237 59.1522C49.1458 44.645 45.5456 28.4935 45.8165 12.3575L45.8269 11.7195L10.6022 19.3932Z" fill="#270089"/>
<path d="M67.406 52.8669C68.7971 52.6836 68.5818 50.7401 69.3181 51.3799C70.1726 52.1234 71.8 53.894 72.1334 54.3574C73.3821 56.0882 73.1355 59.1176 71.1365 62.7539C67.736 68.9354 60.5528 74.5308 55.0907 75.2501C53.1907 75.5008 51.7509 75.1291 50.8218 74.2766C50.5352 74.0138 48.2184 71.6951 48.0308 71.3458C47.0791 69.5683 49.5053 68.7314 51.3602 65.3631C54.7607 59.1816 61.9439 53.5862 67.406 52.8669Z" fill="white"/>
<path d="M53.9754 76.3636C52.0129 76.3636 50.8093 75.6772 50.1146 75.0392C50.0903 75.0167 47.4296 72.4299 47.11 71.8334C46.2 70.1337 47.2802 68.9112 48.3275 67.7302C48.9979 66.9729 49.7586 66.1135 50.4446 64.8651C52.1553 61.7545 54.8264 58.6957 57.9664 56.2507C61.1412 53.7781 64.4445 52.2116 67.2667 51.8381C67.4039 51.8208 67.4803 51.743 67.7026 51.2917C67.8833 50.9251 68.1559 50.3701 68.8107 50.2387C69.099 50.1816 69.5384 50.1972 70.0021 50.5983C70.9191 51.3954 72.5968 53.2213 72.9789 53.7522C74.5281 55.8997 74.1894 59.3614 72.048 63.2519C70.3373 66.3625 67.6662 69.4213 64.5261 71.8663C61.3514 74.3389 58.0481 75.9054 55.2259 76.2789C54.7795 76.336 54.3627 76.3636 53.9754 76.3636ZM48.9319 70.8236C49.2375 71.2299 51.174 73.189 51.5266 73.5141C52.2491 74.1781 53.4353 74.4219 54.9514 74.2213C60.1148 73.54 66.9645 68.1712 70.2209 62.2542C71.9351 59.1401 72.3328 56.4133 71.2856 54.9626C71.065 54.6582 70.0785 53.5654 69.2675 52.7614C68.9548 53.2421 68.4373 53.7781 67.5411 53.8957C62.3778 54.577 55.528 59.9458 52.2716 65.8628C51.4745 67.3135 50.5957 68.306 49.8906 69.1031C48.8485 70.2807 48.7617 70.4847 48.9319 70.8236ZM48.9492 70.8547C48.9492 70.8547 48.9492 70.8565 48.951 70.8565C48.9492 70.8565 48.9492 70.8565 48.9492 70.8547Z" fill="#270089"/>
<path d="M65.1026 50.4944C70.5629 49.7734 72.2337 54.1999 68.8331 60.3797C65.4326 66.5595 58.2494 72.1549 52.7873 72.8759C47.327 73.597 45.6562 69.1705 49.0568 62.9889C52.4573 56.8091 59.6405 51.2155 65.1026 50.4944Z" fill="white"/>
<path d="M51.6864 73.9895C49.6753 73.9895 48.0931 73.2702 47.1553 71.9094C45.6738 69.7567 46.0333 66.3244 48.1435 62.491C49.8542 59.3804 52.5253 56.3216 55.6653 53.8766C58.8401 51.404 62.1434 49.8375 64.9656 49.464C67.5655 49.1199 69.6131 49.8288 70.7351 51.4594C72.2165 53.6121 71.857 57.0444 69.7469 60.8778C68.0362 63.9884 65.3651 67.0472 62.225 69.4922C59.0502 71.9648 55.747 73.5313 52.9247 73.9048C52.4958 73.9619 52.0824 73.9895 51.6864 73.9895ZM65.2383 51.5216C60.0749 52.2029 53.2252 57.5717 49.9705 63.4887C48.2772 66.5648 47.8673 69.2743 48.8746 70.7371C49.7135 71.9561 51.3912 72.0149 52.6503 71.8489C57.8137 71.1677 64.6634 65.7988 67.9198 59.8818C69.6131 56.8057 70.023 54.0962 69.0157 52.6334C68.1751 51.4144 66.4974 51.3556 65.2383 51.5216Z" fill="#270089"/>
<path d="M64.4425 38.0865C64.6665 39.4646 66.6117 39.1948 65.9899 39.947C65.2692 40.8185 63.5376 42.4905 63.0826 42.8363C61.3806 44.1297 58.3326 43.9723 54.6247 42.0876C48.3203 38.8819 42.4952 31.8946 41.613 26.4807C41.3056 24.5978 41.6373 23.154 42.4657 22.2047C42.721 21.9125 44.9822 19.5384 45.3261 19.343C47.082 18.3436 47.9938 20.7349 51.429 22.4831C57.7352 25.6854 63.5602 32.6727 64.4425 38.0865Z" fill="white"/>
<path d="M60.2171 44.7141C58.4508 44.7141 56.3771 44.1435 54.1506 43.011C50.9793 41.3977 47.8289 38.8283 45.2828 35.7747C42.7089 32.6865 41.0399 29.4444 40.5831 26.6467C40.1438 23.9528 40.9357 22.3741 41.679 21.5234C41.7016 21.4975 44.2077 18.7828 44.8087 18.4404C46.4898 17.4842 47.7472 18.5251 48.9647 19.5315C49.7445 20.1764 50.6302 20.9078 51.9033 21.5563C55.0746 23.1695 58.225 25.739 60.7711 28.7926C63.345 31.8807 65.014 35.1228 65.4708 37.9205C65.4933 38.0553 65.5732 38.1314 66.0317 38.3389C66.4051 38.5084 66.9696 38.7626 67.1207 39.411C67.1867 39.6963 67.1849 40.1337 66.7924 40.6075C66.0196 41.5429 64.2325 43.2669 63.7132 43.6611C62.7892 44.3631 61.5978 44.7124 60.2171 44.7141ZM45.8785 20.2231C45.479 20.5395 43.5686 22.5228 43.2525 22.8842C42.6082 23.6225 42.3963 24.8087 42.6412 26.313C43.4748 31.4329 49.0637 38.0934 55.0989 41.1608C58.2754 42.7758 61.0247 43.0922 62.4506 42.0098C62.751 41.7816 63.8174 40.7683 64.6024 39.9366C64.1109 39.6392 63.5586 39.1395 63.4144 38.2507C62.5808 33.1326 56.9919 26.4704 50.9567 23.4029C49.477 22.6508 48.4558 21.8053 47.6343 21.1274C46.4204 20.1246 46.2137 20.045 45.8785 20.2231Z" fill="#270089"/>
<path d="M66.7579 35.7262C67.6402 41.14 63.2445 42.9297 56.9401 39.7256C50.6357 36.5216 44.8107 29.5343 43.9284 24.1205C43.0461 18.7067 47.4418 16.9171 53.7462 20.1211C60.0506 23.3251 65.8757 30.3124 66.7579 35.7262Z" fill="white"/>
<path d="M62.5324 42.3504C60.7643 42.3504 58.6889 41.7798 56.4659 40.649C53.2946 39.0357 50.1441 36.4663 47.5981 33.4127C45.0242 30.3245 43.3552 27.0842 42.8984 24.2848C42.4781 21.7084 43.1312 19.649 44.7342 18.4854C46.8513 16.9499 50.3091 17.2076 54.2185 19.196C57.3898 20.8093 60.5403 23.3787 63.0864 26.4323C65.6602 29.5205 67.3293 32.7608 67.786 35.5602C68.2063 38.1366 67.5533 40.196 65.9503 41.3596C65.0367 42.0219 63.8731 42.3504 62.5324 42.3504ZM48.1556 19.5626C47.2663 19.5626 46.5178 19.7614 45.9638 20.1643C44.7637 21.0358 44.755 22.7061 44.9582 23.9545C45.7918 29.0744 51.3807 35.7349 57.4159 38.8023C60.5542 40.3983 63.2861 40.7268 64.7241 39.6824C65.9242 38.8109 65.9329 37.1406 65.7297 35.8922C64.8961 30.7724 59.3072 24.1119 53.272 21.0444C51.3442 20.064 49.571 19.5626 48.1556 19.5626Z" fill="#270089"/>
<path d="M30.2113 60.5077C36.305 60.5077 41.2449 55.5896 41.2449 49.5227C41.2449 43.4559 36.305 38.5378 30.2113 38.5378C24.1176 38.5378 19.1777 43.4559 19.1777 49.5227C19.1777 55.5896 24.1176 60.5077 30.2113 60.5077Z" fill="white"/>
<path d="M30.2117 61.5452C23.553 61.5452 18.136 56.1521 18.136 49.5228C18.136 42.8934 23.553 37.5003 30.2117 37.5003C36.8703 37.5003 42.2873 42.8934 42.2873 49.5228C42.2873 56.1521 36.8703 61.5452 30.2117 61.5452ZM30.2117 39.5752C24.7027 39.5752 20.2201 44.0381 20.2201 49.5228C20.2201 55.0075 24.7027 59.4703 30.2117 59.4703C35.7206 59.4703 40.2032 55.0075 40.2032 49.5228C40.2032 44.0381 35.7206 39.5752 30.2117 39.5752Z" fill="#270089"/>
<path d="M30.3853 56.3596C30.3436 56.3596 30.3002 56.3579 30.2585 56.3561C29.4683 56.3129 28.7545 55.8772 28.3568 55.1959L24.0548 47.8074C23.4053 46.6922 23.7874 45.2639 24.9076 44.6173C26.0278 43.9706 27.4623 44.351 28.1119 45.4662L30.618 49.77L40.8214 35.951C41.5891 34.9118 43.0566 34.6888 44.0987 35.453C45.1424 36.2173 45.3665 37.6784 44.5988 38.7158L32.2749 55.4069C31.8303 56.0086 31.1286 56.3596 30.3853 56.3596Z" fill="#F154A9"/>
<path d="M44.0983 35.453C43.0545 34.6888 41.587 34.9118 40.8211 35.951L32.3787 47.3838C32.5073 50.1452 32.5976 52.9048 32.1061 55.6074C32.1651 55.5434 32.2207 55.4777 32.2745 55.4068L44.5985 38.7158C45.3644 37.6784 45.1421 36.2173 44.0983 35.453Z" fill="#FEE478"/>
<path d="M30.3852 57.3971C30.3245 57.3971 30.2637 57.3954 30.2046 57.3919C29.0566 57.3296 28.0302 56.7037 27.4554 55.7164L23.1534 48.3279C22.7001 47.5481 22.5786 46.6403 22.8096 45.7706C23.0423 44.9009 23.6015 44.1712 24.3831 43.7199C25.1663 43.2686 26.0781 43.1458 26.9517 43.3775C27.8253 43.6092 28.5565 44.166 29.0115 44.9458L30.7187 47.8784L39.979 35.3372C41.0853 33.8398 43.2094 33.5165 44.7134 34.6179C45.4429 35.1505 45.9187 35.9355 46.0559 36.826C46.1931 37.7165 45.9726 38.6069 45.4359 39.3314L33.1119 56.0224C32.478 56.8835 31.4586 57.3971 30.3852 57.3971ZM26.0799 45.3401C25.8541 45.3401 25.63 45.3989 25.4286 45.5147C25.1281 45.6893 24.9128 45.9695 24.8224 46.3032C24.7321 46.6369 24.779 46.9879 24.9544 47.287L29.2564 54.6755C29.4769 55.0559 29.8729 55.2962 30.3123 55.3204C30.3349 55.3222 30.3592 55.3222 30.3835 55.3222C30.7969 55.3222 31.1876 55.125 31.4325 54.7931L43.7565 38.102C43.9631 37.8237 44.0465 37.4813 43.9944 37.1389C43.9423 36.7966 43.7582 36.4957 43.4786 36.2899C42.9003 35.8663 42.0822 35.9908 41.6567 36.5666L30.5103 51.6617L27.2053 45.9867C27.0316 45.6876 26.7485 45.4732 26.4133 45.3833C26.3056 45.3539 26.1927 45.3401 26.0799 45.3401Z" fill="#270089"/>
<path d="M20.8901 33.6133V34.611H19.1395V33.5649C17.5955 33.3592 16.1783 32.773 15.0651 31.7891L16.7844 29.7453C17.8977 30.6168 19.1082 31.0767 20.3986 31.0767C21.2427 31.0767 21.6873 30.7914 21.6873 30.3159C21.6873 29.792 21.3052 29.7142 19.7925 29.3649C17.4201 28.8255 15.5896 28.2082 15.5896 25.9413C15.5896 23.9926 16.9737 22.6612 19.1395 22.407V21.4093H20.8901V22.407C22.3229 22.5661 23.5004 23.0416 24.4887 23.8335L22.9447 26.0053C21.9252 25.2756 20.812 24.9125 19.8255 24.9125C19.077 24.9125 18.7105 25.2134 18.7105 25.6266C18.7105 26.1817 19.0926 26.3563 20.6522 26.6883C23.1983 27.2278 24.7908 27.909 24.7908 29.984C24.7908 32.1073 23.2781 33.4231 20.8901 33.6133Z" fill="#270089"/>
</svg>
