<svg width="80" height="80" viewBox="0 0 80 80" fill="none" xmlns="http://www.w3.org/2000/svg">
<g opacity="0.8">
<path d="M13.5 16.7264V6.35222H66.2971V66.3742H13.5V25.7111" fill="white"/>
<path d="M66.3511 67.3004H13.5658C13.0692 67.3004 12.6667 66.8567 12.6667 66.3601V25.6869C12.6667 25.1903 13.05 24.7877 13.5466 24.7877C14.0432 24.7877 14.4266 25.1902 14.4266 25.6869V65.4479H65.4637V7.18586H14.4266V16.6954C14.4266 17.1919 14.0432 17.5946 13.5466 17.5946C13.05 17.5946 12.6667 17.192 12.6667 16.6954V6.27581C12.6667 5.77915 13.0692 5.33334 13.5658 5.33334H66.3511C66.8477 5.33334 67.2236 5.77915 67.2236 6.27581V66.3601C67.2236 66.8567 66.8477 67.3004 66.3511 67.3004Z" fill="#270089"/>
<path d="M13.5466 23.5184C13.05 23.5184 12.6667 23.1158 12.6667 22.6192V19.5516C12.6667 19.055 13.05 18.6523 13.5466 18.6523C14.0432 18.6523 14.4266 19.0549 14.4266 19.5516V22.6193C14.4266 23.1157 14.0432 23.5184 13.5466 23.5184Z" fill="#270089"/>
<path d="M49.6905 14.2254H29.5918C29.0952 14.2254 28.6927 13.842 28.6927 13.3455C28.6927 12.8489 29.0952 12.4655 29.5918 12.4655H49.6905C50.1869 12.4655 50.5896 12.8489 50.5896 13.3455C50.5896 13.842 50.1869 14.2254 49.6905 14.2254Z" fill="#270089"/>
<path d="M54.8734 23.4881H31.9187C31.4222 23.4881 31.0195 23.0584 31.0195 22.5618C31.0195 22.0653 31.4221 21.6356 31.9187 21.6356H54.8734C55.37 21.6356 55.7726 22.0653 55.7726 22.5618C55.7726 23.0584 55.37 23.4881 54.8734 23.4881Z" fill="#270089"/>
<path d="M20.7923 22.347L22.1145 21.6672V25.6186" fill="white"/>
<path d="M22.1605 26.4801C21.664 26.4801 21.2806 26.0775 21.2806 25.581V23.1219L21.2366 23.1324C20.7924 23.3548 20.2409 23.1743 20.0188 22.7303C19.7967 22.2862 19.971 21.746 20.4152 21.524L21.7346 20.8629C22.0133 20.7235 22.3467 20.7384 22.6117 20.9022C22.8768 21.0661 23.0405 21.3555 23.0405 21.667V25.581C23.0405 26.0775 22.6571 26.4801 22.1605 26.4801Z" fill="#270089"/>
<path d="M26.0214 25.5811C26.9123 25.5811 27.6346 24.6457 27.6346 23.4919C27.6346 22.338 26.9123 21.4027 26.0214 21.4027C25.1304 21.4027 24.4082 22.338 24.4082 23.4919C24.4082 24.6457 25.1304 25.5811 26.0214 25.5811Z" fill="white"/>
<path d="M26.0214 26.4802C24.6361 26.4802 23.5091 25.1396 23.5091 23.4919C23.5091 21.8442 24.6361 20.5036 26.0214 20.5036C27.4067 20.5036 28.5338 21.8442 28.5338 23.4919C28.5338 25.1396 27.4067 26.4802 26.0214 26.4802ZM26.0214 22.3018C25.6843 22.3018 25.3074 22.8107 25.3074 23.4919C25.3074 24.1731 25.6843 24.682 26.0214 24.682C26.3585 24.682 26.7355 24.1731 26.7355 23.4919C26.7355 22.8107 26.3585 22.3018 26.0214 22.3018Z" fill="#270089"/>
<path d="M44.401 26.7301H31.9187C31.4222 26.7301 31.0195 26.3467 31.0195 25.8502C31.0195 25.3536 31.4221 24.9702 31.9187 24.9702H44.4011C44.8976 24.9702 45.3002 25.3536 45.3002 25.8502C45.3002 26.3467 44.8976 26.7301 44.401 26.7301Z" fill="#270089"/>
<path d="M55.2966 33.3992H32.3418C31.8452 33.3992 31.4427 33.0158 31.4427 32.5193C31.4427 32.0227 31.8452 31.6393 32.3418 31.6393H55.2966C55.7932 31.6393 56.1957 32.0227 56.1957 32.5193C56.1957 33.0158 55.7933 33.3992 55.2966 33.3992Z" fill="#270089"/>
<path d="M21.1628 32.2743L22.485 31.6107V35.5296" fill="white"/>
<path d="M22.5311 36.4237C22.0345 36.4237 21.6512 36.0212 21.6512 35.5245V33.0654L21.6336 33.0759C21.1893 33.2983 20.651 33.118 20.429 32.6738C20.2068 32.2297 20.3877 31.6896 20.8319 31.4675L22.1546 30.8064C22.4335 30.667 22.7419 30.6819 23.007 30.8457C23.2721 31.0096 23.4112 31.299 23.4112 31.6106V35.5245C23.4111 36.0212 23.0276 36.4237 22.5311 36.4237Z" fill="#270089"/>
<path d="M26.4445 35.5246C27.3355 35.5246 28.0577 34.5892 28.0577 33.4354C28.0577 32.2816 27.3355 31.3462 26.4445 31.3462C25.5536 31.3462 24.8314 32.2816 24.8314 33.4354C24.8314 34.5892 25.5536 35.5246 26.4445 35.5246Z" fill="white"/>
<path d="M26.4447 36.4237C25.0594 36.4237 23.9323 35.0831 23.9323 33.4354C23.9323 31.7876 25.0594 30.4469 26.4447 30.4469C27.83 30.4469 28.957 31.7875 28.957 33.4354C28.957 35.0832 27.8299 36.4237 26.4447 36.4237ZM26.4447 32.2453C26.1076 32.2453 25.7306 32.7543 25.7306 33.4354C25.7306 34.1164 26.1076 34.6254 26.4447 34.6254C26.7817 34.6254 27.1586 34.1164 27.1586 33.4354C27.1586 32.7543 26.7817 32.2453 26.4447 32.2453Z" fill="#270089"/>
<path d="M44.8242 36.7337H32.3418C31.8452 36.7337 31.4427 36.304 31.4427 35.8075C31.4427 35.3109 31.8452 34.8812 32.3418 34.8812H44.8241C45.3206 34.8812 45.7233 35.3109 45.7233 35.8075C45.7233 36.304 45.3207 36.7337 44.8242 36.7337Z" fill="#270089"/>
<path d="M55.6143 43.2176H32.6596C32.1631 43.2176 31.7604 42.8342 31.7604 42.3376C31.7604 41.8411 32.163 41.4577 32.6596 41.4577H55.6143C56.1109 41.4577 56.5134 41.8411 56.5134 42.3376C56.5134 42.8342 56.1109 43.2176 55.6143 43.2176Z" fill="#270089"/>
<path d="M21.5332 42.1023L22.8554 41.4482V45.3479" fill="white"/>
<path d="M22.8555 46.2614C22.359 46.2614 21.9293 45.8588 21.9293 45.3622V42.9031L21.9313 42.9136C21.487 43.136 20.9586 42.9557 20.7365 42.5115C20.5145 42.0673 20.7002 41.5273 21.1444 41.3053L22.4696 40.6441C22.7484 40.5048 23.0848 40.5195 23.3499 40.6835C23.6149 40.8473 23.7818 41.1367 23.7818 41.4483V45.3622C23.7818 45.8589 23.3521 46.2614 22.8555 46.2614Z" fill="#270089"/>
<path d="M26.7623 45.3623C27.6532 45.3623 28.3754 44.4269 28.3754 43.2731C28.3754 42.1193 27.6532 41.1839 26.7623 41.1839C25.8713 41.1839 25.1491 42.1193 25.1491 43.2731C25.1491 44.4269 25.8713 45.3623 26.7623 45.3623Z" fill="white"/>
<path d="M26.7623 46.2615C25.377 46.2615 24.25 44.9209 24.25 43.2731C24.25 41.6253 25.377 40.2847 26.7623 40.2847C28.1476 40.2847 29.2747 41.6253 29.2747 43.2731C29.2747 44.921 28.1476 46.2615 26.7623 46.2615ZM26.7623 42.0831C26.4252 42.0831 26.0483 42.5921 26.0483 43.2732C26.0483 43.9543 26.4252 44.4632 26.7623 44.4632C27.0994 44.4632 27.4764 43.9543 27.4764 43.2732C27.4764 42.5921 27.0994 42.0831 26.7623 42.0831Z" fill="#270089"/>
<path d="M45.142 46.5521H32.6596C32.1631 46.5521 31.7604 46.1224 31.7604 45.6258C31.7604 45.1292 32.163 44.6996 32.6596 44.6996H45.142C45.6384 44.6996 46.0411 45.1292 46.0411 45.6258C46.0411 46.1224 45.6384 46.5521 45.142 46.5521Z" fill="#270089"/>
<path d="M48.6055 61.4099V73.3946L54.249 68.5813L59.628 73.3946V61.3368L48.6055 61.4099Z" fill="#F154A9"/>
<path d="M54.2559 63.5568L59.6282 61.494V73.2887L54.2559 69.1102V63.5568Z" fill="#FEE478"/>
<path d="M59.6871 74.2937C59.4696 74.2937 59.2549 74.2148 59.0867 74.0641L54.3042 69.7763L49.2696 74.0781C49.0029 74.3061 48.6209 74.358 48.302 74.2112C47.9834 74.0643 47.7721 73.7455 47.7721 73.3946V61.4099C47.7721 60.9157 48.1782 60.5141 48.6725 60.5108L59.6774 60.4375C59.9202 60.4386 60.1331 60.5299 60.3031 60.6988C60.473 60.8676 60.5547 61.0972 60.5547 61.3367V73.3946C60.5547 73.7493 60.3618 74.071 60.0379 74.2156C59.9201 74.2681 59.811 74.2937 59.6871 74.2937ZM49.6247 62.3031V71.4436L53.7543 67.8978C54.0967 67.605 54.5966 67.6111 54.9321 67.9119L58.7947 71.3808V62.2419L49.6247 62.3031Z" fill="#270089"/>
<path d="M54.1861 63.0278C58.4217 63.0278 61.8553 59.5942 61.8553 55.3586C61.8553 51.1231 58.4217 47.6895 54.1861 47.6895C49.9505 47.6895 46.5169 51.1231 46.5169 55.3586C46.5169 59.5942 49.9505 63.0278 54.1861 63.0278Z" fill="#F154A9"/>
<path d="M54.1862 63.9271C49.4616 63.9271 45.6178 60.0833 45.6178 55.3587C45.6178 50.6342 49.4616 46.7904 54.1862 46.7904C58.9107 46.7904 62.7546 50.6342 62.7546 55.3587C62.7546 60.0833 58.9107 63.9271 54.1862 63.9271ZM54.1862 48.5886C50.4531 48.5886 47.4162 51.6257 47.4162 55.3587C47.4162 59.0918 50.4531 62.1289 54.1862 62.1289C57.9193 62.1289 60.9563 59.0918 60.9563 55.3587C60.9563 51.6257 57.9193 48.5886 54.1862 48.5886Z" fill="#270089"/>
<path d="M54.2126 51.7381L55.2053 53.7492L57.4247 54.0719L55.8186 55.6372L56.1978 57.8478L54.2126 56.8041L52.2276 57.8478L52.6067 55.6372L51.0006 54.0718L53.22 53.7492L54.2126 51.7381Z" fill="#FEE478"/>
<path d="M56.1979 58.7469C56.0549 58.7469 55.9111 58.7128 55.7796 58.6436L54.2128 57.8199L52.6461 58.6436C52.3431 58.8032 51.9761 58.7763 51.6991 58.5753C51.4222 58.374 51.2836 58.0331 51.3414 57.6958L51.6408 55.9512L50.3731 54.7156C50.128 54.4768 50.0398 54.1194 50.1456 53.7939C50.2515 53.4683 50.5328 53.2312 50.8714 53.182L52.623 52.9276L53.4065 51.3403C53.558 51.0334 53.8706 50.839 54.2127 50.839C54.555 50.839 54.8675 51.0334 55.0191 51.3403L55.8025 52.9276L57.5541 53.1822C57.8928 53.2314 58.174 53.4687 58.2799 53.7941C58.3857 54.1197 58.2974 54.4768 58.0523 54.7157L56.7849 55.9513L57.0843 57.6958C57.1421 58.0331 57.0035 58.374 56.7265 58.5753C56.5699 58.6889 56.3845 58.7469 56.1979 58.7469ZM54.2128 55.9051C54.3566 55.9051 54.5003 55.9394 54.6312 56.0083L55.0037 56.2041L54.9325 55.7894C54.8825 55.4976 54.9792 55.2 55.1912 54.9933L55.4927 54.6995L55.0761 54.6389C54.7832 54.5963 54.5301 54.4126 54.3991 54.1471L54.2127 53.7696L54.0264 54.1471C53.8954 54.4125 53.6424 54.5965 53.3494 54.639L52.9328 54.6994L53.2344 54.9933C53.4463 55.1999 53.543 55.4975 53.4929 55.7894L53.4218 56.2041L53.7943 56.0083C53.9255 55.9394 54.0691 55.9051 54.2128 55.9051Z" fill="#270089"/>
<path d="M28.3755 54.5124C28.3755 54.5124 19.8072 58.2147 24.5673 59.2726C29.3275 60.3304 27.7937 58.4263 27.7937 58.4263L29.3804 57.8478L30.1737 58.9552L30.8613 57.8478L31.4431 56.4694L32.9769 58.5322L34.5637 57.0525L36.309 56.7867L38.1074 57.0525L39.4296 57.5801" fill="white"/>
<path d="M26.8483 60.4891C26.1998 60.4891 25.3841 60.3753 24.372 60.1504C23.035 59.8532 22.3159 59.2698 22.2349 58.4163C22.1361 57.3743 23.0659 56.3466 25.2496 55.0841C26.6082 54.2987 27.9617 53.7116 28.0186 53.687C28.4743 53.49 29.0034 53.6998 29.2005 54.1556C29.3976 54.6114 29.1879 55.1407 28.732 55.3378C28.7205 55.3429 27.5545 55.8489 26.3595 56.5213C24.8015 57.3982 24.2742 57.9461 24.1018 58.1823C24.2166 58.2396 24.4194 58.3188 24.7622 58.3949C25.9026 58.6483 26.5601 58.7009 26.9254 58.6932C26.8734 58.5333 26.8693 58.3594 26.914 58.1882C26.9885 57.9025 27.208 57.6829 27.4854 57.5817L29.0722 57.0031C29.4497 56.8655 29.8724 56.9949 30.108 57.3199L30.6146 56.1198C30.74 55.8226 31.0151 55.6154 31.3353 55.5768C31.6556 55.5384 31.972 55.6741 32.1645 55.933L33.0986 57.1893L33.9503 56.3951C34.0827 56.2716 34.2492 56.1911 34.4281 56.1638L36.1736 55.8981C36.262 55.8845 36.352 55.8843 36.4404 55.8975L38.2387 56.1632C38.3079 56.1733 38.3756 56.1918 38.4405 56.2176L39.7627 56.7451C40.2239 56.9291 40.4486 57.4523 40.2646 57.9135C40.0806 58.3747 39.5574 58.5993 39.0963 58.4154L37.8718 57.9269L36.3109 57.6961L34.9735 57.8998L33.5899 59.19C33.4028 59.3645 33.1505 59.4509 32.8954 59.4278C32.6407 59.4047 32.4077 59.2742 32.2552 59.0688L31.6576 58.2651C31.6474 58.2845 31.6364 58.3036 31.6249 58.3222L30.9374 59.4296C30.7789 59.6849 30.5034 59.8441 30.2031 59.854C29.9014 59.8629 29.6175 59.7233 29.4425 59.479L29.0468 58.9265L28.9279 58.9698C28.9357 59.2207 28.8795 59.4785 28.7282 59.7221C28.4087 60.2365 27.814 60.4891 26.8483 60.4891Z" fill="#270089"/>
<path d="M37.1025 61.0018H36.5736C36.077 61.0018 35.6745 60.6184 35.6745 60.1218C35.6745 59.6252 36.077 59.2419 36.5736 59.2419H37.1025C37.5991 59.2419 38.0017 59.6252 38.0017 60.1218C38.0017 60.6184 37.5991 61.0018 37.1025 61.0018Z" fill="#270089"/>
</g>
</svg>
