<svg width="80" height="80" viewBox="0 0 80 80" fill="none" xmlns="http://www.w3.org/2000/svg">
<path d="M15.3529 53.7662L52.4729 58.1462C52.4729 58.1462 65.6929 45.2862 66.8396 26.7595L37.9662 27.4262C37.9662 27.4262 38.2529 42.9529 15.3529 53.7662Z" fill="white" stroke="#270089" stroke-width="2" stroke-miterlimit="10"/>
<path d="M52 57.4862L13.3333 52.7462C26.2533 44.6528 36.7333 35.9595 35.3333 22.7462L65.3333 23.4862C64.7467 36.9662 60.6533 48.4862 52 57.4862Z" fill="white" stroke="#270089" stroke-width="2" stroke-miterlimit="10"/>
<path d="M38.6003 28.2195L57.9669 29.0729" stroke="#270089" stroke-width="0.61" stroke-miterlimit="10" stroke-linecap="round"/>
<path d="M37.5931 31.4329L56.9598 32.2929" stroke="#270089" stroke-width="0.61" stroke-miterlimit="10" stroke-linecap="round"/>
<path d="M36.7598 34.6062L56.1198 35.4595" stroke="#270089" stroke-width="0.61" stroke-miterlimit="10" stroke-linecap="round"/>
<path d="M35.3333 37.9329L54.7 38.7862" stroke="#270089" stroke-width="0.61" stroke-miterlimit="10" stroke-linecap="round"/>
<path d="M33.1602 41.0862L52.6602 42.4462" stroke="#270089" stroke-width="0.61" stroke-miterlimit="10" stroke-linecap="round"/>
<path d="M30.3333 44.2529L50.4733 45.9862" stroke="#270089" stroke-width="0.61" stroke-miterlimit="10" stroke-linecap="round"/>
<path d="M24.487 50.9862L38.087 52.4862" stroke="#270089" stroke-width="0.61" stroke-miterlimit="10" stroke-linecap="round"/>
<path d="M43.393 61.9528C43.393 61.9528 42.8996 55.8995 49.4796 51.7595C49.4796 51.7595 43.613 53.5529 40.5663 51.0929C40.5663 51.0929 35.0263 56.3062 36.673 60.8929C36.673 60.8929 38.1663 58.3595 40.4463 57.4928C41.1095 59.1673 42.1128 60.686 43.393 61.9528Z" fill="#FEE478" stroke="#270089" stroke-width="2" stroke-linecap="round" stroke-linejoin="round"/>
<path d="M46.0059 53.5911C48.7383 52.8778 50.6541 51.1531 50.2849 49.7387C49.9157 48.3244 47.4014 47.7561 44.6689 48.4694C41.9365 49.1827 40.0207 50.9074 40.3899 52.3217C40.759 53.7361 43.2734 54.3044 46.0059 53.5911Z" fill="white" stroke="#270089" stroke-width="2" stroke-miterlimit="10"/>
<path d="M45.6721 52.7496C47.774 52.2009 49.2609 50.9244 48.993 49.8984C48.7252 48.8724 46.8042 48.4854 44.7023 49.0341C42.6004 49.5828 41.1136 50.8593 41.3814 51.8853C41.6493 52.9113 43.5703 53.2982 45.6721 52.7496Z" fill="#F154A9" stroke="#FEE478" stroke-width="2" stroke-miterlimit="10"/>
<path d="M29.3737 48.5462C29.3737 48.5462 32.5137 47.1595 31.647 48.5462C30.7804 49.9329 36.0204 47.5062 34.0071 49.3262C31.9937 51.1462 28.147 51.1462 29.8937 49.8462C31.6404 48.5462 39.627 48.5862 38.9337 49.3462C38.2404 50.1062 34.9337 50.1928 34.9337 50.1928" stroke="#FEE478" stroke-width="0.61" stroke-miterlimit="10" stroke-linecap="round"/>
<path d="M29.8065 43.2395C29.8065 43.2395 31.3665 44.7195 31.1398 45.9862L34.1465 48.9328L33.0132 44.6862C33.0132 44.6862 31.8865 44.3861 31.1065 42.1928C30.3265 39.9995 28.2598 41.2595 29.8065 43.2395Z" fill="white" stroke="#270089" stroke-width="2" stroke-miterlimit="10"/>
<path d="M17.727 19.0462C17.5913 18.8592 17.3901 18.7301 17.1636 18.6847C16.937 18.6392 16.7017 18.6806 16.5043 18.8008C16.3069 18.9209 16.1619 19.1109 16.0982 19.333C16.0345 19.5551 16.0566 19.793 16.1603 19.9995C20.467 29.3329 28.5137 45.7462 31.2937 43.9995C34.1737 42.1395 24.3137 27.5929 17.727 19.0462Z" fill="#F154A9" stroke="#270089" stroke-width="2" stroke-miterlimit="10"/>
</svg>
