<svg width="80" height="80" viewBox="0 0 80 80" fill="none" xmlns="http://www.w3.org/2000/svg">
<path d="M61.3435 15.5396H70.4604V54.4319H8.77588V15.5396H49.9151H50.9173H51.9518H53.1965" fill="white"/>
<path d="M70.5089 55.2078H8.8244C8.36914 55.2078 8 54.8386 8 54.3834V15.4911C8 15.0358 8.36914 14.6667 8.8244 14.6667H53.1965C53.6518 14.6667 54.0209 15.0358 54.0209 15.4911C54.0209 15.9463 53.6518 16.3155 53.1965 16.3155H9.6488V53.559H69.6845V16.3155H61.3435C60.8883 16.3155 60.5191 15.9463 60.5191 15.4911C60.5191 15.0358 60.8883 14.6667 61.3435 14.6667H70.5089C70.9642 14.6667 71.3333 15.0358 71.3333 15.4911V54.3834C71.3333 54.8386 70.9642 55.2078 70.5089 55.2078Z" fill="#270089"/>
<path d="M47.3771 27.5661H32.0529C31.5977 27.5661 31.2285 27.197 31.2285 26.7417C31.2285 26.2865 31.5977 25.9173 32.0529 25.9173H47.3771C47.8323 25.9173 48.2015 26.2865 48.2015 26.7417C48.2015 27.197 47.8323 27.5661 47.3771 27.5661Z" fill="#270089"/>
<path d="M52.3239 32.9974H27.0099C26.5547 32.9974 26.1855 32.6283 26.1855 32.173C26.1855 31.7178 26.5547 31.3486 27.0099 31.3486H52.3239C52.7791 31.3486 53.1483 31.7178 53.1483 32.173C53.1483 32.6283 52.7791 32.9974 52.3239 32.9974Z" fill="#270089"/>
<path d="M31.4861 52.6771L27.8049 61.648L33.5098 59.7795L36.0598 65.0355L39.7636 56.0099L31.4861 52.6771Z" fill="#F154A9"/>
<path d="M35.0438 56.0146L39.7151 56.1275L36.0922 64.9562L33.3381 60.1716L35.0438 56.0146Z" fill="#FEE478"/>
<path d="M35.8193 65.7231C35.6565 65.6564 35.52 65.5314 35.4404 65.3668L33.1777 60.6882L28.0878 62.3619C27.8182 62.4506 27.5162 62.3721 27.3227 62.1644C27.1292 61.9565 27.0691 61.653 27.1769 61.3902L30.8582 52.4195C31.01 52.0496 31.4374 51.8737 31.8083 52.023L40.0683 55.3485C40.2497 55.4238 40.3974 55.5645 40.4727 55.7429C40.548 55.9215 40.5552 56.125 40.4815 56.3045L36.7779 65.3301C36.6689 65.5957 36.4093 65.7705 36.1224 65.7793C36.0179 65.7823 35.9121 65.7612 35.8193 65.7231ZM31.9296 53.6402L29.122 60.4821L33.3227 59.1049C33.669 58.991 34.0536 59.1541 34.2124 59.4824L36.0503 63.2704L38.8574 56.4297L31.9296 53.6402Z" fill="#270089"/>
<path d="M39.1446 56.4768L43.6239 65.077L45.8766 59.5126L51.5377 60.9552L47.0311 52.3025L39.1446 56.4768Z" fill="#F154A9"/>
<path d="M43.9895 55.9116L47.0896 52.4153L51.4977 60.8792L46.0652 59.8967L43.9895 55.9116Z" fill="#FEE478"/>
<path d="M51.9077 61.5825C51.7517 61.6639 51.5682 61.6875 51.391 61.6422L46.3566 60.3527L44.3516 65.3214C44.2455 65.5847 43.9906 65.7647 43.7071 65.7786C43.4233 65.7924 43.1526 65.6423 43.0215 65.3905L38.5423 56.7904C38.3576 56.4356 38.4989 55.9958 38.8522 55.8087L46.722 51.6429C46.8965 51.5529 47.0992 51.5309 47.2843 51.5884C47.4693 51.646 47.6295 51.772 47.7189 51.944L52.2257 60.5967C52.3582 60.8514 52.3244 61.1623 52.146 61.3872C52.081 61.469 51.9967 61.5362 51.9077 61.5825ZM40.1662 56.7592L43.5826 63.3184L45.2403 59.2204C45.3767 58.8822 45.7495 58.6936 46.1027 58.7842L50.1826 59.8237L46.7669 53.2656L40.1662 56.7592Z" fill="#270089"/>
<path d="M39.7148 57.0097C44.4207 57.0097 48.2356 53.1948 48.2356 48.4889C48.2356 43.783 44.4207 39.9681 39.7148 39.9681C35.0089 39.9681 31.194 43.783 31.194 48.4889C31.194 53.1948 35.0089 57.0097 39.7148 57.0097Z" fill="#F154A9"/>
<path d="M39.715 58.0087C34.4659 58.0087 30.1953 53.7381 30.1953 48.4889C30.1953 43.2399 34.4659 38.9693 39.715 38.9693C44.9641 38.9693 49.2347 43.2399 49.2347 48.4889C49.2347 53.7381 44.9641 58.0087 39.715 58.0087ZM39.715 40.9672C35.5674 40.9672 32.1933 44.3414 32.1933 48.4889C32.1933 52.6365 35.5674 56.0108 39.715 56.0108C43.8625 56.0108 47.2368 52.6365 47.2368 48.4889C47.2368 44.3414 43.8625 40.9672 39.715 40.9672Z" fill="#270089"/>
<path d="M13.2859 25.1899C12.8306 25.1899 12.4615 24.8208 12.4615 24.3655V19.8555C12.4615 19.4003 12.8306 19.0311 13.2859 19.0311H17.5049C17.9601 19.0311 18.3293 19.4003 18.3293 19.8555C18.3293 20.3108 17.9601 20.6799 17.5049 20.6799H14.1103V24.3655C14.1103 24.8208 13.7411 25.1899 13.2859 25.1899Z" fill="#270089"/>
<path d="M66.0472 24.8989C65.592 24.8989 65.2228 24.5298 65.2228 24.0745V20.6799H61.5373C61.082 20.6799 60.7129 20.3108 60.7129 19.8555C60.7129 19.4003 61.082 19.0311 61.5373 19.0311H66.0472C66.5025 19.0311 66.8716 19.4003 66.8716 19.8555V24.0745C66.8716 24.5298 66.5025 24.8989 66.0472 24.8989Z" fill="#270089"/>
<path d="M17.5049 50.6493H13.2859C12.8306 50.6493 12.4615 50.2802 12.4615 49.8249V45.315C12.4615 44.8597 12.8306 44.4906 13.2859 44.4906C13.7411 44.4906 14.1103 44.8597 14.1103 45.315V49.0005H17.5049C17.9601 49.0005 18.3293 49.3697 18.3293 49.8249C18.3293 50.2802 17.9601 50.6493 17.5049 50.6493Z" fill="#270089"/>
<path d="M66.0472 50.6493H61.5373C61.082 50.6493 60.7129 50.2802 60.7129 49.8249C60.7129 49.3697 61.082 49.0005 61.5373 49.0005H65.2228V45.606C65.2228 45.1507 65.592 44.7816 66.0472 44.7816C66.5025 44.7816 66.8716 45.1507 66.8716 45.606V49.8249C66.8716 50.2802 66.5025 50.6493 66.0472 50.6493Z" fill="#270089"/>
<path d="M58.7248 16.3155H55.8152C55.3599 16.3155 54.9908 15.9463 54.9908 15.4911C54.9908 15.0358 55.3599 14.6667 55.8152 14.6667H58.7248C59.1801 14.6667 59.5492 15.0358 59.5492 15.4911C59.5492 15.9463 59.1801 16.3155 58.7248 16.3155Z" fill="#270089"/>
</svg>
