<svg width="80" height="80" viewBox="0 0 80 80" fill="none" xmlns="http://www.w3.org/2000/svg">
<path d="M68.6672 56.7835L40.9623 61.4899V25.0827L68.6672 20.3764V56.7835Z" fill="#FEE478"/>
<path d="M40.9623 62.1558C40.8062 62.1558 40.6536 62.1009 40.5326 61.9987C40.3827 61.8721 40.2963 61.686 40.2963 61.4899V25.0827C40.2963 24.7579 40.5305 24.4804 40.8507 24.4261L68.5557 19.7198C68.7489 19.6868 68.9471 19.741 69.097 19.8675C69.2467 19.9941 69.3333 20.1802 69.3333 20.3764V56.7835C69.3333 57.1083 69.099 57.3857 68.7788 57.4401L41.0737 62.1464C41.0367 62.1527 40.9994 62.1558 40.9623 62.1558ZM41.6283 25.6451V60.7012L68.0013 56.2213V21.165L41.6283 25.6451Z" fill="#270089"/>
<path d="M13.2574 56.7835L40.9623 61.4899V25.0827L13.2574 20.3764V56.7835Z" fill="#FEE478"/>
<path d="M40.9623 62.1558C40.9252 62.1558 40.8879 62.1527 40.8508 62.1465L13.1458 57.4401C12.8257 57.3857 12.5914 57.1083 12.5914 56.7835V20.3764C12.5914 20.1802 12.6779 19.9941 12.8277 19.8675C12.9775 19.741 13.1758 19.6868 13.3688 19.7198L41.0739 24.4261C41.3941 24.4804 41.6283 24.7579 41.6283 25.0827V61.4899C41.6283 61.686 41.5418 61.8721 41.392 61.9987C41.2709 62.101 41.1184 62.1558 40.9623 62.1558ZM13.9233 56.2212L40.2963 60.7011V25.6451L13.9233 21.165V56.2212Z" fill="#270089"/>
<path d="M66.2134 54.6448L40.9623 59.1811V24.089L66.2134 19.5526V54.6448Z" fill="white"/>
<path d="M40.9623 59.8471C40.8073 59.8471 40.6558 59.793 40.5351 59.692C40.3838 59.5655 40.2964 59.3784 40.2964 59.1811V24.089C40.2964 23.7666 40.5273 23.4905 40.8446 23.4335L66.0957 18.8973C66.2899 18.8625 66.4893 18.9154 66.6407 19.0419C66.7921 19.1685 66.8795 19.3555 66.8795 19.5528V54.645C66.8795 54.9674 66.6485 55.2434 66.3312 55.3004L41.0801 59.8367C41.0409 59.8436 41.0015 59.8471 40.9623 59.8471ZM41.6283 24.6459V58.3848L65.5474 54.0878V20.349L41.6283 24.6459Z" fill="#270089"/>
<path d="M15.711 54.6448L40.962 59.1811V24.089L15.711 19.5526V54.6448Z" fill="white"/>
<path d="M40.962 59.8472C40.9228 59.8472 40.8834 59.8436 40.8442 59.8366L15.5932 55.3002C15.2759 55.2433 15.045 54.9672 15.045 54.6448V19.5526C15.045 19.3554 15.1324 19.1683 15.2837 19.0418C15.435 18.9153 15.6346 18.8625 15.8287 18.8971L41.0798 23.4334C41.3971 23.4903 41.628 23.7664 41.628 24.0888V59.181C41.628 59.3782 41.5406 59.5653 41.3893 59.6918C41.2686 59.793 41.117 59.8472 40.962 59.8472ZM16.3769 54.0878L40.296 58.3848V24.6459L16.3769 20.349V54.0878Z" fill="#270089"/>
<path d="M63.9771 52.4249L40.9623 58.7371V21.8691L63.9771 17.3327V52.4249Z" fill="white"/>
<path d="M40.9624 59.4031C40.818 59.4031 40.6757 59.3562 40.5584 59.2668C40.3932 59.1407 40.2963 58.9449 40.2963 58.7372V21.8691C40.2963 21.5509 40.5213 21.2772 40.8334 21.2156L63.8484 16.6794C64.0437 16.6407 64.2462 16.6918 64.4 16.8183C64.5539 16.9449 64.6431 17.1335 64.6431 17.3328V52.425C64.6431 52.7249 64.4425 52.9879 64.1532 53.0672L41.1383 59.3795C41.0804 59.3953 41.0212 59.4031 40.9624 59.4031ZM41.6283 22.4166V57.8638L63.3111 51.9169V18.1428L41.6283 22.4166Z" fill="#270089"/>
<path d="M17.9474 52.4249L40.9623 58.7371V21.8691L17.9474 17.3327V52.4249Z" fill="white"/>
<path d="M40.9623 59.4031C40.9034 59.4031 40.8442 59.3953 40.7862 59.3794L17.7712 53.0671C17.482 52.9878 17.2814 52.7248 17.2814 52.4249V17.3327C17.2814 17.1335 17.3706 16.9448 17.5245 16.8183C17.6783 16.6917 17.881 16.6407 18.0762 16.6793L41.0911 21.2155C41.4033 21.2771 41.6283 21.5508 41.6283 21.869V58.7371C41.6283 58.9449 41.5313 59.1407 41.3662 59.2667C41.2489 59.3562 41.1067 59.4031 40.9623 59.4031ZM18.6134 51.9169L40.2964 57.8639V22.4166L18.6134 18.1428V51.9169Z" fill="#270089"/>
<path d="M44.8466 26.0573C44.5349 26.0573 44.2565 25.8373 44.194 25.5199C44.1228 25.159 44.3576 24.8089 44.7187 24.7377L60.7124 21.5853C61.0736 21.5141 61.4237 21.7491 61.4946 22.1099C61.5657 22.4708 61.331 22.821 60.9699 22.8921L44.9762 26.0445C44.9328 26.0532 44.8894 26.0573 44.8466 26.0573Z" fill="#270089"/>
<path d="M44.8467 29.7787C44.535 29.7787 44.2566 29.5588 44.1941 29.2413C44.123 28.8804 44.3577 28.5303 44.7188 28.4591L60.7125 25.3067C61.0737 25.2354 61.4238 25.4705 61.4947 25.8314C61.5659 26.1922 61.3311 26.5424 60.97 26.6136L44.9763 29.766C44.9329 29.7746 44.8895 29.7787 44.8467 29.7787Z" fill="#270089"/>
<path d="M44.8467 33.5003C44.535 33.5003 44.2566 33.2803 44.1941 32.9629C44.123 32.602 44.3577 32.2519 44.7188 32.1807L60.7125 29.0283C61.0737 28.9572 61.4238 29.1921 61.4947 29.5529C61.5659 29.9138 61.3311 30.264 60.97 30.3351L44.9763 33.4876C44.9329 33.4961 44.8895 33.5003 44.8467 33.5003Z" fill="#270089"/>
<path d="M44.8467 37.2217C44.535 37.2217 44.2566 37.0017 44.1941 36.6843C44.123 36.3235 44.3577 35.9733 44.7188 35.9021L60.7125 32.7497C61.0737 32.6784 61.4238 32.9135 61.4947 33.2744C61.5659 33.6353 61.3311 33.9854 60.97 34.0566L44.9763 37.209C44.9329 37.2175 44.8895 37.2217 44.8467 37.2217Z" fill="#270089"/>
<path d="M44.8467 40.9431C44.535 40.9431 44.2566 40.7232 44.1941 40.4058C44.123 40.0449 44.3577 39.6946 44.7188 39.6236L60.7125 36.4712C61.0737 36.4001 61.4238 36.6349 61.4947 36.9958C61.5659 37.3567 61.3311 37.7068 60.97 37.778L44.9763 40.9305C44.9329 40.939 44.8895 40.9431 44.8467 40.9431Z" fill="#270089"/>
<path d="M44.8469 44.9885C44.5403 44.9885 44.2644 44.7756 44.1966 44.4637C44.1186 44.1044 44.3466 43.7496 44.7061 43.6715L60.6998 40.1953C61.0588 40.1172 61.4139 40.3452 61.4921 40.7046C61.5702 41.064 61.3421 41.4187 60.9827 41.4968L44.9889 44.9732C44.9413 44.9836 44.8936 44.9885 44.8469 44.9885Z" fill="#270089"/>
<path d="M44.8469 48.9551C44.5442 48.9551 44.2703 48.7473 44.1987 48.4399C44.1154 48.0816 44.3383 47.7237 44.6965 47.6404L60.6904 43.919C61.0484 43.8358 61.4065 44.0585 61.49 44.4168C61.5733 44.775 61.3506 45.133 60.9922 45.2163L44.9983 48.9377C44.9476 48.9494 44.8967 48.9551 44.8469 48.9551Z" fill="#270089"/>
<path d="M44.847 53.2762C44.5535 53.2762 44.2847 53.0806 44.2046 52.7838C44.1086 52.4286 44.3187 52.063 44.6737 51.9672L60.6676 47.6461C61.0221 47.55 61.3883 47.7602 61.4842 48.1152C61.5802 48.4704 61.3701 48.836 61.0151 48.9318L45.0212 53.2529C44.963 53.2687 44.9046 53.2762 44.847 53.2762Z" fill="#270089"/>
<path d="M37.4556 26.0238C37.4129 26.0238 37.3696 26.0196 37.3261 26.0111L21.3322 22.8586C20.9713 22.7875 20.7364 22.4373 20.8075 22.0764C20.8787 21.7155 21.2293 21.4808 21.5897 21.5518L37.5836 24.7043C37.9445 24.7753 38.1793 25.1256 38.1082 25.4865C38.0457 25.8038 37.7672 26.0238 37.4556 26.0238Z" fill="#270089"/>
<path d="M37.4555 29.7453C37.4128 29.7453 37.3695 29.7412 37.326 29.7326L21.3321 26.5801C20.9712 26.5089 20.7364 26.1588 20.8074 25.798C20.8786 25.437 21.2293 25.2021 21.5896 25.2733L37.5835 28.4258C37.9444 28.4969 38.1792 28.8471 38.1081 29.2079C38.0456 29.5253 37.7671 29.7453 37.4555 29.7453Z" fill="#270089"/>
<path d="M37.4555 33.4668C37.4128 33.4668 37.3695 33.4627 37.326 33.4541L21.3321 30.3017C20.9712 30.2305 20.7364 29.8804 20.8074 29.5195C20.8786 29.1586 21.2293 28.9239 21.5896 28.9948L37.5835 32.1473C37.9444 32.2184 38.1792 32.5686 38.1081 32.9295C38.0456 33.2468 37.7671 33.4668 37.4555 33.4668Z" fill="#270089"/>
<path d="M37.4555 37.1882C37.4128 37.1882 37.3695 37.1841 37.326 37.1755L21.3321 34.0231C20.9712 33.952 20.7364 33.6018 20.8074 33.2409C20.8786 32.88 21.2293 32.6452 21.5896 32.7162L37.5835 35.8687C37.9444 35.9398 38.1792 36.29 38.1081 36.6509C38.0456 36.9682 37.7671 37.1882 37.4555 37.1882Z" fill="#270089"/>
<path d="M37.4555 40.9096C37.4128 40.9096 37.3695 40.9056 37.326 40.897L21.3321 37.7445C20.9712 37.6734 20.7364 37.3232 20.8074 36.9623C20.8786 36.6014 21.2293 36.3665 21.5896 36.4376L37.5835 39.5901C37.9444 39.6612 38.1792 40.0114 38.1081 40.3723C38.0456 40.6897 37.7671 40.9096 37.4555 40.9096Z" fill="#270089"/>
<path d="M37.4555 44.9551C37.4086 44.9551 37.361 44.95 37.3133 44.9397L21.3194 41.4634C20.96 41.3852 20.732 41.0305 20.81 40.6712C20.8882 40.3118 21.2431 40.0836 21.6022 40.1618L37.5961 43.6381C37.9556 43.7163 38.1836 44.0708 38.1055 44.4303C38.0378 44.742 37.7619 44.9551 37.4555 44.9551Z" fill="#270089"/>
<path d="M37.4553 48.9216C37.4054 48.9216 37.3547 48.9159 37.3038 48.9041L21.3099 45.1827C20.9517 45.0993 20.7288 44.7414 20.8122 44.3832C20.8955 44.0249 21.2535 43.8021 21.6118 43.8854L37.6057 47.6068C37.9639 47.6901 38.1868 48.0481 38.1034 48.4063C38.0319 48.7139 37.758 48.9216 37.4553 48.9216Z" fill="#270089"/>
<path d="M37.4551 53.2427C37.3977 53.2427 37.3392 53.2352 37.2811 53.2195L21.2872 48.8984C20.9321 48.8025 20.722 48.4368 20.818 48.0818C20.9139 47.7266 21.2796 47.5166 21.6346 47.6125L37.6285 51.9336C37.9836 52.0296 38.1936 52.3952 38.0977 52.7502C38.0175 53.0472 37.7487 53.2427 37.4551 53.2427Z" fill="#270089"/>
<g clip-path="url(#clip0_1_6533)">
<path d="M14.8218 38.613C19.4091 38.2601 21.144 42.8768 21.4381 45.2293L17.0272 44.7882C14.5571 43.3767 14.5277 40.0833 14.8218 38.613Z" fill="#FEE478"/>
<path d="M15.2629 45.2293C16.8508 44.7 20.3354 45.4499 21.8792 45.8909L28.4956 45.2293C33.2593 46.8172 33.127 52.5073 32.4654 55.1538C30.8774 59.3883 28.275 62.2113 27.1723 63.0934H24.5258L21.8792 61.7702L20.5559 62.4318L17.9094 63.0934L15.9245 62.4318L11.9547 56.4771C9.30818 48.5375 13.278 45.8909 15.2629 45.2293Z" fill="#F154A9"/>
<path d="M17.1115 49.5101C17.3696 49.4585 17.5967 49.3065 17.7427 49.0875C17.8888 48.8685 17.9418 48.6004 17.8902 48.3423C17.8387 48.0842 17.6866 47.8571 17.4676 47.7111C17.2486 47.565 16.9806 47.512 16.7225 47.5635C15.5276 47.8017 14.6251 48.638 14.1447 49.7588C13.6684 50.8677 13.5982 52.2545 13.9701 53.7392C13.9991 53.8683 14.0536 53.9902 14.1305 54.0979C14.2073 54.2055 14.3049 54.2967 14.4175 54.3662C14.5301 54.4356 14.6554 54.4818 14.7861 54.5021C14.9168 54.5224 15.0502 54.5163 15.1785 54.4843C15.3069 54.4523 15.4275 54.3949 15.5334 54.3156C15.6392 54.2363 15.7281 54.1367 15.7949 54.0225C15.8617 53.9083 15.905 53.782 15.9223 53.6508C15.9395 53.5197 15.9304 53.3864 15.8954 53.2589C15.6043 52.0971 15.6996 51.1681 15.9682 50.5409C16.2329 49.9243 16.6537 49.6027 17.1115 49.5101ZM13.2396 39.1674C13.1832 40.1069 13.3207 41.0479 13.6438 41.9319C13.9668 42.8159 14.4684 43.6239 15.1173 44.3057C13.8567 44.6671 12.7281 45.3866 11.8684 46.3769C11.0087 47.3672 10.4549 48.5857 10.2742 49.8846C9.83862 53.0011 10.4781 56.1731 12.0871 58.8775L12.5502 59.6582C12.5678 59.6869 12.5867 59.7148 12.6071 59.7416L14.4808 62.2637C14.8777 62.7983 15.3863 63.2399 15.9713 63.5579C16.5562 63.8758 17.2034 64.0624 17.8679 64.1048C18.5323 64.1471 19.198 64.0441 19.8185 63.8029C20.4391 63.5618 20.9996 63.1882 21.4611 62.7084C21.515 62.6522 21.5798 62.6076 21.6514 62.5771C21.723 62.5466 21.8001 62.5309 21.8779 62.5309C21.9558 62.5309 22.0328 62.5466 22.1044 62.5771C22.1761 62.6076 22.2408 62.6522 22.2947 62.7084C22.7562 63.1882 23.3168 63.5618 23.9373 63.8029C24.5579 64.0441 25.2236 64.1471 25.888 64.1048C26.5524 64.0624 27.1996 63.8758 27.7846 63.5579C28.3695 63.2399 28.8781 62.7983 29.275 62.2637L31.1487 59.7403C31.1687 59.7134 31.1872 59.6856 31.2043 59.6569L31.6688 58.8762C33.2789 56.1726 33.9197 53.0011 33.4856 49.8846C33.3575 48.9662 33.0423 48.084 32.5594 47.2924C32.0765 46.5008 31.4363 45.8168 30.6784 45.2827C29.9205 44.7485 29.061 44.3756 28.1531 44.1871C27.2453 43.9986 26.3084 43.9984 25.4005 44.1866L22.8849 44.7079H22.881C22.9207 43.6758 23.0821 42.5642 23.3984 41.6141C23.7821 40.4655 24.3141 39.7748 24.9069 39.5287C25.1499 39.4272 25.3427 39.2334 25.4428 38.9898C25.543 38.7463 25.5422 38.4729 25.4408 38.2299C25.3394 37.9868 25.1456 37.794 24.902 37.6939C24.6584 37.5938 24.3851 37.5945 24.142 37.6959C22.75 38.2768 21.9586 39.6544 21.5153 40.9856L21.4545 41.1735C21.1286 40.5438 20.7077 39.9681 20.2066 39.4665C19.5204 38.7794 18.696 38.246 17.788 37.9015C16.8801 37.5571 15.9093 37.4094 14.94 37.4683C14.4977 37.4938 14.08 37.6807 13.7664 37.9937C13.4527 38.3066 13.2648 38.7238 13.2383 39.1661L13.2396 39.1674ZM15.2153 39.4413C15.8793 39.4222 16.5402 39.5391 17.1574 39.7848C17.7745 40.0306 18.3349 40.4001 18.804 40.8704C19.2744 41.3395 19.6438 41.8999 19.8896 42.517C20.1354 43.1342 20.2523 43.7951 20.2331 44.4592C19.9931 44.4657 19.7529 44.4546 19.5146 44.4261L18.6981 44.2567C17.9221 44.0252 17.2161 43.6035 16.6444 43.03C16.174 42.561 15.8045 42.0006 15.5588 41.3834C15.313 40.7663 15.1961 40.1053 15.2153 39.4413ZM17.9531 46.1291L18.2204 46.1847C18.538 46.2747 18.8609 46.3422 19.1864 46.3858L20.47 46.6505C21.3996 46.8431 22.3589 46.8431 23.2885 46.6505L25.8054 46.1291C26.4474 45.9961 27.1098 45.9962 27.7518 46.1296C28.3937 46.2629 29.0014 46.5266 29.5373 46.9043C30.0732 47.282 30.5258 47.7658 30.8672 48.3255C31.2086 48.8853 31.4314 49.5091 31.5219 50.1585C31.8935 52.8285 31.3441 55.5454 29.9644 57.8612L29.5264 58.5983L27.6831 61.0807C27.4581 61.3838 27.1698 61.6341 26.8382 61.8143C26.5067 61.9945 26.1398 62.1003 25.7631 62.1242C25.3865 62.1481 25.0092 62.0897 24.6574 61.9529C24.3057 61.8161 23.988 61.6043 23.7265 61.3322C23.4875 61.0834 23.2006 60.8854 22.8832 60.7502C22.5658 60.615 22.2243 60.5453 21.8792 60.5453C21.5342 60.5453 21.1927 60.615 20.8753 60.7502C20.5579 60.8854 20.271 61.0834 20.032 61.3322C19.7705 61.6043 19.4528 61.8161 19.101 61.9529C18.7493 62.0897 18.372 62.1481 17.9954 62.1242C17.6187 62.1003 17.2518 61.9945 16.9202 61.8143C16.5887 61.6341 16.3003 61.3838 16.0754 61.0807L14.2321 58.5983L13.7941 57.8612C12.4148 55.5452 11.8659 52.8283 12.2379 50.1585C12.3284 49.5093 12.5512 48.8855 12.8925 48.3259C13.2338 47.7662 13.6863 47.2826 14.222 46.9049C14.7578 46.5272 15.3653 46.2634 16.0071 46.13C16.6489 45.9966 17.3112 45.9963 17.9531 46.1291Z" fill="#270089"/>
</g>
<defs>
<clipPath id="clip0_1_6533">
<rect width="28" height="29.3333" fill="white" transform="translate(10 34.6667)"/>
</clipPath>
</defs>
</svg>
