<svg width="80" height="80" viewBox="0 0 80 80" fill="none" xmlns="http://www.w3.org/2000/svg">
<g clip-path="url(#clip0_2_2)">
<path d="M44.6706 10.6322L9.46893 17.962L19.7242 62.5442L54.9259 55.2144L44.6706 10.6322Z" fill="white"/>
<path d="M19.7221 63.4778C19.27 63.4778 18.8637 63.1801 18.7621 62.7421L8.50858 18.1625C8.45288 17.9209 8.50039 17.6668 8.64128 17.458C8.78216 17.2491 9.00332 17.1026 9.25888 17.0496L44.4591 9.71942C44.7147 9.66643 44.9801 9.71163 45.1996 9.84567C45.4191 9.97971 45.5731 10.1901 45.6288 10.4333L55.884 55.0145C56.0003 55.5195 55.6645 56.0183 55.1337 56.1274L19.9335 63.4575C19.863 63.4716 19.7926 63.4778 19.7221 63.4778ZM10.6383 18.6753L20.4724 61.4298L53.7527 54.5002L43.9185 11.7456L10.6383 18.6753Z" fill="#270089"/>
<path d="M18.8235 28.9288C18.3714 28.9288 17.9651 28.6311 17.8635 28.1932C17.7472 27.6882 18.0831 27.1894 18.6138 27.0803L40.3611 22.5525C40.8935 22.4418 41.4161 22.7614 41.5308 23.2664C41.6471 23.7714 41.3112 24.2701 40.7805 24.3792L19.0349 28.907C18.9644 28.921 18.8923 28.9288 18.8235 28.9288Z" fill="#270089"/>
<path d="M19.623 32.4061C19.1709 32.4061 18.7646 32.1084 18.663 31.6704C18.5467 31.1654 18.8826 30.6667 19.4133 30.5576L41.1606 26.0298C41.6914 25.9191 42.2156 26.2386 42.3303 26.7436C42.4466 27.2486 42.1107 27.7474 41.58 27.8565L19.8344 32.3843C19.7639 32.3999 19.6935 32.4061 19.623 32.4061Z" fill="#270089"/>
<path d="M20.4244 35.8849C19.9722 35.8849 19.5659 35.5872 19.4644 35.1493C19.3481 34.6443 19.6839 34.1455 20.2147 34.0364L41.9619 29.5086C42.4943 29.398 43.0169 29.7175 43.1316 30.2225C43.2479 30.7275 42.9121 31.2262 42.3813 31.3353L20.6357 35.8631C20.5636 35.8771 20.4932 35.8849 20.4244 35.8849Z" fill="#270089"/>
<path d="M23.4714 49.1316C23.0193 49.1316 22.613 48.8339 22.5114 48.396C22.3951 47.891 22.7309 47.3922 23.2617 47.2831L45.009 42.7553C45.5397 42.6447 46.064 42.9642 46.1786 43.4692C46.295 43.9742 45.9591 44.4729 45.4283 44.582L23.6827 49.1098C23.6107 49.1238 23.5402 49.1316 23.4714 49.1316Z" fill="#270089"/>
<path d="M28.4532 51.7283C28.001 51.7283 27.5947 51.4306 27.4932 50.9926C27.3769 50.4877 27.7127 49.9889 28.2435 49.8798L41.6227 47.0945C42.1552 46.9839 42.6777 47.3034 42.7924 47.8084C42.9087 48.3134 42.5729 48.8121 42.0421 48.9212L28.6629 51.7065C28.5924 51.7205 28.522 51.7283 28.4532 51.7283Z" fill="#270089"/>
<path d="M21.9629 23.5126C21.5107 23.5126 21.1044 23.2149 21.0029 22.7769C20.8866 22.272 21.2224 21.7732 21.7532 21.6641L35.1324 18.8788C35.6649 18.7682 36.1875 19.0877 36.3021 19.5927C36.4184 20.0977 36.0826 20.5964 35.5518 20.7055L22.1742 23.4908C22.1021 23.5064 22.0317 23.5126 21.9629 23.5126Z" fill="#270089"/>
<path d="M61.4922 17.2828L26.2905 24.6126L36.5458 69.1949L71.7475 61.8651L61.4922 17.2828Z" fill="white"/>
<path d="M36.5443 70.1278C36.3575 70.1278 36.1741 70.078 36.0135 69.9798C35.794 69.8457 35.64 69.6353 35.5843 69.3922L25.3291 24.8109C25.2128 24.3059 25.5486 23.8072 26.0794 23.6981L61.2796 16.3679C61.8104 16.2572 62.3346 16.5767 62.4493 17.0817L72.7045 61.663C72.7602 61.9046 72.7127 62.1586 72.5718 62.3675C72.4309 62.5763 72.2098 62.7228 71.9542 62.7758L36.754 70.106C36.6852 70.1216 36.6147 70.1278 36.5443 70.1278ZM27.4588 25.3253L37.293 68.0798L70.5732 61.1502L60.739 18.3956L27.4588 25.3253Z" fill="#270089"/>
<path d="M35.6451 35.5795C35.193 35.5795 34.7867 35.2818 34.6851 34.8438C34.5688 34.3388 34.9047 33.84 35.4354 33.7309L57.1827 29.2031C57.7135 29.0925 58.2377 29.412 58.3524 29.917C58.4687 30.422 58.1328 30.9207 57.6021 31.0298L35.8548 35.5576C35.786 35.5717 35.7139 35.5795 35.6451 35.5795Z" fill="#270089"/>
<path d="M36.4446 39.0568C35.9925 39.0568 35.5862 38.7591 35.4846 38.3211C35.3683 37.8161 35.7042 37.3173 36.2349 37.2082L57.9822 32.6804C58.513 32.5698 59.0372 32.8893 59.1519 33.3943C59.2682 33.8993 58.9323 34.398 58.4016 34.5071L36.6543 39.0349C36.5855 39.0505 36.5151 39.0568 36.4446 39.0568Z" fill="#270089"/>
<path d="M37.2455 42.5356C36.7933 42.5356 36.387 42.2379 36.2855 41.7999C36.1692 41.2949 36.505 40.7962 37.0358 40.6871L58.783 36.1593C59.3138 36.0486 59.838 36.3681 59.9527 36.8731C60.069 37.3781 59.7332 37.8769 59.2024 37.986L37.4552 42.5138C37.3847 42.5294 37.3143 42.5356 37.2455 42.5356Z" fill="#270089"/>
<path d="M40.2923 55.7823C39.8401 55.7823 39.4339 55.4846 39.3323 55.0466C39.216 54.5417 39.5518 54.0429 40.0826 53.9338L61.8298 49.406C62.3606 49.2953 62.8848 49.6149 62.9995 50.1198C63.1158 50.6248 62.78 51.1236 62.2492 51.2327L40.502 55.7605C40.4315 55.7745 40.3611 55.7823 40.2923 55.7823Z" fill="#270089"/>
<path d="M45.274 58.379C44.8219 58.379 44.4156 58.0813 44.314 57.6433C44.1977 57.1383 44.5336 56.6395 45.0643 56.5304L58.4436 53.7452C58.9744 53.6345 59.4986 53.954 59.6133 54.459C59.7296 54.964 59.3938 55.4628 58.863 55.5719L45.4837 58.3571C45.4133 58.3712 45.3428 58.379 45.274 58.379Z" fill="#270089"/>
<path d="M38.7838 30.1633C38.3316 30.1633 37.9254 29.8656 37.8238 29.4276C37.7075 28.9226 38.0433 28.4238 38.5741 28.3147L51.9534 25.5295C52.4842 25.4188 53.0084 25.7383 53.1231 26.2433C53.2394 26.7483 52.9035 27.2471 52.3728 27.3562L38.9935 30.1414C38.923 30.157 38.8526 30.1633 38.7838 30.1633Z" fill="#270089"/>
</g>
<defs>
<clipPath id="clip0_2_2">
<rect width="64.2424" height="60.4309" fill="white" transform="translate(8.48505 9.69699)"/>
</clipPath>
</defs>
</svg>
