<svg width="80" height="80" viewBox="0 0 80 80" fill="none" xmlns="http://www.w3.org/2000/svg">
<path d="M26.8236 50.7745C26.8236 50.7745 28.4385 39.4724 41.6717 39.4724C54.9052 39.4724 57.9618 50.7745 57.9618 50.7745H26.8236V50.7745Z" fill="#F154A9"/>
<path d="M41.6719 38.925C41.6719 38.925 49.6578 45.37 51.6764 50.7747H57.9334C57.9331 50.7746 54.799 39.4726 41.6719 38.925Z" fill="#FEE478"/>
<path d="M57.9614 50.9764C57.5941 50.9764 57.2572 50.7325 57.156 50.3604C57.147 50.328 56.3874 47.6288 54.0998 44.98C51.0593 41.4595 46.8781 39.6741 41.672 39.6741C36.4953 39.6741 32.5689 41.4406 30.002 44.9246C28.0666 47.5514 27.654 50.234 27.6502 50.2609C27.5829 50.7167 27.159 51.0328 26.7039 50.967C26.248 50.9008 25.9318 50.4789 25.9967 50.0233C26.0145 49.8993 26.4544 46.9586 28.61 43.9985C30.6019 41.2639 34.4846 38.0041 41.6719 38.0041C48.8262 38.0041 53.0937 41.2359 55.4143 43.9471C57.9261 46.8819 58.735 49.8001 58.7682 49.923C58.8889 50.3683 58.6254 50.8268 58.1802 50.9472C58.107 50.967 58.0338 50.9764 57.9614 50.9764Z" fill="#270089"/>
<path d="M41.5454 9.60359C48.8654 9.60359 54.7993 15.5375 54.7993 22.8573C54.7993 30.1771 48.8655 36.1111 41.5454 36.1111C34.2257 36.1111 28.2917 30.1772 28.2917 22.8573C28.2917 15.5374 34.2257 9.60359 41.5454 9.60359Z" fill="white"/>
<path d="M41.5452 37.0487C33.7204 37.0487 27.3542 30.683 27.3542 22.8575C27.3542 15.0325 33.7204 8.66666 41.5452 8.66666C49.3703 8.66666 55.7363 15.0327 55.7363 22.8575C55.7362 30.6826 49.3702 37.0487 41.5452 37.0487ZM41.5452 10.5408C34.7541 10.5408 29.2289 16.0659 29.2289 22.8572C29.2289 29.6487 34.7541 35.1743 41.5452 35.1743C48.3367 35.1743 53.8619 29.649 53.8619 22.8572C53.8618 16.0659 48.3365 10.5408 41.5452 10.5408Z" fill="#270089"/>
<path d="M34.2362 23.5582C34.8891 23.5582 35.4184 23.0289 35.4184 22.376C35.4184 21.7231 34.8891 21.1938 34.2362 21.1938C33.5833 21.1938 33.054 21.7231 33.054 22.376C33.054 23.0289 33.5833 23.5582 34.2362 23.5582Z" fill="#270089"/>
<path d="M48.854 23.5582C49.5069 23.5582 50.0362 23.0289 50.0362 22.376C50.0362 21.7231 49.5069 21.1938 48.854 21.1938C48.2011 21.1938 47.6719 21.7231 47.6719 22.376C47.6719 23.0289 48.2011 23.5582 48.854 23.5582Z" fill="#270089"/>
<path d="M40.2019 26.6718C40.2019 26.6718 41.8165 27.8828 42.9698 26.6718Z" fill="white"/>
<path d="M41.7497 28.1478C40.8915 28.1478 40.0912 27.7604 39.6395 27.4212C39.225 27.1108 39.1415 26.5232 39.4519 26.1091C39.761 25.6968 40.3457 25.6116 40.7596 25.9186C40.8627 25.9931 41.7421 26.6012 42.2908 26.0251C42.6477 25.6506 43.241 25.636 43.6162 25.9929C43.9907 26.3502 44.0055 26.9434 43.6484 27.318C43.0641 27.9316 42.3909 28.1478 41.7497 28.1478Z" fill="#270089"/>
<path d="M39.6647 36.7229V39.2717C39.6647 39.2717 41.8265 41.4342 43.6935 39.2717V36.7229H39.6647Z" fill="white"/>
<path d="M41.8688 41.0466C41.8686 41.0466 41.8686 41.0466 41.8686 41.0466C40.3722 41.0466 39.2468 39.9744 39.1235 39.8515L38.8789 39.617V35.8387H44.5782V39.5818L44.3751 39.8064C43.4827 40.8402 42.5195 41.0466 41.8688 41.0466ZM40.5491 38.8842C40.8581 39.1116 41.3627 39.3759 41.8685 39.3759H41.8686C42.2373 39.3759 42.5792 39.2465 42.9076 38.9382V37.5093H40.549L40.5491 38.8842Z" fill="#270089"/>
<path d="M48.119 51.6381H75.096C75.096 51.6381 76.7597 28.6246 68.6162 25.3229C60.4727 22.0212 52.1912 26.0915 52.1912 26.0915C52.1912 26.0915 45.0133 32.9459 48.119 51.6381Z" fill="white"/>
<path d="M48.4972 61.2927C48.4972 61.2927 49.8765 51.6381 61.1808 51.6381C72.4854 51.6381 75.096 61.2927 75.096 61.2927H48.4972Z" fill="#F154A9"/>
<path d="M61.1809 51.1702C61.1809 51.1702 68.0027 56.6762 69.7271 61.2926H75.0719C75.0714 61.2926 72.3942 51.638 61.1809 51.1702Z" fill="#FEE478"/>
<path d="M75.0959 61.465C74.7814 61.465 74.494 61.2561 74.4079 60.9387C74.4004 60.9114 73.7511 58.6053 71.7967 56.3427C69.1995 53.3352 65.6281 51.8101 61.1811 51.8101C56.7592 51.8101 53.4049 53.3192 51.2124 56.2954C49.5591 58.5395 49.2066 60.8307 49.2034 60.8534C49.1459 61.2429 48.7837 61.5128 48.3952 61.4567C48.0058 61.4 47.7353 61.04 47.791 60.6505C47.806 60.5445 48.1819 58.0319 50.0233 55.5041C51.7247 53.1681 55.0413 50.3834 61.1811 50.3834C67.2923 50.3834 70.9377 53.1438 72.9201 55.4598C75.0658 57.9671 75.7565 60.4599 75.7851 60.5649C75.888 60.9449 75.6629 61.3368 75.2826 61.4398C75.2204 61.4568 75.1574 61.465 75.0959 61.465Z" fill="#270089"/>
<path d="M61.0724 48.7668C67.3253 48.7668 72.3942 43.6978 72.3942 37.445C72.3942 31.1921 67.3253 26.1232 61.0724 26.1232C54.8196 26.1232 49.7506 31.1921 49.7506 37.445C49.7506 43.6978 54.8196 48.7668 61.0724 48.7668Z" fill="white"/>
<g opacity="0.4">
<path opacity="0.4" d="M56.1002 41.954C56.1002 40.0382 54.5473 38.4855 52.6315 38.4855C51.7755 38.4855 50.9925 38.796 50.3878 39.3102L50.8773 42.2469L53.6336 45.2744C55.0605 44.8448 56.1002 43.521 56.1002 41.954Z" fill="#F154A9"/>
</g>
<g opacity="0.4">
<path opacity="0.4" d="M71.9362 39.2776C71.3367 38.7826 70.5681 38.4855 69.73 38.4855C67.8144 38.4855 66.2617 40.0381 66.2617 41.954C66.2617 43.4742 67.2401 44.7648 68.6012 45.2336L71.4685 42.0843L71.9362 39.2776Z" fill="#F154A9"/>
</g>
<path d="M61.0724 49.5674C54.3884 49.5674 48.9503 44.1297 48.9503 37.4451C48.9503 30.7607 54.3884 25.3228 61.0724 25.3228C67.7566 25.3228 73.1947 30.7608 73.1947 37.4451C73.1947 44.1297 67.7566 49.5674 61.0724 49.5674ZM61.0724 26.924C55.2709 26.924 50.5513 31.6437 50.5513 37.4451C50.5513 43.2464 55.2708 47.9662 61.0724 47.9662C66.8739 47.9662 71.5936 43.2466 71.5936 37.4451C71.5936 31.6437 66.874 26.924 61.0724 26.924Z" fill="#270089"/>
<path d="M54.8293 38.0437C55.387 38.0437 55.8391 37.5916 55.8391 37.0339C55.8391 36.4762 55.387 36.0242 54.8293 36.0242C54.2716 36.0242 53.8195 36.4762 53.8195 37.0339C53.8195 37.5916 54.2716 38.0437 54.8293 38.0437Z" fill="#270089"/>
<path d="M67.3162 38.0437C67.8739 38.0437 68.3259 37.5916 68.3259 37.0339C68.3259 36.4762 67.8739 36.0241 67.3162 36.0241C66.7585 36.0241 66.3064 36.4762 66.3064 37.0339C66.3064 37.5916 66.7585 38.0437 67.3162 38.0437Z" fill="#270089"/>
<path d="M59.4667 49.2895V51.4662C59.4667 51.4662 61.313 53.3136 62.908 51.4662V49.2895H59.4667Z" fill="white"/>
<path d="M61.3488 52.9828C61.3486 52.9828 61.3486 52.9828 61.3483 52.9828C60.07 52.9828 59.109 52.0671 59.0035 51.9617L58.7948 51.7617V48.5338H63.663V51.7316L63.4895 51.9233C62.7278 52.8063 61.905 52.9828 61.3488 52.9828ZM60.2217 51.1352C60.4858 51.33 60.9164 51.5557 61.3487 51.5557H61.3488C61.6639 51.5557 61.9559 51.445 62.2363 51.1818V49.9607H60.2217V51.1352V51.1352Z" fill="#270089"/>
<path d="M50.4907 36.4566L50.2852 35.0054C55.8181 34.2228 59.4384 31.9559 61.5012 30.1916C63.7122 28.3006 64.6247 26.6105 64.6339 26.594L65.9282 27.282C65.8861 27.361 64.8735 29.236 62.4537 31.3053C61.0438 32.5113 59.4401 33.5391 57.6871 34.3614C55.5041 35.385 53.0827 36.0899 50.4907 36.4566Z" fill="#270089"/>
<path d="M75.3438 53.02H67.682C67.2774 53.02 66.9495 52.6921 66.9495 52.2874C66.9495 51.8827 67.2774 51.5547 67.682 51.5547H74.5945C74.5267 48.8161 74.2299 39.1795 73.3012 33.3551C72.8103 30.2752 70.9194 27.6927 68.3474 25.989C66.5351 24.7884 64.3083 24.4384 62.1791 24.2879C59.9969 24.1337 56.8336 24.2576 54.1562 25.7248C51.7265 27.0565 50.0596 29.2897 49.2029 32.3619C49.2019 32.3652 49.2009 32.3684 49.1999 32.3718C49.1889 32.411 48.027 36.639 48.0351 51.3145H55.6082C56.0128 51.3145 56.341 51.6426 56.341 52.0474C56.341 52.4519 56.0128 52.78 55.6082 52.78H47.3035C46.9001 52.78 46.5721 52.4533 46.571 52.0496C46.5228 36.6068 47.7205 32.2134 47.7925 31.9642C48.7607 28.4961 50.6675 25.9634 53.4595 24.4359C55.8345 23.1365 58.8994 22.5809 62.3233 22.8291C65.3555 23.049 67.9742 23.7351 70.3702 25.6721C72.7661 27.6094 74.2805 30.1866 74.7487 33.1245C75.8498 40.0344 76.0744 52.1532 76.0764 52.2747C76.0799 52.4712 76.0044 52.6609 75.8667 52.8012C75.7287 52.9415 75.5403 53.02 75.3438 53.02Z" fill="#270089"/>
<path d="M37.7624 58.1868C37.3323 53.7474 35.4197 47.1304 29.4544 37.1387L29.4539 37.1388C29.4539 37.1388 29.3592 36.9711 29.3552 36.9644C25.8309 30.7634 17.5682 28.7066 10.954 32.4658C4.34959 36.2194 1.90525 44.3851 5.40646 50.5824C6.47732 52.7428 16.1535 71.6532 26.2733 71.4458L26.3217 71.4183C28.2439 71.3454 30.3269 70.9281 32.2065 69.8597C34.0861 68.7914 35.5287 67.2468 36.5365 65.5652L36.6536 65.3522C36.6536 65.3522 37.2971 64.5656 37.6909 62.5272C38.0225 61.1195 38.0363 59.6087 37.7624 58.1868Z" fill="#F154A9"/>
<path d="M21.3655 30.9841C21.3655 30.9841 40.6463 54.5925 17.7637 67.6483C17.7637 67.6483 25.4381 75.6851 34.6063 68.0302C34.6063 68.0302 43.3507 62.7699 32.1514 41.8333C32.1514 41.8333 28.69 32.5287 21.3655 30.9841Z" fill="#FEE478"/>
<path d="M11.4843 34.2766C15.9146 31.7585 21.5472 33.3088 24.0651 37.739C26.5831 42.1694 25.0327 47.8019 20.6025 50.32C16.1722 52.8378 10.5396 51.2874 8.02177 46.8572C5.50388 42.4272 7.05404 36.7944 11.4843 34.2766Z" fill="white"/>
<path d="M20.7513 50.5814C16.184 53.1773 10.3561 51.5735 7.76014 47.0059C5.16434 42.4386 6.76824 36.6107 11.3357 34.0149C15.9032 31.4189 21.7309 33.023 24.3267 37.5903C26.9228 42.1578 25.3188 47.9855 20.7513 50.5814ZM11.633 34.5381C7.354 36.9699 5.85141 42.4296 8.28348 46.7087C10.7155 50.9877 16.1751 52.4904 20.4541 50.0584C24.7331 47.6265 26.2356 42.1667 23.8037 37.8877C21.3718 33.6086 15.9121 32.106 11.633 34.5381Z" fill="#270089"/>
<path d="M20.859 50.7714C16.1868 53.4268 10.2255 51.7862 7.56996 47.114C4.91451 42.4418 6.55523 36.4804 11.2274 33.8249C15.8996 31.1695 21.861 32.8102 24.5165 37.4824C27.1721 42.1547 25.5312 48.1158 20.859 50.7714ZM11.4433 34.2049C6.98068 36.7412 5.4135 42.4354 7.94993 46.8982C10.4863 51.3607 16.1804 52.928 20.6431 50.3916C25.1058 47.8552 26.6729 42.1611 24.1365 37.6985C21.6002 33.2355 15.906 31.6686 11.4433 34.2049ZM20.5617 50.2483C16.1778 52.7397 10.5845 51.2005 8.09311 46.8166C5.60168 42.433 7.14099 36.8396 11.5247 34.3481C15.9085 31.8565 21.5019 33.3959 23.9933 37.7797C26.4849 42.1636 24.9455 47.7569 20.5617 50.2483ZM11.7407 34.728C7.56663 37.1004 6.10067 42.4264 8.47309 46.6005C10.8455 50.7748 16.1715 52.2407 20.3457 49.8683C24.5199 47.4959 25.9857 42.1699 23.6134 37.9956C21.2409 33.8216 15.915 32.3557 11.7407 34.728Z" fill="#270089"/>
<path d="M28.3225 68.5039C28.2919 68.5215 28.2578 68.5336 28.2208 68.5396C22.2308 69.4862 18.7622 68.6366 18.6176 68.5999C18.4565 68.5594 18.359 68.3955 18.3996 68.2345C18.4404 68.0735 18.6039 67.976 18.7649 68.0165C18.7994 68.0254 22.2714 68.8706 28.1268 67.9451C28.2912 67.9193 28.445 68.0308 28.4711 68.1954C28.4913 68.3227 28.4284 68.4438 28.3225 68.5039Z" fill="#270089"/>
<path d="M28.4306 68.6941C28.3763 68.7249 28.3174 68.7453 28.2552 68.7554C22.2227 69.7088 18.7104 68.8491 18.5639 68.8121C18.4295 68.778 18.3162 68.6937 18.2452 68.5744C18.1742 68.4551 18.1538 68.3153 18.1879 68.1811C18.2226 68.0447 18.3126 67.9263 18.4349 67.8569C18.5518 67.7904 18.6881 67.7717 18.8185 67.8049C18.8524 67.8132 22.3066 68.6437 28.0927 67.7293C28.2299 67.7075 28.3671 67.7405 28.4792 67.8222C28.5916 67.9038 28.6653 68.0242 28.6869 68.1614C28.7207 68.3738 28.6176 68.5878 28.4306 68.6941ZM18.6508 68.2367C18.6393 68.2432 18.6191 68.2585 18.6114 68.2881C18.6042 68.3172 18.614 68.3397 18.6206 68.3503C18.6271 68.3615 18.6425 68.3809 18.6712 68.3881C18.8142 68.4244 22.2419 69.2632 28.1869 68.3236C28.1967 68.3219 28.2062 68.3187 28.2147 68.314C28.2394 68.3 28.2615 68.2682 28.2555 68.2293C28.2506 68.1998 28.2328 68.183 28.2224 68.1757C28.2121 68.1682 28.1904 68.1561 28.1611 68.1611C22.2488 69.0953 18.7462 68.2372 18.7114 68.2285C18.685 68.222 18.6638 68.2294 18.6508 68.2367Z" fill="#270089"/>
<path d="M33.4419 64.1807C33.3541 64.2282 33.245 64.2311 33.1515 64.1791C33.0063 64.0983 32.9542 63.9152 33.035 63.7699C35.2242 59.8392 35.1811 54.8643 34.7596 51.3831C34.3008 47.5951 33.3751 44.6654 33.3649 44.6368C33.3102 44.4798 33.3274 44.357 33.4842 44.3027C33.6411 44.248 33.8125 44.3309 33.8671 44.4879C33.8773 44.5172 34.8905 47.4589 35.3569 51.3104C35.7891 54.8807 35.8283 59.9907 33.5606 64.0627C33.5319 64.1145 33.4902 64.1542 33.4419 64.1807Z" fill="#270089"/>
<path d="M33.5549 64.3678L33.5459 64.3728C33.3886 64.4581 33.2014 64.4573 33.0451 64.3701C32.9238 64.3028 32.8362 64.1921 32.7982 64.0586C32.7602 63.9251 32.7766 63.7849 32.844 63.6637C35.0045 59.7847 34.96 54.8586 34.5424 51.4096C34.0866 47.6455 33.1667 44.7338 33.1575 44.7062C33.0329 44.3482 33.2332 44.1878 33.3252 44.1355C33.3518 44.1204 33.3812 44.1074 33.4125 44.0962C33.5433 44.051 33.6842 44.0589 33.8091 44.1195C33.934 44.1798 34.0279 44.2854 34.0735 44.4162C34.0835 44.4452 35.1012 47.3833 35.5738 51.2844C36.0099 54.8866 36.0478 60.0459 33.7513 64.1692C33.7054 64.2522 33.6372 64.321 33.5549 64.3678ZM33.5567 44.509C33.5584 44.5209 33.5622 44.5391 33.5712 44.565C33.5804 44.5908 34.5115 47.5176 34.9766 51.3569C35.402 54.8705 35.4436 59.8944 33.2259 63.8763C33.2114 63.9023 33.2151 63.9268 33.2185 63.939C33.2221 63.9514 33.2322 63.9745 33.258 63.9889C33.2829 64.0028 33.3131 64.0039 33.3379 63.9897L33.3394 63.9889C33.3524 63.9816 33.3624 63.9705 33.3701 63.9571C35.6094 59.9363 35.5687 54.8751 35.1402 51.3374C34.6758 47.5027 33.6712 44.5894 33.6609 44.5604C33.6511 44.5323 33.6304 44.5184 33.619 44.5131C33.6075 44.5072 33.5845 44.4993 33.5567 44.509Z" fill="#270089"/>
<path d="M25.2115 61.8126C25.159 61.8424 25.0971 61.8567 25.0326 61.8504C22.9889 61.6436 20.8056 60.7279 18.5432 59.1282C16.749 57.8597 14.8985 56.1587 13.0435 54.0729C9.89234 50.53 7.78459 47.0471 7.76366 47.0125C7.67804 46.8699 7.72399 46.6851 7.86651 46.5995C8.00797 46.5147 8.19368 46.5599 8.2793 46.7023C8.30004 46.7364 10.3836 50.1786 13.4995 53.6803C16.3537 56.8881 20.6821 60.8057 25.0931 61.2515C25.2585 61.2683 25.3789 61.416 25.3622 61.5811C25.3522 61.6821 25.2934 61.7662 25.2115 61.8126Z" fill="#270089"/>
<path d="M25.3194 62.0024C25.2253 62.0559 25.1187 62.0783 25.0108 62.0677C22.9293 61.8571 20.7108 60.9283 18.4172 59.3067C16.6093 58.0285 14.7465 56.3167 12.8801 54.2184C9.71662 50.6615 7.59764 47.1602 7.57643 47.1252C7.50498 47.0065 7.48395 46.8667 7.51754 46.7324C7.55112 46.5975 7.63474 46.4841 7.75366 46.4125L7.76461 46.4061C8.00758 46.2681 8.32249 46.3504 8.46643 46.5899C8.48707 46.6239 10.5642 50.0531 13.6627 53.5352C16.4911 56.7139 20.774 60.5955 25.1149 61.0344C25.253 61.0483 25.3772 61.1151 25.4651 61.2228C25.5527 61.3302 25.5934 61.4653 25.5793 61.6035C25.5629 61.7702 25.4655 61.9192 25.3194 62.0024ZM7.98076 46.786C7.95374 46.8021 7.94479 46.825 7.94175 46.8374C7.9388 46.8499 7.93585 46.8744 7.95117 46.8998C7.972 46.9343 10.0699 50.4008 13.2069 53.9276C15.051 56.0012 16.8888 57.6909 18.6695 58.9496C20.9008 60.5274 23.0491 61.43 25.0548 61.6326C25.0763 61.6348 25.0933 61.6284 25.1035 61.6225C25.1146 61.6164 25.1409 61.5972 25.145 61.5591C25.1479 61.5296 25.135 61.5085 25.1268 61.4988C25.1188 61.4888 25.1009 61.4719 25.0714 61.4688C20.5904 61.0159 16.2165 57.0622 13.3365 53.8254C10.2113 50.3133 8.11328 46.8493 8.09235 46.8148C8.06952 46.777 8.01948 46.764 7.98076 46.786Z" fill="#270089"/>
<path d="M17.5166 58.1977C17.375 58.2781 17.1514 58.1557 17.0671 58.0154C16.9814 57.873 17.0059 57.6502 17.1483 57.5645C22.0937 54.5889 24.9908 51.0615 25.78 47.1181C26.7966 42.0414 23.8579 37.9674 23.8283 37.9271C23.7299 37.7931 23.7557 37.6 23.8896 37.5017C24.0238 37.4028 24.2103 37.4292 24.3088 37.5629C24.3409 37.6066 25.1034 38.6501 25.7426 40.3636C26.3325 41.9455 26.9616 44.4928 26.4046 47.2854C25.5829 51.4051 22.6415 55.1574 17.5231 58.1939C17.521 58.1952 17.5188 58.1965 17.5166 58.1977Z" fill="#270089"/>
<path d="M17.6344 58.3855L17.6261 58.3904C17.3546 58.5447 17.0105 58.3454 16.8806 58.1291C16.742 57.8991 16.7731 57.536 17.0358 57.3779C21.9144 54.4428 24.7849 50.9777 25.5662 47.0755C26.5599 42.1116 23.6815 38.0963 23.6521 38.0564C23.4808 37.8232 23.5291 37.4956 23.7601 37.3257C23.9953 37.1525 24.3175 37.2066 24.4847 37.4332C24.5174 37.478 25.298 38.5466 25.9471 40.2873C26.5662 41.9472 27.1861 44.5177 26.6239 47.3369C26.2031 49.4472 25.233 51.4448 23.749 53.2891C22.2367 55.1688 20.1766 56.877 17.6363 58.3847L17.6344 58.3855ZM24.0285 37.6721C24.0253 37.674 24.0223 37.6761 24.0192 37.6783C23.9837 37.7043 23.977 37.7605 24.005 37.7985C24.0352 37.84 27.0314 41.99 25.9957 47.163C25.1893 51.1906 22.2514 54.7549 17.2633 57.7562C17.2414 57.7694 17.2263 57.8566 17.2593 57.9113C17.2943 57.9695 17.3878 58.0215 17.4253 58.0215C22.3387 55.1074 25.3712 51.3834 26.1954 47.2514C26.7374 44.5329 26.1371 42.0467 25.5379 40.4401C24.9098 38.756 24.1643 37.7354 24.133 37.6926C24.1088 37.66 24.065 37.6514 24.0285 37.6721Z" fill="#270089"/>
<path d="M18.2175 65.7104C18.116 65.7682 17.9856 65.7636 17.8867 65.6885C15.9266 64.1979 13.0234 60.5596 12.9007 60.4054C12.7972 60.2754 12.8189 60.0863 12.9488 59.9827C13.0791 59.8793 13.2679 59.901 13.3716 60.031C13.4012 60.0681 16.3507 63.7645 18.2507 65.2096C18.3831 65.3104 18.4087 65.499 18.3082 65.6312C18.2829 65.6644 18.2519 65.691 18.2175 65.7104Z" fill="#270089"/>
<path d="M18.3252 65.9006C18.1443 66.0036 17.92 65.9886 17.7541 65.8625C15.7713 64.3546 12.8528 60.6966 12.7297 60.5416C12.6433 60.4328 12.6043 60.2974 12.6199 60.1594C12.6357 60.0214 12.7039 59.8979 12.8127 59.8118C12.8338 59.7948 12.8563 59.7798 12.8795 59.7666C13.1033 59.6394 13.3821 59.6932 13.5426 59.8949C13.5719 59.9319 16.5037 63.6065 18.3831 65.0357C18.4934 65.1197 18.5646 65.2417 18.5831 65.379C18.602 65.5165 18.566 65.653 18.4821 65.7635C18.4393 65.8193 18.3867 65.8658 18.3252 65.9006ZM13.0954 60.1463C13.0916 60.1484 13.088 60.1509 13.0844 60.1538C13.0616 60.1722 13.0557 60.1961 13.0543 60.2085C13.0528 60.2214 13.0531 60.2459 13.0716 60.2692C13.1934 60.4226 16.0788 64.0393 18.0188 65.5145C18.0507 65.5387 18.0877 65.5329 18.1094 65.5204C18.1189 65.5151 18.1272 65.5078 18.1338 65.499C18.152 65.4749 18.1518 65.4502 18.1501 65.4376C18.1485 65.425 18.1419 65.4011 18.1184 65.3832C16.1962 63.9215 13.2302 60.204 13.2005 60.1666C13.1751 60.1347 13.1309 60.126 13.0954 60.1463Z" fill="#270089"/>
<path d="M12.6437 46.9336C12.3461 47.1028 12.0227 47.1375 11.8076 47.114C11.6425 47.0959 11.5231 46.9475 11.541 46.7821C11.5591 46.6176 11.7063 46.4987 11.8707 46.5155C11.9909 46.5264 12.5927 46.5423 12.7414 45.794C12.7739 45.6311 12.9323 45.5255 13.0953 45.5577C13.2583 45.5901 13.3642 45.7486 13.3317 45.9117C13.2252 46.4473 12.9482 46.7607 12.6437 46.9336Z" fill="#270089"/>
<path d="M12.7515 47.1238C12.4622 47.2883 12.1002 47.3658 11.7836 47.3312C11.4989 47.3001 11.2925 47.0435 11.3236 46.7587C11.3415 46.5933 11.4387 46.4455 11.5833 46.3633C11.6777 46.3097 11.7846 46.2873 11.8929 46.2983C11.9212 46.3005 12.0836 46.3105 12.2328 46.2258C12.3822 46.1407 12.4812 45.9812 12.5269 45.7517C12.5563 45.6036 12.6485 45.4758 12.7799 45.4012C12.8883 45.3398 13.0153 45.319 13.1377 45.3435C13.4187 45.3993 13.6016 45.6735 13.546 45.9545C13.4128 46.6234 13.0405 46.9596 12.7515 47.1238ZM11.7993 46.7431C11.7883 46.7493 11.7622 46.7683 11.758 46.8059C11.7532 46.8511 11.7858 46.8917 11.8309 46.8968C12.0076 46.916 12.2854 46.886 12.5356 46.7438C12.8406 46.5705 13.0362 46.276 13.1172 45.8693C13.1259 45.8245 13.097 45.7808 13.0524 45.7724C13.0275 45.7673 13.0079 45.7743 12.9958 45.7812C12.9834 45.7884 12.962 45.8047 12.9555 45.8369C12.8663 46.2849 12.6307 46.5024 12.4487 46.6058C12.1997 46.7473 11.9475 46.7422 11.8506 46.7333C11.8266 46.7309 11.8097 46.7372 11.7993 46.7431Z" fill="#270089"/>
<path d="M21.429 41.3932C21.0406 41.6138 20.6102 41.5945 20.3559 41.5189C20.1966 41.4713 20.1061 41.3036 20.1535 41.1446C20.2008 40.9861 20.3673 40.8956 20.5258 40.9416C20.642 40.9743 21.2314 41.098 21.5123 40.3891C21.5737 40.2344 21.7485 40.1589 21.9029 40.22C22.0574 40.2814 22.1331 40.456 22.0719 40.6105C21.9152 41.0057 21.6809 41.25 21.429 41.3932Z" fill="#270089"/>
<path d="M21.5368 41.5829C21.0979 41.8325 20.6067 41.8216 20.2933 41.7279C20.1604 41.6885 20.0508 41.5996 19.9848 41.4774C19.9189 41.3555 19.9044 41.215 19.944 41.0819C19.9824 40.9531 20.0681 40.8454 20.1851 40.7789C20.3083 40.7088 20.4508 40.6922 20.5868 40.7316C20.6236 40.7417 20.829 40.7908 21.0164 40.6844C21.1396 40.6144 21.2378 40.488 21.3091 40.3082C21.3525 40.1986 21.4327 40.1063 21.535 40.0479C21.6727 39.9699 21.836 39.9583 21.9832 40.0164C22.1123 40.0678 22.2137 40.1661 22.2687 40.2934C22.3237 40.4205 22.3259 40.5618 22.2748 40.6909C22.1143 41.0956 21.8661 41.396 21.5368 41.5829ZM20.4009 41.1586C20.3878 41.1663 20.3707 41.1806 20.3628 41.2067C20.3544 41.2352 20.3634 41.2583 20.3692 41.2696C20.3752 41.2806 20.3898 41.301 20.4181 41.3092C20.6348 41.3739 21.0013 41.3849 21.3209 41.2032C21.5615 41.0664 21.7457 40.8401 21.8685 40.5299C21.8794 40.5022 21.8725 40.4784 21.8675 40.4668C21.8623 40.4553 21.8499 40.4339 21.8223 40.4232C21.7991 40.4137 21.7731 40.4155 21.7511 40.4281C21.7397 40.4345 21.7243 40.4469 21.7154 40.4691C21.6067 40.7439 21.4441 40.944 21.2323 41.0643C20.9028 41.2517 20.5633 41.1788 20.4671 41.1521C20.4357 41.1429 20.4122 41.1523 20.4009 41.1586Z" fill="#270089"/>
<path d="M19.4538 47.3967C18.8716 47.7276 18.0989 47.4711 17.7315 46.8246C17.3641 46.1782 17.539 45.3831 18.1212 45.0521C18.7036 44.7213 19.4762 44.9779 19.8435 45.6243C20.2109 46.2709 20.0361 47.0658 19.4538 47.3967ZM18.4187 45.5753C18.1249 45.7424 18.0512 46.1695 18.2546 46.5274C18.4581 46.8855 18.8626 47.0406 19.1564 46.8736C19.4503 46.7065 19.5239 46.2796 19.3205 45.9216C19.1172 45.5636 18.7125 45.4084 18.4187 45.5753Z" fill="#270089"/>
<path d="M19.5617 47.5869C18.8746 47.9772 17.9686 47.6839 17.5416 46.9327C17.1146 46.1814 17.3263 45.2528 18.0133 44.8623C18.7004 44.4718 19.6067 44.7653 20.0336 45.5164C20.4606 46.2674 20.2489 47.1962 19.5617 47.5869ZM18.2292 45.242C17.7517 45.5136 17.6136 46.175 17.9216 46.7166C18.2294 47.2583 18.8683 47.4781 19.3458 47.2067C19.8234 46.9352 19.9616 46.2737 19.6537 45.7322C19.3459 45.1907 18.7068 44.9708 18.2292 45.242ZM19.2645 47.0636C18.8659 47.29 18.3277 47.0981 18.0646 46.6353C17.8018 46.1727 17.9121 45.612 18.3107 45.3853C18.7092 45.1587 19.2475 45.3509 19.5103 45.8135C19.7734 46.2764 19.663 46.8371 19.2645 47.0636ZM18.5266 45.7651C18.3408 45.8709 18.3033 46.1704 18.4447 46.4194C18.5863 46.6683 18.8627 46.7893 19.0486 46.6836C19.2345 46.5779 19.272 46.2784 19.1306 46.0297C18.9891 45.7807 18.7124 45.6598 18.5266 45.7651Z" fill="#270089"/>
<path d="M13.2628 37.4056C13.2232 37.4283 13.1786 37.4417 13.1317 37.4446C11.3738 37.5481 10.5721 35.84 10.3936 34.9223C10.3619 34.7593 10.4683 34.6012 10.6315 34.5697C10.7946 34.538 10.9525 34.6444 10.9842 34.8074C11.0004 34.8893 11.3475 36.5565 12.6364 36.8139C12.2876 35.9647 11.7391 34.2387 12.6581 33.479C12.7868 33.3728 12.9758 33.3912 13.0816 33.5191C13.1875 33.6473 13.1696 33.8368 13.0413 33.9428C12.3571 34.5086 13.0773 36.3941 13.3836 37.0101C13.4285 37.1004 13.4252 37.2075 13.3744 37.295C13.3473 37.342 13.3085 37.3799 13.2628 37.4056Z" fill="#270089"/>
<path d="M13.3705 37.5957C13.3017 37.6348 13.2234 37.658 13.1445 37.6626C11.2355 37.7751 10.37 35.9467 10.1789 34.9642C10.1362 34.7449 10.2379 34.5237 10.4318 34.4135C10.4811 34.3856 10.534 34.366 10.5897 34.3552C10.8706 34.3005 11.1436 34.4847 11.1985 34.7655C11.2096 34.8216 11.4504 35.9858 12.2626 36.4445C11.9149 35.4404 11.6482 34.0301 12.5184 33.3105C12.542 33.2914 12.567 33.2741 12.5934 33.259C12.8129 33.1343 13.0889 33.1853 13.2498 33.38C13.4322 33.6008 13.4011 33.9288 13.1805 34.1112C12.6826 34.5228 13.1945 36.1389 13.5791 36.9127C13.6568 37.0694 13.651 37.2532 13.5634 37.4044C13.5171 37.4841 13.4505 37.5503 13.3705 37.5957ZM10.6478 34.7933C10.6223 34.8078 10.6001 34.8404 10.6079 34.8806C10.7737 35.7333 11.5117 37.321 13.1186 37.2263C13.1459 37.2247 13.1714 37.2089 13.185 37.1853C13.199 37.1614 13.2 37.1323 13.1875 37.1074C13.175 37.0822 11.9411 34.5688 12.9019 33.7745C12.9369 33.7456 12.9419 33.6934 12.9129 33.6586C12.8842 33.6238 12.8327 33.6181 12.7967 33.6478C11.9715 34.3302 12.551 36.0313 12.8384 36.731L12.9932 37.1081L12.5934 37.0284C11.1615 36.7424 10.7848 34.9273 10.7696 34.8501C10.7608 34.8046 10.7175 34.7756 10.673 34.7844C10.6639 34.7859 10.6553 34.7891 10.6478 34.7933Z" fill="#270089"/>
<path d="M13.59 49.5087C13.2218 49.7179 12.7525 49.5885 12.5433 49.2205C12.3342 48.8525 12.4635 48.3831 12.8315 48.1741C13.1993 47.9649 13.6688 48.0941 13.878 48.4621C14.0871 48.8299 13.9579 49.2994 13.59 49.5087ZM13.0295 48.5227C12.854 48.6227 12.7923 48.8466 12.8922 49.0225C12.992 49.1981 13.2162 49.2597 13.3918 49.1599C13.5672 49.0601 13.6291 48.836 13.5293 48.6605C13.4293 48.4845 13.2051 48.423 13.0295 48.5227Z" fill="#270089"/>
<path d="M13.6983 49.6986C13.2255 49.9672 12.6224 49.8011 12.3538 49.3285C12.085 48.8557 12.251 48.2525 12.7238 47.984C13.1966 47.7153 13.7998 47.8811 14.0684 48.354C14.3368 48.8267 14.171 49.43 13.6983 49.6986ZM13.1379 48.7127C13.067 48.753 13.0422 48.8435 13.0825 48.9145C13.1228 48.9852 13.2132 49.0101 13.284 48.9696C13.3549 48.9293 13.3798 48.839 13.3396 48.7683C13.2993 48.6972 13.2088 48.6723 13.1379 48.7127Z" fill="#270089"/>
<path d="M23.3758 42.64C23.0079 42.8489 22.5384 42.7198 22.3293 42.3518C22.1201 41.9838 22.2493 41.5141 22.6172 41.3052C22.9851 41.096 23.4547 41.2253 23.6637 41.5932C23.8731 41.9612 23.7439 42.4305 23.3758 42.64ZM22.8155 41.654C22.6398 41.7537 22.5781 41.9778 22.678 42.1535C22.7778 42.3293 23.002 42.3909 23.1776 42.291C23.3531 42.1912 23.415 41.9671 23.3151 41.7913C23.2153 41.6157 22.9913 41.5542 22.8155 41.654Z" fill="#270089"/>
<path d="M23.4835 42.8297C23.011 43.0983 22.4076 42.9324 22.139 42.4598C21.8703 41.987 22.0364 41.3837 22.5092 41.1151C22.982 40.8465 23.5853 41.0125 23.8539 41.4851C24.1225 41.9579 23.9565 42.5609 23.4835 42.8297ZM22.9234 41.8439C22.8524 41.8843 22.8276 41.9748 22.8679 42.0454C22.9081 42.1164 22.9986 42.1413 23.0696 42.101C23.1406 42.0607 23.1653 41.9703 23.125 41.8993C23.0846 41.8284 22.9944 41.8036 22.9234 41.8439Z" fill="#270089"/>
<path d="M12.3641 59.4128C12.5357 59.4128 12.6748 59.2736 12.6748 59.102C12.6748 58.9304 12.5357 58.7913 12.3641 58.7913C12.1925 58.7913 12.0534 58.9304 12.0534 59.102C12.0534 59.2736 12.1925 59.4128 12.3641 59.4128Z" fill="#270089"/>
<path d="M12.626 59.5621C12.3721 59.7064 12.0487 59.6172 11.9043 59.3634C11.7601 59.1098 11.8492 58.7861 12.103 58.6419C12.3567 58.4977 12.6804 58.5866 12.8246 58.8405C12.9688 59.0942 12.8798 59.4178 12.626 59.5621ZM12.3189 59.0218C12.2747 59.0468 12.2593 59.1033 12.2843 59.1475C12.3095 59.1917 12.3657 59.2072 12.4101 59.1822C12.4541 59.1569 12.4697 59.1005 12.4446 59.0562C12.4196 59.012 12.3631 58.9966 12.3189 59.0218Z" fill="#270089"/>
<path d="M33.2196 53.4819C33.3912 53.4819 33.5303 53.3428 33.5303 53.1712C33.5303 52.9996 33.3912 52.8605 33.2196 52.8605C33.048 52.8605 32.9088 52.9996 32.9088 53.1712C32.9088 53.3428 33.048 53.4819 33.2196 53.4819Z" fill="#270089"/>
<path d="M33.4807 53.6314C33.227 53.7754 32.9034 53.6865 32.7592 53.4326C32.6149 53.179 32.704 52.8552 32.9577 52.7109C33.2114 52.5666 33.5352 52.6558 33.6794 52.9095C33.8237 53.1634 33.7344 53.4871 33.4807 53.6314ZM33.1736 53.0909C33.1294 53.1159 33.1139 53.1725 33.139 53.2166C33.1642 53.261 33.2206 53.2765 33.2648 53.2514C33.309 53.2263 33.3244 53.1697 33.2994 53.1256C33.2742 53.0815 33.2179 53.0657 33.1736 53.0909Z" fill="#270089"/>
<path d="M33.3309 55.572C33.5025 55.572 33.6416 55.4329 33.6416 55.2613C33.6416 55.0897 33.5025 54.9506 33.3309 54.9506C33.1593 54.9506 33.0202 55.0897 33.0202 55.2613C33.0202 55.4329 33.1593 55.572 33.3309 55.572Z" fill="#270089"/>
<path d="M33.5921 55.7215C33.3383 55.8656 33.0148 55.7766 32.8705 55.5226C32.7262 55.269 32.8154 54.9453 33.0691 54.8011C33.3228 54.657 33.6465 54.7458 33.7906 54.9995C33.9349 55.2535 33.8458 55.5772 33.5921 55.7215ZM33.2851 55.1813C33.2408 55.206 33.2254 55.2625 33.2505 55.3068C33.2757 55.3509 33.332 55.3664 33.3761 55.3411C33.4202 55.3161 33.4359 55.2598 33.4108 55.2157C33.3857 55.1713 33.3292 55.156 33.2851 55.1813Z" fill="#270089"/>
<path d="M32.2035 70.1889C31.4872 70.5961 30.7425 70.9191 29.9726 71.156C28.5707 71.5876 27.0857 71.7344 25.5593 71.5928C22.9645 71.3522 21.1694 70.3717 21.0942 70.3299C21.0925 70.329 21.0907 70.328 21.0889 70.3271C18.7041 68.9362 16.3246 66.9011 14.0164 64.2781C12.1751 62.186 10.374 59.7163 8.66298 56.9376C5.75199 52.2102 4.08634 48.1662 4.06969 48.1256C4.06522 48.1145 4.06132 48.103 4.05828 48.0912C3.43314 45.6919 3.38652 43.3706 3.92023 41.192C4.3473 39.4485 5.14435 37.7943 6.28913 36.2753C8.19034 33.7526 10.38 32.4738 10.5664 32.3676C10.7003 32.2788 12.0106 31.4302 14.119 30.8454C16.1291 30.2879 19.2694 29.882 22.8147 31.1139C22.8171 31.1149 22.8196 31.1157 22.8221 31.1165C22.8604 31.131 23.7668 31.476 24.2929 31.774C24.4241 31.8483 24.4703 32.015 24.3959 32.1463C24.3216 32.2774 24.1549 32.3237 24.0235 32.2494C23.5494 31.9808 22.6927 31.6522 22.6315 31.6288C19.2207 30.4446 16.1994 30.8356 14.265 31.372C12.1701 31.953 10.8756 32.8182 10.8628 32.8269C10.8564 32.831 10.8492 32.8354 10.8436 32.8388C10.8214 32.8509 8.58877 34.1246 6.71296 36.6207C4.21421 39.9463 3.49745 43.7532 4.58229 47.9356C4.70102 48.2216 6.33822 52.1219 9.13295 56.6591C11.7912 60.9747 16.07 66.7665 21.3608 69.8536C21.4321 69.892 23.1839 70.8285 25.6308 71.0509C28.9468 71.3526 31.9028 70.2704 34.4164 67.8342C34.4264 67.8246 35.4372 66.8301 36.3013 65.0322C37.0963 63.378 37.9271 60.6826 37.3702 57.2366C37.3692 57.2301 37.3686 57.2237 37.3679 57.2172C37.3662 57.1999 37.2044 55.4657 36.3457 52.4948C35.5532 49.7527 33.9884 45.3665 31.034 40.043C31.0125 40.0037 28.9262 36.2214 26.9189 34.304C26.8097 34.1997 26.8058 34.0267 26.9101 33.9176C27.014 33.8087 27.187 33.8047 27.2962 33.9088C29.3651 35.8852 31.4257 39.6209 31.5122 39.7791C34.4964 45.1562 36.0765 49.5908 36.8765 52.3639C37.7216 55.2929 37.896 56.9978 37.9112 57.1585C38.4896 60.7515 37.6172 63.5638 36.7833 65.2909C35.8764 67.1687 34.8405 68.1839 34.797 68.2265C33.9842 69.0138 33.117 69.6696 32.2035 70.1889Z" fill="#270089"/>
<path d="M32.3116 70.3791C31.5834 70.793 30.8182 71.1246 30.0369 71.3649C28.6075 71.8046 27.0941 71.9547 25.539 71.8106C22.8995 71.5657 21.0652 70.5638 20.9884 70.5217L20.9813 70.5172C18.5739 69.1131 16.1761 67.063 13.8522 64.4225C12.0029 62.321 10.1943 59.8413 8.47699 57.0522C5.5582 52.3121 3.88418 48.2489 3.86744 48.2084C3.85916 48.1878 3.85231 48.1669 3.8468 48.1464C3.21224 45.7114 3.16571 43.3543 3.7079 41.1399C4.142 39.3676 4.95171 37.6868 6.11466 36.1437C8.01387 33.6237 10.179 32.3375 10.4516 32.1815C10.5038 32.1471 10.635 32.063 10.843 31.9447C11.3787 31.6402 12.5093 31.0652 14.0606 30.6348C16.1007 30.0691 19.2878 29.6571 22.8866 30.9074L22.8986 30.9121C22.9381 30.9271 23.8572 31.2763 24.4004 31.584C24.5147 31.6486 24.597 31.7539 24.6321 31.8805C24.667 32.0071 24.6506 32.1397 24.5858 32.2541C24.5421 32.3314 24.4784 32.3953 24.4013 32.439C24.2517 32.5242 24.0657 32.5244 23.9157 32.4395C23.4619 32.1825 22.6231 31.8595 22.5565 31.8341C19.2 30.6697 16.2268 31.0546 14.3232 31.5825C12.8773 31.9835 11.8188 32.5223 11.3165 32.8078C11.1009 32.9303 10.9855 33.0075 10.9846 33.008C10.9744 33.0148 10.9623 33.0221 10.9529 33.0277C10.9274 33.0422 8.72045 34.3127 6.88736 36.752C4.4336 40.0175 3.72788 43.7567 4.78969 47.8655C4.91803 48.1729 6.56484 52.0733 9.31885 56.5445C11.9633 60.8377 16.2174 66.5984 21.4678 69.6628C21.5741 69.7202 23.2726 70.6172 25.6504 70.8334C27.8708 71.0354 29.9431 70.6 31.8094 69.5392C32.6655 69.0527 33.4914 68.4263 34.2641 67.6773C34.2733 67.6684 35.2642 66.6852 36.1043 64.9374C36.8858 63.3115 37.7022 60.6616 37.1543 57.2714C37.1525 57.2604 37.151 57.2483 37.15 57.2367C37.1485 57.2197 36.9836 55.4905 36.1356 52.5554C35.3464 49.8242 33.7872 45.4548 30.8427 40.1489C30.8215 40.1102 28.756 36.3611 26.7677 34.462C26.6727 34.3714 26.6188 34.249 26.6157 34.1177C26.6128 33.9864 26.6611 33.8617 26.7518 33.7668C26.7851 33.7319 26.823 33.7025 26.8644 33.6789C27.0518 33.5722 27.2914 33.6019 27.447 33.7507C29.5431 35.7531 31.6166 39.5146 31.7039 39.6739C34.6977 45.0682 36.2835 49.5194 37.0864 52.3033C37.9242 55.2073 38.107 56.9118 38.128 57.1307C38.7133 60.777 37.8269 63.6324 36.9798 65.3859C36.056 67.2986 34.9936 68.34 34.9489 68.3834C34.1267 69.1803 33.2394 69.8515 32.3116 70.3791ZM11.0592 32.3247C10.8484 32.4445 10.7214 32.5271 10.6874 32.5498L10.6745 32.5576C10.4396 32.6913 8.3262 33.9357 6.46371 36.4068C5.33682 37.9021 4.55261 39.5295 4.13249 41.244C3.60762 43.3871 3.65386 45.6722 4.26977 48.036C4.27044 48.0386 4.2711 48.0407 4.27206 48.0432C4.28842 48.083 5.94883 52.113 8.84907 56.8229C10.5535 59.591 12.3473 62.0508 14.1805 64.1337C16.4732 66.7392 18.8345 68.7593 21.199 70.1385C21.2735 70.1798 23.0297 71.1388 25.5792 71.3752C27.0772 71.5142 28.5337 71.3702 29.9081 70.9472C30.6591 70.7161 31.3949 70.3972 32.0955 69.9989C32.9912 69.4898 33.8488 68.8406 34.6447 68.0695C34.6871 68.0283 35.6959 67.0395 36.5865 65.1959C37.4066 63.4976 38.2648 60.7305 37.6954 57.1933L37.6937 57.179C37.6768 56.9979 37.5032 55.3253 36.6667 52.4246C35.8699 49.6624 34.2958 45.2446 31.3213 39.8849C31.235 39.7272 29.1932 36.0228 27.1452 34.0669C27.1195 34.0424 27.0857 34.0501 27.068 34.0687C27.055 34.0822 27.0528 34.0974 27.0529 34.1076C27.053 34.118 27.0562 34.1331 27.0696 34.146C29.1062 36.0914 31.2045 39.8996 31.2255 39.9379C34.1893 45.2785 35.76 49.6811 36.5556 52.4343C37.4196 55.4238 37.5839 57.1803 37.5856 57.1977C38.1519 60.7039 37.307 63.4444 36.4983 65.1269C35.6218 66.9509 34.5796 67.9804 34.5692 67.9905C33.7694 68.7658 32.9137 69.4143 32.0255 69.919C30.0804 71.0246 27.9221 71.4788 25.6109 71.2687C23.1183 71.0421 21.3315 70.0859 21.2567 70.0457L21.2508 70.0424C15.921 66.9326 11.6182 61.1105 8.94697 56.7737C6.12018 52.1848 4.45015 48.1873 4.38042 48.0193L4.37081 47.9904C3.26808 43.7403 3.99749 39.8708 6.5383 36.4895C8.42533 33.9783 10.6404 32.7029 10.7337 32.6498L10.7405 32.6458C10.7419 32.6448 10.8673 32.5606 11.101 32.4278C11.6208 32.1324 12.7154 31.575 14.2067 31.1614C16.1709 30.6166 19.2394 30.2197 22.7034 31.4222L22.7098 31.4245C22.8044 31.4608 23.6487 31.7859 24.1314 32.0592C24.1564 32.0733 24.1792 32.0627 24.1855 32.0592C24.1942 32.0541 24.201 32.0473 24.2059 32.0385C24.215 32.0223 24.2137 32.007 24.2109 31.9972C24.2081 31.9871 24.2015 31.9734 24.1853 31.9642C23.6709 31.6729 22.7539 31.3245 22.7447 31.321C19.2509 30.1071 16.1575 30.5069 14.1775 31.0562C12.6717 31.4735 11.5774 32.0301 11.0592 32.3247Z" fill="#270089"/>
<path d="M26.2097 33.4851C26.1153 33.5389 25.9937 33.5329 25.9038 33.4609C25.6445 33.2532 25.1572 32.8932 25.1485 32.8874C25.0234 32.8029 24.9903 32.6332 25.0746 32.5082C25.159 32.3832 25.3288 32.35 25.4538 32.4345C25.4903 32.459 25.9689 32.813 26.2455 33.0347C26.3632 33.1288 26.3821 33.3008 26.2876 33.4187C26.2655 33.4465 26.2388 33.4687 26.2097 33.4851Z" fill="#270089"/>
<path d="M26.3179 33.6752C26.1417 33.7754 25.9256 33.7582 25.7674 33.6314C25.5218 33.4349 25.0584 33.0921 25.0235 33.0666C24.8012 32.914 24.743 32.6097 24.8936 32.3862C24.9359 32.3235 24.9928 32.2706 25.0582 32.2335C25.2217 32.1405 25.42 32.1482 25.5763 32.2533C25.625 32.286 26.1083 32.6447 26.3822 32.8639C26.4846 32.9459 26.5491 33.0632 26.5634 33.1939C26.5778 33.3243 26.5407 33.4528 26.4584 33.5553C26.4194 33.604 26.3722 33.6444 26.3179 33.6752ZM25.2743 32.6134C25.2672 32.6176 25.261 32.6233 25.2561 32.6303C25.2394 32.6554 25.2459 32.6894 25.2711 32.7061C25.2902 32.719 25.7841 33.0848 26.0408 33.2904C26.0621 33.3076 26.087 33.3038 26.1021 33.2952C26.1079 33.2918 26.113 33.2875 26.1174 33.2821C26.1293 33.2672 26.1304 33.2519 26.1291 33.2417C26.128 33.2316 26.1237 33.217 26.1092 33.2051C25.8328 32.9838 25.3655 32.6386 25.3318 32.6155C25.3112 32.6016 25.2886 32.6054 25.2743 32.6134Z" fill="#270089"/>
</svg>
