<svg width="80" height="80" viewBox="0 0 80 80" fill="none" xmlns="http://www.w3.org/2000/svg">
<path d="M15.4922 63.1027C15.1751 63.1027 14.8615 62.9611 14.6525 62.6908C12.538 59.9557 10.8927 56.9198 9.76232 53.6679C8.5929 50.3038 8 46.7757 8 43.1819C8 38.8726 8.84414 34.6916 10.5092 30.7551C12.1171 26.9534 14.4189 23.5393 17.3504 20.6078C20.282 17.6762 23.6961 15.3745 27.4977 13.7665C31.4343 12.1015 35.6153 11.2573 39.9247 11.2573C44.234 11.2573 48.4149 12.1015 52.3515 13.7665C56.1531 15.3745 59.5673 17.6761 62.4987 20.6078C65.4303 23.5393 67.7321 26.9533 69.3401 30.7551C71.0051 34.6916 71.8493 38.8726 71.8493 43.1819C71.8493 47.2367 71.0909 51.3235 69.6561 55.0004C69.4432 55.5457 68.8285 55.8156 68.2829 55.6027C67.7374 55.3898 67.4677 54.775 67.6807 54.2295C69.0013 50.8449 69.7287 46.9213 69.7287 43.1819C69.7287 26.7479 56.3586 13.3778 39.9246 13.3778C23.4905 13.3778 10.1205 26.7479 10.1205 43.1819C10.1205 49.8413 12.2677 56.1389 16.3301 61.3939C16.6883 61.857 16.603 62.523 16.1398 62.8812C15.9469 63.0304 15.7187 63.1027 15.4922 63.1027Z" fill="#270089"/>
<path d="M63.198 27.3805C65.3652 27.3805 67.122 25.6237 67.122 23.4566C67.122 21.2894 65.3652 19.5326 63.198 19.5326C61.0309 19.5326 59.2741 21.2894 59.2741 23.4566C59.2741 25.6237 61.0309 27.3805 63.198 27.3805Z" fill="#F154A9"/>
<path d="M63.1977 28.4408C60.4495 28.4408 58.2136 26.2049 58.2136 23.4566C58.2136 20.7083 60.4495 18.4723 63.1977 18.4723C65.946 18.4723 68.182 20.7082 68.182 23.4566C68.182 26.2049 65.946 28.4408 63.1977 28.4408ZM63.1977 20.593C61.6187 20.593 60.3341 21.8776 60.3341 23.4566C60.3341 25.0357 61.6187 26.3203 63.1977 26.3203C64.7768 26.3203 66.0613 25.0357 66.0613 23.4566C66.0613 21.8776 64.7767 20.593 63.1977 20.593Z" fill="#270089"/>
<path d="M39.9252 16.2415C42.0923 16.2415 43.8491 14.4847 43.8491 12.3176C43.8491 10.1504 42.0923 8.39364 39.9252 8.39364C37.7581 8.39364 36.0013 10.1504 36.0013 12.3176C36.0013 14.4847 37.7581 16.2415 39.9252 16.2415Z" fill="#FEE478"/>
<path d="M39.925 17.3018C37.1766 17.3018 34.9407 15.0659 34.9407 12.3176C34.9407 9.56923 37.1766 7.33334 39.925 7.33334C42.6732 7.33334 44.9091 9.56923 44.9091 12.3176C44.9092 15.0659 42.6733 17.3018 39.925 17.3018ZM39.925 9.45396C38.3459 9.45396 37.0614 10.7386 37.0614 12.3176C37.0614 13.8966 38.3459 15.1812 39.925 15.1812C41.504 15.1812 42.7886 13.8966 42.7886 12.3176C42.7886 10.7385 41.504 9.45396 39.925 9.45396Z" fill="#270089"/>
<path d="M15.8491 27.3806C18.0163 27.3806 19.7731 25.6237 19.7731 23.4566C19.7731 21.2894 18.0163 19.5326 15.8491 19.5326C13.682 19.5326 11.9251 21.2894 11.9251 23.4566C11.9251 25.6237 13.682 27.3806 15.8491 27.3806Z" fill="#FEE478"/>
<path d="M15.8488 28.4408C13.1005 28.4408 10.8646 26.2049 10.8646 23.4566C10.8646 20.7083 13.1005 18.4723 15.8488 18.4723C18.5972 18.4723 20.8331 20.7082 20.8331 23.4566C20.8331 26.2049 18.5972 28.4408 15.8488 28.4408ZM15.8488 20.593C14.2698 20.593 12.9851 21.8776 12.9851 23.4566C12.9851 25.0357 14.2698 26.3203 15.8488 26.3203C17.4279 26.3203 18.7125 25.0357 18.7125 23.4566C18.7124 21.8776 17.4278 20.593 15.8488 20.593Z" fill="#270089"/>
<path d="M44.2124 57.3975H68.2398C68.2398 57.3975 69.7213 36.9002 62.4682 33.9595C55.2151 31.0188 47.839 34.6441 47.839 34.6441C47.839 34.6441 41.4463 40.749 44.2124 57.3975Z" fill="white"/>
<path d="M44.5491 65.9964C44.5491 65.9964 45.7778 57.3975 55.8462 57.3975C65.9147 57.3975 68.2398 65.9964 68.2398 65.9964H44.5491Z" fill="#F154A9"/>
<path d="M55.8459 56.9807C55.8459 56.9807 61.9218 61.8848 63.4576 65.9965H68.2178C68.2173 65.9965 65.8331 57.3975 55.8459 56.9807Z" fill="#FEE478"/>
<path d="M68.2393 66.1499C67.9594 66.1499 67.7033 65.9639 67.6267 65.6811C67.6198 65.6569 67.0417 63.6029 65.301 61.5878C62.9878 58.909 59.8068 57.5508 55.8461 57.5508C51.9076 57.5508 48.9201 58.8948 46.9672 61.5456C45.4947 63.5442 45.1808 65.585 45.1778 65.6052C45.1268 65.9521 44.8041 66.1925 44.458 66.1425C44.1112 66.0921 43.8705 65.7714 43.92 65.4245C43.9335 65.3301 44.2683 63.0922 45.9082 60.8408C47.4236 58.7603 50.3776 56.28 55.8461 56.28C61.2889 56.28 64.5358 58.7387 66.3014 60.8015C68.2125 63.0345 68.8278 65.2548 68.8532 65.3483C68.9448 65.687 68.7443 66.0359 68.4057 66.1277C68.3502 66.1426 68.2942 66.1499 68.2393 66.1499Z" fill="#270089"/>
<path d="M55.7495 54.8401C61.3186 54.8401 65.8333 50.3254 65.8333 44.7562C65.8333 39.1871 61.3186 34.6724 55.7495 34.6724C50.1803 34.6724 45.6656 39.1871 45.6656 44.7562C45.6656 50.3254 50.1803 54.8401 55.7495 54.8401Z" fill="white"/>
<g opacity="0.4">
<path opacity="0.4" d="M51.321 48.7722C51.321 47.0659 49.938 45.683 48.2317 45.683C47.4694 45.683 46.772 45.9596 46.2333 46.4175L46.6692 49.0331L49.1241 51.7297C50.395 51.3471 51.321 50.1679 51.321 48.7722Z" fill="#F154A9"/>
</g>
<g opacity="0.4">
<path opacity="0.4" d="M65.4254 46.3885C64.8914 45.9476 64.2068 45.683 63.4605 45.683C61.7544 45.683 60.3712 47.0658 60.3712 48.7722C60.3712 50.1261 61.2428 51.2757 62.4551 51.6931L65.0088 48.8882L65.4254 46.3885Z" fill="#F154A9"/>
</g>
<path d="M55.7495 55.5533C49.7962 55.5533 44.9528 50.71 44.9528 44.7563C44.9528 38.8029 49.7961 33.9595 55.7495 33.9595C61.7029 33.9595 66.5464 38.8029 66.5464 44.7563C66.5464 50.71 61.7028 55.5533 55.7495 55.5533ZM55.7495 35.3856C50.5824 35.3856 46.3788 39.5893 46.3788 44.7563C46.3788 49.9234 50.5824 54.1271 55.7495 54.1271C60.9165 54.1271 65.1203 49.9235 65.1203 44.7563C65.1203 39.5893 60.9165 35.3856 55.7495 35.3856Z" fill="#270089"/>
<path d="M50.1887 45.2895C50.6854 45.2895 51.0881 44.8868 51.0881 44.3901C51.0881 43.8933 50.6854 43.4907 50.1887 43.4907C49.692 43.4907 49.2893 43.8933 49.2893 44.3901C49.2893 44.8868 49.692 45.2895 50.1887 45.2895Z" fill="#270089"/>
<path d="M61.3105 45.2895C61.8072 45.2895 62.2099 44.8868 62.2099 44.3901C62.2099 43.8933 61.8072 43.4907 61.3105 43.4907C60.8138 43.4907 60.4111 43.8933 60.4111 44.3901C60.4111 44.8868 60.8138 45.2895 61.3105 45.2895Z" fill="#270089"/>
<path d="M54.3192 55.3057V57.2444C54.3192 57.2444 55.9639 58.8899 57.3844 57.2444V55.3057H54.3192Z" fill="white"/>
<path d="M55.9957 58.5953C55.9955 58.5953 55.9954 58.5953 55.9953 58.5953C54.8569 58.5953 54.0008 57.7796 53.9067 57.6858L53.7209 57.5077V54.6327H58.0569V57.4809L57.9022 57.6517C57.2237 58.4379 56.491 58.5953 55.9957 58.5953ZM54.9918 56.9497C55.227 57.1232 55.6106 57.3242 55.9956 57.3242H55.9957C56.2763 57.3242 56.5363 57.2257 56.7861 56.9912V55.9036H54.9919V56.9497H54.9918Z" fill="#270089"/>
<path d="M46.3244 43.8759L46.1415 42.5834C51.0693 41.8864 54.2937 39.8672 56.131 38.2959C58.1003 36.6117 58.9132 35.1065 58.9211 35.0915L60.0739 35.7045C60.0364 35.7747 59.1347 37.4448 56.9794 39.2879C55.7236 40.3619 54.2953 41.2775 52.734 42.0098C50.7896 42.9214 48.633 43.5493 46.3244 43.8759Z" fill="#270089"/>
<path d="M68.4604 58.6282H61.6364C61.2761 58.6282 60.9838 58.3363 60.9838 57.9758C60.9838 57.6154 61.2761 57.3231 61.6364 57.3231H67.7931C67.7327 54.884 67.4683 46.301 66.6411 41.1134C66.2039 38.3703 64.5197 36.0703 62.229 34.5528C60.6149 33.4836 58.6315 33.1717 56.735 33.0376C54.7915 32.9003 51.9742 33.0107 49.5895 34.3174C47.4254 35.5035 45.9408 37.4924 45.1777 40.2288C45.1768 40.2317 45.1759 40.2345 45.1751 40.2376C45.1651 40.2726 44.1304 44.0383 44.1375 57.1091H50.8826C51.243 57.1091 51.5353 57.4014 51.5353 57.7618C51.5353 58.1221 51.243 58.4144 50.8826 58.4144H43.4859C43.1265 58.4144 42.8345 58.1235 42.8335 57.7638C42.7905 44.0096 43.8573 40.0964 43.9213 39.8746C44.7838 36.7858 46.482 34.5299 48.9688 33.1694C51.084 32.0121 53.8139 31.5172 56.8634 31.7383C59.5641 31.9342 61.8965 32.5453 64.0305 34.2706C66.1646 35.996 67.5132 38.2913 67.9302 40.9079C68.9112 47.0624 69.1111 57.8561 69.1128 57.9643C69.116 58.1394 69.0487 58.3083 68.926 58.4333C68.8033 58.5583 68.6355 58.6282 68.4604 58.6282Z" fill="#270089"/>
<path d="M11.4206 66.5697C11.4206 66.5697 12.7425 57.3179 23.5755 57.3179C34.4084 57.3179 36.9102 66.5697 36.9102 66.5697H11.4206Z" fill="#F154A9"/>
<path d="M23.5756 56.8696C23.5756 56.8696 30.1128 62.1458 31.765 66.5696H36.8869C36.8865 66.5696 34.3214 57.3179 23.5756 56.8696Z" fill="#FEE478"/>
<path d="M36.9099 66.7349C36.6092 66.7349 36.3334 66.535 36.2508 66.2304C36.2434 66.2042 35.6213 63.9945 33.7487 61.826C31.26 58.9441 27.8373 57.4827 23.5758 57.4827C19.3379 57.4827 16.1236 58.9289 14.0225 61.781C12.4383 63.9317 12.1004 66.1271 12.0973 66.1491C12.0422 66.5224 11.6953 66.7808 11.3226 66.7273C10.9494 66.6731 10.6906 66.3278 10.744 65.9546C10.7584 65.8533 11.1185 63.4457 12.8831 61.0228C14.5138 58.7841 17.6921 56.1157 23.5758 56.1157C29.4319 56.1157 32.9253 58.7613 34.8249 60.9804C36.8812 63.383 37.5435 65.7719 37.5705 65.8726C37.6693 66.2369 37.4535 66.6122 37.0892 66.7109C37.0293 66.7271 36.9692 66.7349 36.9099 66.7349Z" fill="#270089"/>
<path d="M23.4713 54.5665C29.4634 54.5665 34.3209 49.709 34.3209 43.7169C34.3209 37.7249 29.4634 32.8674 23.4713 32.8674C17.4793 32.8674 12.6218 37.7249 12.6218 43.7169C12.6218 49.709 17.4793 54.5665 23.4713 54.5665Z" fill="white"/>
<path d="M23.4717 55.3335C17.0661 55.3335 11.8549 50.1226 11.8549 43.7168C11.8549 37.3113 17.0661 32.1002 23.4717 32.1002C29.8771 32.1002 35.0884 37.3115 35.0884 43.7168C35.0884 50.1224 29.8771 55.3335 23.4717 55.3335ZM23.4717 33.6344C17.9122 33.6344 13.3893 38.1573 13.3893 43.7167C13.3893 49.2764 17.9122 53.7994 23.4717 53.7994C29.031 53.7994 33.554 49.2765 33.554 43.7167C33.5539 38.1573 29.0309 33.6344 23.4717 33.6344Z" fill="#270089"/>
<path d="M17.4887 44.2904C18.0231 44.2904 18.4564 43.8571 18.4564 43.3227C18.4564 42.7882 18.0231 42.355 17.4887 42.355C16.9542 42.355 16.521 42.7882 16.521 43.3227C16.521 43.8571 16.9542 44.2904 17.4887 44.2904Z" fill="#270089"/>
<path d="M29.4549 44.2904C29.9893 44.2904 30.4226 43.8571 30.4226 43.3227C30.4226 42.7882 29.9893 42.355 29.4549 42.355C28.9204 42.355 28.4872 42.7882 28.4872 43.3227C28.4872 43.8571 28.9204 44.2904 29.4549 44.2904Z" fill="#270089"/>
<path d="M21.9323 55.0671V57.1534C21.9323 57.1534 23.702 58.9236 25.2303 57.1534V55.0671H21.9323Z" fill="white"/>
<path d="M23.7367 58.6063C23.7367 58.6063 23.7365 58.6063 23.7364 58.6063C22.5114 58.6063 21.5902 57.7289 21.4891 57.6281L21.2891 57.4362V54.3433H25.9545V57.4075L25.7883 57.5912C25.0578 58.4373 24.2695 58.6063 23.7367 58.6063ZM22.6565 56.8362C22.9095 57.0224 23.3224 57.2388 23.7367 57.2388C24.0385 57.2388 24.3183 57.1329 24.587 56.8805V55.7106H22.6565V56.8362Z" fill="#270089"/>
<path d="M27.4103 72.4858C27.4103 72.4858 28.7324 63.234 39.5651 63.234C50.3979 63.234 52.9001 72.4858 52.9001 72.4858H27.4103Z" fill="#F154A9"/>
<path d="M39.5653 62.7857C39.5653 62.7857 46.1025 68.0616 47.755 72.4858H52.8768C52.8765 72.4858 50.3109 63.2339 39.5653 62.7857Z" fill="#FEE478"/>
<path d="M52.8997 72.6509C52.599 72.6509 52.3232 72.4512 52.2406 72.1465C52.2331 72.1202 51.6113 69.9105 49.7386 67.7422C47.2497 64.8603 43.827 63.3989 39.5654 63.3989C35.3277 63.3989 32.1135 64.845 30.0123 67.6971C28.428 69.8474 28.0902 72.0431 28.0871 72.0651C28.0321 72.4383 27.685 72.697 27.3124 72.6433C26.9392 72.5891 26.6804 72.2438 26.7337 71.8708C26.7482 71.7692 27.1082 69.3619 28.8728 66.9387C30.5034 64.7003 33.6818 62.0319 39.5653 62.0319C45.4217 62.0319 48.915 64.6774 50.8147 66.8966C52.8708 69.2992 53.5331 71.6879 53.5602 71.7887C53.6591 72.1532 53.4433 72.5285 53.0789 72.627C53.0191 72.6433 52.959 72.6509 52.8997 72.6509Z" fill="#270089"/>
<path d="M39.461 60.4823C45.453 60.4823 50.3105 55.6249 50.3105 49.6329C50.3105 43.6409 45.453 38.7834 39.461 38.7834C33.469 38.7834 28.6115 43.6409 28.6115 49.6329C28.6115 55.6249 33.469 60.4823 39.461 60.4823Z" fill="white"/>
<path d="M39.4613 61.2497C33.0558 61.2497 27.8446 56.0388 27.8446 49.6328C27.8446 43.2273 33.0558 38.0162 39.4613 38.0162C45.8669 38.0162 51.0781 43.2274 51.0781 49.6328C51.0781 56.0384 45.8667 61.2497 39.4613 61.2497ZM39.4613 39.5504C33.902 39.5504 29.3791 44.0734 29.3791 49.6327C29.3791 55.1922 33.902 59.7153 39.4613 59.7153C45.0207 59.7153 49.5437 55.1924 49.5437 49.6327C49.5436 44.0734 45.0206 39.5504 39.4613 39.5504Z" fill="#270089"/>
<path d="M33.4783 50.2064C34.0128 50.2064 34.446 49.7731 34.446 49.2387C34.446 48.7043 34.0128 48.271 33.4783 48.271C32.9439 48.271 32.5106 48.7043 32.5106 49.2387C32.5106 49.7731 32.9439 50.2064 33.4783 50.2064Z" fill="#270089"/>
<path d="M45.4444 50.2064C45.9789 50.2064 46.4121 49.7731 46.4121 49.2387C46.4121 48.7043 45.9789 48.271 45.4444 48.271C44.91 48.271 44.4767 48.7043 44.4767 49.2387C44.4767 49.7731 44.91 50.2064 45.4444 50.2064Z" fill="#270089"/>
<path d="M38.3621 52.7553C38.3621 52.7553 39.6838 53.7466 40.6278 52.7553H38.3621Z" fill="white"/>
<path d="M39.6289 53.9635C38.9264 53.9635 38.2712 53.6464 37.9015 53.3688C37.5622 53.1146 37.4938 52.6337 37.748 52.2947C38.001 51.9571 38.4796 51.8875 38.8185 52.1387C38.9028 52.1998 39.6227 52.6975 40.0719 52.226C40.3641 51.9193 40.8497 51.9074 41.1567 52.1995C41.4633 52.492 41.4754 52.9776 41.1832 53.2842C40.7049 53.7866 40.1537 53.9635 39.6289 53.9635Z" fill="#270089"/>
<path d="M37.9219 60.9831V63.0694C37.9219 63.0694 39.6915 64.8398 41.2198 63.0694V60.9831H37.9219Z" fill="white"/>
<path d="M39.7262 64.5223C39.726 64.5223 39.726 64.5223 39.7259 64.5223C38.501 64.5223 37.5798 63.6449 37.4787 63.544L37.2787 63.3524V60.2592H41.9441V63.3235L41.7779 63.5074C41.0474 64.3533 40.2589 64.5223 39.7262 64.5223ZM38.646 62.7523C38.899 62.9385 39.3119 63.1549 39.7259 63.1549H39.7261C40.0279 63.1549 40.3079 63.0489 40.5766 62.7967V61.6268H38.6459V62.7523H38.646Z" fill="#270089"/>
</svg>
