<svg width="80" height="80" viewBox="0 0 80 80" fill="none" xmlns="http://www.w3.org/2000/svg">
<path d="M66.054 18.212V66.8637H23.6972V7.92313H66.054V11.9512" fill="white"/>
<path d="M66.054 67.4535H23.6972C23.3715 67.4535 23.1074 67.1895 23.1074 66.8637V7.92313C23.1074 7.59739 23.3715 7.33334 23.6972 7.33334H66.054C66.3797 7.33334 66.6437 7.59739 66.6437 7.92313V11.9512C66.6437 12.2769 66.3797 12.541 66.054 12.541C65.7282 12.541 65.4642 12.2769 65.4642 11.9512V8.51291H24.287V66.274H65.4642V18.212C65.4642 17.8862 65.7282 17.6222 66.054 17.6222C66.3797 17.6222 66.6437 17.8862 66.6437 18.212V66.8637C66.6437 67.1895 66.3797 67.4535 66.054 67.4535Z" fill="#270089"/>
<path d="M62.4419 35.0066H27.0566V18.5388V11.5978H62.4419V35.0066Z" fill="white"/>
<path d="M62.4419 35.5964H27.0566C26.7308 35.5964 26.4668 35.3324 26.4668 35.0066V11.5978C26.4668 11.272 26.7308 11.008 27.0566 11.008H62.4419C62.7676 11.008 63.0317 11.272 63.0317 11.5978V35.0065C63.0317 35.3324 62.7676 35.5964 62.4419 35.5964ZM27.6464 34.4168H61.8521V12.1876H27.6464V34.4168Z" fill="#270089"/>
<path d="M62.4418 19.5369H27.6008C27.2751 19.5369 27.0111 19.2729 27.0111 18.9471C27.0111 18.6214 27.2751 18.3574 27.6008 18.3574H62.4418C62.7676 18.3574 63.0316 18.6214 63.0316 18.9471C63.0316 19.2729 62.7676 19.5369 62.4418 19.5369Z" fill="#270089"/>
<path d="M34.9504 35.5964C34.6247 35.5964 34.3606 35.3324 34.3606 35.0066V11.5978C34.3606 11.272 34.6247 11.008 34.9504 11.008C35.2762 11.008 35.5402 11.272 35.5402 11.5978V35.0065C35.5402 35.3324 35.2762 35.5964 34.9504 35.5964Z" fill="#270089"/>
<path d="M41.7843 35.5964C41.4586 35.5964 41.1945 35.3324 41.1945 35.0066V11.5978C41.1945 11.272 41.4586 11.008 41.7843 11.008C42.11 11.008 42.3741 11.272 42.3741 11.5978V35.0065C42.3741 35.3324 42.11 35.5964 41.7843 35.5964Z" fill="#270089"/>
<path d="M48.6178 35.5964C48.292 35.5964 48.028 35.3324 48.028 35.0066V11.5978C48.028 11.272 48.292 11.008 48.6178 11.008C48.9435 11.008 49.2076 11.272 49.2076 11.5978V35.0065C49.2076 35.3324 48.9435 35.5964 48.6178 35.5964Z" fill="#270089"/>
<path d="M55.4519 35.5964C55.1261 35.5964 54.8621 35.3324 54.8621 35.0066V11.5978C54.8621 11.272 55.1261 11.008 55.4519 11.008C55.7776 11.008 56.0417 11.272 56.0417 11.5978V35.0065C56.0417 35.3324 55.7776 35.5964 55.4519 35.5964Z" fill="#270089"/>
<path d="M66.054 16.9417C65.7282 16.9417 65.4642 16.6776 65.4642 16.3519V13.6298C65.4642 13.3041 65.7282 13.04 66.054 13.04C66.3797 13.04 66.6437 13.3041 66.6437 13.6298V16.3519C66.6437 16.6776 66.3797 16.9417 66.054 16.9417Z" fill="#270089"/>
<path d="M40.19 36.8276H13.9231V72.0768H40.19V36.8276Z" fill="#F154A9"/>
<path d="M40.19 72.6667H13.9231C13.5974 72.6667 13.3333 72.4026 13.3333 72.0769V36.8277C13.3333 36.502 13.5974 36.2379 13.9231 36.2379H40.19C40.5157 36.2379 40.7798 36.502 40.7798 36.8277V72.0769C40.7798 72.4026 40.5157 72.6667 40.19 72.6667ZM14.5129 71.4871H39.6002V37.4175H14.5129V71.4871Z" fill="#270089"/>
<path d="M36.5859 39.4953H17.6263V47.4796H36.5859V39.4953Z" fill="#FEE478"/>
<path d="M36.5859 48.0695H17.6263C17.3005 48.0695 17.0365 47.8054 17.0365 47.4797V39.4954C17.0365 39.1697 17.3005 38.9056 17.6263 38.9056H36.5859C36.9116 38.9056 37.1756 39.1697 37.1756 39.4954V47.4797C37.1756 47.8053 36.9116 48.0695 36.5859 48.0695ZM18.216 46.8899H35.9961V40.0852H18.216V46.8899Z" fill="#270089"/>
<path d="M22.2681 49.7933H17.6406V54.3655H22.2681V49.7933Z" fill="white"/>
<path d="M22.2681 54.9552H17.6406C17.3148 54.9552 17.0508 54.6912 17.0508 54.3654V49.7932C17.0508 49.4675 17.3148 49.2035 17.6406 49.2035H22.2681C22.5939 49.2035 22.8579 49.4675 22.8579 49.7932V54.3654C22.8579 54.6912 22.5939 54.9552 22.2681 54.9552ZM18.2304 53.7757H21.6783V50.383H18.2304V53.7757Z" fill="#270089"/>
<path d="M29.2103 49.7933H24.5827V54.3655H29.2103V49.7933Z" fill="white"/>
<path d="M29.2102 54.9552H24.5826C24.2569 54.9552 23.9928 54.6912 23.9928 54.3654V49.7932C23.9928 49.4675 24.2569 49.2035 24.5826 49.2035H29.2102C29.5359 49.2035 29.7999 49.4675 29.7999 49.7932V54.3654C29.7999 54.6912 29.5359 54.9552 29.2102 54.9552ZM25.1725 53.7757H28.6205V50.383H25.1725V53.7757Z" fill="#270089"/>
<path d="M36.3806 49.7933H31.7531V54.3655H36.3806V49.7933Z" fill="white"/>
<path d="M36.3806 54.9552H31.7531C31.4274 54.9552 31.1634 54.6912 31.1634 54.3654V49.7932C31.1634 49.4675 31.4274 49.2035 31.7531 49.2035H36.3806C36.7063 49.2035 36.9704 49.4675 36.9704 49.7932V54.3654C36.9704 54.6912 36.7063 54.9552 36.3806 54.9552ZM32.3429 53.7757H35.7908V50.383H32.3429V53.7757Z" fill="#270089"/>
<path d="M22.1542 57.3792H17.5266V61.9513H22.1542V57.3792Z" fill="white"/>
<path d="M22.1543 62.5411H17.5267C17.201 62.5411 16.9369 62.2771 16.9369 61.9514V57.3792C16.9369 57.0534 17.201 56.7894 17.5267 56.7894H22.1543C22.48 56.7894 22.744 57.0534 22.744 57.3792V61.9514C22.744 62.2771 22.48 62.5411 22.1543 62.5411ZM18.1164 61.3616H21.5644V57.9689H18.1164V61.3616V61.3616Z" fill="#270089"/>
<path d="M29.0964 57.3792H24.4689V61.9513H29.0964V57.3792Z" fill="white"/>
<path d="M29.0963 62.5411H24.4688C24.143 62.5411 23.879 62.2771 23.879 61.9514V57.3792C23.879 57.0534 24.143 56.7894 24.4688 56.7894H29.0963C29.422 56.7894 29.6861 57.0534 29.6861 57.3792V61.9514C29.6861 62.2771 29.422 62.5411 29.0963 62.5411ZM25.0586 61.3616H28.5066V57.9689H25.0586V61.3616Z" fill="#270089"/>
<path d="M36.2667 57.3792H31.6393V69.4091H36.2667V57.3792Z" fill="#FEE478"/>
<path d="M36.2667 69.9989H31.6393C31.3135 69.9989 31.0495 69.7348 31.0495 69.4091V57.3792C31.0495 57.0534 31.3135 56.7894 31.6393 56.7894H36.2667C36.5925 56.7894 36.8565 57.0534 36.8565 57.3792V69.4091C36.8565 69.7348 36.5925 69.9989 36.2667 69.9989ZM32.229 68.8193H35.6769V57.969H32.229V68.8193Z" fill="#270089"/>
<path d="M22.1541 64.8369H17.5266V69.4091H22.1541V64.8369Z" fill="white"/>
<path d="M22.1542 69.9988H17.5266C17.2009 69.9988 16.9368 69.7348 16.9368 69.4091V64.8369C16.9368 64.5111 17.2009 64.2471 17.5266 64.2471H22.1542C22.4799 64.2471 22.7439 64.5111 22.7439 64.8369V69.4091C22.7439 69.7348 22.4799 69.9988 22.1542 69.9988ZM18.1164 68.8193H21.5644V65.4266H18.1164V68.8193V68.8193Z" fill="#270089"/>
<path d="M29.0961 64.8369H24.4687V69.4091H29.0961V64.8369Z" fill="white"/>
<path d="M29.0961 69.9988H24.4687C24.1429 69.9988 23.8789 69.7348 23.8789 69.4091V64.8369C23.8789 64.5111 24.1429 64.2471 24.4687 64.2471H29.0961C29.4219 64.2471 29.6859 64.5111 29.6859 64.8369V69.4091C29.6859 69.7348 29.4219 69.9988 29.0961 69.9988ZM25.0585 68.8193H28.5064V65.4266H25.0585V68.8193Z" fill="#270089"/>
<path d="M54.2933 60.2098C59.4486 60.2098 63.6278 56.0306 63.6278 50.8753C63.6278 45.72 59.4486 41.5408 54.2933 41.5408C49.138 41.5408 44.9588 45.72 44.9588 50.8753C44.9588 56.0306 49.138 60.2098 54.2933 60.2098Z" fill="#F154A9"/>
<path d="M54.2932 60.7996C48.821 60.7996 44.3691 56.3476 44.3691 50.8753C44.3691 45.403 48.821 40.951 54.2932 40.951C59.7656 40.951 64.2176 45.403 64.2176 50.8753C64.2176 56.3476 59.7655 60.7996 54.2932 60.7996ZM54.2932 42.1306C49.4714 42.1306 45.5487 46.0534 45.5487 50.8753C45.5487 55.6972 49.4714 59.62 54.2932 59.62C59.1151 59.62 63.038 55.6972 63.038 50.8753C63.038 46.0534 59.115 42.1306 54.2932 42.1306Z" fill="#270089"/>
<path d="M54.34 42.1185C52.8906 42.1185 51.5237 42.4719 50.3204 43.0963C54.734 43.5373 58.1802 47.262 58.1802 51.7919C58.1802 55.1688 56.2647 58.098 53.461 59.5531C53.7499 59.5819 54.0434 59.597 54.34 59.597C59.1668 59.597 63.0794 55.6844 63.0794 50.8578C63.0794 46.0312 59.1669 42.1185 54.34 42.1185Z" fill="#FEE478"/>
<path d="M53.8515 56.2008V54.8909C53.0988 54.8777 52.3202 54.6442 51.8665 54.3199L52.1777 53.4505C52.6446 53.7621 53.3197 54.0081 54.046 54.0081C54.967 54.0081 55.5898 53.4763 55.5898 52.7369C55.5898 52.0233 55.0839 51.5821 54.1236 51.193C52.8005 50.6742 51.9834 50.0774 51.9834 48.9487C51.9834 47.8717 52.7488 47.0546 53.9425 46.8597V45.5497H54.7463V46.8079C55.5248 46.8337 56.0567 47.0412 56.4334 47.2621L56.1085 48.1183C55.8364 47.9625 55.3046 47.6774 54.4743 47.6774C53.4748 47.6774 53.0989 48.2743 53.0989 48.7929C53.0989 49.4673 53.5791 49.8049 54.7078 50.2719C56.044 50.817 56.7187 51.4913 56.7187 52.6461C56.7187 53.6713 56.0049 54.631 54.6687 54.8518V56.2008H53.8515V56.2008Z" fill="#270089"/>
<path d="M54.669 56.4276H53.8517C53.7264 56.4276 53.6249 56.3261 53.6249 56.2008V55.1079C52.9121 55.0573 52.1893 54.8293 51.7349 54.5046C51.6524 54.4456 51.6191 54.3391 51.6533 54.2436L51.9644 53.3742C51.9879 53.3083 52.0405 53.2571 52.1067 53.2352C52.1731 53.2135 52.2457 53.2231 52.3039 53.2618C52.7987 53.5921 53.4338 53.7815 54.0463 53.7815C54.8339 53.7815 55.3632 53.3618 55.3632 52.7371C55.3632 52.1711 54.9795 51.7847 54.0386 51.4035C52.8546 50.9393 51.7568 50.3199 51.7568 48.9489C51.7568 47.816 52.519 46.9396 53.7159 46.6726V45.5499C53.7159 45.4246 53.8174 45.3231 53.9427 45.3231H54.7466C54.8719 45.3231 54.9734 45.4246 54.9734 45.5499V46.5935C55.5693 46.6402 56.0864 46.7957 56.5483 47.0666C56.6438 47.1225 56.685 47.2392 56.6456 47.3428L56.3208 48.1989C56.2973 48.261 56.2477 48.3096 56.1853 48.3321C56.1228 48.3544 56.0537 48.3484 55.996 48.3154C55.7812 48.1924 55.2782 47.9044 54.4745 47.9044C53.6267 47.9044 53.3259 48.3831 53.3259 48.7931C53.3259 49.3064 53.6554 49.5911 54.7948 50.0624C56.3022 50.6772 56.9457 51.4501 56.9457 52.6463C56.9457 53.8189 56.1299 54.76 54.8958 55.0387V56.201C54.8958 56.3261 54.7943 56.4276 54.669 56.4276ZM54.0786 55.9739H54.4422V54.8518C54.4422 54.7408 54.5225 54.6461 54.6321 54.628C55.7619 54.4412 56.4921 53.6633 56.4921 52.6461C56.4921 51.6506 55.9504 51.0237 54.6224 50.4819C53.4613 50.0015 52.8723 49.6086 52.8723 48.7929C52.8723 48.1248 53.3677 47.4506 54.4745 47.4506C55.1402 47.4506 55.6245 47.6167 55.9883 47.7965L56.1513 47.3669C55.7409 47.1615 55.2767 47.0525 54.7391 47.0347C54.6168 47.0306 54.5198 46.9304 54.5198 46.808V45.7766H54.1697V46.8598C54.1697 46.971 54.0891 47.0657 53.9794 47.0837C52.8884 47.2618 52.2106 47.9765 52.2106 48.9489C52.2106 49.8488 52.7702 50.4188 54.2067 50.982C55.0042 51.3052 55.817 51.7656 55.817 52.7371C55.817 53.6192 55.0889 54.2352 54.0464 54.2352C53.4441 54.2352 52.8218 54.0744 52.2981 53.788L52.1412 54.227C52.5784 54.4816 53.2417 54.6534 53.8558 54.6642C53.9795 54.6663 54.0787 54.7673 54.0787 54.891V55.9739H54.0786Z" fill="#270089"/>
</svg>
