<svg width="80" height="80" viewBox="0 0 80 80" fill="none" xmlns="http://www.w3.org/2000/svg">
<path d="M68.4417 49.7819L25.6156 54.8074C25.6156 54.8074 10.363 39.9569 9.03125 18.5815L42.3507 19.3605C42.3507 19.3605 41.9822 37.3269 68.4417 49.7819Z" fill="white" stroke="#270089" stroke-width="2" stroke-miterlimit="10"/>
<path d="M26.2105 54.0788L70.7955 48.601C55.8864 39.2702 43.7915 29.2358 45.4499 14L10.849 14.8376C11.4855 30.4085 16.2263 43.701 26.2105 54.0788Z" fill="white" stroke="#270089" stroke-width="2" stroke-miterlimit="10"/>
<path d="M42.2752 21.0609L16.6113 21.8315" stroke="#FEE478" stroke-width="0.61" stroke-miterlimit="10" stroke-linecap="round"/>
<path d="M42.8781 25.0228L17.2227 26.5221" stroke="#FEE478" stroke-width="0.61" stroke-miterlimit="10" stroke-linecap="round"/>
<path d="M44.7627 28.6747L18.0938 30.509" stroke="#FEE478" stroke-width="0.61" stroke-miterlimit="10" stroke-linecap="round"/>
<path d="M47.2759 32.3936L20.0625 34.7975" stroke="#FEE478" stroke-width="0.61" stroke-miterlimit="10" stroke-linecap="round"/>
<path d="M30.0547 46.6494L53.5408 44.8905" stroke="#FEE478" stroke-width="0.61" stroke-miterlimit="10" stroke-linecap="round"/>
<path d="M28.2374 43.7597C31.7955 43.4448 35.271 42.5093 38.5063 40.9956C39.2434 40.6438 40.9018 39.8062 40.5919 38.709C40.3323 37.796 38.6655 37.7625 37.9368 37.8714C36.2616 38.1394 32.7688 40.4428 34.8042 42.3609C35.7172 43.1985 37.7274 42.6959 38.8079 42.5535C40.692 42.2894 42.5462 41.8434 44.3443 41.2218L43.9339 40.9202L43.7832 42.1096C43.7413 42.4195 44.1434 42.4865 44.3276 42.3357C45.3495 41.4926 46.3825 40.655 47.4267 39.823L46.9241 39.756C47.098 40.0728 47.1487 40.4427 47.0665 40.7946C47.0664 40.8505 47.081 40.9055 47.1089 40.954C47.1368 41.0025 47.1769 41.0428 47.2254 41.0708C47.2738 41.0988 47.3287 41.1136 47.3847 41.1137C47.4406 41.1137 47.4955 41.0989 47.544 41.071C47.9275 40.7456 48.3303 40.4435 48.7501 40.1664C49.2945 39.8565 49.5877 40.0073 50.1656 40.0743C50.4374 40.1219 50.7165 40.1058 50.981 40.0273C51.2455 39.9489 51.4882 39.8101 51.6901 39.6219C52 39.3539 51.5477 38.91 51.2378 39.1697C50.4002 39.8732 49.8557 38.9184 49.0265 39.1697C48.3699 39.5217 47.7641 39.9613 47.2257 40.4763L47.7031 40.7527C47.7744 40.287 47.6921 39.8106 47.4686 39.3958C47.4453 39.3532 47.4123 39.3168 47.3723 39.2893C47.3324 39.2618 47.2865 39.2441 47.2384 39.2376C47.1903 39.231 47.1414 39.2359 47.0956 39.2518C47.0497 39.2676 47.0082 39.294 46.9744 39.3288C45.9302 40.1496 44.8972 40.9872 43.8753 41.8416L44.4197 42.0677L44.5705 40.8783C44.5705 40.6773 44.3528 40.5098 44.1685 40.5684C41.9805 41.3286 39.7077 41.8181 37.4007 42.0258C36.8075 42.1564 36.193 42.1564 35.5999 42.0258C34.6953 41.5484 34.8377 40.5684 35.3905 39.9067C35.7772 39.4612 36.2491 39.0976 36.7784 38.8372C37.3078 38.5768 37.8839 38.4251 38.4728 38.3907C38.7542 38.3747 39.0364 38.4001 39.3104 38.4661C39.6957 38.5833 39.8465 38.6168 39.8632 38.9937C39.8632 39.5717 39.0256 39.9737 38.5566 40.2083C37.4571 40.7511 36.3208 41.2157 35.156 41.5987C32.9254 42.3487 30.6146 42.835 28.2709 43.0477C27.8689 43.0477 27.8689 43.7178 28.2709 43.6843L28.2374 43.7597Z" fill="#FEE478"/>
<path d="M62.7798 40.4511V38.5246C62.7798 35.1156 55.3085 32.3516 46.095 32.3516C36.8815 32.3516 29.4018 35.1156 29.4018 38.5246V40.4762C29.3936 40.6724 29.422 40.8684 29.4855 41.0542C29.9462 42.6288 31.4622 43.5669 32.8359 44.2454C34.3118 44.9166 35.8565 45.4249 37.4426 45.7614C40.2737 46.3776 43.1643 46.6782 46.0615 46.6577C49.942 46.7406 53.8091 46.1744 57.503 44.9825C59.3541 44.3375 62.16 43.19 62.6709 41.0458C62.7248 40.8666 62.7502 40.6801 62.7463 40.493L62.7798 40.4511Z" fill="#F154A9" stroke="#270089" stroke-width="2" stroke-miterlimit="10"/>
<path d="M46.0949 43.6256C53.4963 43.6256 59.4963 41.4056 59.4963 38.667C59.4963 35.9285 53.4963 33.7085 46.0949 33.7085C38.6934 33.7085 32.6934 35.9285 32.6934 38.667C32.6934 41.4056 38.6934 43.6256 46.0949 43.6256Z" fill="white" stroke="#270089" stroke-width="2" stroke-miterlimit="10"/>
<path d="M65.0916 59.029L52.8041 44.8654C52.461 44.6809 52.0948 44.5429 51.7153 44.4549C51.3548 44.379 50.98 44.4084 50.6358 44.5398C50.2916 44.6712 49.9926 44.8989 49.7743 45.1957C49.5561 45.4925 49.428 45.846 49.4053 46.2137C49.3827 46.5814 49.4663 46.9478 49.6464 47.2692L59.128 64.13C61.2979 62.6549 63.298 60.9441 65.0916 59.029Z" fill="#F154A9" stroke="#270089" stroke-width="2" stroke-miterlimit="10"/>
<path d="M37.5343 41.7075C38.6056 41.4955 39.6504 41.1669 40.6502 40.7275C41.5464 40.3003 42.3924 39.781 43.2802 39.3287C44.1681 38.8764 45.8433 37.9718 45.4161 36.7406C45.0643 35.7271 43.2216 35.7187 42.4007 35.903C41.0934 36.1329 39.9226 36.8516 39.1258 37.9132C38.8151 38.3328 38.6669 38.8507 38.7085 39.3711C38.75 39.8915 38.9786 40.3793 39.3519 40.7443C40.4157 41.5819 42.4091 41.0877 43.632 40.9118C45.4648 40.649 47.2683 40.2114 49.0177 39.6051L48.3561 39.1026L48.1969 40.2919C48.1383 40.7945 48.7916 40.9118 49.0931 40.6605C50.115 39.8229 51.148 38.9853 52.1922 38.1477L51.3546 38.0472C51.506 38.3325 51.5449 38.6643 51.4635 38.9769C51.4618 39.0751 51.4872 39.172 51.5368 39.2568C51.5864 39.3416 51.6583 39.4111 51.7448 39.4578C51.8312 39.5045 51.9288 39.5265 52.0269 39.5214C52.125 39.5164 52.2199 39.4845 52.3011 39.4292C52.7115 39.1193 53.1387 38.7592 53.5491 38.4911C53.9595 38.2231 54.1606 38.2985 54.6799 38.4409C54.9974 38.5172 55.329 38.5118 55.6438 38.4254C55.9587 38.339 56.2466 38.1743 56.4807 37.9467C56.9916 37.5028 56.2462 36.7657 55.7353 37.2096C55.0736 37.7875 54.4705 36.9667 53.7502 37.1594C53.0163 37.4994 52.3451 37.961 51.7651 38.5246L52.5524 38.9769C52.6245 38.4741 52.5366 37.9613 52.3011 37.5111C52.2589 37.4417 52.2015 37.3827 52.1332 37.3387C52.0649 37.2947 51.9875 37.2668 51.9068 37.2571C51.8261 37.2474 51.7443 37.2562 51.6675 37.2828C51.5907 37.3094 51.5209 37.3531 51.4635 37.4106C50.4249 38.2259 49.3946 39.0635 48.3728 39.9234L49.2606 40.2919L49.4198 39.1026C49.4199 39.0218 49.4014 38.9421 49.3658 38.8696C49.3303 38.7971 49.2785 38.7337 49.2146 38.6843C49.1507 38.635 49.0763 38.601 48.9971 38.5849C48.918 38.5688 48.8362 38.5711 48.7581 38.5917C46.2503 39.5217 43.6083 40.0393 40.9349 40.1245C40.0974 40.1245 39.5027 39.5549 39.8963 38.6838C40.2139 38.1396 40.6863 37.7022 41.2532 37.4274C41.7446 37.0744 42.3305 36.877 42.9352 36.8606C43.54 36.8442 44.1358 37.0095 44.6455 37.3353L44.3859 36.8829C44.3859 37.8797 42.9536 38.3236 42.2165 38.7005C41.6804 38.977 41.1528 39.2785 40.6167 39.5381C39.5549 40.0635 38.4284 40.4465 37.2663 40.6773C36.613 40.8364 36.8894 41.8415 37.5427 41.6824L37.5343 41.7075Z" fill="#FEE478"/>
<path d="M63.7389 64.5868C65.8871 63.6572 67.149 61.7953 66.5574 60.4283C65.9659 59.0613 63.7449 58.7067 61.5967 59.6363C59.4485 60.5659 58.1866 62.4277 58.7781 63.7947C59.3697 65.1617 61.5907 65.5164 63.7389 64.5868Z" fill="#F154A9" stroke="#270089" stroke-width="2" stroke-miterlimit="10"/>
<path d="M46.2119 44.3963C54.8577 44.3963 61.8665 41.8425 61.8665 38.6923C61.8665 35.5421 54.8577 32.9883 46.2119 32.9883C37.5661 32.9883 30.5573 35.5421 30.5573 38.6923C30.5573 41.8425 37.5661 44.3963 46.2119 44.3963Z" stroke="#270089" stroke-width="0.75" stroke-miterlimit="10"/>
<path opacity="0.64" d="M46.0949 43.6256C53.4963 43.6256 59.4963 41.4056 59.4963 38.667C59.4963 35.9285 53.4963 33.7085 46.0949 33.7085C38.6934 33.7085 32.6934 35.9285 32.6934 38.667C32.6934 41.4056 38.6934 43.6256 46.0949 43.6256Z" fill="white" stroke="#270089" stroke-width="2" stroke-miterlimit="10"/>
</svg>
