<svg width="80" height="80" viewBox="0 0 80 80" fill="none" xmlns="http://www.w3.org/2000/svg">
<path d="M45.3715 8.68095H10.0143V57.2821H45.3715V8.68095Z" fill="white"/>
<path d="M45.3715 57.963H10.0143C9.63821 57.963 9.33333 57.6581 9.33333 57.2821V8.68095C9.33333 8.30488 9.63821 8 10.0143 8H45.3715C45.7475 8 46.0524 8.30488 46.0524 8.68095V57.2821C46.0525 57.658 45.7475 57.963 45.3715 57.963ZM10.6952 56.601H44.6905V9.36191H10.6952V56.601Z" fill="#270089"/>
<path d="M20.0593 28.9814H15.011V34.1044H20.0593V28.9814Z" fill="white"/>
<path d="M20.0593 34.7856H15.011C14.635 34.7856 14.3301 34.4807 14.3301 34.1045V28.9815C14.3301 28.6053 14.635 28.3005 15.011 28.3005H20.0593C20.4354 28.3005 20.7403 28.6053 20.7403 28.9815V34.1045C20.7404 34.4807 20.4354 34.7856 20.0593 34.7856ZM15.6921 33.4236H19.3784V29.6624H15.6921V33.4236Z" fill="#270089"/>
<path d="M39.2207 30.6525H24.7636C24.3876 30.6525 24.0827 30.3476 24.0827 29.9716C24.0827 29.5955 24.3876 29.2905 24.7636 29.2905H39.2207C39.5968 29.2905 39.9016 29.5954 39.9016 29.9716C39.9016 30.3476 39.5968 30.6525 39.2207 30.6525Z" fill="#270089"/>
<path d="M33.4064 33.7954H24.7636C24.3876 33.7954 24.0827 33.4905 24.0827 33.1145C24.0827 32.7384 24.3876 32.4335 24.7636 32.4335H33.4064C33.7825 32.4335 34.0875 32.7384 34.0875 33.1145C34.0875 33.4905 33.7826 33.7954 33.4064 33.7954Z" fill="#270089"/>
<path d="M20.0593 39.3885H15.011V44.5116H20.0593V39.3885Z" fill="white"/>
<path d="M20.0593 45.1926H15.011C14.635 45.1926 14.3301 44.8877 14.3301 44.5117V39.3886C14.3301 39.0126 14.635 38.7077 15.011 38.7077H20.0593C20.4354 38.7077 20.7403 39.0126 20.7403 39.3886V44.5117C20.7404 44.8877 20.4354 45.1926 20.0593 45.1926ZM15.6921 43.8307H19.3784V40.0697H15.6921V43.8307Z" fill="#270089"/>
<path d="M39.2207 41.0597H24.7636C24.3876 41.0597 24.0827 40.7549 24.0827 40.3786C24.0827 40.0027 24.3876 39.6978 24.7636 39.6978H39.2207C39.5968 39.6978 39.9016 40.0026 39.9016 40.3786C39.9016 40.7549 39.5968 41.0597 39.2207 41.0597Z" fill="#270089"/>
<path d="M33.4064 44.2027H24.7636C24.3876 44.2027 24.0827 43.8978 24.0827 43.5217C24.0827 43.1455 24.3876 42.8406 24.7636 42.8406H33.4064C33.7825 42.8406 34.0875 43.1455 34.0875 43.5217C34.0875 43.8977 33.7826 44.2027 33.4064 44.2027Z" fill="#270089"/>
<path d="M20.0593 18.2615H15.011V23.3846H20.0593V18.2615Z" fill="white"/>
<path d="M20.0593 24.0656H15.011C14.635 24.0656 14.3301 23.7607 14.3301 23.3846V18.2615C14.3301 17.8854 14.635 17.5806 15.011 17.5806H20.0593C20.4354 17.5806 20.7403 17.8854 20.7403 18.2615V23.3846C20.7404 23.7607 20.4354 24.0656 20.0593 24.0656ZM15.6921 22.7037H19.3784V18.9425H15.6921V22.7037Z" fill="#270089"/>
<path d="M39.2207 19.9326H24.7636C24.3876 19.9326 24.0827 19.6278 24.0827 19.2517C24.0827 18.8755 24.3876 18.5706 24.7636 18.5706H39.2207C39.5968 18.5706 39.9016 18.8755 39.9016 19.2517C39.9016 19.6277 39.5968 19.9326 39.2207 19.9326Z" fill="#270089"/>
<path d="M33.4064 23.0755H24.7636C24.3876 23.0755 24.0827 22.7707 24.0827 22.3945C24.0827 22.0184 24.3876 21.7135 24.7636 21.7135H33.4064C33.7825 21.7135 34.0875 22.0184 34.0875 22.3945C34.0875 22.7707 33.7826 23.0755 33.4064 23.0755Z" fill="#270089"/>
<path d="M17.8809 22.7294C17.7066 22.7294 17.5324 22.663 17.3994 22.5299L16.1741 21.3047C15.9081 21.0387 15.9081 20.6075 16.1741 20.3416C16.44 20.0757 16.8712 20.0757 17.1372 20.3416L17.8809 21.0853L21.1946 17.7717C21.4605 17.5058 21.8917 17.5058 22.1576 17.7717C22.4236 18.0376 22.4236 18.4687 22.1576 18.7348L18.3624 22.5299C18.2295 22.6629 18.0553 22.7294 17.8809 22.7294Z" fill="#F154A9"/>
<path d="M35.6496 62.1362C35.6496 62.1362 40.1894 52.4277 53.0677 52.4277C65.946 52.4277 70.5021 62.1362 70.5021 62.1362H35.6496Z" fill="#270089"/>
<path d="M70.5025 62.2062C70.3059 62.2062 70.1174 62.0949 70.0281 61.9054C70.0171 61.8817 68.8825 59.5174 66.2316 57.1891C63.795 55.0488 59.5334 52.4978 53.0677 52.4978C46.6023 52.4978 42.3452 55.0488 39.9123 57.1887C37.2655 59.5168 36.135 61.8811 36.1238 61.9046C36.0007 62.1663 35.6887 62.2789 35.4272 62.1561C35.1656 62.0334 35.0527 61.7222 35.1751 61.4603C35.2233 61.3572 36.3882 58.9064 39.1823 56.4355C41.7544 54.1611 46.2512 51.45 53.0677 51.45C59.884 51.45 64.3851 54.1611 66.961 56.4353C69.759 58.9059 70.928 61.3566 70.9763 61.4598C71.0992 61.7217 70.9865 62.0336 70.7246 62.1565C70.6526 62.1902 70.577 62.2062 70.5025 62.2062Z" fill="#270089"/>
<path d="M55.9002 51.7957V46.9458H50.243V51.7957C50.2091 51.972 50.1908 52.1541 50.1908 52.3407C50.1908 53.9317 51.4807 55.2214 53.0717 55.2214C54.6627 55.2214 55.9524 53.9317 55.9524 52.3407C55.9524 52.1541 55.9343 51.972 55.9002 51.7957Z" fill="white"/>
<path d="M53.0717 55.9026C51.1077 55.9026 49.5098 54.3047 49.5098 52.3408C49.5098 52.139 49.5273 51.9353 49.5619 51.7345V46.9459C49.5619 46.5696 49.8668 46.2647 50.243 46.2647H55.9003C56.2764 46.2647 56.5813 46.5696 56.5813 46.9459V51.7345C56.616 51.9353 56.6336 52.139 56.6336 52.3408C56.6336 54.3046 55.0357 55.9026 53.0717 55.9026ZM50.9239 47.6267V51.7957C50.9239 51.8387 50.9198 51.8817 50.9118 51.9238C50.885 52.0622 50.8718 52.2024 50.8718 52.3407C50.8718 53.5536 51.8587 54.5406 53.0717 54.5406C54.2848 54.5406 55.2715 53.5536 55.2715 52.3407C55.2715 52.2024 55.2582 52.0623 55.2316 51.9238C55.2234 51.8816 55.2193 51.8387 55.2193 51.7957V47.6267H50.9239Z" fill="#270089"/>
<path d="M53.0718 48.2193C62.0109 48.2193 69.2575 40.9727 69.2575 32.0336C69.2575 23.0945 62.0109 15.8479 53.0718 15.8479C44.1327 15.8479 36.8861 23.0945 36.8861 32.0336C36.8861 40.9727 44.1327 48.2193 53.0718 48.2193Z" fill="white"/>
<path d="M53.0719 48.9003C43.7715 48.9003 36.2051 41.3339 36.2051 32.0336C36.2051 22.7333 43.7714 15.167 53.0719 15.167C62.3721 15.167 69.9385 22.7333 69.9385 32.0336C69.9385 41.3339 62.3721 48.9003 53.0719 48.9003ZM53.0719 16.5289C44.5224 16.5289 37.5671 23.4842 37.5671 32.0335C37.5671 40.5829 44.5224 47.5383 53.0719 47.5383C61.6212 47.5383 68.5766 40.5829 68.5766 32.0335C68.5766 23.4842 61.6212 16.5289 53.0719 16.5289Z" fill="#270089"/>
<path d="M44.6992 34.2668C45.4514 34.2668 46.0611 33.6571 46.0611 32.9049C46.0611 32.1528 45.4514 31.543 44.6992 31.543C43.9471 31.543 43.3373 32.1528 43.3373 32.9049C43.3373 33.6571 43.9471 34.2668 44.6992 34.2668Z" fill="#270089"/>
<path d="M61.4524 34.2668C62.2046 34.2668 62.8143 33.657 62.8143 32.9049C62.8143 32.1527 62.2046 31.543 61.4524 31.543C60.7002 31.543 60.0905 32.1527 60.0905 32.9049C60.0905 33.657 60.7002 34.2668 61.4524 34.2668Z" fill="#270089"/>
<path d="M44.4063 60.4499C44.4063 66.4529 39.5402 71.3189 33.5375 71.3189C27.5347 71.3189 22.6686 66.4529 22.6686 60.4499C22.6686 54.4474 27.5347 49.5813 33.5375 49.5813C39.5402 49.5813 44.4063 54.4474 44.4063 60.4499Z" fill="#F154A9"/>
<path d="M33.5375 72C27.1689 72 21.9876 66.8186 21.9876 60.4499C21.9876 54.0813 27.1689 48.9003 33.5375 48.9003C39.906 48.9003 45.0872 54.0813 45.0872 60.4499C45.0873 66.8186 39.906 72 33.5375 72ZM33.5375 50.2622C27.9199 50.2622 23.3495 54.8324 23.3495 60.4499C23.3495 66.0677 27.9199 70.638 33.5375 70.638C39.1551 70.638 43.7253 66.0676 43.7253 60.4499C43.7253 54.8324 39.1551 50.2622 33.5375 50.2622Z" fill="#270089"/>
<path d="M33.5378 54.6066V60.4499H37.2165" fill="#F154A9"/>
<path d="M37.2165 61.131H33.5377C33.1616 61.131 32.8568 60.8262 32.8568 60.4499V54.6066C32.8568 54.2303 33.1616 53.9256 33.5377 53.9256C33.9138 53.9256 34.2187 54.2303 34.2187 54.6066V59.7691H37.2165C37.5926 59.7691 37.8975 60.074 37.8975 60.4499C37.8975 60.8262 37.5927 61.131 37.2165 61.131Z" fill="#270089"/>
<path d="M33.5752 50.3537C32.2251 50.3537 30.9382 50.6208 29.7611 51.1013C34.8029 51.6655 38.723 55.9403 38.723 61.1326C38.723 65.3585 36.1256 68.9763 32.4408 70.481C32.8133 70.5229 33.1916 70.5461 33.5752 70.5461C39.1513 70.5461 43.6714 66.026 43.6714 60.4499C43.6714 54.8739 39.1513 50.3537 33.5752 50.3537Z" fill="#FEE478"/>
</svg>
