<svg width="80" height="80" viewBox="0 0 80 80" fill="none" xmlns="http://www.w3.org/2000/svg">
<path d="M15.9733 72.5498C15.9733 72.5498 18.4998 54.8663 39.2053 54.8663C59.911 54.8663 64.6925 72.5498 64.6925 72.5498H15.9733Z" fill="#F154A9"/>
<path d="M39.2056 54.0094C39.2056 54.0094 51.701 64.0939 54.8588 72.5498H64.6482C64.6475 72.5498 59.7443 54.8663 39.2056 54.0094Z" fill="#FEE478"/>
<path d="M64.6921 72.8653C64.1169 72.8653 63.5901 72.483 63.4321 71.9013C63.4179 71.851 62.2291 67.6278 58.6495 63.4831C53.8924 57.9747 47.3506 55.1817 39.2055 55.1817C31.1058 55.1817 24.9624 57.9457 20.9463 63.397C17.9182 67.5072 17.2727 71.7036 17.2666 71.7457C17.1617 72.4589 16.4983 72.953 15.7861 72.8505C15.0729 72.747 14.578 72.0872 14.68 71.3738C14.7076 71.18 15.3959 66.578 18.7686 61.9475C21.8849 57.6687 27.9602 52.5683 39.2055 52.5683C50.3987 52.5683 57.076 57.625 60.7067 61.8668C64.6369 66.4587 65.9024 71.025 65.9543 71.2171C66.1428 71.9137 65.7306 72.6313 65.0342 72.8196C64.92 72.8505 64.805 72.8653 64.6921 72.8653Z" fill="#270089"/>
<path d="M39.0067 49.6072C50.4595 49.6072 59.7439 40.3229 59.7439 28.8701C59.7439 17.4173 50.4595 8.13295 39.0067 8.13295C27.5539 8.13295 18.2696 17.4173 18.2696 28.8701C18.2696 40.3229 27.5539 49.6072 39.0067 49.6072Z" fill="white"/>
<path d="M39.0067 51.0736C26.7638 51.0736 16.8034 41.1135 16.8034 28.87C16.8034 16.6269 26.7638 6.66666 39.0067 6.66666C51.2496 6.66666 61.2103 16.6271 61.2103 28.87C61.2103 41.1132 51.2496 51.0736 39.0067 51.0736ZM39.0067 9.59923C28.3808 9.59923 19.7362 18.2441 19.7362 28.8699C19.7362 39.4958 28.3808 48.1408 39.0067 48.1408C49.6327 48.1408 58.2775 39.496 58.2775 28.8699C58.2775 18.244 49.6327 9.59923 39.0067 9.59923Z" fill="#270089"/>
<path d="M27.5715 29.9665C28.593 29.9665 29.421 29.1384 29.421 28.1169C29.421 27.0954 28.593 26.2673 27.5715 26.2673C26.55 26.2673 25.7219 27.0954 25.7219 28.1169C25.7219 29.1384 26.55 29.9665 27.5715 29.9665Z" fill="#270089"/>
<path d="M50.4425 29.9664C51.464 29.9664 52.2921 29.1384 52.2921 28.1169C52.2921 27.0954 51.464 26.2673 50.4425 26.2673C49.421 26.2673 48.593 27.0954 48.593 28.1169C48.593 29.1384 49.421 29.9664 50.4425 29.9664Z" fill="#270089"/>
<path d="M36.0645 50.5643V54.5515C36.0645 54.5515 39.4469 57.9352 42.368 54.5515V50.5643H36.0645Z" fill="white"/>
<path d="M39.5128 57.3291C39.5125 57.3291 39.5124 57.3291 39.5122 57.3291C37.1708 57.3291 35.4104 55.652 35.2171 55.459L34.8348 55.0928V49.1807H43.7519V55.0378L43.434 55.3889C42.0381 57.006 40.5312 57.3291 39.5128 57.3291ZM37.4482 53.9456C37.932 54.3018 38.7212 54.7155 39.5124 54.7155H39.5128C40.0897 54.7155 40.6246 54.5128 41.1381 54.0304V51.7943H37.4482V53.9456V53.9456Z" fill="#270089"/>
</svg>
