<svg width="80" height="80" viewBox="0 0 80 80" fill="none" xmlns="http://www.w3.org/2000/svg">
<path d="M40.3334 17.5385L47.5832 31.9716L63.7949 34.2861L52.064 45.5209L54.8334 61.3846L40.3334 53.8949L25.8333 61.3846L28.6025 45.5209L16.8718 34.2861L33.0834 31.9716L40.3334 17.5385Z" fill="#F154A9"/>
<path d="M54.9793 61.3846L52.255 45.6623L63.7949 34.5276L47.8474 32.2336L47.8077 32.1538C40.4516 35.4476 35.3333 42.7758 35.3333 51.2876C35.3333 53.0616 35.5566 54.7833 35.9753 56.4286L40.7156 53.9616L54.9793 61.3846Z" fill="#FEE478"/>
<path d="M54.7167 63.692C54.4418 63.692 54.1659 63.6264 53.9131 63.4939L40.3334 56.359L26.7535 63.4939C26.1716 63.7997 25.4667 63.7491 24.9347 63.3624C24.4029 62.9763 24.1366 62.3218 24.2478 61.6743L26.8413 46.5624L15.8549 35.8598C15.3842 35.4013 15.2148 34.7155 15.4179 34.0906C15.6211 33.4658 16.1617 33.0105 16.8121 32.9161L31.9948 30.7113L38.7848 16.962C39.0757 16.3731 39.676 16 40.3334 16C40.9906 16 41.5909 16.3729 41.8819 16.962L48.6717 30.7113L63.8546 32.9161C64.5051 33.0105 65.0455 33.466 65.2487 34.0906C65.4519 34.7155 65.2826 35.4013 64.8118 35.8598L53.8252 46.5624L56.4186 61.6743C56.5299 62.3218 56.2635 62.9763 55.7317 63.3624C55.431 63.5809 55.0746 63.692 54.7167 63.692ZM20.7714 35.8292L29.9021 44.724C30.3091 45.1206 30.4949 45.692 30.3988 46.2517L28.2433 58.8112L39.5294 52.8816C40.0328 52.6172 40.6339 52.6172 41.1367 52.8816L52.4228 58.8112L50.2675 46.2517C50.1715 45.692 50.3571 45.1206 50.7641 44.724L59.8949 35.8292L47.2766 33.9967C46.7141 33.915 46.2276 33.562 45.9761 33.0527L40.3334 21.6256L34.6901 33.0525C34.4386 33.5619 33.9524 33.9149 33.3899 33.9966L20.7714 35.8292Z" fill="#270089"/>
</svg>
