<svg width="80" height="80" viewBox="0 0 80 80" fill="none" xmlns="http://www.w3.org/2000/svg">
<path d="M39.8282 37.1322C27.0277 37.1322 25.4655 48.0645 25.4655 48.0645V70.0022H55.5579V48.0645H55.5855C55.5855 48.0645 52.6289 37.1322 39.8282 37.1322Z" fill="#F154A9"/>
<path d="M39.7063 33.8804C46.7867 33.8804 52.5266 28.1406 52.5266 21.0601C52.5266 13.9797 46.7867 8.2399 39.7063 8.2399C32.6259 8.2399 26.8861 13.9797 26.8861 21.0601C26.8861 28.1406 32.6259 33.8804 39.7063 33.8804Z" fill="white"/>
<path d="M39.7061 34.7872C32.1371 34.7872 25.9792 28.6298 25.9792 21.0602C25.9792 13.4911 32.1371 7.33333 39.7061 7.33333C47.2753 7.33333 53.4331 13.4912 53.4331 21.0602C53.433 28.6294 47.275 34.7872 39.7061 34.7872ZM39.7061 9.14633C33.1369 9.14633 27.7925 14.4908 27.7925 21.06C27.7925 27.6294 33.1369 32.9743 39.7061 32.9743C46.2756 32.9743 51.6201 27.6297 51.6201 21.06C51.6198 14.4908 46.2753 9.14633 39.7061 9.14633Z" fill="#270089"/>
<path d="M32.6357 21.7379C33.2672 21.7379 33.7792 21.226 33.7792 20.5944C33.7792 19.9629 33.2672 19.4509 32.6357 19.4509C32.0042 19.4509 31.4922 19.9629 31.4922 20.5944C31.4922 21.226 32.0042 21.7379 32.6357 21.7379Z" fill="#270089"/>
<path d="M46.775 21.7379C47.4066 21.7379 47.9185 21.226 47.9185 20.5944C47.9185 19.9629 47.4066 19.4509 46.775 19.4509C46.1435 19.4509 45.6315 19.9629 45.6315 20.5944C45.6315 21.226 46.1435 21.7379 46.775 21.7379Z" fill="#270089"/>
<path d="M38.4056 24.7499C38.4056 24.7499 39.9673 25.9212 41.0829 24.7499Z" fill="white"/>
<path d="M39.9033 26.1776C39.0733 26.1776 38.2991 25.8029 37.8622 25.4748C37.4611 25.1745 37.3805 24.6063 37.6809 24.2056C37.9797 23.8067 38.5453 23.7244 38.9457 24.0213C39.0454 24.0934 39.896 24.6816 40.4268 24.1244C40.7721 23.762 41.3459 23.7479 41.7087 24.0932C42.0709 24.4387 42.0853 25.0126 41.74 25.3749C41.1748 25.9685 40.5236 26.1776 39.9033 26.1776Z" fill="#270089"/>
<path d="M55.312 47.3479C54.3776 44.908 50.5464 37.0494 39.8288 36.6022C39.8288 36.6022 47.4321 42.7393 49.4583 47.9414V70.0021H55.5584V47.3479H55.312Z" fill="#FEE478"/>
<path d="M55.5849 48.2595C55.2297 48.2595 54.9039 48.0237 54.8062 47.6635C54.7972 47.6325 54.0624 45.0214 51.8497 42.459C48.9088 39.0539 44.8642 37.3271 39.8284 37.3271C34.821 37.3271 31.0229 39.0358 28.5401 42.4059C26.668 44.9468 26.2688 47.5413 26.2651 47.5675C26.2001 48.0083 25.7899 48.3139 25.3497 48.2505C24.9087 48.1865 24.6028 47.7786 24.6658 47.3378C24.683 47.2177 25.1084 44.373 27.1936 41.5098C29.1203 38.8647 32.876 35.7115 39.8282 35.7115C46.7485 35.7115 50.8766 38.8379 53.1211 41.46C55.5507 44.2988 56.3333 47.1217 56.3655 47.2408C56.4823 47.6715 56.2272 48.1149 55.7967 48.2315C55.726 48.2505 55.655 48.2595 55.5849 48.2595Z" fill="#270089"/>
<path d="M37.8867 34.4722V36.9377C37.8867 36.9377 39.9778 39.0295 41.7836 36.9377V34.4722H37.8867V34.4722Z" fill="white"/>
<path d="M40.0183 38.6545C40.0181 38.6545 40.0181 38.6545 40.018 38.6545C38.5705 38.6545 37.482 37.6177 37.3627 37.4984L37.1263 37.2719V33.6169H42.6392V37.238L42.4427 37.4551C41.5795 38.4546 40.6478 38.6545 40.0183 38.6545ZM38.7418 36.5628C39.0409 36.7828 39.5287 37.0384 40.0179 37.0384H40.0181C40.3748 37.0384 40.7056 36.9133 41.0231 36.6153V35.2329H38.7417L38.7418 36.5628Z" fill="#270089"/>
<path d="M36.7846 70.9905L36.6186 62.2045C36.6873 61.6398 36.6743 61.0389 36.5848 60.4152L36.5847 60.4073H36.5838C36.3056 58.4844 35.2938 56.3453 33.6649 54.3763L33.6659 54.3752L33.6615 54.3721C33.1362 53.7377 32.5487 53.1205 31.8989 52.5345C30.1221 50.9323 28.1629 49.8045 26.2933 49.1983L17.3827 42.9411L13.1267 32.2059L17.0251 21.1937L17.0176 21.1912C17.0402 21.1318 17.0614 21.0716 17.0812 21.0106C17.7006 19.0946 16.6496 17.0391 14.7335 16.4198C12.8174 15.8003 10.7621 16.8514 10.1427 18.7676C10.1293 18.8088 10.1179 18.8499 10.1061 18.8911L6.20472 29.9111C5.85307 30.4902 5.65775 31.1732 5.67785 31.901C5.67879 31.9347 5.68142 31.968 5.6832 32.0013L5.67644 32.0015L5.68546 32.044C5.70893 32.3979 5.78283 32.7371 5.89945 33.0555L8.67098 46.1567C8.72826 47.4126 9.2678 48.6459 10.2752 49.5542L22.5435 62.2468V70.9903H36.7846V70.9905Z" fill="white"/>
<path d="M36.7843 72H22.5433C21.9857 72 21.5339 71.5481 21.5339 70.9905V62.655L9.57214 50.2796C8.43305 49.2402 7.75886 47.8273 7.66684 46.2888L4.92554 33.3309C4.7969 32.9609 4.71559 32.5758 4.68338 32.1841C4.66826 32.102 4.66357 32.019 4.66873 31.9372C4.66873 31.9343 4.66864 31.9314 4.66845 31.9286C4.64479 31.0689 4.85784 30.2254 5.28546 29.4822L9.1435 18.584C9.15561 18.5413 9.1681 18.499 9.18181 18.4565C9.80511 16.5282 11.585 15.2323 13.6107 15.2323C14.096 15.2323 14.5782 15.3087 15.0436 15.4591C16.2267 15.8415 17.1903 16.6619 17.7565 17.7691C18.3227 18.8763 18.4238 20.1377 18.0414 21.3208C18.0307 21.3538 18.0198 21.3863 18.0085 21.4186C18 21.4562 17.9893 21.4937 17.9763 21.5304L14.2043 32.1858L18.2095 42.2884L26.7512 48.2865C28.7818 48.9705 30.7923 50.1779 32.5744 51.7848C33.2379 52.3831 33.8615 53.0326 34.4279 53.7155C34.4357 53.7247 34.4434 53.7338 34.4508 53.7432C36.1494 55.7992 37.2576 58.0953 37.5756 60.2158C37.5816 60.2473 37.5862 60.2791 37.5892 60.3116C37.6833 60.9874 37.6966 61.64 37.6287 62.2535L37.7934 70.9715C37.7985 71.2425 37.6945 71.5043 37.5047 71.6976C37.315 71.8911 37.0553 72 36.7843 72ZM23.5527 69.9811H35.7556L35.609 62.2236C35.608 62.1764 35.6105 62.1294 35.6162 62.0825C35.6734 61.6125 35.6631 61.0997 35.5853 60.5587C35.5846 60.5531 35.5838 60.5478 35.5831 60.5422C35.3243 58.7696 34.3671 56.809 32.887 55.02C32.8859 55.0186 32.8848 55.0172 32.8836 55.0158C32.3766 54.4035 31.8177 53.8208 31.2226 53.2842C29.6066 51.8271 27.7942 50.7462 25.9816 50.1584C25.8858 50.1274 25.7953 50.0821 25.7129 50.0242L16.8023 43.7672C16.6411 43.654 16.5166 43.4962 16.444 43.313L12.188 32.5778C12.098 32.351 12.0933 32.099 12.1747 31.869L16.0317 20.9735C16.0422 20.9252 16.0564 20.8776 16.0741 20.8311C16.0906 20.7878 16.1061 20.7437 16.1206 20.6993C16.337 20.0298 16.2796 19.3154 15.959 18.6884C15.6384 18.0613 15.0927 17.5967 14.4226 17.3802C14.1581 17.2946 13.8849 17.2512 13.6107 17.2512C12.4639 17.2512 11.456 17.9853 11.1029 19.0779C11.095 19.1022 11.0885 19.126 11.0816 19.15L11.0765 19.168C11.0708 19.1882 11.0644 19.2081 11.0573 19.2278L7.15612 30.248C7.13302 30.3132 7.10325 30.3759 7.06738 30.4351C6.80437 30.8682 6.67273 31.3655 6.68672 31.8731L6.69094 31.9476C6.69132 31.9546 6.6916 31.9616 6.69188 31.9686C6.69207 31.9715 6.69226 31.9744 6.69245 31.9772C6.70907 32.2279 6.76109 32.4738 6.847 32.7084C6.86353 32.7534 6.87677 32.7997 6.88672 32.8468L9.65816 45.948C9.66961 46.0016 9.67647 46.056 9.679 46.1109C9.72642 47.1513 10.1781 48.1078 10.9508 48.8046C10.968 48.82 10.9846 48.8361 11.0006 48.8527L23.2689 61.5454C23.4509 61.7335 23.5526 61.9852 23.5526 62.247V69.9811H23.5527Z" fill="#270089"/>
<path d="M29.2964 50.7532L24.2693 40.3757C23.9601 39.7279 23.4251 39.1842 22.7147 38.8763C21.1528 38.2 19.3388 38.9174 18.6623 40.479C18.3118 41.2883 18.3365 42.1652 18.6583 42.9167L18.6576 42.9171L22.3673 53.6886" fill="white"/>
<path d="M22.3673 54.6983C21.9484 54.6983 21.557 54.4356 21.4129 54.0175L17.7106 43.2671C17.2896 42.2482 17.2982 41.089 17.736 40.0779C18.6327 38.0083 21.0462 37.0538 23.1158 37.9501C24.0216 38.3427 24.7548 39.0496 25.1803 39.9408L30.2049 50.3132C30.4479 50.8149 30.2381 51.4186 29.7365 51.6617C29.2348 51.9046 28.631 51.6951 28.3879 51.1933L23.3609 40.8158C23.1428 40.3593 22.7717 40.0012 22.3133 39.8026C21.2653 39.3486 20.0428 39.8322 19.5886 40.8803C19.3603 41.4075 19.3594 41.9897 19.5862 42.5195C19.601 42.5541 19.6137 42.5891 19.6245 42.6246L23.3218 53.3599C23.5033 53.8869 23.2232 54.4614 22.696 54.6431C22.5872 54.6807 22.4762 54.6983 22.3673 54.6983Z" fill="#270089"/>
<path d="M43.8118 70.9905L43.9778 62.2045C43.9093 61.6398 43.9221 61.0388 44.0117 60.4151L44.0118 60.4073H44.0127C44.2909 58.4843 45.3027 56.3453 46.9317 54.3762L46.9306 54.3752L46.9349 54.3721C47.4604 53.7376 48.0478 53.1204 48.6977 52.5345C50.4746 50.9323 52.4335 49.8044 54.3031 49.1982L63.2138 42.9411L67.4697 32.2059L63.5712 21.1937L63.5787 21.1911C63.5562 21.1318 63.535 21.0716 63.5152 21.0106C62.8958 19.0945 63.9469 17.039 65.8628 16.4197C67.779 15.8003 69.8345 16.8514 70.454 18.7676C70.4671 18.8087 70.4786 18.8498 70.4904 18.8911L74.3916 29.9111C74.7431 30.4901 74.9385 31.1732 74.9184 31.901C74.9174 31.9346 74.915 31.9679 74.9131 32.0013L74.9199 32.0015L74.9108 32.0439C74.8873 32.3978 74.8133 32.7371 74.6969 33.0555L71.9254 46.1567C71.868 47.4126 71.3286 48.6458 70.3211 49.5541L58.053 62.2469V70.9905H43.8118Z" fill="white"/>
<path d="M58.0532 72H43.8121C43.5412 72 43.2814 71.8911 43.0917 71.6975C42.9018 71.5041 42.7977 71.2423 42.8029 70.9714L42.9674 62.2533C42.899 61.6324 42.9134 60.9714 43.0106 60.2869C43.0116 60.2789 43.0127 60.2708 43.0139 60.2628H43.0137C43.3209 58.1397 44.4238 55.8369 46.1209 53.7732C46.1415 53.7452 46.164 53.7183 46.1876 53.6926C46.749 53.0178 47.366 52.3762 48.0221 51.785C49.8042 50.178 51.8146 48.9707 53.8451 48.2867L62.3871 42.2885L66.3922 32.186L62.6201 21.5306C62.6065 21.4929 62.5956 21.4547 62.5868 21.4161C62.5762 21.3851 62.5657 21.3539 62.5555 21.3225C61.7656 18.8783 63.1102 16.2488 65.5528 15.4593C66.0181 15.3088 66.5003 15.2325 66.9857 15.2325C69.0114 15.2325 70.7914 16.5284 71.4148 18.4571C71.4289 18.5008 71.441 18.5428 71.4531 18.5846L75.3109 29.4824C75.7384 30.2255 75.9514 31.0689 75.9278 31.9289C75.9277 31.9342 75.9275 31.9392 75.9274 31.9444C75.9322 32.0243 75.9276 32.1051 75.9128 32.1852C75.8807 32.576 75.7995 32.9608 75.6708 33.3307L72.9298 46.289C72.8375 47.8274 72.1633 49.2403 71.0244 50.2796L59.0626 62.655V70.9905C59.0626 71.548 58.6107 72 58.0532 72ZM44.8408 69.9811H57.0437V62.247C57.0437 61.9852 57.1454 61.7335 57.3273 61.5454L69.5956 48.8527C69.6116 48.8361 69.6283 48.82 69.6455 48.8046C70.4181 48.108 70.8697 47.1514 70.9175 46.1108C70.9199 46.0561 70.9268 46.0017 70.9381 45.948L73.7096 32.8469C73.7195 32.7999 73.7327 32.7538 73.7493 32.7088C73.8353 32.4737 73.8874 32.2276 73.9039 31.9775C73.9041 31.9741 73.9043 31.9707 73.9047 31.9673C73.9049 31.9603 73.9051 31.9532 73.9055 31.946L73.9098 31.8715C73.9236 31.3656 73.792 30.8682 73.5289 30.4351C73.493 30.3759 73.4634 30.3133 73.4403 30.2481L69.539 19.228C69.5321 19.2079 69.5254 19.1875 69.5197 19.167L69.5151 19.1511C69.508 19.1261 69.501 19.101 69.493 19.076C69.1406 17.9855 68.1327 17.2514 66.9857 17.2514C66.7113 17.2514 66.4382 17.2948 66.1739 17.3803C64.7905 17.8275 64.029 19.3166 64.4762 20.7002C64.4902 20.7438 64.5058 20.7882 64.5226 20.8321C64.5405 20.8793 64.5548 20.9275 64.5655 20.9762L68.4216 31.8691C68.5032 32.0991 68.4984 32.3511 68.4084 32.5779L64.1525 43.3131C64.0799 43.4962 63.9554 43.6541 63.7943 43.7673L54.8836 50.0243C54.8011 50.0821 54.7105 50.1275 54.6148 50.1585C52.8023 50.7461 50.99 51.8272 49.374 53.2843C48.7816 53.8185 48.2251 54.3981 47.7196 55.0077C47.7163 55.0118 47.7131 55.0157 47.7098 55.0198C46.2291 56.8096 45.2716 58.771 45.0132 60.5442C45.0126 60.5491 45.0118 60.554 45.0112 60.5588C44.9335 61.0998 44.923 61.6126 44.9802 62.0828C44.9859 62.1295 44.9883 62.1764 44.9874 62.2236L44.8408 69.9811Z" fill="#270089"/>
<path d="M51.3 50.7532L56.3271 40.3757C56.6363 39.7279 57.1714 39.1842 57.8819 38.8763C59.4436 38.2 61.2577 38.9174 61.9341 40.479C62.2847 41.2883 62.2601 42.1652 61.9382 42.9167L61.9389 42.9171L58.2291 53.6886" fill="white"/>
<path d="M58.2291 54.6983C58.1201 54.6983 58.0091 54.6807 57.9002 54.643C57.3732 54.4614 57.093 53.8869 57.2746 53.3599L60.9716 42.6256C60.9823 42.5898 60.9952 42.5543 61.0101 42.5194C61.2369 41.9897 61.2361 41.4078 61.0077 40.8806C60.5534 39.832 59.3311 39.3485 58.2829 39.8027C57.8244 40.0013 57.4533 40.3594 57.2379 40.8106L52.2083 51.1933C51.9652 51.6952 51.3614 51.9046 50.8599 51.6617C50.3581 51.4186 50.1484 50.8148 50.3916 50.3132L55.4187 39.9358C55.8414 39.0496 56.5745 38.3426 57.4804 37.9501C59.551 37.0533 61.9639 38.0084 62.8602 40.0779C63.2984 41.0888 63.3071 42.2478 62.8861 43.2664L59.1833 54.0175C59.0394 54.4356 58.648 54.6983 58.2291 54.6983Z" fill="#270089"/>
</svg>
