<svg width="80" height="80" viewBox="0 0 80 80" fill="none" xmlns="http://www.w3.org/2000/svg">
<rect x="15.3333" y="4.66663" width="52" height="68.6667" fill="white"/>
<path d="M54.7201 13.9733H49.4668V24.0933H54.7201V13.9733Z" fill="#F154A9"/>
<path d="M54.7201 32.46H49.4668V42.58H54.7201V32.46Z" fill="#F154A9"/>
<path d="M54.7201 51.1466H49.4668V61.2666H54.7201V51.1466Z" fill="#F154A9"/>
<path d="M59.3868 13.9733H54.1335V24.0933H59.3868V13.9733Z" fill="#FEE478"/>
<path d="M59.3868 32.46H54.1335V42.58H59.3868V32.46Z" fill="#FEE478"/>
<path d="M59.3868 51.1466H54.1335V61.2666H59.3868V51.1466Z" fill="#FEE478"/>
<path d="M60.3 25.6999H49.0334C48.8796 25.7008 48.7272 25.6713 48.5849 25.613C48.4426 25.5548 48.3131 25.469 48.2041 25.3606C48.0951 25.2522 48.0085 25.1233 47.9495 24.9813C47.8904 24.8393 47.86 24.687 47.86 24.5333V13.2666C47.86 13.1128 47.8904 12.9606 47.9495 12.8186C48.0085 12.6766 48.0951 12.5477 48.2041 12.4393C48.3131 12.3309 48.4426 12.2451 48.5849 12.1868C48.7272 12.1286 48.8796 12.0991 49.0334 12.0999H60.3C60.4533 12.0999 60.605 12.1301 60.7465 12.1887C60.8881 12.2474 61.0167 12.3333 61.125 12.4416C61.2333 12.55 61.3193 12.6786 61.3779 12.8201C61.4365 12.9617 61.4667 13.1134 61.4667 13.2666V24.5333C61.4667 24.8427 61.3438 25.1394 61.125 25.3582C60.9062 25.577 60.6095 25.6999 60.3 25.6999ZM50.2 23.3666H59.1334V14.4333H50.2V23.3666Z" fill="#270089"/>
<path d="M60.3 44.3866H49.0334C48.8796 44.3875 48.7272 44.358 48.5849 44.2998C48.4426 44.2415 48.3131 44.1557 48.2041 44.0473C48.0951 43.9389 48.0085 43.81 47.9495 43.668C47.8904 43.526 47.86 43.3737 47.86 43.22V31.9533C47.86 31.7995 47.8904 31.6473 47.9495 31.5053C48.0085 31.3633 48.0951 31.2344 48.2041 31.126C48.3131 31.0176 48.4426 30.9318 48.5849 30.8735C48.7272 30.8153 48.8796 30.7858 49.0334 30.7866H60.3C60.6095 30.7866 60.9062 30.9096 61.125 31.1283C61.3438 31.3471 61.4667 31.6439 61.4667 31.9533V43.22C61.4667 43.5294 61.3438 43.8261 61.125 44.0449C60.9062 44.2637 60.6095 44.3866 60.3 44.3866ZM50.2 42.0533H59.1334V33.12H50.2V42.0533Z" fill="#270089"/>
<path d="M60.3 63.0733H49.0334C48.7233 63.0733 48.4259 62.9506 48.2061 62.732C47.9862 62.5134 47.8618 62.2167 47.86 61.9066V50.6666C47.86 50.3554 47.9837 50.057 48.2037 49.8369C48.4237 49.6169 48.7222 49.4933 49.0334 49.4933H60.3C60.6101 49.495 60.9068 49.6194 61.1254 49.8393C61.344 50.0592 61.4667 50.3566 61.4667 50.6666V61.9333C61.4581 62.2375 61.3316 62.5265 61.1139 62.7392C60.8962 62.9519 60.6044 63.0717 60.3 63.0733V63.0733ZM50.2 60.7333H59.1334V51.8066H50.2V60.7333Z" fill="#270089"/>
<path d="M68.3 74.22H14V3.37335H68.3067L68.3 74.22ZM16.5267 71.6934H65.7667V5.90669H16.5267V71.6934Z" fill="#270089"/>
<path d="M44.747 15.3333H22.5603C22.2244 15.3333 21.9022 15.1998 21.6646 14.9623C21.4271 14.7247 21.2936 14.4025 21.2936 14.0666C21.2936 13.7307 21.4271 13.4085 21.6646 13.1709C21.9022 12.9334 22.2244 12.7999 22.5603 12.7999H44.747C45.0829 12.7999 45.4051 12.9334 45.6426 13.1709C45.8802 13.4085 46.0136 13.7307 46.0136 14.0666C46.0136 14.4025 45.8802 14.7247 45.6426 14.9623C45.4051 15.1998 45.0829 15.3333 44.747 15.3333V15.3333Z" fill="#270089"/>
<path d="M44.747 20.4067H22.5603C22.2244 20.4067 21.9022 20.2732 21.6646 20.0357C21.4271 19.7981 21.2936 19.476 21.2936 19.14C21.2936 18.8041 21.4271 18.4819 21.6646 18.2444C21.9022 18.0068 22.2244 17.8734 22.5603 17.8734H44.747C45.0829 17.8734 45.4051 18.0068 45.6426 18.2444C45.8802 18.4819 46.0136 18.8041 46.0136 19.14C46.0136 19.476 45.8802 19.7981 45.6426 20.0357C45.4051 20.2732 45.0829 20.4067 44.747 20.4067V20.4067Z" fill="#270089"/>
<path d="M44.747 25.4666H22.5603C22.394 25.4666 22.2293 25.4338 22.0756 25.3701C21.9219 25.3065 21.7823 25.2132 21.6646 25.0956C21.547 24.9779 21.4537 24.8383 21.3901 24.6846C21.3264 24.5309 21.2936 24.3662 21.2936 24.1999C21.2936 24.0336 21.3264 23.8688 21.3901 23.7152C21.4537 23.5615 21.547 23.4218 21.6646 23.3042C21.7823 23.1866 21.9219 23.0933 22.0756 23.0296C22.2293 22.966 22.394 22.9332 22.5603 22.9332H44.747C45.0829 22.9332 45.4051 23.0667 45.6426 23.3042C45.8802 23.5418 46.0136 23.864 46.0136 24.1999C46.0136 24.5358 45.8802 24.858 45.6426 25.0956C45.4051 25.3331 45.0829 25.4666 44.747 25.4666V25.4666Z" fill="#270089"/>
<path d="M44.747 33.8333H22.5603C22.3867 33.846 22.2124 33.8227 22.0482 33.7649C21.8839 33.7071 21.7334 33.6161 21.6059 33.4976C21.4784 33.379 21.3768 33.2355 21.3072 33.0759C21.2377 32.9163 21.2018 32.7441 21.2018 32.57C21.2018 32.3959 21.2377 32.2237 21.3072 32.0641C21.3768 31.9045 21.4784 31.761 21.6059 31.6424C21.7334 31.5239 21.8839 31.4329 22.0482 31.3751C22.2124 31.3174 22.3867 31.2941 22.5603 31.3067H44.747C44.9206 31.2941 45.095 31.3174 45.2592 31.3751C45.4234 31.4329 45.574 31.5239 45.7014 31.6424C45.8289 31.761 45.9306 31.9045 46.0001 32.0641C46.0696 32.2237 46.1055 32.3959 46.1055 32.57C46.1055 32.7441 46.0696 32.9163 46.0001 33.0759C45.9306 33.2355 45.8289 33.379 45.7014 33.4976C45.574 33.6161 45.4234 33.7071 45.2592 33.7649C45.095 33.8227 44.9206 33.846 44.747 33.8333Z" fill="#270089"/>
<path d="M44.747 38.8933H22.5603C22.3867 38.9059 22.2124 38.8826 22.0482 38.8248C21.8839 38.7671 21.7334 38.6761 21.6059 38.5575C21.4784 38.439 21.3768 38.2954 21.3072 38.1358C21.2377 37.9762 21.2018 37.804 21.2018 37.6299C21.2018 37.4559 21.2377 37.2837 21.3072 37.1241C21.3768 36.9645 21.4784 36.8209 21.6059 36.7024C21.7334 36.5838 21.8839 36.4928 22.0482 36.4351C22.2124 36.3773 22.3867 36.354 22.5603 36.3666H44.747C44.9206 36.354 45.095 36.3773 45.2592 36.4351C45.4234 36.4928 45.574 36.5838 45.7014 36.7024C45.8289 36.8209 45.9306 36.9645 46.0001 37.1241C46.0696 37.2837 46.1055 37.4559 46.1055 37.6299C46.1055 37.804 46.0696 37.9762 46.0001 38.1358C45.9306 38.2954 45.8289 38.439 45.7014 38.5575C45.574 38.6761 45.4234 38.7671 45.2592 38.8248C45.095 38.8826 44.9206 38.9059 44.747 38.8933V38.8933Z" fill="#270089"/>
<path d="M44.747 43.9533H22.5603C22.3867 43.966 22.2124 43.9427 22.0482 43.8849C21.8839 43.8271 21.7334 43.7361 21.6059 43.6176C21.4784 43.499 21.3768 43.3555 21.3072 43.1959C21.2377 43.0363 21.2018 42.8641 21.2018 42.69C21.2018 42.5159 21.2377 42.3437 21.3072 42.1841C21.3768 42.0245 21.4784 41.881 21.6059 41.7624C21.7334 41.6439 21.8839 41.5529 22.0482 41.4951C22.2124 41.4374 22.3867 41.4141 22.5603 41.4267H44.747C44.9206 41.4141 45.095 41.4374 45.2592 41.4951C45.4234 41.5529 45.574 41.6439 45.7014 41.7624C45.8289 41.881 45.9306 42.0245 46.0001 42.1841C46.0696 42.3437 46.1055 42.5159 46.1055 42.69C46.1055 42.8641 46.0696 43.0363 46.0001 43.1959C45.9306 43.3555 45.8289 43.499 45.7014 43.6176C45.574 43.7361 45.4234 43.8271 45.2592 43.8849C45.095 43.9427 44.9206 43.966 44.747 43.9533V43.9533Z" fill="#270089"/>
<path d="M44.747 52.3266H22.5603C22.2244 52.3266 21.9022 52.1932 21.6646 51.9556C21.4271 51.7181 21.2936 51.3959 21.2936 51.0599C21.2936 50.724 21.4271 50.4018 21.6646 50.1643C21.9022 49.9267 22.2244 49.7933 22.5603 49.7933H44.747C45.0829 49.7933 45.4051 49.9267 45.6426 50.1643C45.8802 50.4018 46.0136 50.724 46.0136 51.0599C46.0136 51.3959 45.8802 51.7181 45.6426 51.9556C45.4051 52.1932 45.0829 52.3266 44.747 52.3266Z" fill="#270089"/>
<path d="M44.747 57.3867H22.5603C22.2244 57.3867 21.9022 57.2532 21.6646 57.0157C21.4271 56.7781 21.2936 56.4559 21.2936 56.12C21.2936 55.7841 21.4271 55.4619 21.6646 55.2243C21.9022 54.9868 22.2244 54.8533 22.5603 54.8533H44.747C45.0829 54.8533 45.4051 54.9868 45.6426 55.2243C45.8802 55.4619 46.0136 55.7841 46.0136 56.12C46.0136 56.4559 45.8802 56.7781 45.6426 57.0157C45.4051 57.2532 45.0829 57.3867 44.747 57.3867V57.3867Z" fill="#270089"/>
<path d="M44.747 62.4466H22.5603C22.3867 62.4592 22.2124 62.4359 22.0482 62.3782C21.8839 62.3204 21.7334 62.2294 21.6059 62.1109C21.4784 61.9923 21.3768 61.8488 21.3072 61.6892C21.2377 61.5296 21.2018 61.3574 21.2018 61.1833C21.2018 61.0092 21.2377 60.837 21.3072 60.6774C21.3768 60.5178 21.4784 60.3743 21.6059 60.2557C21.7334 60.1372 21.8839 60.0462 22.0482 59.9884C22.2124 59.9306 22.3867 59.9073 22.5603 59.92H44.747C44.9206 59.9073 45.095 59.9306 45.2592 59.9884C45.4234 60.0462 45.574 60.1372 45.7014 60.2557C45.8289 60.3743 45.9306 60.5178 46.0001 60.6774C46.0696 60.837 46.1055 61.0092 46.1055 61.1833C46.1055 61.3574 46.0696 61.5296 46.0001 61.6892C45.9306 61.8488 45.8289 61.9923 45.7014 62.1109C45.574 62.2294 45.4234 62.3204 45.2592 62.3782C45.095 62.4359 44.9206 62.4592 44.747 62.4466Z" fill="#270089"/>
</svg>
