<svg width="502" height="112" viewBox="0 0 502 112" fill="none" xmlns="http://www.w3.org/2000/svg">
<path d="M37.256 56H50.504C59.624 56 66.824 48.944 66.824 38.96C66.824 28.976 59.624 21.92 50.504 21.92H37.256V56ZM44.84 48.848V29.072H50.216C55.976 29.072 58.952 33.152 58.952 38.96C58.952 44.768 55.976 48.848 50.216 48.848H44.84ZM89.5966 56H109.757V49.04H97.1806V42.272H107.357V35.408H97.1806V28.88H109.325V21.92H89.5966V56ZM143.79 56.48C149.55 56.48 155.886 53.072 155.886 45.968C155.886 41.264 153.15 38.48 147.006 36.032L144.702 35.12C141.15 33.68 140.286 32.528 140.286 31.04C140.286 29.12 141.87 28.16 143.934 28.16C146.046 28.16 147.774 29.264 149.262 31.856L154.878 28.688C153.246 25.088 149.646 21.44 143.646 21.44C137.742 21.44 132.798 25.04 132.798 30.944C132.798 36.464 136.974 38.96 141.534 40.784L143.646 41.6C146.91 42.896 148.014 43.856 148.014 45.872C148.014 48.512 145.95 49.616 143.694 49.616C140.478 49.616 138.654 47.408 137.694 45.104L131.55 47.936C132.846 52.928 137.79 56.48 143.79 56.48ZM195.337 56.48C200.185 56.48 205.849 54.752 209.353 48.8L203.881 45.008C201.913 47.888 199.081 49.28 195.625 49.28C190.105 49.28 185.497 45.44 185.497 38.96C185.497 32.576 190.009 28.64 195.577 28.64C198.889 28.64 201.913 30.032 203.881 32.912L209.353 29.12C205.849 23.168 200.233 21.44 195.385 21.44C185.785 21.44 177.673 28.304 177.673 38.96C177.673 49.616 185.737 56.48 195.337 56.48ZM245.239 56.48C252.487 56.48 258.391 51.824 258.391 43.088V21.92H250.807V43.136C250.807 48.224 247.687 49.376 245.239 49.376C242.791 49.376 239.671 48.224 239.671 43.136V21.92H232.087V43.088C232.087 51.824 237.943 56.48 245.239 56.48ZM282.084 56H302.244V49.04H289.668V42.272H299.844V35.408H289.668V28.88H301.812V21.92H282.084V56ZM325.237 56H332.821V34.352H333.061L347.317 56H354.901V21.92H347.317V43.568H347.077L332.821 21.92H325.237V56ZM385.281 56H392.865V28.88H400.737V21.92H377.409V28.88H385.281V56ZM438.056 56.48C447.656 56.48 455.72 49.376 455.72 38.96C455.72 28.544 447.656 21.44 438.056 21.44C428.408 21.44 420.392 28.544 420.392 38.96C420.392 49.376 428.408 56.48 438.056 56.48ZM428.216 38.96C428.216 32.672 432.68 28.64 438.056 28.64C443.432 28.64 447.896 32.672 447.896 38.96C447.896 45.248 443.432 49.28 438.056 49.28C432.68 49.28 428.216 45.248 428.216 38.96ZM488.518 56.48C494.278 56.48 500.614 53.072 500.614 45.968C500.614 41.264 497.878 38.48 491.734 36.032L489.43 35.12C485.878 33.68 485.014 32.528 485.014 31.04C485.014 29.12 486.598 28.16 488.662 28.16C490.774 28.16 492.502 29.264 493.99 31.856L499.606 28.688C497.974 25.088 494.374 21.44 488.374 21.44C482.47 21.44 477.526 25.04 477.526 30.944C477.526 36.464 481.702 38.96 486.262 40.784L488.374 41.6C491.638 42.896 492.742 43.856 492.742 45.872C492.742 48.512 490.678 49.616 488.422 49.616C485.206 49.616 483.382 47.408 482.422 45.104L476.278 47.936C477.574 52.928 482.518 56.48 488.518 56.48Z" fill="#270089"/>
<path d="M174.32 103H177.032V97.312H180.128C183.8 97.312 186.104 95.008 186.104 91.648C186.104 88.264 183.8 85.96 180.128 85.96H174.32V103ZM177.032 94.792V88.48H179.864C181.952 88.48 183.344 89.464 183.344 91.648C183.344 93.832 181.952 94.792 179.864 94.792H177.032ZM197.34 103.24C202.02 103.24 206.052 99.712 206.052 94.48C206.052 89.248 202.02 85.72 197.34 85.72C192.636 85.72 188.628 89.248 188.628 94.48C188.628 99.712 192.636 103.24 197.34 103.24ZM191.412 94.48C191.412 90.736 194.172 88.312 197.34 88.312C200.508 88.312 203.268 90.736 203.268 94.48C203.268 98.224 200.508 100.648 197.34 100.648C194.172 100.648 191.412 98.224 191.412 94.48ZM218.686 103H221.59L217.51 96.736C219.598 95.944 220.846 94.12 220.846 91.648C220.846 88.264 218.542 85.96 214.942 85.96H209.182V103H211.894V97.168H214.942H214.966L218.686 103ZM211.894 94.792V88.48H214.63C216.718 88.48 218.086 89.464 218.086 91.648C218.086 93.832 216.718 94.792 214.63 94.792H211.894ZM238.712 103.24C240.92 103.24 243.68 102.496 245.48 99.712L243.512 98.32C242.264 100.048 240.488 100.648 238.808 100.648C235.472 100.648 232.76 98.248 232.76 94.48C232.76 90.736 235.448 88.312 238.784 88.312C240.44 88.312 242.264 88.912 243.512 90.64L245.48 89.248C243.68 86.464 240.92 85.72 238.712 85.72C233.936 85.72 229.976 89.224 229.976 94.48C229.976 99.736 233.936 103.24 238.712 103.24ZM253.569 85.96L246.921 103H249.849L251.169 99.52H258.801L260.121 103H263.049L256.377 85.96H253.569ZM252.105 97L254.985 89.392L257.865 97H252.105ZM266.5 103H269.212V88.48H273.508V85.96H262.204V88.48H266.5V103ZM276.251 103H285.875V100.48H278.963V95.656H284.627V93.208H278.963V88.48H285.659V85.96H276.251V103ZM296.341 103.24C300.949 103.24 304.789 99.832 304.189 94.072H297.109V96.352H301.549C301.069 99.448 298.885 100.72 296.461 100.72C293.101 100.72 290.437 98.248 290.437 94.48C290.437 90.688 293.101 88.312 296.461 88.312C298.165 88.312 299.965 88.912 301.213 90.64L303.181 89.248C301.381 86.464 298.597 85.72 296.413 85.72C291.637 85.72 287.653 89.224 287.653 94.48C287.653 99.736 291.637 103.24 296.341 103.24ZM315.577 103.24C320.257 103.24 324.289 99.712 324.289 94.48C324.289 89.248 320.257 85.72 315.577 85.72C310.873 85.72 306.865 89.248 306.865 94.48C306.865 99.712 310.873 103.24 315.577 103.24ZM309.649 94.48C309.649 90.736 312.409 88.312 315.577 88.312C318.745 88.312 321.505 90.736 321.505 94.48C321.505 98.224 318.745 100.648 315.577 100.648C312.409 100.648 309.649 98.224 309.649 94.48ZM336.922 103H339.826L335.746 96.736C337.834 95.944 339.082 94.12 339.082 91.648C339.082 88.264 336.778 85.96 333.178 85.96H327.418V103H330.13V97.168H333.178H333.202L336.922 103ZM330.13 94.792V88.48H332.866C334.954 88.48 336.322 89.464 336.322 91.648C336.322 93.832 334.954 94.792 332.866 94.792H330.13ZM342.693 103H345.405V85.96H342.693V103ZM343.053 84.424H345.189L347.565 80.68H345.357L343.053 84.424ZM354.421 85.96L347.773 103H350.701L352.021 99.52H359.653L360.973 103H363.901L357.229 85.96H354.421ZM352.957 97L355.837 89.392L358.717 97H352.957Z" fill="#270089"/>
<line y1="70" x2="408" y2="70" stroke="#DF1683" stroke-width="2"/>
</svg>
