<svg width="198" height="27" viewBox="0 0 198 27" fill="none" xmlns="http://www.w3.org/2000/svg">
<path d="M188.42 27C192.913 27 198 24.374 198 18.7151C198 15.2014 196.069 13.0192 191.205 11.0589L189.422 10.3562C186.749 9.32055 186.192 8.54384 186.192 7.58219C186.192 6.32466 187.232 5.73288 188.606 5.73288C189.979 5.73288 191.242 6.43562 192.393 8.3589L197.22 5.62192C195.92 2.84795 193.024 0 188.346 0C183.704 0 179.768 2.81096 179.768 7.47123C179.768 11.9466 183.221 13.8329 186.638 15.2014L188.271 15.8301C190.611 16.7548 191.205 17.3836 191.205 18.6411C191.205 20.4164 189.831 21.1562 188.308 21.1562C186.006 21.1562 184.818 19.4548 184.075 17.9384L178.803 20.3795C179.805 24.226 183.741 27 188.42 27Z" fill="#270089"/>
<path d="M163.731 26.6823H179.596V20.7039H170.27V16.3592H177.775V10.455H170.27V6.2961H179.299V0.317627H163.731V26.6823Z" fill="#270089"/>
<path d="M138.981 26.6823H145.506V11.012H145.692L155.777 26.6823H162.303V0.317627H155.777V15.9879H155.592L145.506 0.317627H138.981V26.6823Z" fill="#270089"/>
<path d="M125.355 27C132.814 27 138.981 21.526 138.981 13.5C138.981 5.47397 132.814 0 125.355 0C117.859 0 111.692 5.47397 111.692 13.5C111.692 21.526 117.859 27 125.355 27ZM118.376 13.5C118.376 9.02466 121.478 6.17671 125.355 6.17671C129.195 6.17671 132.297 9.02466 132.297 13.5C132.297 17.9753 129.195 20.8233 125.355 20.8233C121.478 20.8233 118.376 17.9753 118.376 13.5Z" fill="#270089"/>
<path d="M105.188 26.6823H111.692V0.317627H105.188V26.6823Z" fill="#270089"/>
<path d="M108.916 12.8647L105.188 9.21179V12.8647H108.916Z" fill="#3CB4E5"/>
<path d="M94.4167 27C98.2568 27 102.651 25.5945 105.346 20.8973L100.657 17.6425C99.2907 19.7137 97.3337 20.8233 94.6752 20.8233C90.7613 20.8233 87.4381 18.1603 87.4381 13.5C87.4381 8.9137 90.6874 6.17671 94.6014 6.17671C97.186 6.17671 99.2907 7.2863 100.657 9.32055L105.346 6.10274C102.651 1.40548 98.2938 0 94.4537 0C87.032 0 80.7549 5.25205 80.7549 13.5C80.7549 21.7479 86.995 27 94.4167 27Z" fill="#270089"/>
<path d="M70.4609 27C76.1263 27 80.7549 23.3682 80.7549 16.5494V0.317627H74.2378V16.5865C74.2378 20.2923 71.942 20.8853 70.4609 20.8853C68.9427 20.8853 66.6469 20.2923 66.6469 16.5865V0.317627H60.1299V16.5494C60.1299 23.3682 64.7585 27 70.4609 27Z" fill="#270089"/>
<path d="M45.2163 26.6823H60.923V20.8059H51.7404V0.317627H45.2163V26.6823Z" fill="#270089"/>
<path d="M52.1178 20.8059H56.0842L50.9279 26.6824H46.4856L52.1178 20.8059Z" fill="#DF1683"/>
<path d="M58.8605 20.8059H60.923V22.95L57.5912 26.6824H53.1489L58.8605 20.8059Z" fill="#C2D500"/>
<path d="M45.2163 20.8059H49.3413L45.2163 25.1736V22.7118V20.8059Z" fill="#3CB4E5"/>
<path d="M31.7491 27C39.2082 27 45.3749 21.526 45.3749 13.5C45.3749 5.47397 39.2082 0 31.7491 0C24.2531 0 18.0864 5.47397 18.0864 13.5C18.0864 21.526 24.2531 27 31.7491 27ZM24.7701 13.5C24.7701 9.02466 27.8719 6.17671 31.7491 6.17671C35.5894 6.17671 38.6912 9.02466 38.6912 13.5C38.6912 17.9753 35.5894 20.8233 31.7491 20.8233C27.8719 20.8233 24.7701 17.9753 24.7701 13.5Z" fill="#270089"/>
<path d="M9.61712 27C14.1101 27 19.1971 24.374 19.1971 18.7151C19.1971 15.2014 17.2663 13.0192 12.402 11.0589L10.6197 10.3562C7.94619 9.32055 7.38922 8.54384 7.38922 7.58219C7.38922 6.32466 8.42891 5.73288 9.80278 5.73288C11.1767 5.73288 12.4391 6.43562 13.5902 8.3589L18.4173 5.62192C17.1177 2.84795 14.2215 0 9.54286 0C4.90139 0 0.965426 2.81096 0.965426 7.47123C0.965426 11.9466 4.41868 13.8329 7.8348 15.2014L9.4686 15.8301C11.8079 16.7548 12.402 17.3836 12.402 18.6411C12.402 20.4164 11.0281 21.1562 9.50573 21.1562C7.20356 21.1562 6.01534 19.4548 5.27271 17.9384L0 20.3795C1.00256 24.226 4.93852 27 9.61712 27Z" fill="#270089"/>
<path d="M127.979 12.9467L125.733 10.7206L123.404 12.9467L121.687 14.67L121.788 14.7706L123.115 16.3588L125.692 13.9946L128.113 16.3588L129.762 14.7706L129.779 14.752L127.979 12.9467Z" fill="#3CB4E5"/>
<path d="M111.692 4.76469L107.091 0.317627H111.692V4.76469Z" fill="#C2D500"/>
<path d="M111.692 7.94119L105.188 1.74707V6.11472L111.692 12.5471V7.94119Z" fill="#DF1683"/>
</svg>
