<svg width="462" height="63" viewBox="0 0 462 63" fill="none" xmlns="http://www.w3.org/2000/svg">
<path d="M439.195 63C449.656 63 461.5 56.8726 461.5 43.6685C461.5 35.4699 457.004 30.3781 445.679 25.8041L441.529 24.1644C435.305 21.7479 434.008 19.9356 434.008 17.6918C434.008 14.7575 436.429 13.3767 439.627 13.3767C442.826 13.3767 445.766 15.0164 448.446 19.5041L459.685 13.1178C456.659 6.64521 449.915 0 439.022 0C428.216 0 419.051 6.5589 419.051 17.4329C419.051 27.8753 427.092 32.2767 435.045 35.4699L438.849 36.937C444.296 39.0945 445.679 40.5616 445.679 43.4959C445.679 47.6384 442.48 49.3644 438.936 49.3644C433.576 49.3644 430.809 45.3945 429.08 41.8562L416.804 47.552C419.138 56.5274 428.302 63 439.195 63Z" fill="#270089"/>
<path d="M381.711 62.2588H418.651V48.309H396.937V38.1716H414.412V24.3951H396.937V14.6909H417.958V0.74115H381.711V62.2588Z" fill="#270089"/>
<path d="M324.086 62.2588H339.28V25.6948H339.712L363.193 62.2588H378.387V0.74115H363.193V37.3052H362.761L339.28 0.74115H324.086V62.2588Z" fill="#270089"/>
<path d="M292.362 63C309.729 63 324.087 50.2274 324.087 31.5C324.087 12.7726 309.729 0 292.362 0C274.909 0 260.551 12.7726 260.551 31.5C260.551 50.2274 274.909 63 292.362 63ZM276.113 31.5C276.113 21.0575 283.335 14.4123 292.362 14.4123C301.303 14.4123 308.525 21.0575 308.525 31.5C308.525 41.9425 301.303 48.5877 292.362 48.5877C283.335 48.5877 276.113 41.9425 276.113 31.5Z" fill="#270089"/>
<path d="M245.406 62.2588H260.551V0.74115H245.406V62.2588Z" fill="#270089"/>
<path d="M254.087 30.0177L245.406 21.4941V30.0177H254.087Z" fill="#3CB4E5"/>
<path d="M220.329 63C229.27 63 239.5 59.7205 245.776 48.7603L234.858 41.1658C231.677 45.9986 227.12 48.5877 220.93 48.5877C211.818 48.5877 204.08 42.374 204.08 31.5C204.08 20.7986 211.646 14.4123 220.759 14.4123C226.776 14.4123 231.677 17.0014 234.858 21.7479L245.776 14.2397C239.5 3.27945 229.355 0 220.415 0C203.135 0 188.52 12.2548 188.52 31.5C188.52 50.7452 203.049 63 220.329 63Z" fill="#270089"/>
<path d="M164.553 63C177.743 63 188.52 54.5259 188.52 38.6153V0.74115H173.347V38.7017C173.347 47.3488 168.001 48.7323 164.553 48.7323C161.018 48.7323 155.673 47.3488 155.673 38.7017V0.74115H140.499V38.6153C140.499 54.5259 151.276 63 164.553 63Z" fill="#270089"/>
<path d="M105.776 62.2588H142.346V48.547H120.966V0.74115H105.776V62.2588Z" fill="#270089"/>
<path d="M121.845 48.5471H131.08L119.074 62.2588H108.731L121.845 48.5471Z" fill="#DF1683"/>
<path d="M137.544 48.5471H142.346V53.55L134.589 62.2588H124.246L137.544 48.5471Z" fill="#C2D500"/>
<path d="M105.776 48.5471H115.381L105.776 58.7382V52.9941V48.5471Z" fill="#3CB4E5"/>
<path d="M74.4212 63C91.7881 63 106.146 50.2274 106.146 31.5C106.146 12.7726 91.7881 0 74.4212 0C56.9684 0 42.6106 12.7726 42.6106 31.5C42.6106 50.2274 56.9684 63 74.4212 63ZM58.172 31.5C58.172 21.0575 65.3939 14.4123 74.4212 14.4123C83.3626 14.4123 90.5844 21.0575 90.5844 31.5C90.5844 41.9425 83.3626 48.5877 74.4212 48.5877C65.3939 48.5877 58.172 41.9425 58.172 31.5Z" fill="#270089"/>
<path d="M22.8914 63C33.3522 63 45.1963 56.8726 45.1963 43.6685C45.1963 35.4699 40.7007 30.3781 29.3754 25.8041L25.2256 24.1644C19.001 21.7479 17.7042 19.9356 17.7042 17.6918C17.7042 14.7575 20.1249 13.3767 23.3237 13.3767C26.5224 13.3767 29.4618 15.0164 32.1419 19.5041L43.3808 13.1178C40.3549 6.64521 33.6116 0 22.7185 0C11.9118 0 2.74778 6.5589 2.74778 17.4329C2.74778 27.8753 10.7879 32.2767 18.7416 35.4699L22.5456 36.937C27.9921 39.0945 29.3754 40.5616 29.3754 43.4959C29.3754 47.6384 26.1766 49.3644 22.632 49.3644C17.2719 49.3644 14.5054 45.3945 12.7764 41.8562L0.5 47.552C2.83424 56.5274 11.9983 63 22.8914 63Z" fill="#270089"/>
<path d="M298.472 30.209L293.242 25.0147L287.82 30.209L283.823 34.2301L284.056 34.4647L287.147 38.1706L293.147 32.6541L298.783 38.1706L302.622 34.4647L302.662 34.4213L298.472 30.209Z" fill="#3CB4E5"/>
<path d="M260.551 11.1176L249.839 0.74115H260.551V11.1176Z" fill="#C2D500"/>
<path d="M260.551 18.5294L245.406 4.07648V14.2677L260.551 29.2765V18.5294Z" fill="#DF1683"/>
</svg>
