<svg width="304" height="75" viewBox="0 0 304 75" fill="none" xmlns="http://www.w3.org/2000/svg">
<g clip-path="url(#clip0_4_237)">
<path d="M68.9305 66.6393H68.9933L68.9643 66.6055L68.9305 66.6393Z" fill="#1E1E1C"/>
<path d="M54.6741 20.1488L56.1494 24.4855L68.1904 12.4722L75.4793 19.7404V13.9356L68.1904 6.6673L54.6741 20.1488Z" fill="#DF1683"/>
<path d="M75.4791 58.4542V49.5719L71.0288 54.0155L75.4791 58.4542Z" fill="#FFCD00"/>
<path d="M0 58.4542V49.5719L4.45025 54.0155L0 58.4542Z" fill="#DF1683"/>
<path d="M44.6483 44.6227L43.8742 42.1821L41.4299 44.6227H44.6483Z" fill="#C2D500"/>
<path d="M57.5318 28.5596L57.8824 29.5903L59.0266 32.8719L68.3702 23.552L75.4789 30.6452V24.8452L68.3702 17.7471L57.5318 28.5596Z" fill="#C2D500"/>
<path d="M28.6535 57.3652H26.9006L26.1459 59.8642L25.3182 62.611L24.0717 66.7532H19.2466L11.7483 74.2305L16.3982 74.1916H17.6009L34.4719 57.3652H28.6535Z" fill="#C2D500"/>
<path d="M61.6608 8.45646L58.7492 5.55402L52.0008 12.2875L53.4761 16.6193L61.6608 8.45646Z" fill="#3CB4E5"/>
<path d="M40.0176 30.0473L38.6153 25.6377L36.1516 28.0977L33.5857 36.4599L40.0176 30.0473Z" fill="#3CB4E5"/>
<path d="M69.2474 62.2124L75.4797 68.4305V62.6305L66.1459 53.3203L69.2474 62.2124Z" fill="#3CB4E5"/>
<path d="M60.2147 36.2848L61.7144 40.5923L68.2145 34.1068L74.6805 40.5583L65.9845 49.2364L68.8912 52.1388L75.479 45.5658V35.5507L68.2145 28.3019L60.2147 36.2848Z" fill="#004987"/>
<path d="M39.5065 57.3652L22.6014 74.2305L26.1899 74.1916H28.4539L45.3201 57.3652H39.5065Z" fill="#004987"/>
<path d="M68.9934 66.4858H68.9301L63.1457 66.4518L63.1798 66.4858H59.9322L52.2051 74.1916H54.401H58.0235L64.4652 67.7693L70.9069 74.1916H75.4788V72.9519L68.9934 66.4858Z" fill="#DF1683"/>
<path d="M50.1119 62.2123L48.7388 57.8514L32.3255 74.2305L37.3698 74.1916H38.178L49.4448 62.9513L50.1119 62.2123Z" fill="#FFCD00"/>
<path d="M51.4556 66.4858L51.0271 65.1099L41.888 74.2256L45.6761 74.1916H47.7405L55.4676 66.4858H51.4556Z" fill="#3CB4E5"/>
<path d="M33.6398 -0.153687L25.825 7.30904H29.2236H32.0038L39.4679 -0.13424L33.6398 -0.153687Z" fill="#C2D500"/>
<path d="M46.0368 -0.153687H43.3783L35.9093 7.30904H40.5202H41.7277L49.1773 -0.153687H46.0368Z" fill="#004987"/>
<path d="M54.9605 -0.153687L52.9496 -0.148825L45.4708 7.30904H50.3106L50.5638 8.03343L58.7388 -0.153687H54.9605Z" fill="#DF1683"/>
<path d="M75.479 9.52594V7.19232L74.3104 8.35913L75.479 9.52594Z" fill="#004987"/>
<path d="M64.1593 5.75812L68.2444 1.684L72.4706 5.90397L75.3823 3.00153L72.2369 -0.134277H64.2518L61.2525 2.85568L64.1593 5.75812Z" fill="#3CB4E5"/>
<path d="M70.7997 40.4125L67.888 37.51L62.5127 42.8773L64.0123 47.1848L70.7997 40.4125Z" fill="#FFCD00"/>
<path d="M20.9316 20.1488L19.4611 24.4855L7.41528 12.4722L0.126404 19.7404V13.9356L7.41528 6.6673L20.9316 20.1488Z" fill="#004987"/>
<path d="M18.0735 28.5596L17.7229 29.5903L16.5836 32.8719L7.23999 23.552L0.126404 30.6452V24.8452L7.23999 17.7471L18.0735 28.5596Z" fill="#3CB4E5"/>
<path d="M28.309 -0.153687H22.5976L16.8814 5.57827L16.8571 5.55396L13.9503 8.45641L22.1351 16.6192L23.6055 12.2874L19.8321 8.51961L28.309 -0.153687Z" fill="#3CB4E5"/>
<path d="M6.36357 62.2124L0.126404 68.4305V62.6305L9.46025 53.3203L6.36357 62.2124Z" fill="#3CB4E5"/>
<path d="M15.3955 36.2848L13.891 40.5923L7.39093 34.1068L0.924918 40.5583L9.6258 49.2364L6.71414 52.1388L0.126404 45.5658V35.5507L7.39093 28.3019L15.3955 36.2848Z" fill="#C2D500"/>
<path d="M8.07746 66.4858H8.14075L13.9251 66.4518L6.16881 74.1916H1.59197H0.126404L8.07746 66.4858Z" fill="#DF1683"/>
<path d="M0.126404 9.52594V7.19232L1.29983 8.35913L0.126404 9.52594Z" fill="#3CB4E5"/>
<path d="M11.4472 5.75812L7.3621 1.684L3.13582 5.90397L0.229034 3.00153L3.36953 -0.134277H11.3595L14.354 2.85568L11.4472 5.75812Z" fill="#FFCD00"/>
<path d="M4.81071 40.4125L7.7175 37.51L13.0977 42.8773L11.5981 47.1848L4.81071 40.4125Z" fill="#004987"/>
<path d="M41.7805 35.5945L41.1573 33.6353L34.4381 40.3396L32.6707 42.1044L31.4583 43.4024L31.0834 44.6227H35.7966H35.9621L42.5596 38.0448L41.7805 35.5945Z" fill="#DF1683"/>
<path d="M62.2789 74.2305H67.1187L64.5819 71.542L62.2789 74.2305Z" fill="#C2D500"/>
<path d="M106.295 13.7737L115.488 38.0725H108.968L107.765 34.6158H98.3635L97.1608 38.0725H90.6072L99.7998 13.7737H106.285H106.295ZM105.813 29.1027L103.033 21.1635L100.287 29.1027H105.808H105.813Z" fill="#214586"/>
<path d="M116.553 44.1642V39.4776C117.41 40.0269 119.192 40.2992 120.6 40.2992C123.925 40.2992 125.469 38.69 125.469 36.9786V36.3952H125.264C125.128 36.7015 123.516 38.4128 120.497 38.4128C116.485 38.4128 111.991 35.3694 111.991 29.1756C111.991 22.9818 116.485 19.9335 120.497 19.9335C123.516 19.9335 125.128 21.6448 125.264 21.9511H125.469V20.2738H131.404V36.4633C131.404 43.6829 125.673 45.1901 121.729 45.1901C119.913 45.1901 117.751 44.9518 116.549 44.1642M121.729 33.1768C123.857 33.1768 125.605 31.7037 125.605 29.1707C125.605 26.6378 123.857 25.1647 121.729 25.1647C119.601 25.1647 117.819 26.6718 117.819 29.1707C117.819 31.6696 119.636 33.1768 121.729 33.1768Z" fill="#214586"/>
<path d="M149.453 38.0725H143.518V35.9868C142.49 37.4259 140.806 38.4177 138.439 38.4177C134.836 38.4177 131.818 36.191 131.818 30.7508L131.852 20.2786H137.787L137.753 29.7249C137.753 31.5724 138.644 33.1816 140.669 33.1816C142.695 33.1816 143.518 31.5724 143.518 29.7249L143.552 20.2786H149.487L149.453 38.0725Z" fill="#214586"/>
<path d="M149.074 29.1756C149.074 22.9477 153.534 19.9335 157.512 19.9335C160.633 19.9335 162.313 21.6448 162.454 21.9511H162.556V20.2738H168.492V38.0725H162.556V36.3952H162.454C162.318 36.7015 160.638 38.4128 157.512 38.4128C153.534 38.4128 149.074 35.4034 149.074 29.1756ZM158.783 33.1816C160.911 33.1816 162.693 31.7085 162.693 29.1756C162.693 26.6426 160.911 25.1695 158.783 25.1695C156.655 25.1695 154.907 26.6767 154.907 29.1756C154.907 31.6745 156.723 33.1816 158.783 33.1816Z" fill="#214586"/>
<path d="M167.907 33.2837L172.572 32.0197C172.81 32.6371 173.224 33.8331 174.802 33.8331C175.625 33.8331 176.311 33.4587 176.311 32.7052C176.311 32.3308 176.107 31.8495 175.182 31.5773L172.572 30.6195C169.621 29.5937 168.351 27.6393 168.351 25.3494C168.351 21.9268 171.472 19.9432 175.075 19.9432C178.678 19.9432 181.112 21.9268 181.696 24.907L177.066 26.0349C176.691 24.6639 175.829 24.4597 175.318 24.4597C174.393 24.4597 174.081 25.0771 174.081 25.4515C174.081 25.8599 174.32 26.3412 175.352 26.6134L177.787 27.5031C179.5 28.0525 182.144 29.3846 182.144 32.7052C182.144 36.298 179.057 38.4177 174.904 38.4177C171.233 38.4177 168.458 36.7744 167.907 33.2837Z" fill="#214586"/>
<path d="M180.878 29.1416C180.878 23.1179 185.645 19.9335 190.45 19.9335C193.605 19.9335 196.352 21.3725 198.168 24.3139L193.878 27.1191C193.089 26.1273 191.989 25.2376 190.45 25.2376C188.391 25.2376 186.711 26.8128 186.711 29.1367C186.711 31.4606 188.391 33.1038 190.45 33.1038C191.994 33.1038 193.089 32.2142 193.878 31.2224L198.168 34.0276C196.352 36.9008 193.605 38.408 190.45 38.408C185.65 38.408 180.878 35.2236 180.878 29.1318" fill="#214586"/>
<path d="M196.348 29.1756C196.348 22.9477 200.808 19.9335 204.786 19.9335C207.907 19.9335 209.587 21.6448 209.728 21.9511H209.83V20.2738H215.765V38.0725H209.83V36.3952H209.728C209.591 36.7015 207.912 38.4128 204.786 38.4128C200.808 38.4128 196.348 35.4034 196.348 29.1756ZM206.057 33.1816C208.184 33.1816 209.966 31.7085 209.966 29.1756C209.966 26.6426 208.184 25.1695 206.057 25.1695C203.929 25.1695 202.181 26.6767 202.181 29.1756C202.181 31.6745 203.997 33.1816 206.057 33.1816Z" fill="#214586"/>
<path d="M222.148 13.7737H216.212V38.0725H222.148V13.7737Z" fill="#214586"/>
<path d="M228.526 20.2786H222.591V38.0725H228.526V20.2786Z" fill="#214586"/>
<path d="M228.116 29.2096C228.116 23.186 232.645 19.9335 237.275 19.9335C241.905 19.9335 247.256 23.0498 246.025 31.4655H233.915C234.636 32.9045 236.179 33.6192 238.239 33.6192C239.68 33.6192 240.985 33.3469 242.285 32.4572L244.895 35.2284C243.454 37.0418 240.951 38.4128 237.587 38.4128C232.576 38.4128 228.116 35.0583 228.116 29.2048M240.81 27.2892C240.396 25.612 238.853 24.8584 237.343 24.8584C235.834 24.8584 234.324 25.612 233.706 27.2892H240.805H240.81Z" fill="#214586"/>
<path d="M245.782 20.2787H251.717V22.3643C252.744 20.9253 254.429 19.9335 256.795 19.9335C260.398 19.9335 263.417 22.1601 263.417 27.6004V38.0725H257.482V28.6262C257.482 26.7788 256.591 25.1695 254.565 25.1695C252.54 25.1695 251.717 26.7788 251.717 28.6262V38.0725H245.782V20.2787Z" fill="#214586"/>
<path d="M265.199 32.1169V24.9313H262.487V20.2787H265.199V15.7281H271.134V20.2787H274.908V24.9313H271.134V31.2272C271.134 32.0489 271.616 33.0747 273.296 33.0747C273.71 33.0747 274.358 33.0066 274.976 32.8024V37.2849C274.29 38.0385 272.678 38.2767 271.339 38.2767C267.77 38.2767 265.199 36.5654 265.199 32.1169Z" fill="#214586"/>
<path d="M273.642 29.2096C273.642 23.186 278.171 19.9335 282.801 19.9335C287.431 19.9335 292.782 23.0498 291.551 31.4655H279.441C280.162 32.9045 281.705 33.6192 283.765 33.6192C285.206 33.6192 286.511 33.3469 287.811 32.4572L290.421 35.2284C288.98 37.0418 286.477 38.4128 283.113 38.4128C278.102 38.4128 273.642 35.0583 273.642 29.2048M286.336 27.2892C285.922 25.612 284.379 24.8584 282.869 24.8584C281.36 24.8584 279.85 25.612 279.232 27.2892H286.331H286.336Z" fill="#214586"/>
<path d="M289.763 33.2837L294.428 32.0197C294.666 32.6371 295.08 33.8331 296.658 33.8331C297.481 33.8331 298.167 33.4587 298.167 32.7052C298.167 32.3308 297.963 31.8495 297.038 31.5773L294.428 30.6195C291.477 29.5937 290.206 27.6393 290.206 25.3494C290.206 21.9268 293.327 19.9432 296.931 19.9432C300.534 19.9432 302.968 21.9268 303.552 24.907L298.922 26.0349C298.547 24.6639 297.685 24.4597 297.174 24.4597C296.249 24.4597 295.937 25.0771 295.937 25.4515C295.937 25.8599 296.176 26.3412 297.208 26.6134L299.643 27.5031C301.356 28.0525 304 29.3846 304 32.7052C304 36.298 300.913 38.4177 296.76 38.4177C293.089 38.4177 290.314 36.7744 289.763 33.2837Z" fill="#214586"/>
<path d="M222.367 16.1656C222.367 14.148 223.91 12.8451 225.692 12.8451C227.474 12.8451 229.023 14.1432 229.023 16.1656C229.023 18.1881 227.445 19.4862 225.692 19.4862C223.94 19.4862 222.367 18.1881 222.367 16.1656Z" fill="#214586"/>
<path d="M133.43 58.0185C133.43 57.7268 133.474 57.5177 133.722 57.0802C137.491 50.2786 139.346 45.8691 139.409 44.3717C139.409 44.2064 139.492 44.0799 139.911 44.0167C140.909 43.8271 144.911 43.7688 145.807 43.7688C146.431 43.7688 146.913 44.6634 146.913 45.4315C146.913 45.8496 146.766 46.2434 146.435 46.4282C145.851 46.4282 144.77 46.365 144.269 46.365C143.417 46.365 142.769 46.4282 142.54 46.7588C142.121 47.3422 140.042 50.5217 140.042 50.794C140.042 51.0225 140.208 51.1246 140.417 51.1246C140.836 51.1246 141.878 51.1246 142.019 51.144C142.375 51.1878 142.706 51.8295 142.706 52.3935C142.706 52.831 142.496 53.2443 141.956 53.3075C139.77 53.5554 138.309 54.0173 138.309 54.0173C138.017 54.309 136.892 56.2828 136.892 56.7398C136.892 56.9246 137.058 56.9878 137.413 56.9878C138.226 56.9878 139.039 56.803 140.018 56.803C140.894 56.803 141.683 57.5323 141.683 58.6748C141.683 58.986 141.581 59.195 141.328 59.195C139.994 59.195 137.598 59.6326 136.391 60.1528C136.201 60.2354 136.06 60.2354 135.68 60.2354C134.886 60.2354 133.43 58.5922 133.43 58.0087V58.0185Z" fill="#21B4E9"/>
<path d="M142.613 57.4156C142.613 55.0236 147.696 46.7879 148.446 44.8335C148.631 44.357 149.094 44.2501 149.444 44.2501C150.067 44.2501 151.09 45.0182 151.09 45.728C151.09 45.9176 151.027 46.1024 150.944 46.2288C148.923 49.2868 145.861 54.1728 144.57 57.3135C144.526 57.4399 144.487 57.6052 144.487 57.751C144.487 57.9358 144.551 58.0816 144.673 58.0816C144.716 58.0816 144.755 58.0622 144.819 58.0184C145.047 57.8531 146.026 57.0412 147.005 55.7918C147.609 55.1063 149.649 52.5879 150.024 52.0677C150.087 51.985 150.126 51.9413 150.189 51.9413C150.379 51.9413 150.501 52.3351 150.501 52.3351C149.936 53.2296 148.689 54.975 147.521 56.5794C146.854 57.4934 145.69 58.9908 144.896 59.6568C144.711 59.8221 144.478 59.9048 144.293 59.9048C143.397 59.9048 142.603 58.3636 142.603 57.4107L142.613 57.4156Z" fill="#21B4E9"/>
<path d="M148.281 63.24C148.281 62.2822 149.05 61.305 150.073 61.305C150.092 61.305 150.116 61.3244 150.116 61.3488C150.014 61.5967 149.97 61.869 149.97 62.1412C149.97 62.9288 150.345 63.6386 150.866 63.6386C151.197 63.6386 151.596 63.3469 151.971 62.5593C152.595 61.271 153.179 59.9583 153.7 58.7332C153.033 59.2971 152.41 59.5013 151.889 59.5013C151.119 59.5013 150.618 59.0443 150.618 58.5435C150.618 55.6751 153.929 49.4521 155.555 49.4521C156.305 49.4521 157.347 50.162 157.347 50.969C157.347 51.1781 157.264 51.426 157.098 51.6351C157.868 51.6983 158.725 52.2379 158.725 53.0061C158.725 53.2346 158.661 53.4631 158.496 53.711C156.996 56.0009 155.662 58.6213 153.953 62.3454C153.33 63.7407 152.098 65.0923 150.827 65.0923C148.996 65.0923 148.286 64.1783 148.286 63.24H148.281ZM154.279 57.3524C154.946 55.7092 155.487 54.2944 155.842 53.4436C155.886 53.2589 155.906 53.113 155.906 53.0061C155.906 52.8213 155.842 52.7581 155.759 52.7581C154.907 52.7581 152.302 56.5454 152.302 57.9164C152.302 57.999 152.449 58.1254 152.741 58.1254C153.072 58.1254 153.573 57.9601 154.284 57.3573L154.279 57.3524Z" fill="#21B4E9"/>
<path d="M158.301 57.3135C158.301 55.9814 159.8 53.0692 160.55 51.1148C160.74 50.6384 161.198 50.5314 161.548 50.5314C162.172 50.5314 163.111 51.2169 163.111 51.9267C163.111 52.1115 163.048 52.3011 162.965 52.4275C161.446 54.7173 160.068 57.3378 160.068 57.751C160.068 57.9358 160.131 58.0816 160.253 58.0816C160.297 58.0816 160.336 58.0622 160.399 58.0184C160.628 57.8531 161.607 57.0412 162.585 55.7918C163.189 55.1063 165.229 52.5879 165.604 52.0677C165.667 51.9851 165.706 51.9413 165.77 51.9413C165.96 51.9413 166.081 52.3351 166.081 52.3351C165.521 53.2297 164.27 54.975 163.102 56.5794C162.434 57.4934 161.271 58.9908 160.477 59.6568C160.292 59.8221 160.102 59.8853 159.912 59.8853C159.036 59.8853 158.286 58.2615 158.286 57.3038L158.301 57.3135ZM161.865 48.6208C161.865 47.8915 162.717 46.6858 163.53 46.6858C164.465 46.6858 165.176 47.6192 165.176 48.1638C165.176 48.7083 164.426 49.9529 163.861 49.9529C163.155 49.9529 161.86 49.2674 161.86 48.6208H161.865Z" fill="#21B4E9"/>
<path d="M160.069 63.2399C160.069 62.2821 160.838 61.3049 161.861 61.3049C161.88 61.3049 161.904 61.3244 161.904 61.3487C161.802 61.5966 161.758 61.8689 161.758 62.1411C161.758 62.9287 162.133 63.6386 162.654 63.6386C162.985 63.6386 163.385 63.3469 163.76 62.5593C164.383 61.2709 164.967 59.9582 165.488 58.7331C164.821 59.2971 164.198 59.5012 163.677 59.5012C162.907 59.5012 162.406 59.0442 162.406 58.5435C162.406 55.6751 165.717 49.4521 167.343 49.4521C168.093 49.4521 169.135 50.1619 169.135 50.9689C169.135 51.178 169.052 51.4259 168.887 51.635C169.656 51.6982 170.513 52.2378 170.513 53.006C170.513 53.2345 170.45 53.463 170.284 53.7109C168.784 56.0008 167.45 58.6213 165.741 62.3453C165.118 63.7407 163.886 65.0922 162.615 65.0922C160.785 65.0922 160.074 64.1782 160.074 63.2399H160.069ZM166.067 57.3524C166.735 55.7091 167.275 54.2943 167.63 53.4435C167.674 53.2588 167.694 53.113 167.694 53.006C167.694 52.8213 167.63 52.758 167.548 52.758C166.696 52.758 164.091 56.5453 164.091 57.9163C164.091 57.999 164.237 58.1254 164.529 58.1254C164.86 58.1254 165.361 57.9601 166.072 57.3572L166.067 57.3524Z" fill="#21B4E9"/>
<path d="M169.543 58.5387C169.543 55.6703 173.146 49.5299 174.772 49.5299C174.875 49.5299 174.982 49.5494 175.128 49.6126C175.586 49.8022 176.335 50.3613 176.335 50.9836C176.335 51.1926 176.233 51.4211 176.024 51.6302C176.793 51.6934 177.67 52.2525 177.67 53.0012C177.67 53.2297 177.606 53.4582 177.421 53.7061C176.774 54.5569 175.819 56.0981 175.547 56.8662C175.381 57.3232 175.318 57.6149 175.318 57.824C175.318 58.0719 175.42 58.1789 175.547 58.1789C175.693 58.1789 175.878 58.0525 176.048 57.8872C176.258 57.6976 177.046 56.7447 177.879 55.7869C178.483 55.1014 180.523 52.5831 180.898 52.0629C180.961 51.9802 181 51.9365 181.063 51.9365C181.248 51.9365 181.375 52.3303 181.375 52.3303C180.81 53.2248 179.583 54.9702 178.395 56.5745C177.207 58.1983 175.936 59.9437 175.167 59.9437C174.544 59.9437 173.916 59.4429 173.852 58.0719C173.039 58.8644 172.017 60.0263 171.393 60.0263C170.6 60.0263 169.538 59.3797 169.538 58.5289L169.543 58.5387ZM171.608 58.4755C172.542 57.7073 174.315 54.6493 174.587 53.9006C174.631 53.8179 174.631 53.7353 174.631 53.6721C174.631 53.4436 174.466 53.254 174.276 53.254C173.589 53.254 171.067 57.226 171.067 58.3296C171.067 58.5143 171.15 58.6019 171.277 58.6019C171.379 58.6019 171.486 58.563 171.608 58.4755Z" fill="#21B4E9"/>
<path d="M177.505 58.495C177.505 56.9975 180.777 49.739 182.399 49.739C182.92 49.739 183.835 50.3419 183.835 50.9885C183.835 51.217 183.733 51.4649 183.416 51.7177C182.876 52.1747 180.855 54.7757 180.855 55.1307C180.855 55.1695 180.875 55.1939 180.899 55.1939C181.337 55.1939 184.254 51.4503 185.13 51.0954C185.899 51.1586 186.776 51.7177 186.776 52.4664C186.776 52.6949 186.713 52.9234 186.528 53.1714C185.88 54.0222 184.926 55.5633 184.653 56.3315C184.487 56.7885 184.424 57.0802 184.424 57.2893C184.424 57.5372 184.526 57.6442 184.653 57.6442C185.13 57.6442 186.153 56.3558 186.63 55.7918C187.234 55.1063 189.274 52.588 189.649 52.0678C189.712 51.9851 189.751 51.9414 189.814 51.9414C189.999 51.9414 190.126 52.3352 190.126 52.3352C189.561 53.2297 188.334 54.9751 187.146 56.5794C186.25 57.8046 184.687 59.4479 183.665 59.4479C183.061 59.4479 182.642 58.8644 182.642 57.3038C182.642 55.9717 183.037 55.4321 183.037 55.4321C182.764 55.4321 181.995 56.0349 181.454 56.701C180.685 57.6393 180.018 58.9277 179.706 59.8222C179.604 60.1139 179.433 60.2403 179.205 60.2403C178.727 60.2403 177.496 59.4284 177.496 58.495H177.505Z" fill="#21B4E9"/>
<path d="M186.77 57.8726C186.77 56.6475 188.022 54.0659 189.331 51.5913C188.041 51.1537 187.871 50.4682 187.871 49.8022C187.871 49.5737 187.997 49.491 188.163 49.491C188.538 49.491 189.453 49.6174 190.393 49.6369C191.245 48.0957 191.956 46.7685 192.229 46.0781C192.414 45.6016 192.876 45.4947 193.227 45.4947C193.85 45.4947 194.872 46.2628 194.872 46.9726C194.872 47.1574 194.809 47.347 194.726 47.4734C194.225 48.2416 193.665 49.034 193.1 49.8459C193.558 50.1765 194.205 50.512 194.205 50.9058C194.205 51.1343 194.079 51.1975 193.913 51.2169L191.975 51.4454C190.622 53.4193 189.307 55.4612 188.557 57.3135C188.475 57.542 188.455 57.7511 188.455 57.8969C188.455 58.106 188.518 58.2275 188.684 58.2275C188.81 58.2275 189.015 58.1449 189.288 57.9796C189.619 57.7705 190.705 56.9586 191.62 55.7967C192.224 55.1112 194.264 52.5928 194.639 52.0726C194.702 51.9899 194.741 51.9462 194.804 51.9462C194.994 51.9462 195.116 52.34 195.116 52.34C194.551 53.2345 193.305 54.9799 192.136 56.5843C191.469 57.4983 190.115 59.02 189.302 59.6617C189.137 59.7881 188.971 59.8465 188.762 59.8465C187.885 59.8465 186.761 58.8061 186.761 57.8726H186.77Z" fill="#21B4E9"/>
<path d="M191.751 57.4351C191.751 54.3139 194.711 49.6758 196.98 49.6758C197.691 49.6758 197.813 50.7794 198.441 51.1926C198.86 51.4649 199.649 51.567 199.649 52.6268C199.649 53.6235 195.461 56.3898 193.669 57.3281C193.626 57.6198 193.606 57.9115 193.606 58.1789C193.606 58.6359 193.815 58.9082 194.273 58.9082C195.71 58.9082 197.355 57.3913 198.753 55.787C199.356 55.1015 201.396 52.5831 201.771 52.0629C201.835 51.9802 201.874 51.9365 201.937 51.9365C202.127 51.9365 202.249 52.3303 202.249 52.3303C201.684 53.2248 200.457 54.9507 199.269 56.5745C197.832 58.529 195.831 60.1917 194.521 60.1917C193.728 60.1917 191.751 59.0054 191.751 57.4253V57.4351ZM197.75 52.3157C197.686 52.2962 197.604 52.2719 197.54 52.2719C196.08 52.6268 194.687 54.309 194.02 56.1224C196.562 54.3965 197.355 53.1081 197.75 52.3157Z" fill="#21B4E9"/>
<path d="M202.35 58.5386C202.35 55.2716 205.788 50.7161 207.059 49.7C207.288 49.5736 207.434 49.5347 207.58 49.5347C208.183 49.5347 208.787 50.1181 209.123 50.614C210.063 48.6402 210.871 46.7636 211.665 44.8335C211.85 44.357 212.312 44.2501 212.663 44.2501C213.286 44.2501 214.309 45.0182 214.309 45.728C214.309 45.9176 214.245 46.1024 214.163 46.2288C211.913 49.2236 208.12 56.5259 208.12 57.8337C208.12 58.0816 208.222 58.1886 208.349 58.1886C208.495 58.1886 208.68 58.0622 208.851 57.8969C209.06 57.7073 209.849 56.7544 210.686 55.7966C211.29 55.1111 213.33 52.5928 213.705 52.0726C213.768 51.9899 213.807 51.9462 213.87 51.9462C214.06 51.9462 214.182 52.34 214.182 52.34C213.617 53.2345 212.39 54.9799 211.202 56.5842C210.014 58.208 208.743 59.9534 207.974 59.9534C207.351 59.9534 206.723 59.4526 206.659 58.0816C205.846 58.8741 204.829 60.036 204.201 60.036C203.407 60.036 202.346 59.3894 202.346 58.5386H202.35ZM204.415 58.4754C205.126 57.892 206.582 55.6265 207.351 54.2555L207.828 53.2783C207.848 53.2151 207.867 53.1519 207.867 53.0935C207.867 52.865 207.701 52.656 207.512 52.656C206.825 52.656 203.865 57.2308 203.865 58.3344C203.865 58.5192 203.947 58.6067 204.074 58.6067C204.176 58.6067 204.283 58.5678 204.405 58.4803L204.415 58.4754Z" fill="#21B4E9"/>
<path d="M210.852 57.4351C210.852 54.3139 213.813 49.6758 216.082 49.6758C216.792 49.6758 216.914 50.7794 217.542 51.1926C217.961 51.4649 218.75 51.567 218.75 52.6268C218.75 53.6235 214.562 56.3898 212.771 57.3281C212.727 57.6198 212.707 57.9115 212.707 58.1789C212.707 58.6359 212.917 58.9082 213.374 58.9082C214.811 58.9082 216.456 57.3913 217.854 55.787C218.458 55.1015 220.498 52.5831 220.873 52.0629C220.936 51.9802 220.975 51.9365 221.038 51.9365C221.228 51.9365 221.35 52.3303 221.35 52.3303C220.785 53.2248 219.558 54.9507 218.37 56.5745C216.934 58.529 214.932 60.1917 213.623 60.1917C212.829 60.1917 210.852 59.0054 210.852 57.4253V57.4351ZM216.851 52.3157C216.788 52.2962 216.705 52.2719 216.641 52.2719C215.181 52.6268 213.788 54.309 213.121 56.1224C215.663 54.3965 216.456 53.1081 216.851 52.3157Z" fill="#21B4E9"/>
<path d="M220.993 58.913C224.056 52.7532 227.951 45.3926 228.18 44.498C228.326 43.9389 228.974 43.7688 229.431 43.7688C230.41 43.7688 231.846 44.4543 231.846 45.4947C231.846 45.66 231.808 45.8496 231.72 46.0343L229.865 52.2525C231.199 50.6724 235.552 44.0167 235.8 43.6181C235.946 43.3701 236.112 43.2875 236.321 43.2875C237.757 43.2875 238.907 44.6828 238.907 45.2856C238.907 45.5773 238.863 45.5336 238.512 46.2434C235.075 52.8991 234.076 55.398 232.927 59.6617C232.927 60.2014 232.387 60.2257 232.387 60.2257C231.827 60.2257 230.512 59.1853 230.512 58.6019C230.532 58.2713 232.367 53.4241 233.867 49.3063C231.993 52.2816 229.242 57.2114 228.847 57.8143C228.745 57.9796 228.599 58.0428 228.453 58.0428C227.742 58.0428 226.724 56.5648 226.724 56.0057L228.351 50.5752C226.121 54.0902 223.998 58.2324 223.287 59.9145C223.141 60.2451 222.975 60.3083 222.81 60.3083C222.308 60.3083 220.998 59.5159 220.998 58.913H220.993Z" fill="#21B4E9"/>
<path d="M234.847 57.4351C234.847 54.3138 237.807 49.6758 240.076 49.6758C240.787 49.6758 240.909 50.7794 241.537 51.1926C241.956 51.4649 242.744 51.567 242.744 52.6268C242.744 53.6235 238.557 56.3898 236.765 57.3281C236.721 57.6198 236.702 57.9115 236.702 58.1789C236.702 58.6359 236.911 58.9082 237.369 58.9082C238.805 58.9082 240.451 57.3913 241.849 55.7869C242.452 55.1014 244.492 52.5831 244.867 52.0629C244.931 51.9802 244.97 51.9365 245.033 51.9365C245.223 51.9365 245.344 52.3303 245.344 52.3303C244.78 53.2248 243.553 54.9507 242.365 56.5745C240.928 58.5289 238.927 60.1917 237.617 60.1917C236.824 60.1917 234.847 59.0054 234.847 57.4253V57.4351ZM240.846 52.3157C240.782 52.2962 240.699 52.2719 240.636 52.2719C239.175 52.6268 237.783 54.309 237.116 56.1224C239.657 54.3965 240.451 53.1081 240.846 52.3157ZM241.031 48.966C241.031 48.9028 241.113 48.8201 241.323 48.7375C242.925 48.0909 242.803 46.0732 243.616 46.0732C244.512 46.0732 245.013 46.5934 245.013 47.2157C245.013 48.0909 244.015 49.1507 241.824 49.1507C241.366 49.1507 241.031 49.0875 241.031 48.966Z" fill="#21B4E9"/>
<path d="M240.928 61.2855C241.054 59.1658 242.344 56.9391 243.864 54.9021C243.591 53.4436 243.469 52.092 243.469 51.5135C243.469 50.6627 244.428 50.0793 245.159 50.0793C245.616 50.0793 246.011 50.3078 246.011 50.8474C246.011 51.1586 245.991 51.6593 245.991 52.2622C246.761 51.3482 247.471 50.4925 248.056 49.7438C248.138 49.6417 248.221 49.598 248.304 49.598C249.18 49.598 249.701 50.7842 249.701 51.5329C249.701 51.9705 249.429 52.1358 249.2 52.2622C248.596 52.6365 247.345 53.7401 246.055 55.1549C246.137 56.6961 246.366 58.0282 246.907 58.0282C247.135 57.8629 248.114 57.051 249.093 55.8015C249.697 55.116 251.737 52.5976 252.112 52.0774C252.175 51.9948 252.214 51.951 252.277 51.951C252.462 51.951 252.589 52.3448 252.589 52.3448C252.024 53.2394 250.777 54.9847 249.609 56.5891C248.942 57.5031 247.773 59.0005 246.985 59.6666C246.819 59.8124 246.653 59.8513 246.483 59.8513C245.543 59.8513 244.857 58.6019 244.38 57.0656C243.128 58.6651 242.086 60.3715 241.838 61.7474C241.819 61.8932 241.692 61.9759 241.565 61.9759C241.293 61.9759 240.918 61.6842 240.918 61.2904L240.928 61.2855Z" fill="#21B4E9"/>
<path d="M249.385 57.3136C249.385 55.9814 250.885 53.0693 251.634 51.1149C251.824 50.6384 252.282 50.5315 252.632 50.5315C253.256 50.5315 254.195 51.217 254.195 51.9268C254.195 52.1115 254.132 52.3011 254.049 52.4275C252.53 54.7174 251.152 57.3379 251.152 57.7511C251.152 57.9358 251.216 58.0817 251.337 58.0817C251.381 58.0817 251.42 58.0623 251.483 58.0185C251.712 57.8532 252.691 57.0413 253.67 55.7918C254.273 55.1063 256.313 52.588 256.688 52.0678C256.752 51.9851 256.791 51.9414 256.854 51.9414C257.044 51.9414 257.166 52.3352 257.166 52.3352C256.606 53.2297 255.354 54.9751 254.186 56.5794C253.519 57.4934 252.355 58.9908 251.561 59.6569C251.376 59.8222 251.186 59.8854 250.997 59.8854C250.12 59.8854 249.37 58.2616 249.37 57.3038L249.385 57.3136ZM252.949 48.6208C252.949 47.8916 253.801 46.6859 254.614 46.6859C255.549 46.6859 256.26 47.6193 256.26 48.1638C256.26 48.7083 255.51 49.9529 254.945 49.9529C254.239 49.9529 252.944 49.2674 252.944 48.6208H252.949Z" fill="#21B4E9"/>
<path d="M253.714 57.4545C253.714 55.0431 256.567 51.0662 258.461 49.632C258.67 49.4667 258.899 49.4035 259.128 49.4035C260.15 49.4035 261.002 50.0064 261.002 51.0273C261.002 51.567 261.523 51.7955 261.523 52.1504C261.523 52.2525 261.48 52.3594 261.377 52.481C260.983 52.938 259.629 54.8729 259.313 56.0154C259.269 56.1418 259.167 56.2002 259.04 56.2002C258.602 56.2002 257.813 55.4904 257.813 55.0966C257.813 54.9313 258.042 54.5569 258.042 54.45C258.042 54.3236 257.979 54.2604 257.877 54.2604C257.171 54.2604 255.647 57.4642 255.647 58.3588C255.647 58.7526 255.958 58.8984 256.353 58.8984C257.789 58.8984 259.435 57.3816 260.832 55.7772C261.436 55.0917 263.476 52.5733 263.851 52.0531C263.914 51.9705 263.953 51.9267 264.016 51.9267C264.206 51.9267 264.328 52.3205 264.328 52.3205C263.763 53.2151 262.536 54.941 261.348 56.5648C259.912 58.5192 258.183 60.3715 256.411 60.3715C255.452 60.3715 253.704 59.1658 253.704 57.4399L253.714 57.4545Z" fill="#21B4E9"/>
<path d="M260.506 57.9553C260.506 54.8778 263.651 49.5299 265.233 49.5299C265.711 49.5299 266.022 50.1765 266.568 50.5071C267.629 50.5071 268.379 51.3822 268.379 52.0677C268.379 52.4421 267.775 53.7547 266.918 55.1889H266.962C267.546 55.1889 268.252 54.8778 268.919 54.1096C269.543 53.3804 270.438 52.4226 270.692 52.0726C270.755 51.9899 270.794 51.9462 270.857 51.9462C271.042 51.9462 271.169 52.34 271.169 52.34C270.794 52.9428 270.171 53.8811 269.567 54.7319C268.715 55.9376 267.566 56.4773 266.607 56.4773C266.441 56.4773 266.295 56.4773 266.149 56.4384C264.898 58.3102 263.398 60.0555 262.356 60.0555C261.022 60.0555 260.501 59.2047 260.501 57.9553H260.506ZM264.902 55.5001C264.8 55.2716 264.737 54.9993 264.737 54.7076C264.737 54.2701 264.839 53.7742 265.131 53.1908H265.068C264.172 53.1908 261.962 56.2488 261.962 58.6408C261.962 58.8255 262.044 58.913 262.171 58.913C262.736 58.913 264.109 57.0801 264.902 55.5001Z" fill="#21B4E9"/>
</g>
<defs>
<clipPath id="clip0_4_237">
<rect width="304" height="74.3842" fill="white"/>
</clipPath>
</defs>
</svg>
