<svg width="225" height="53" viewBox="0 0 225 53" fill="none" xmlns="http://www.w3.org/2000/svg">
<path d="M202.42 40C206.913 40 212 37.374 212 31.7151C212 28.2014 210.069 26.0192 205.205 24.0589L203.423 23.3562C200.749 22.3205 200.192 21.5438 200.192 20.5822C200.192 19.3247 201.232 18.7329 202.606 18.7329C203.98 18.7329 205.242 19.4356 206.393 21.3589L211.22 18.6219C209.921 15.8479 207.024 13 202.346 13C197.704 13 193.768 15.811 193.768 20.4712C193.768 24.9466 197.222 26.8329 200.638 28.2014L202.271 28.8301C204.611 29.7548 205.205 30.3836 205.205 31.6411C205.205 33.4164 203.831 34.1562 202.309 34.1562C200.006 34.1562 198.818 32.4548 198.076 30.9384L192.803 33.3794C193.805 37.226 197.741 40 202.42 40Z" fill="#270089"/>
<path d="M177.731 39.6823H193.596V33.7039H184.27V29.3592H191.776V23.455H184.27V19.2961H193.299V13.3176H177.731V39.6823Z" fill="#270089"/>
<path d="M152.981 39.6823H159.506V24.012H159.692L169.777 39.6823H176.303V13.3176H169.777V28.9879H169.592L159.506 13.3176H152.981V39.6823Z" fill="#270089"/>
<path d="M139.355 40C146.814 40 152.981 34.526 152.981 26.5C152.981 18.474 146.814 13 139.355 13C131.859 13 125.692 18.474 125.692 26.5C125.692 34.526 131.859 40 139.355 40ZM132.376 26.5C132.376 22.0247 135.478 19.1767 139.355 19.1767C143.195 19.1767 146.297 22.0247 146.297 26.5C146.297 30.9753 143.195 33.8233 139.355 33.8233C135.478 33.8233 132.376 30.9753 132.376 26.5Z" fill="#270089"/>
<path d="M119.188 39.6823H125.692V13.3176H119.188V39.6823Z" fill="#270089"/>
<path d="M122.916 25.8647L119.188 22.2118V25.8647H122.916Z" fill="#3CB4E5"/>
<path d="M108.417 40C112.257 40 116.651 38.5945 119.346 33.8973L114.657 30.6425C113.291 32.7137 111.334 33.8233 108.675 33.8233C104.761 33.8233 101.438 31.1603 101.438 26.5C101.438 21.9137 104.687 19.1767 108.601 19.1767C111.186 19.1767 113.291 20.2863 114.657 22.3205L119.346 19.1027C116.651 14.4055 112.294 13 108.454 13C101.032 13 94.7548 18.2521 94.7548 26.5C94.7548 34.7479 100.995 40 108.417 40Z" fill="#270089"/>
<path d="M84.4608 40C90.1262 40 94.7548 36.3682 94.7548 29.5494V13.3176H88.2378V29.5865C88.2378 33.2923 85.942 33.8853 84.4608 33.8853C82.9427 33.8853 80.6469 33.2923 80.6469 29.5865V13.3176H74.1298V29.5494C74.1298 36.3682 78.7584 40 84.4608 40Z" fill="#270089"/>
<path d="M59.2163 39.6823H74.9231V33.8059H65.7404V13.3176H59.2163V39.6823Z" fill="#270089"/>
<path d="M66.1178 33.8059H70.0841L64.9279 39.6824H60.4856L66.1178 33.8059Z" fill="#DF1683"/>
<path d="M72.8606 33.8059H74.9231V35.95L71.5913 39.6824H67.149L72.8606 33.8059Z" fill="#C2D500"/>
<path d="M59.2163 33.8059H63.3413L59.2163 38.1736V35.7118V33.8059Z" fill="#3CB4E5"/>
<path d="M45.7492 40C53.2083 40 59.375 34.526 59.375 26.5C59.375 18.474 53.2083 13 45.7492 13C38.2532 13 32.0865 18.474 32.0865 26.5C32.0865 34.526 38.2532 40 45.7492 40ZM38.7702 26.5C38.7702 22.0247 41.872 19.1767 45.7492 19.1767C49.5896 19.1767 52.6914 22.0247 52.6914 26.5C52.6914 30.9753 49.5896 33.8233 45.7492 33.8233C41.872 33.8233 38.7702 30.9753 38.7702 26.5Z" fill="#270089"/>
<path d="M23.6171 40C28.1101 40 33.1971 37.374 33.1971 31.7151C33.1971 28.2014 31.2663 26.0192 26.402 24.0589L24.6197 23.3562C21.9462 22.3205 21.3892 21.5438 21.3892 20.5822C21.3892 19.3247 22.4289 18.7329 23.8028 18.7329C25.1767 18.7329 26.4391 19.4356 27.5902 21.3589L32.4173 18.6219C31.1177 15.8479 28.2215 13 23.5429 13C18.9014 13 14.9654 15.811 14.9654 20.4712C14.9654 24.9466 18.4187 26.8329 21.8348 28.2014L23.4686 28.8301C25.8079 29.7548 26.402 30.3836 26.402 31.6411C26.402 33.4164 25.0281 34.1562 23.5057 34.1562C21.2036 34.1562 20.0153 32.4548 19.2727 30.9384L14 33.3794C15.0026 37.226 18.9385 40 23.6171 40Z" fill="#270089"/>
<path d="M141.979 25.9467L139.733 23.7206L137.404 25.9467L135.687 27.67L135.788 27.7706L137.115 29.3588L139.692 26.9946L142.113 29.3588L143.762 27.7706L143.779 27.752L141.979 25.9467Z" fill="#3CB4E5"/>
<path d="M125.692 17.7647L121.091 13.3176H125.692V17.7647Z" fill="#C2D500"/>
<path d="M125.692 20.9412L119.188 14.7471V19.1147L125.692 25.5471V20.9412Z" fill="#DF1683"/>
</svg>
