<svg width="150" height="14" viewBox="0 0 150 14" fill="none" xmlns="http://www.w3.org/2000/svg">
<path d="M80.122 0L94.5275 13.8961H82.2414L68.4907 0.0347629L80.122 0Z" fill="#C2D500"/>
<path d="M55.3776 0H60.6806L74.4528 13.8961H62.8474L49.1096 0H55.3776Z" fill="#004987"/>
<path d="M37.5603 0L41.5838 0.00869238L55.3604 13.8961H43.7593L30.0215 0H37.5603Z" fill="#DF1683"/>
<path d="M6.27226 7.51296L14.0997 0L22.2157 7.51296L28.1993 13.5442L27.8504 13.8961H16.9385L14.2418 11.1804L11.5494 13.8961H0.0603099L0 13.831L6.27226 7.51296Z" fill="#3CB4E5"/>
<path d="M102.157 0L113.573 11.554L113.62 11.5062L115.994 13.8961H104.203L90.7581 0H102.157Z" fill="#3CB4E5"/>
<path d="M127.789 7.51296L135.84 0L143.732 7.51296L150 13.831L149.94 13.8961H138.451L135.758 11.1804L133.066 13.8961H122.154L121.801 13.5442L127.789 7.51296Z" fill="#FFCD00"/>
</svg>
