<svg width="80" height="80" viewBox="0 0 80 80" fill="none" xmlns="http://www.w3.org/2000/svg">
<path d="M11.0745 45.7905C10.7018 43.9181 10.5063 41.9819 10.5063 40C10.5063 23.7109 23.7111 10.5061 40.0002 10.5061C56.2893 10.5061 69.494 23.7109 69.494 40C69.494 56.2891 56.2892 69.4938 40.0002 69.4938C27.5576 69.4938 16.9145 61.789 12.5819 50.8902" fill="white"/>
<path d="M40.0004 10.5061C37.1726 10.5061 34.438 10.9044 31.8491 11.6474C44.1733 15.1842 53.1914 26.5388 53.1914 40C53.1914 53.4608 44.1741 64.8149 31.8507 68.3521C34.4392 69.0948 37.1731 69.4939 40.0004 69.4939C56.2895 69.4939 69.4942 56.2891 69.4942 40C69.4942 23.711 56.2895 10.5061 40.0004 10.5061Z" fill="white"/>
<path d="M40.0002 62.2324C34.0617 62.2324 28.4787 59.9199 24.2795 55.7207C20.0804 51.5216 17.7678 45.9385 17.7678 40C17.7678 34.0616 20.0804 28.4785 24.2795 24.2794C28.4787 20.0802 34.0617 17.7676 40.0002 17.7676C45.9387 17.7676 51.5217 20.0802 55.7208 24.2794C59.9199 28.4785 62.2325 34.0616 62.2325 40C62.2325 45.9385 59.9199 51.5216 55.7208 55.7207C51.5217 59.9199 45.9387 62.2324 40.0002 62.2324ZM40.0002 18.78C28.2995 18.78 18.7802 28.2993 18.7802 40C18.7802 51.7008 28.2995 61.22 40.0002 61.22C51.7009 61.22 61.2201 51.7008 61.2201 40C61.2201 28.2993 51.7009 18.78 40.0002 18.78Z" fill="#E3D9FA"/>
<path d="M36.7466 28.5598C36.7466 28.295 36.7296 28.0343 36.6965 27.7785C36.5809 26.241 36.1978 23.2499 34.9308 20.2879C34.8358 20.0099 34.7142 19.7444 34.5689 19.4941C34.5671 19.4905 34.5655 19.4868 34.5637 19.4831H34.5626C33.7874 18.1562 32.3489 17.2642 30.7012 17.2642C29.0534 17.2642 27.6149 18.1563 26.8397 19.4831H26.8386C26.8386 19.4831 24.8041 22.8318 24.6634 28.2484C24.6582 28.3516 24.6555 28.4554 24.6555 28.5598C24.6555 28.5893 24.6563 28.6187 24.6567 28.6481C24.6562 28.7111 24.6555 28.7741 24.6555 28.8376H24.6621C24.7879 31.6198 26.7943 33.9119 29.4403 34.4733L27.7222 60.6177C27.7153 60.6851 27.7111 60.7533 27.7087 60.8219L27.7016 60.9303H27.7061C27.7061 62.5919 29.0531 63.939 30.7148 63.939C32.3764 63.939 33.7235 62.5919 33.7235 60.9303C33.7235 60.7188 33.7015 60.5126 33.66 60.3134L31.9619 34.4733C34.6079 33.9118 36.6143 31.6198 36.7401 28.8375H36.7466C36.7466 28.8375 36.7466 28.7931 36.7448 28.7095C36.746 28.6597 36.7466 28.6099 36.7466 28.5598Z" fill="#F154A9"/>
<path d="M53.4764 17.746C52.771 17.746 52.1992 18.3178 52.1992 19.0231V29.2917H50.9857V18.5417C50.9857 18.1023 50.6295 17.746 50.1901 17.746C49.7505 17.746 49.3943 18.1023 49.3943 18.5417V29.2918H48.7199H48.7082H48.0338V18.5417C48.0338 18.1023 47.6776 17.746 47.2381 17.746C46.7986 17.746 46.4423 18.1023 46.4423 18.5417V29.2918H45.217V19.0232C45.217 18.3178 44.6451 17.746 43.9398 17.746C43.2345 17.746 42.6625 18.3179 42.6625 19.0232V30.0298H42.6745C42.6745 30.0298 43.8768 34.4009 47.4755 34.4009H47.4406L45.7178 60.6176C45.7107 60.685 45.7068 60.7532 45.7044 60.8218L45.6972 60.9302H45.7016C45.7016 62.5918 47.0486 63.9389 48.7104 63.9389C50.372 63.9389 51.7191 62.5918 51.7191 60.9302C51.7191 60.7188 51.697 60.5126 51.6556 60.3134L49.9526 34.4009C53.5513 34.4009 54.7536 30.0298 54.7536 30.0298V19.0232C54.7536 18.3178 54.1818 17.746 53.4764 17.746Z" fill="#F154A9"/>
<path d="M35 32C34.3334 26 31.3334 19.6666 27.3334 18.6666C27.8889 18.1111 29.6667 17.2 32.3334 18C35 18.8 36.1112 24.7778 36.3334 27.6666V28C36.3334 30.4 35.4445 31.6666 35 32Z" fill="#F154A9"/>
<path d="M29.039 32.3575C28.9715 32.3575 28.9029 32.3425 28.8384 32.3104C27.1683 31.4863 26.5928 30.2174 26.4042 29.298C26.2012 28.3093 26.3954 27.5121 26.4038 27.4786C26.4646 27.2353 26.7113 27.0875 26.9545 27.1482C27.1974 27.209 27.3452 27.4547 27.2852 27.6976C27.2592 27.8057 26.705 30.2447 29.2404 31.496C29.4654 31.607 29.5576 31.8793 29.4467 32.1042C29.3675 32.2646 29.2064 32.3575 29.039 32.3575Z" fill="#A1005E"/>
<path d="M30.7149 64.3931C28.8271 64.3931 27.2872 62.8747 27.2527 60.9948C27.248 60.9638 27.2466 60.9322 27.2487 60.9005L27.2553 60.7988C27.2583 60.7189 27.2629 60.647 27.2697 60.5797L28.9623 34.8239C26.295 34.0869 24.3731 31.7254 24.2127 28.9385C24.2053 28.906 24.2014 28.8722 24.2014 28.8376C24.2014 28.7889 24.2018 28.7406 24.2022 28.6923L24.2025 28.6498L24.2021 28.6238C24.2017 28.6025 24.2014 28.5812 24.2014 28.5599C24.2014 28.4508 24.2042 28.3402 24.2095 28.2309C24.353 22.7601 26.3649 19.3883 26.4505 19.2474C26.4544 19.2408 26.4586 19.2343 26.4629 19.2279C27.3472 17.7358 28.9683 16.8101 30.7012 16.8101C32.4342 16.8101 34.0554 17.7359 34.9397 19.2285C34.9513 19.2455 34.9617 19.2635 34.9711 19.2823C35.1252 19.5502 35.2542 19.8334 35.355 20.1247C36.6415 23.1396 37.031 26.1797 37.1486 27.7327C37.1834 28.0053 37.2009 28.2836 37.2009 28.5599C37.2009 28.6101 37.2003 28.6601 37.1991 28.71C37.2009 28.7935 37.2009 28.8376 37.2009 28.8376C37.2009 28.8719 37.1971 28.9054 37.1898 28.9375C37.0298 31.7249 35.1076 34.0869 32.44 34.824L34.1112 60.2531C34.1553 60.4757 34.1777 60.7033 34.1777 60.9303C34.1778 62.8397 32.6244 64.3931 30.7149 64.3931ZM28.1591 60.8969C28.16 60.908 28.1604 60.9191 28.1604 60.9303C28.1604 62.3389 29.3063 63.4849 30.7149 63.4849C32.1236 63.4849 33.2696 62.3389 33.2696 60.9303C33.2696 60.7544 33.2514 60.5781 33.2156 60.4061C33.2112 60.3853 33.2084 60.3644 33.207 60.3432L31.509 34.5031C31.4942 34.2778 31.647 34.0759 31.8678 34.0291C34.3545 33.5015 36.1717 31.3582 36.2866 28.8171C36.2874 28.7996 36.2892 28.7825 36.2918 28.7657C36.2916 28.7522 36.2913 28.7369 36.2909 28.7198C36.2908 28.7127 36.2908 28.7056 36.2909 28.6984C36.2921 28.6524 36.2927 28.6061 36.2927 28.5598C36.2927 28.3181 36.2771 28.0748 36.2464 27.8366C36.2453 27.8286 36.2445 27.8206 36.2439 27.8125C36.1313 26.3168 35.7569 23.3736 34.5135 20.4665C34.509 20.4561 34.505 20.4454 34.5012 20.4348C34.4169 20.1881 34.3077 19.9483 34.1764 19.7221C34.175 19.7198 34.1737 19.7174 34.1725 19.7151C34.1718 19.7141 34.1713 19.7132 34.1707 19.7122C33.4521 18.4823 32.1228 17.7182 30.7014 17.7182C29.28 17.7182 27.9506 18.4823 27.232 19.7122C27.2268 19.7211 27.2213 19.7299 27.2155 19.7383C27.0539 20.0178 25.2478 23.2512 25.1176 28.26C25.1175 28.2638 25.1175 28.2674 25.1172 28.2712C25.1123 28.367 25.1099 28.4641 25.1099 28.5597C25.1099 28.576 25.1101 28.5922 25.1105 28.6085L25.1109 28.6429C25.111 28.6456 25.111 28.6484 25.111 28.6511L25.1106 28.6994C25.1105 28.72 25.1103 28.7407 25.1101 28.7614C25.1132 28.7795 25.1152 28.7982 25.1161 28.817C25.2309 31.3581 27.048 33.5013 29.5348 34.029C29.7557 34.0759 29.9085 34.2777 29.8937 34.503L28.1756 60.6473C28.1753 60.653 28.1748 60.6587 28.1741 60.6644C28.1689 60.7156 28.1651 60.7723 28.1628 60.838C28.1626 60.8426 28.1624 60.847 28.1622 60.8515L28.1591 60.8969Z" fill="#270089"/>
<path d="M54.3647 28.9966C54.3837 24.8215 53.0536 20.8768 52.3334 19.3334C52.2222 18.7778 52.2667 17.6667 53.3334 17.6667C54.4 17.6667 54.6667 18.7778 54.6667 19.3334L54.3647 28.9966C54.3632 29.33 54.3531 29.6648 54.3334 30L54.3647 28.9966Z" fill="#F154A9"/>
<path d="M48.7099 64.3931C46.822 64.3931 45.2821 62.8747 45.2476 60.9948C45.2429 60.9638 45.2416 60.9322 45.2437 60.9004L45.2503 60.7988C45.2532 60.7188 45.258 60.647 45.2647 60.5798L46.9571 34.8266C45.5446 34.6694 44.306 33.8636 43.3506 32.4725C42.6929 31.5146 42.3639 30.5643 42.2669 30.2539C42.2294 30.1878 42.2078 30.1113 42.2078 30.0298V19.0232C42.2078 18.0685 42.9846 17.2919 43.9392 17.2919C44.8938 17.2919 45.6707 18.0686 45.6707 19.0232V28.8376H45.9877V18.5417C45.9877 17.8525 46.5484 17.2919 47.2376 17.2919C47.9268 17.2919 48.4874 17.8526 48.4874 18.5417V28.8376H48.9397V18.5417C48.9397 17.8525 49.5004 17.2919 50.1896 17.2919C50.8787 17.2919 51.4395 17.8526 51.4395 18.5417V28.8376H51.7446V19.0232C51.7446 18.0685 52.5213 17.2919 53.476 17.2919C54.4307 17.2919 55.2073 18.0686 55.2073 19.0232V30.0298C55.2073 30.0704 55.2019 30.111 55.191 30.1502C55.1779 30.1977 54.8612 31.3297 54.0765 32.4724C53.1135 33.8748 51.8622 34.6824 50.4354 34.8302L52.1061 60.253C52.1502 60.4756 52.1726 60.7032 52.1726 60.9301C52.1728 62.8397 50.6193 64.3931 48.7099 64.3931ZM46.1541 60.8969C46.155 60.908 46.1554 60.9191 46.1554 60.9303C46.1554 62.3389 47.3014 63.4849 48.71 63.4849C50.1186 63.4849 51.2646 62.3389 51.2646 60.9303C51.2646 60.7544 51.2465 60.5781 51.2107 60.4061C51.2063 60.3853 51.2035 60.3644 51.2021 60.3432L49.4993 34.4307C49.491 34.3054 49.5351 34.1823 49.6209 34.0906C49.7068 33.9988 49.8269 33.9468 49.9524 33.9468C52.9618 33.9468 54.1502 30.4457 54.2994 29.9638V19.0232C54.2994 18.5693 53.9302 18.2001 53.4763 18.2001C53.0224 18.2001 52.6532 18.5693 52.6532 19.0232V29.2918C52.6532 29.5426 52.4499 29.746 52.1991 29.746H50.9856C50.7348 29.746 50.5315 29.5426 50.5315 29.2918V18.5417C50.5315 18.3534 50.3782 18.2001 50.1899 18.2001C50.0016 18.2001 49.8483 18.3533 49.8483 18.5417V29.2918C49.8483 29.5426 49.645 29.746 49.3942 29.746H48.0336C47.7827 29.746 47.5794 29.5426 47.5794 29.2918V18.5417C47.5794 18.3534 47.4262 18.2001 47.2379 18.2001C47.0496 18.2001 46.8963 18.3533 46.8963 18.5417V29.2918C46.8963 29.5426 46.6929 29.746 46.4421 29.746H45.2168C44.966 29.746 44.7626 29.5426 44.7626 29.2918V19.0232C44.7626 18.5693 44.3934 18.2001 43.9396 18.2001C43.4857 18.2001 43.1165 18.5693 43.1165 19.0232V29.9243C43.1553 30.0559 43.4553 31.0273 44.1134 31.9782C45.0174 33.2844 46.1487 33.9467 47.4754 33.9467C47.7262 33.9467 47.9294 34.1501 47.9294 34.4009C47.9294 34.4734 47.9125 34.5419 47.8824 34.6026L46.1708 60.6473C46.1704 60.653 46.1699 60.6587 46.1693 60.6644C46.1641 60.7156 46.1603 60.7723 46.158 60.838C46.1578 60.8425 46.1575 60.8469 46.1572 60.8515L46.1541 60.8969Z" fill="#270089"/>
<path fill-rule="evenodd" clip-rule="evenodd" d="M40 11.3333C23.7997 11.3333 10.6667 24.4663 10.6667 40.6667C10.6667 41.959 10.7502 43.2315 10.9121 44.4791C10.9595 44.8443 10.7019 45.1787 10.3368 45.226C9.97163 45.2734 9.63723 45.0158 9.58985 44.6507C9.4206 43.3463 9.33334 42.0165 9.33334 40.6667C9.33334 23.7299 23.0633 10 40 10C56.9367 10 70.6667 23.7299 70.6667 40.6667C70.6667 57.6034 56.9367 71.3333 40 71.3333C26.9513 71.3333 15.8077 63.1839 11.378 51.6994C11.2455 51.3559 11.4166 50.97 11.7601 50.8375C12.1036 50.705 12.4895 50.876 12.622 51.2196C16.86 62.2069 27.5207 70 40 70C56.2004 70 69.3333 56.867 69.3333 40.6667C69.3333 24.4663 56.2004 11.3333 40 11.3333ZM10.4093 45.6785C10.7709 45.6094 11.1201 45.8465 11.1892 46.2082C11.3797 47.2046 11.6206 48.1832 11.9092 49.141C12.0154 49.4936 11.8157 49.8655 11.4632 49.9717C11.1106 50.0779 10.7387 49.8782 10.6325 49.5256C10.3307 48.5239 10.0788 47.5005 9.87962 46.4585C9.81049 46.0969 10.0476 45.7477 10.4093 45.6785Z" fill="#270089"/>
</svg>
