<svg width="80" height="80" viewBox="0 0 80 80" fill="none" xmlns="http://www.w3.org/2000/svg">
<path d="M59.4872 33.5043C59.4872 44.3297 50.7114 53.1054 39.886 53.1054C29.0606 53.1054 20.2849 44.3297 20.2849 33.5043C20.2849 22.6789 29.0606 13.9031 39.886 13.9031C50.7114 13.9031 59.4872 22.6789 59.4872 33.5043Z" fill="white"/>
<path fill-rule="evenodd" clip-rule="evenodd" d="M39.886 51.7195C49.946 51.7195 58.1012 43.5643 58.1012 33.5043C58.1012 23.4443 49.946 15.2891 39.886 15.2891C29.8261 15.2891 21.6708 23.4443 21.6708 33.5043C21.6708 43.5643 29.8261 51.7195 39.886 51.7195ZM39.886 53.1054C50.7114 53.1054 59.4872 44.3297 59.4872 33.5043C59.4872 22.6789 50.7114 13.9031 39.886 13.9031C29.0606 13.9031 20.2849 22.6789 20.2849 33.5043C20.2849 44.3297 29.0606 53.1054 39.886 53.1054Z" fill="#270089"/>
<path d="M55.1314 33.5043C55.1314 41.924 48.3058 48.7496 39.886 48.7496C31.4663 48.7496 24.6407 41.924 24.6407 33.5043C24.6407 25.0845 31.4663 18.2589 39.886 18.2589C48.3058 18.2589 55.1314 25.0845 55.1314 33.5043Z" fill="white"/>
<path fill-rule="evenodd" clip-rule="evenodd" d="M39.886 47.3637C47.5404 47.3637 53.7454 41.1586 53.7454 33.5043C53.7454 25.8499 47.5404 19.6449 39.886 19.6449C32.2317 19.6449 26.0266 25.8499 26.0266 33.5043C26.0266 41.1586 32.2317 47.3637 39.886 47.3637ZM39.886 48.7496C48.3058 48.7496 55.1314 41.924 55.1314 33.5043C55.1314 25.0845 48.3058 18.2589 39.886 18.2589C31.4663 18.2589 24.6407 25.0845 24.6407 33.5043C24.6407 41.924 31.4663 48.7496 39.886 48.7496Z" fill="#E3D9FA"/>
<path d="M36.9162 52.1155H42.8559V61.0251H36.9162V52.1155Z" fill="white"/>
<path fill-rule="evenodd" clip-rule="evenodd" d="M41.47 53.5014H38.3021V59.6391H41.47V53.5014ZM36.9162 52.1155V61.0251H42.8559V52.1155H36.9162Z" fill="#270089"/>
<path d="M44.8358 59.6391L46.6177 63.599L33.0553 63.599L34.9363 59.6391L44.8358 59.6391Z" fill="white"/>
<path fill-rule="evenodd" clip-rule="evenodd" d="M47.1997 63.9752C47.072 64.1727 46.8529 64.2919 46.6177 64.2919L33.0553 64.2919C32.8177 64.2919 32.5966 64.1701 32.4696 63.9692C32.3426 63.7683 32.3274 63.5163 32.4294 63.3016L34.3103 59.3418C34.4251 59.1002 34.6687 58.9462 34.9363 58.9462L44.8358 58.9462C45.1085 58.9462 45.3558 59.1061 45.4678 59.3548L47.2497 63.3146C47.3462 63.529 47.3273 63.7778 47.1997 63.9752ZM44.3878 60.3321L35.3743 60.3321L34.1517 62.906L45.546 62.906L44.3878 60.3321Z" fill="#270089"/>
<path fill-rule="evenodd" clip-rule="evenodd" d="M46.6002 20.5645C46.6002 20.5645 46.6002 20.5645 47.1127 21.0308C47.6253 21.4972 47.6253 21.4972 47.6252 21.4973L47.587 21.5392C47.562 21.5666 47.5252 21.6069 47.4778 21.6588C47.383 21.7626 47.2458 21.9127 47.0757 22.098C46.7357 22.4685 46.2643 22.9802 45.7391 23.5446C44.6919 24.6702 43.4198 26.0174 42.5492 26.8713C42.2759 27.1393 41.8372 27.1351 41.5692 26.8618C41.3012 26.5886 41.3055 26.1498 41.5787 25.8819C42.424 25.0529 43.6763 23.7272 44.7245 22.6006C45.247 22.039 45.7161 21.5297 46.0546 21.1609C46.2238 20.9765 46.3603 20.8272 46.4545 20.7242C46.5016 20.6726 46.5381 20.6326 46.5628 20.6055L46.6002 20.5645Z" fill="#E3D9FA"/>
<path fill-rule="evenodd" clip-rule="evenodd" d="M49.9762 22.7314C49.9762 22.7314 49.9762 22.7314 50.4786 23.2087C50.9809 23.6861 50.9809 23.6861 50.9808 23.6862L50.9806 23.6864L50.9096 23.7611C50.8629 23.8102 50.7943 23.8823 50.7064 23.9747C50.5306 24.1595 50.2776 24.4253 49.9686 24.7495C49.3506 25.3979 48.5087 26.28 47.6131 27.2148C45.8261 29.0801 43.8127 31.1683 42.9452 32.0191C42.6719 32.2871 42.2332 32.2828 41.9652 32.0096C41.6972 31.7363 41.7015 31.2976 41.9747 31.0296C42.8231 30.1975 44.819 28.1279 46.6123 26.256C47.5069 25.3223 48.3479 24.4411 48.9653 23.7933C49.274 23.4694 49.5268 23.2039 49.7024 23.0193C49.7902 22.9271 49.8587 22.8551 49.9052 22.8061L49.9762 22.7314Z" fill="#E3D9FA"/>
<path fill-rule="evenodd" clip-rule="evenodd" d="M41.6167 32.5845C41.9107 32.8295 41.9503 33.2665 41.7053 33.5605L41.2103 34.1542C40.9652 34.4482 40.5283 34.4879 40.2343 34.2428C39.9403 33.9978 39.9007 33.5608 40.1457 33.2668L40.6407 32.673C40.8857 32.3791 41.3227 32.3394 41.6167 32.5845Z" fill="#E3D9FA"/>
<path d="M22.2351 52.7785H29.4222V65.4103H22.2351V52.7785Z" fill="white"/>
<path fill-rule="evenodd" clip-rule="evenodd" d="M21.4728 52.7785C21.4728 52.3575 21.8141 52.0162 22.2351 52.0162H29.4222C29.8432 52.0162 30.1845 52.3575 30.1845 52.7785V65.4103C30.1845 65.8313 29.8432 66.1726 29.4222 66.1726H22.2351C21.8141 66.1726 21.4728 65.8313 21.4728 65.4103V52.7785ZM22.9974 53.5408V64.6481H28.6599V53.5408H22.9974Z" fill="#270089"/>
<path d="M22.8885 49.7295H28.551V52.7785H22.8885V49.7295Z" fill="white"/>
<path fill-rule="evenodd" clip-rule="evenodd" d="M22.1262 49.7294C22.1262 49.3084 22.4675 48.9672 22.8885 48.9672H28.551C28.972 48.9672 29.3133 49.3084 29.3133 49.7294V52.7785C29.3133 53.1995 28.972 53.5408 28.551 53.5408H22.8885C22.4675 53.5408 22.1262 53.1995 22.1262 52.7785V49.7294ZM23.6507 50.4917V52.0162H27.7888V50.4917H23.6507Z" fill="#270089"/>
<path d="M22.8885 44.8292C22.8885 44.8292 23.8685 43.5224 25.502 42.1068C27.0546 40.7612 28.551 41.0178 28.551 41.0178V50.165H22.8885V44.8292Z" fill="#A1005E"/>
<path fill-rule="evenodd" clip-rule="evenodd" d="M27.746 41.8075C27.2948 41.8901 26.6622 42.1099 26.0012 42.6828C25.2143 43.3648 24.5841 44.0212 24.1516 44.5062C23.9356 44.7484 23.7697 44.9469 23.659 45.0833C23.6562 45.0867 23.6535 45.0901 23.6507 45.0934V49.4028H27.7888V41.8C27.7747 41.8024 27.7605 41.8049 27.746 41.8075ZM28.551 41.0178L28.6799 40.2665C29.0458 40.3293 29.3133 40.6466 29.3133 41.0178V50.165C29.3133 50.586 28.972 50.9273 28.551 50.9273H22.8885C22.4675 50.9273 22.1262 50.586 22.1262 50.165V44.8292C22.1262 44.6642 22.1797 44.5038 22.2787 44.3718L22.8885 44.8292C22.2787 44.3718 22.2787 44.3717 22.2788 44.3716L22.2804 44.3695L22.2836 44.3653L22.2942 44.3513C22.3032 44.3396 22.316 44.323 22.3324 44.3018C22.3654 44.2595 22.4133 44.1989 22.4753 44.1225C22.5994 43.9696 22.7806 43.7529 23.0138 43.4915C23.4796 42.9692 24.1562 42.2644 25.0027 41.5307C25.8944 40.758 26.7863 40.4333 27.4715 40.3079C27.8118 40.2456 28.0986 40.2328 28.307 40.2366C28.4114 40.2385 28.4965 40.2446 28.5595 40.2509C28.591 40.2541 28.617 40.2573 28.6372 40.26C28.6473 40.2614 28.6559 40.2627 28.663 40.2638L28.6726 40.2653L28.6765 40.266L28.6783 40.2663L28.6791 40.2664C28.6795 40.2665 28.6799 40.2665 28.551 41.0178Z" fill="#270089"/>
<path d="M24.1971 48.9921C24.3496 48.1724 24.8642 47.4374 25.5389 46.8238C26.1005 46.3131 26.7412 45.9167 27.2888 45.6566V48.9921H24.1971Z" fill="#F154A9" stroke="#F154A9"/>
</svg>
