<svg width="80" height="80" viewBox="0 0 80 80" fill="none" xmlns="http://www.w3.org/2000/svg">
<path d="M59.1982 39.5474V73.2464H21.0957V23.2463H59.1982V28.8299" fill="white"/>
<path d="M59.1985 74H21.096C20.6798 74 20.3425 73.6627 20.3425 73.2464V23.2463C20.3425 22.8301 20.6798 22.4927 21.096 22.4927H59.1985C59.6147 22.4927 59.952 22.8301 59.952 23.2463V28.8298C59.952 29.2461 59.6147 29.5835 59.1985 29.5835C58.7822 29.5835 58.4448 29.2461 58.4448 28.8298V23.9999H21.8496V72.4928H58.4448V39.5474C58.4448 39.1312 58.7822 38.7937 59.1985 38.7937C59.6147 38.7937 59.952 39.1312 59.952 39.5474V73.2465C59.952 73.6627 59.6147 74 59.1985 74Z" fill="#270089"/>
<path d="M30.3297 29.3717H26.9754V34.4849H30.3297V29.3717Z" fill="#E3D9FA"/>
<path d="M37.9925 29.3717H34.6382V34.4852H37.9925V29.3717Z" fill="#E3D9FA"/>
<path d="M45.6561 29.3717H42.3016V34.4852H45.6561V29.3717Z" fill="#E3D9FA"/>
<path d="M53.3191 29.3717H49.9648V34.4852H53.3191V29.3717Z" fill="#E3D9FA"/>
<path d="M30.3297 39.8752H26.9754V44.9884H30.3297V39.8752Z" fill="#E3D9FA"/>
<path d="M37.9925 39.8745H34.6382V44.9878H37.9925V39.8745Z" fill="#E3D9FA"/>
<path d="M45.6561 39.8745H42.3016V44.9878H45.6561V39.8745Z" fill="#E3D9FA"/>
<path d="M53.3191 39.8745H49.9648V44.9878H53.3191V39.8745Z" fill="#E3D9FA"/>
<path d="M30.3297 50.378H26.9754V55.4912H30.3297V50.378Z" fill="#E3D9FA"/>
<path d="M37.9925 50.3773H34.6382V55.4906H37.9925V50.3773Z" fill="#E3D9FA"/>
<path d="M45.6561 50.3773H42.3016V55.4906H45.6561V50.3773Z" fill="#E3D9FA"/>
<path d="M53.3191 50.3773H49.9648V55.4906H53.3191V50.3773Z" fill="#E3D9FA"/>
<path d="M48.4377 60.7369H31.8056V73.2133H48.4377V60.7369Z" fill="#A1005E"/>
<path d="M48.4377 73.8664H31.8056C31.4449 73.8664 31.1525 73.5739 31.1525 73.2133V60.7368C31.1525 60.3761 31.4449 60.0836 31.8056 60.0836H48.4377C48.7984 60.0836 49.0908 60.3761 49.0908 60.7368V73.2133C49.0908 73.5739 48.7984 73.8664 48.4377 73.8664ZM32.4587 72.5601H47.7845V61.3899H32.4587V72.5601Z" fill="#E3D9FA"/>
<path d="M45.162 63.6821H35.1329V73.2133H45.162V63.6821Z" fill="#F154A9"/>
<path d="M45.162 73.8664H35.1329C34.7723 73.8664 34.4798 73.574 34.4798 73.2133V63.6821C34.4798 63.3214 34.7723 63.029 35.1329 63.029H45.162C45.5227 63.029 45.8151 63.3214 45.8151 63.6821V73.2133C45.8151 73.574 45.5227 73.8664 45.162 73.8664ZM35.786 72.5602H44.5089V64.3352H35.786V72.5602Z" fill="#E3D9FA"/>
<path d="M21.4451 62.3317C21.5095 62.1143 21.5454 61.8847 21.5454 61.6463C21.5454 60.726 21.0292 59.927 20.2707 59.5212C20.2294 58.3833 19.4013 57.4477 18.3127 57.2433C17.8322 56.7193 17.1441 56.3887 16.377 56.3887C14.9252 56.3887 13.7483 57.5657 13.7483 59.0174C13.7483 59.6241 13.9559 60.1814 14.3012 60.6262C13.367 60.9579 12.6968 61.8468 12.6968 62.8947C12.6968 63.4494 12.8862 63.9589 13.2014 64.3663C12.8583 64.8314 12.6531 65.4044 12.6531 66.0267C12.6531 67.5752 13.9083 68.8301 15.4566 68.8301C16.3365 68.8301 17.1208 68.4242 17.6347 67.7902C18.0318 67.9519 18.4658 68.0417 18.921 68.0417C20.8058 68.0417 22.3339 66.5138 22.3339 64.6286C22.334 63.7441 21.9973 62.9381 21.4451 62.3317Z" fill="#F154A9"/>
<path d="M15.4567 69.4834C13.5507 69.4834 12 67.9329 12 66.0269C12 65.4425 12.1457 64.8781 12.4245 64.3714C12.1743 63.9209 12.0438 63.4182 12.0438 62.8949C12.0438 61.8686 12.5609 60.9262 13.3847 60.365C13.194 59.945 13.0953 59.4891 13.0953 59.0176C13.0953 57.208 14.5676 55.7358 16.3772 55.7358C17.2204 55.7358 18.035 56.0661 18.644 56.6486C19.8312 56.9572 20.705 57.9319 20.8895 59.1359C21.7049 59.705 22.1987 60.6374 22.1987 61.6465C22.1987 61.8193 22.1839 61.9921 22.1543 62.163C22.6936 62.8692 22.9872 63.7324 22.9872 64.629C22.9872 66.871 21.1632 68.695 18.9212 68.695C18.5473 68.695 18.1801 68.6446 17.8242 68.5447C17.1863 69.146 16.346 69.4834 15.4567 69.4834ZM16.3771 57.0421C15.2877 57.0421 14.4014 57.9282 14.4014 59.0176C14.4014 59.4579 14.5451 59.8757 14.817 60.2259C14.9456 60.3915 14.9868 60.6087 14.9279 60.81C14.8689 61.0111 14.7171 61.1719 14.5196 61.242C13.8199 61.4902 13.3499 62.1546 13.3499 62.895C13.3499 63.2852 13.4771 63.6557 13.7179 63.9669C13.8966 64.1979 13.9003 64.5193 13.7269 64.7543C13.4517 65.1276 13.3061 65.5677 13.3061 66.0269C13.3061 67.2126 14.2709 68.1773 15.4566 68.1773C16.1073 68.1773 16.7162 67.8865 17.1274 67.3792C17.3085 67.1558 17.6148 67.0771 17.881 67.1856C18.2122 67.3204 18.5622 67.3888 18.921 67.3888C20.4426 67.3888 21.6808 66.1509 21.6808 64.629C21.6808 63.94 21.4256 63.2805 20.9621 62.7715C20.8083 62.6024 20.7539 62.3653 20.8189 62.1461C20.8675 61.982 20.8922 61.8139 20.8922 61.6465C20.8922 60.9977 20.5361 60.4041 19.9625 60.0973C19.7576 59.9877 19.6264 59.7774 19.618 59.5451C19.5886 58.733 18.9889 58.035 18.1922 57.8855C18.0534 57.8594 17.9267 57.789 17.8313 57.685C17.4512 57.2702 16.9348 57.0421 16.3771 57.0421Z" fill="#270089"/>
<path d="M16.42 73.9404C16.0594 73.9404 15.7669 73.6479 15.7669 73.2873V68.8302C15.7669 68.4695 16.0594 68.1771 16.42 68.1771C16.7807 68.1771 17.0732 68.4695 17.0732 68.8302V73.2873C17.0732 73.648 16.7807 73.9404 16.42 73.9404Z" fill="#270089"/>
<path d="M18.6543 73.9404C18.2936 73.9404 18.0012 73.648 18.0012 73.2873V68.0418C18.0012 67.6811 18.2936 67.3886 18.6543 67.3886C19.015 67.3886 19.3074 67.6811 19.3074 68.0418V73.2873C19.3074 73.6481 19.015 73.9404 18.6543 73.9404Z" fill="#270089"/>
<path d="M58.9701 62.3316C58.9058 62.1143 58.8698 61.8846 58.8698 61.6463C58.8698 60.7259 59.386 59.927 60.1445 59.5211C60.1857 58.3832 61.0139 57.4476 62.1026 57.2432C62.5829 56.7192 63.2711 56.3887 64.0381 56.3887C65.4901 56.3887 66.667 57.5656 66.667 59.0173C66.667 59.624 66.4594 60.1813 66.1141 60.6261C67.0482 60.9578 67.7183 61.8467 67.7183 62.8947C67.7183 63.4494 67.5289 63.9589 67.2138 64.3662C67.5567 64.8313 67.762 65.4043 67.762 66.0267C67.762 67.5751 66.507 68.83 64.9585 68.83C64.0787 68.83 63.2945 68.4241 62.7804 67.7902C62.3834 67.9518 61.9493 68.0416 61.4942 68.0416C59.6094 68.0416 58.0814 66.5138 58.0814 64.6286C58.0814 63.744 58.418 62.938 58.9701 62.3316Z" fill="#F154A9"/>
<path d="M64.9587 69.4834C64.0696 69.4834 63.229 69.1461 62.5914 68.5447C62.2357 68.6446 61.8682 68.695 61.4943 68.695C59.2523 68.695 57.4284 66.8709 57.4284 64.629C57.4284 63.7324 57.7219 62.8692 58.2614 62.163C58.2318 61.9919 58.2169 61.8191 58.2169 61.6465C58.2169 60.6374 58.7105 59.705 59.5261 59.1359C59.7105 57.932 60.5844 56.9573 61.7716 56.6486C62.3804 56.0661 63.195 55.7358 64.0383 55.7358C65.848 55.7358 67.3203 57.208 67.3203 59.0176C67.3203 59.4892 67.2214 59.945 67.0308 60.365C67.8547 60.9262 68.3717 61.8686 68.3717 62.8949C68.3717 63.4182 68.2412 63.921 67.991 64.3715C68.2697 64.8782 68.4153 65.4425 68.4153 66.0269C68.4153 67.9329 66.8647 69.4834 64.9587 69.4834ZM62.7803 67.1372C62.9732 67.1372 63.1611 67.2226 63.2878 67.379C63.6991 67.8862 64.308 68.1772 64.9586 68.1772C66.1443 68.1772 67.109 67.2125 67.109 66.0268C67.109 65.5674 66.9635 65.1274 66.6883 64.7541C66.5151 64.519 66.5188 64.1977 66.6975 63.9668C66.9381 63.6556 67.0654 63.285 67.0654 62.8949C67.0654 62.1546 66.5954 61.4902 65.8957 61.2419C65.6982 61.1718 65.5463 61.011 65.4874 60.8099C65.4286 60.6087 65.4698 60.3915 65.5983 60.2258C65.8702 59.8756 66.014 59.4578 66.014 59.0175C66.014 57.9281 65.1276 57.042 64.0382 57.042C63.4806 57.042 62.9641 57.2701 62.584 57.6847C62.4886 57.7888 62.362 57.8592 62.2232 57.8853C61.4264 58.0349 60.8267 58.7328 60.7973 59.545C60.7888 59.7772 60.6575 59.9875 60.4527 60.0971C59.8793 60.4039 59.523 60.9975 59.523 61.6463C59.523 61.8133 59.5478 61.9816 59.5965 62.1461C59.6614 62.3653 59.607 62.6024 59.4532 62.7713C58.9898 63.2803 58.7346 63.9399 58.7346 64.6288C58.7346 66.1506 59.9725 67.3886 61.4943 67.3886C61.8533 67.3886 62.2031 67.3203 62.5341 67.1854C62.6142 67.1529 62.6978 67.1372 62.7803 67.1372Z" fill="#270089"/>
<path d="M63.995 73.9404C63.6342 73.9404 63.3418 73.6479 63.3418 73.2873V68.8302C63.3418 68.4695 63.6342 68.1771 63.995 68.1771C64.3557 68.1771 64.6481 68.4695 64.6481 68.8302V73.2873C64.6481 73.648 64.3557 73.9404 63.995 73.9404Z" fill="#270089"/>
<path d="M61.761 73.9404C61.4003 73.9404 61.1079 73.648 61.1079 73.2873V68.0418C61.1079 67.6811 61.4003 67.3886 61.761 67.3886C62.1218 67.3886 62.4142 67.6811 62.4142 68.0418V73.2873C62.4142 73.6481 62.1218 73.9404 61.761 73.9404Z" fill="#270089"/>
<path d="M40.1469 6.55276L41.3545 8.9993L44.0544 9.39178L42.1007 11.2962L42.5619 13.9853L40.1469 12.7156L37.732 13.9853L38.1933 11.2962L36.2394 9.39178L38.9395 8.9993L40.1469 6.55276Z" fill="#F154A9"/>
<path d="M37.7321 14.5378C37.6175 14.5378 37.5035 14.5022 37.4072 14.4323C37.237 14.3086 37.1518 14.0991 37.1874 13.8917L37.5995 11.489L35.8538 9.78735C35.7032 9.64057 35.6489 9.42088 35.7139 9.22087C35.7789 9.02085 35.9519 8.87501 36.1601 8.8448L38.5725 8.49419L39.6513 6.30809C39.7444 6.11954 39.9365 6 40.1468 6C40.3573 6 40.5492 6.11945 40.6423 6.30809L41.7214 8.49419L44.1337 8.8448C44.3418 8.87501 44.5149 9.02085 44.5798 9.22087C44.6449 9.42098 44.5906 9.64057 44.44 9.78735L42.6943 11.489L43.1064 13.8917C43.1419 14.0991 43.0568 14.3086 42.8866 14.4323C42.7165 14.5557 42.4909 14.5723 42.3046 14.4743L40.1467 13.34L37.9891 14.4743C37.9084 14.5169 37.8201 14.5378 37.7321 14.5378ZM40.1469 12.163C40.2352 12.163 40.3236 12.1843 40.4042 12.2266L41.828 12.975L41.5561 11.3896C41.5254 11.2103 41.5848 11.0274 41.715 10.9004L42.867 9.77765L41.2752 9.5463C41.0952 9.52019 40.9396 9.40717 40.8591 9.24408L40.1471 7.80145L39.4351 9.24399C39.3547 9.40708 39.199 9.52019 39.0191 9.5463L37.4272 9.77765L38.5791 10.9004C38.7093 11.0274 38.7688 11.2103 38.738 11.3896L38.4662 12.975L39.8899 12.2266C39.9702 12.1842 40.0587 12.163 40.1469 12.163Z" fill="#270089"/>
<path d="M28.7597 9.08893L29.9673 11.5355L32.6672 11.9279L30.7135 13.8322L31.1747 16.5214L28.7597 15.2518L26.3447 16.5214L26.806 13.8322L24.8522 11.9279L27.5522 11.5355L28.7597 9.08893Z" fill="#A1005E"/>
<path d="M31.1746 17.0741C31.0867 17.0741 30.9983 17.0532 30.9175 17.0106L28.7596 15.8762L26.6018 17.0106C26.4156 17.1085 26.19 17.0922 26.0198 16.9686C25.8496 16.8449 25.7644 16.6354 25.7999 16.428L26.2122 14.0252L24.4664 12.3235C24.3157 12.1768 24.2615 11.9571 24.3265 11.7571C24.3915 11.557 24.5645 11.4112 24.7726 11.381L27.185 11.0305L28.264 8.84438C28.3571 8.65583 28.5493 8.53629 28.7595 8.53629C28.9698 8.53629 29.162 8.65574 29.255 8.84438L30.334 11.0305L32.7464 11.381C32.9545 11.4112 33.1275 11.557 33.1925 11.7571C33.2575 11.9571 33.2033 12.1768 33.0526 12.3235L31.307 14.0252L31.7191 16.428C31.7547 16.6354 31.6695 16.8449 31.4993 16.9686C31.4033 17.0385 31.2892 17.0741 31.1746 17.0741ZM28.7597 14.6991C28.848 14.6991 28.9364 14.7204 29.0169 14.7627L30.4408 15.5112L30.1688 13.9257C30.138 13.7464 30.1975 13.5635 30.3278 13.4365L31.4797 12.3137L29.8879 12.0825C29.7079 12.0564 29.5523 11.9434 29.4717 11.7802L28.7598 10.3376L28.0479 11.7802C27.9674 11.9434 27.8118 12.0564 27.6317 12.0825L26.04 12.3137L27.1919 13.4365C27.3221 13.5635 27.3816 13.7464 27.3508 13.9257L27.0789 15.5112L28.5027 14.7627C28.583 14.7203 28.6713 14.6991 28.7597 14.6991Z" fill="#270089"/>
<path d="M62.9216 12.2386L64.1291 14.6852L66.8291 15.0776L64.8753 16.982L65.3367 19.6711L62.9216 18.4015L60.5068 19.6711L60.9679 16.982L59.0143 15.0776L61.714 14.6852L62.9216 12.2386Z" fill="#A1005E"/>
<path d="M60.5068 20.2237C60.3922 20.2237 60.2781 20.1881 60.1819 20.1182C60.0117 19.9945 59.9265 19.785 59.962 19.5776L60.3741 17.1749L58.6285 15.4732C58.4779 15.3265 58.4236 15.1068 58.4887 14.9067C58.5536 14.7066 58.7267 14.5609 58.9347 14.5307L61.3469 14.1802L62.4259 11.994C62.519 11.8054 62.7111 11.6859 62.9214 11.6859C63.1317 11.6859 63.3239 11.8053 63.4169 11.994L64.4959 14.1802L66.9084 14.5307C67.1164 14.5609 67.2895 14.7067 67.3545 14.9067C67.4195 15.1068 67.3652 15.3265 67.2146 15.4732L65.4688 17.1749L65.8811 19.5776C65.9166 19.785 65.8315 19.9945 65.6613 20.1181C65.491 20.2417 65.2655 20.2582 65.0793 20.1602L62.9213 19.0259L60.7637 20.1602C60.6829 20.2027 60.5947 20.2237 60.5068 20.2237ZM62.9214 17.8488C63.0097 17.8488 63.0981 17.8701 63.1786 17.9124L64.6025 18.6608L64.3305 17.0755C64.2998 16.8962 64.3592 16.7132 64.4895 16.5862L65.6414 15.4634L64.0496 15.2322C63.8696 15.2061 63.714 15.0931 63.6335 14.9299L62.9215 13.4873L62.2095 14.9299C62.129 15.0931 61.9735 15.2061 61.7934 15.2322L60.2017 15.4634L61.3535 16.5862C61.4839 16.7132 61.5432 16.8961 61.5125 17.0754L61.2407 18.6608L62.6644 17.9124C62.7447 17.8701 62.8331 17.8488 62.9214 17.8488Z" fill="#270089"/>
<path d="M51.5346 9.08887L52.7421 11.5354L55.4418 11.9278L53.4882 13.8322L53.9493 16.5214L51.5346 15.2517L49.1196 16.5214L49.5808 13.8322L47.627 11.9278L50.327 11.5354L51.5346 9.08887Z" fill="#A1005E"/>
<path d="M53.9492 17.0741C53.8613 17.0741 53.7729 17.0531 53.6921 17.0106L51.5345 15.8761L49.3765 17.0106C49.1904 17.1087 48.9648 17.0922 48.7945 16.9685C48.6243 16.8449 48.5392 16.6352 48.5747 16.428L48.987 14.0252L47.2412 12.3235C47.0906 12.1767 47.0363 11.957 47.1013 11.757C47.1663 11.557 47.3393 11.4111 47.5474 11.3809L49.9599 11.0304L51.0389 8.84431C51.1319 8.65577 51.3241 8.53622 51.5344 8.53622C51.7447 8.53622 51.9368 8.65568 52.0299 8.84431L53.1089 11.0304L55.5211 11.3809C55.7291 11.4111 55.9022 11.557 55.9671 11.757C56.0322 11.9571 55.9779 12.1767 55.8273 12.3235L54.0817 14.0252L54.4937 16.428C54.5293 16.6353 54.4441 16.8449 54.2739 16.9685C54.178 17.0384 54.0638 17.0741 53.9492 17.0741ZM51.5346 14.6991C51.6229 14.6991 51.7114 14.7203 51.7917 14.7626L53.2155 15.5111L52.9436 13.9257C52.9129 13.7463 52.9723 13.5635 53.1025 13.4365L54.2544 12.3137L52.6628 12.0824C52.4827 12.0563 52.3271 11.9433 52.2467 11.7801L51.5347 10.3376L50.8226 11.7801C50.7421 11.9433 50.5865 12.0563 50.4066 12.0824L48.8148 12.3137L49.9667 13.4365C50.097 13.5635 50.1564 13.7463 50.1257 13.9257L49.8537 15.5111L51.2776 14.7626C51.3579 14.7202 51.4463 14.6991 51.5346 14.6991Z" fill="#270089"/>
<path d="M17.3729 12.2386L18.5806 14.6852L21.2804 15.0777L19.3266 16.982L19.7878 19.6711L17.3729 18.4015L14.958 19.6711L15.4192 16.982L13.4655 15.0777L16.1653 14.6852L17.3729 12.2386Z" fill="#A1005E"/>
<path d="M19.7877 20.2238C19.6998 20.2238 19.6115 20.2028 19.5306 20.1603L17.3729 19.0259L15.2151 20.1603C15.0289 20.2581 14.8033 20.2419 14.633 20.1183C14.4628 19.9946 14.3776 19.7851 14.4132 19.5777L14.8254 17.1749L13.0797 15.4732C12.929 15.3265 12.8748 15.1068 12.9398 14.9067C13.0048 14.7067 13.1778 14.5609 13.3859 14.5307L15.7983 14.1801L16.8773 11.994C16.9703 11.8054 17.1625 11.6859 17.3728 11.6859C17.5831 11.6859 17.7753 11.8053 17.8683 11.994L18.9473 14.1801L21.3597 14.5307C21.5678 14.5609 21.7408 14.7067 21.8058 14.9067C21.8708 15.1068 21.8166 15.3265 21.6659 15.4732L19.9201 17.1749L20.3323 19.5777C20.3678 19.7851 20.2826 19.9946 20.1124 20.1183C20.0164 20.1882 19.9023 20.2238 19.7877 20.2238ZM14.6531 15.4634L15.805 16.5862C15.9353 16.7132 15.9948 16.8961 15.964 17.0754L15.6921 18.6609L17.1159 17.9124C17.2769 17.8276 17.4692 17.8276 17.6303 17.9124L19.0541 18.6609L18.7822 17.0754C18.7514 16.8961 18.8109 16.7132 18.941 16.5862L20.093 15.4634L18.5013 15.2321C18.3212 15.206 18.1656 15.093 18.0851 14.9298L17.3732 13.4872L16.6612 14.9298C16.5807 15.093 16.4251 15.206 16.2451 15.2321L14.6531 15.4634Z" fill="#270089"/>
<path d="M59.1728 36.9056C58.7565 36.9056 58.4192 36.5682 58.4192 36.152V32.0614C58.4192 31.6452 58.7565 31.3077 59.1728 31.3077C59.589 31.3077 59.9264 31.6452 59.9264 32.0614V36.152C59.9264 36.5682 59.589 36.9056 59.1728 36.9056Z" fill="#270089"/>
</svg>
