<svg width="80" height="80" viewBox="0 0 80 80" fill="none" xmlns="http://www.w3.org/2000/svg">
<g clip-path="url(#clip0_9_799)">
<path d="M63.0069 49.5101L62.8472 49.5823C49.8472 55.3973 34.9796 55.3711 21.9981 49.5101V30.4402C21.9981 26.8062 24.9439 23.8604 28.5779 23.8604H56.4271C60.0611 23.8604 63.0069 26.8062 63.0069 30.4402V49.5101Z" fill="white"/>
<path d="M42.501 54.6893C35.3958 54.6893 28.2938 53.1964 21.6801 50.2105C21.4052 50.0861 21.2286 49.8127 21.2286 49.5102V30.4403C21.2286 26.3885 24.5246 23.0925 28.5764 23.0925H56.4256C60.4773 23.0925 63.7734 26.3885 63.7734 30.4403V49.5102C63.7734 49.8127 63.5952 50.0877 63.3187 50.2105L63.159 50.2827C56.593 53.2209 49.5462 54.6893 42.501 54.6893ZM22.766 49.011C35.3313 54.5326 49.6691 54.5357 62.239 49.011V30.4403C62.239 27.2348 59.631 24.6284 56.4271 24.6284H28.5779C25.3725 24.6284 22.766 27.2364 22.766 30.4403V49.011Z" fill="#270089"/>
<path d="M41.0849 43.6368L16.6869 31.6874C15.2846 30.7367 15.2923 28.6678 16.7023 27.7279L41.0987 14.5052C41.9005 13.9691 42.9479 13.9691 43.7497 14.5052L68.1477 27.7279C69.5561 28.6694 69.5638 30.7367 68.163 31.6874L43.7651 43.6368C42.9556 44.1852 41.8943 44.1852 41.0849 43.6368Z" fill="white"/>
<path d="M42.426 44.8195C41.827 44.8195 41.2296 44.6475 40.7027 44.3035L16.3493 32.3771C16.317 32.3617 16.2863 32.3433 16.2556 32.3233C15.3863 31.7335 14.8687 30.7521 14.8718 29.7015C14.8764 28.6494 15.4001 27.6741 16.274 27.0905C16.294 27.0767 16.314 27.0644 16.3339 27.0536L40.7043 13.8448C41.7533 13.1613 43.0957 13.1613 44.1447 13.8448L68.5135 27.0521C68.535 27.0628 68.555 27.0751 68.5734 27.0889C69.4474 27.6726 69.9726 28.6494 69.9757 29.7C69.9788 30.7521 69.4627 31.732 68.5919 32.3218C68.5627 32.3418 68.5304 32.3602 68.4982 32.3756L44.1463 44.3019C43.6225 44.6475 43.0235 44.8195 42.426 44.8195ZM17.0773 31.024L41.4216 42.9457C41.4538 42.9611 41.4845 42.9795 41.5152 42.9995C42.0666 43.3742 42.7808 43.3742 43.3338 42.9995C43.3629 42.9795 43.3952 42.9611 43.4275 42.9457L67.7717 31.024C68.2002 30.7152 68.4429 30.2376 68.4413 29.7061C68.4398 29.1686 68.1879 28.6894 67.7486 28.3837L43.3844 15.1795C43.3629 15.1687 43.343 15.1564 43.3245 15.1426C42.7778 14.7771 42.0728 14.7771 41.526 15.1426C41.506 15.1564 41.4861 15.1672 41.4661 15.1795L17.1019 28.3853C16.6626 28.6909 16.4107 29.1701 16.4092 29.7077C16.4061 30.2376 16.6503 30.7152 17.0773 31.024Z" fill="#270089"/>
<path d="M57.2735 56.7289C56.8495 56.7289 56.5055 56.3849 56.5055 55.961V37.4808L42.0618 29.7537C41.6885 29.554 41.5472 29.0886 41.7469 28.7139C41.9466 28.3406 42.412 28.1993 42.7867 28.399L57.6359 36.3443C57.8863 36.4779 58.0414 36.7375 58.0414 37.0216V55.9625C58.0414 56.3849 57.6989 56.7289 57.2735 56.7289Z" fill="#E3D9FA"/>
<path d="M59.9354 61.9512H54.7133C54.2894 61.9512 53.9453 61.6071 53.9453 61.1832V58.5722C53.9453 56.7091 55.4613 55.1932 57.3243 55.1932C59.1874 55.1932 60.7033 56.7091 60.7033 58.5722V61.1832C60.7033 61.6071 60.3593 61.9512 59.9354 61.9512ZM55.4812 60.4153H59.1674V58.5722C59.1674 57.5554 58.3411 56.7291 57.3243 56.7291C56.3075 56.7291 55.4812 57.5554 55.4812 58.5722V60.4153Z" fill="#E3D9FA"/>
<path d="M53.4843 65.4837C53.2923 65.4837 53.1003 65.4115 52.9513 65.2671C52.6456 64.9722 52.638 64.4869 52.9329 64.1812L53.945 63.1337V61.1831C53.945 60.7592 54.2891 60.4152 54.713 60.4152C55.1369 60.4152 55.4809 60.7592 55.4809 61.1831V63.4455C55.4809 63.6452 55.4041 63.8356 55.2644 63.98L54.0356 65.2502C53.8851 65.4053 53.6839 65.4837 53.4843 65.4837Z" fill="#E3D9FA"/>
<path d="M61.1636 65.1765C60.9455 65.1765 60.7274 65.0843 60.5753 64.9031L59.3466 63.444C59.2299 63.3058 59.1654 63.1307 59.1654 62.9494V61.1831C59.1654 60.7592 59.5094 60.4152 59.9333 60.4152C60.3572 60.4152 60.7013 60.7592 60.7013 61.1831V62.6699L61.7488 63.914C62.0222 64.238 61.9807 64.7234 61.6566 64.9968C61.5138 65.1181 61.3387 65.1765 61.1636 65.1765Z" fill="#E3D9FA"/>
<path d="M56.4027 66.2516C55.9788 66.2516 55.6348 65.9075 55.6348 65.4836V61.4902C55.6348 61.0663 55.9788 60.7223 56.4027 60.7223C56.8266 60.7223 57.1707 61.0663 57.1707 61.4902V65.4836C57.1707 65.9075 56.8266 66.2516 56.4027 66.2516Z" fill="#E3D9FA"/>
<path d="M58.2458 66.2516C57.8219 66.2516 57.4779 65.9075 57.4779 65.4836V61.4902C57.4779 61.0663 57.8219 60.7223 58.2458 60.7223C58.6697 60.7223 59.0138 61.0663 59.0138 61.4902V65.4836C59.0138 65.9075 58.6697 66.2516 58.2458 66.2516Z" fill="#E3D9FA"/>
<path d="M13.1098 48.5364C13.1098 48.5364 15.1695 53.1135 12.97 57.6429L19.3226 56.9517C24.001 56.4418 28.7193 56.4525 33.3962 56.9809L43.3473 58.1067C43.3473 58.1067 45.3532 54.2516 43.4871 49.0003L34.4774 49.8512C29.306 50.3396 24.0947 50.1952 18.957 49.4196L13.1098 48.5364Z" fill="#A1005E"/>
<path d="M43.4873 49.0003L34.4776 49.8512C29.3062 50.3396 24.0933 50.1952 18.9572 49.4196L13.11 48.5364C13.11 48.5364 13.7044 49.8589 13.9133 51.7864C14.2435 54.6478 35.6357 52.1382 38.3481 52.7433C40.7979 53.2901 41.8423 55.5172 42.5089 58.0115L43.3475 58.1067C43.3491 58.1067 45.3534 54.2516 43.4873 49.0003Z" fill="#F154A9"/>
<path d="M43.3489 58.8746C43.3197 58.8746 43.2906 58.873 43.2629 58.87L33.3117 57.7441C28.6994 57.2219 24.0225 57.2127 19.4087 57.715L13.0561 58.4061C12.7781 58.4353 12.5063 58.314 12.345 58.0851C12.1837 57.8563 12.1607 57.5583 12.282 57.3079C14.291 53.1702 12.4295 48.8942 12.411 48.8512C12.2974 48.5947 12.3312 48.2967 12.5017 48.0725C12.6721 47.8498 12.9501 47.7361 13.2266 47.7776L19.0738 48.6607C24.1439 49.4256 29.3015 49.57 34.4068 49.0877L43.4165 48.2368C43.7667 48.203 44.0939 48.4135 44.2121 48.7437C46.1673 54.2469 44.1184 58.2925 44.0309 58.4614C43.8957 58.7164 43.6331 58.8746 43.3489 58.8746ZM26.2266 55.8089C28.6518 55.8089 31.077 55.9456 33.4838 56.2174L42.8651 57.2788C43.2645 56.2021 44.0416 53.3852 42.9511 49.8219L34.5497 50.616C29.3214 51.1105 24.0364 50.9631 18.8434 50.1782L14.2526 49.4855C14.6919 51.0322 15.168 53.8045 14.1712 56.7396L19.2412 56.1883C21.5589 55.9348 23.8935 55.8089 26.2266 55.8089Z" fill="#270089"/>
<path d="M12.7611 58.3616C12.7565 58.3616 12.7534 58.3616 12.7488 58.3616C11.7812 58.3463 10.9164 57.7227 10.3128 56.6046C9.786 55.6277 9.50647 54.3529 9.52797 53.0136C9.57251 50.06 11.0408 47.7654 12.8778 47.7654C12.8885 47.7654 12.9008 47.7654 12.9116 47.7654C13.3355 47.7715 13.6749 48.1217 13.6673 48.5456C13.6611 48.9695 13.3109 49.309 12.887 49.3013C12.8839 49.3013 12.8809 49.3013 12.8763 49.3013C12.0453 49.3013 11.0961 50.8925 11.0623 53.0366C11.0455 54.1026 11.2651 55.1362 11.6629 55.875C11.8779 56.2728 12.1283 56.56 12.3832 56.709C12.7165 56.0716 13.2172 54.8889 12.9638 53.9167L12.7795 54.6325C12.6735 55.0425 12.2558 55.2914 11.8441 55.1838C11.434 55.0779 11.1868 54.6586 11.2927 54.2485L11.7197 52.5958C11.8226 52.195 12.1375 51.8786 12.5399 51.7726C12.9362 51.6681 13.3601 51.7849 13.6442 52.0798C15.8191 54.3329 13.4983 57.8702 13.3985 58.0207C13.2572 58.2342 13.0176 58.3616 12.7611 58.3616Z" fill="#270089"/>
</g>
<defs>
<clipPath id="clip0_9_799">
<rect width="60.4505" height="52.9184" fill="white" transform="translate(9.52799 13.3333)"/>
</clipPath>
</defs>
</svg>
