<svg width="80" height="80" viewBox="0 0 80 80" fill="none" xmlns="http://www.w3.org/2000/svg">
<path d="M19.5743 68.2709C18.6599 68.2709 17.7829 67.9049 17.1363 67.2534C16.4897 66.6019 16.1265 65.7183 16.1265 64.7969V60.125H23.022V64.7969C23.022 65.7183 22.6588 66.6019 22.0122 67.2534C21.3656 67.9049 20.4887 68.2709 19.5743 68.2709Z" fill="white"/>
<path d="M57.5001 68.0313C57.0473 68.0313 56.599 67.9414 56.1807 67.7668C55.7624 67.5922 55.3823 67.3364 55.0622 67.0138C54.742 66.6912 54.488 66.3082 54.3148 65.8867C54.1415 65.4653 54.0523 65.0135 54.0523 64.5573V59.8854H60.9479V64.5573C60.9479 65.0135 60.8587 65.4653 60.6854 65.8867C60.5122 66.3082 60.2582 66.6912 59.9381 67.0138C59.6179 67.3364 59.2378 67.5922 58.8195 67.7668C58.4012 67.9414 57.9529 68.0313 57.5001 68.0313Z" fill="white"/>
<path d="M13.2327 34.3698H16.9587V41.9167H13.2327C13.0039 41.9167 12.7772 41.8713 12.5658 41.783C12.3543 41.6948 12.1622 41.5654 12.0003 41.4023C11.8385 41.2392 11.7101 41.0457 11.6225 40.8326C11.5349 40.6195 11.4898 40.3912 11.4898 40.1605V36.126C11.4898 35.6602 11.6735 35.2135 12.0003 34.8842C12.3272 34.5548 12.7705 34.3698 13.2327 34.3698Z" fill="white"/>
<path d="M63.8411 41.9167H60.1152V34.3698H63.8411C64.07 34.3698 64.2967 34.4152 64.5081 34.5035C64.7196 34.5917 64.9117 34.7211 65.0736 34.8842C65.2354 35.0472 65.3638 35.2408 65.4514 35.4539C65.539 35.667 65.5841 35.8953 65.5841 36.126V40.1605C65.5841 40.6263 65.4004 41.073 65.0736 41.4023C64.7467 41.7317 64.3034 41.9167 63.8411 41.9167Z" fill="white"/>
<path d="M16.1265 22.3798V59.4063H60.8287C60.8287 59.4063 60.8156 22.4098 60.8287 22.3798C66.1787 9.21354 13.0354 7.65625 16.1265 22.3798Z" fill="white"/>
<path d="M53.5375 23.349H23.5371C22.3336 23.349 21.3579 24.3321 21.3579 25.5447V36.3667C21.3579 37.5794 22.3336 38.5625 23.5371 38.5625H53.5375C54.7411 38.5625 55.7168 37.5794 55.7168 36.3667V25.5447C55.7168 24.3321 54.7411 23.349 53.5375 23.349Z" fill="#F154A9"/>
<path d="M25.796 25.9844H55.7168V25.5447C55.7168 24.9624 55.4872 24.4039 55.0785 23.9921C54.6698 23.5803 54.1155 23.349 53.5375 23.349H23.5371C22.9591 23.349 22.4048 23.5803 21.9962 23.9921C21.5875 24.4039 21.3579 24.9624 21.3579 25.5447V36.3667C21.3579 36.9491 21.5875 37.5076 21.9962 37.9194C22.4048 38.3312 22.9591 38.5625 23.5371 38.5625H23.6168V28.1802C23.6168 27.8918 23.6731 27.6063 23.7827 27.3399C23.8922 27.0735 24.0527 26.8314 24.2551 26.6275C24.4574 26.4236 24.6977 26.2619 24.962 26.1515C25.2264 26.0412 25.5098 25.9844 25.796 25.9844Z" fill="#A2005E"/>
<path d="M26.2321 51.8594H23.4976C22.5201 51.8594 21.5827 51.4681 20.8915 50.7717C20.2004 50.0753 19.8121 49.1307 19.8121 48.1459C19.8121 47.161 20.2004 46.2164 20.8915 45.52C21.5827 44.8236 22.5201 44.4323 23.4976 44.4323H26.2321C27.2095 44.4323 28.147 44.8236 28.8381 45.52C29.5293 46.2164 29.9176 47.161 29.9176 48.1459C29.9176 49.1307 29.5293 50.0753 28.8381 50.7717C28.147 51.4681 27.2095 51.8594 26.2321 51.8594ZM23.4976 45.8698C22.8985 45.8698 22.324 46.1096 21.9003 46.5364C21.4767 46.9633 21.2387 47.5422 21.2387 48.1459C21.2387 48.7495 21.4767 49.3284 21.9003 49.7553C22.324 50.1821 22.8985 50.4219 23.4976 50.4219H26.2321C26.8312 50.4219 27.4057 50.1821 27.8293 49.7553C28.253 49.3284 28.4909 48.7495 28.4909 48.1459C28.4909 47.5422 28.253 46.9633 27.8293 46.5364C27.4057 46.1096 26.8312 45.8698 26.2321 45.8698H23.4976Z" fill="#E3D9FA"/>
<path d="M53.6952 51.8594H50.9608C49.9833 51.8594 49.0459 51.4681 48.3547 50.7717C47.6636 50.0753 47.2753 49.1307 47.2753 48.1459C47.2753 47.161 47.6636 46.2164 48.3547 45.52C49.0459 44.8236 49.9833 44.4323 50.9608 44.4323H53.6952C54.6727 44.4323 55.6101 44.8236 56.3013 45.52C56.9925 46.2164 57.3808 47.161 57.3808 48.1459C57.3808 49.1307 56.9925 50.0753 56.3013 50.7717C55.6101 51.4681 54.6727 51.8594 53.6952 51.8594ZM50.9608 45.8698C50.3617 45.8698 49.7872 46.1096 49.3635 46.5364C48.9399 46.9633 48.7019 47.5422 48.7019 48.1459C48.7019 48.7495 48.9399 49.3284 49.3635 49.7553C49.7872 50.1821 50.3617 50.4219 50.9608 50.4219H53.6952C54.2943 50.4219 54.8689 50.1821 55.2925 49.7553C55.7161 49.3284 55.9541 48.7495 55.9541 48.1459C55.9541 47.5422 55.7161 46.9633 55.2925 46.5364C54.8689 46.1096 54.2943 45.8698 53.6952 45.8698H50.9608Z" fill="#E3D9FA"/>
<path d="M54.1709 38.9818C53.9817 38.9818 53.8003 38.9061 53.6665 38.7713C53.5328 38.6365 53.4576 38.4537 53.4576 38.2631C53.4576 37.0717 52.9879 35.9291 52.1518 35.0866C51.3157 34.2442 50.1817 33.7709 48.9993 33.7709C47.8168 33.7709 46.6829 34.2442 45.8468 35.0866C45.0107 35.9291 44.5409 37.0717 44.5409 38.2631C44.5409 38.4537 44.4658 38.6365 44.332 38.7713C44.1982 38.9061 44.0168 38.9818 43.8276 38.9818C43.6384 38.9818 43.457 38.9061 43.3232 38.7713C43.1894 38.6365 43.1143 38.4537 43.1143 38.2631C43.1143 36.6904 43.7343 35.1822 44.8379 34.0701C45.9416 32.9581 47.4385 32.3334 48.9993 32.3334C50.5601 32.3334 52.0569 32.9581 53.1606 34.0701C54.2642 35.1822 54.8843 36.6904 54.8843 38.2631C54.8843 38.4537 54.8091 38.6365 54.6753 38.7713C54.5416 38.9061 54.3601 38.9818 54.1709 38.9818Z" fill="#A2005E"/>
<path d="M19.911 68.9896H19.4758C18.4618 68.9887 17.4895 68.5823 16.7724 67.8598C16.0554 67.1373 15.6521 66.1577 15.6512 65.1359V59.4063C15.6512 59.2157 15.7263 59.0328 15.8601 58.898C15.9939 58.7633 16.1753 58.6875 16.3645 58.6875H23.0223C23.2115 58.6875 23.3929 58.7633 23.5267 58.898C23.6605 59.0328 23.7356 59.2157 23.7356 59.4063V65.1359C23.7347 66.1577 23.3314 67.1373 22.6144 67.8598C21.8973 68.5823 20.925 68.9887 19.911 68.9896ZM17.0778 60.125V65.1359C17.0788 65.7764 17.3317 66.3905 17.7812 66.8434C18.2307 67.2963 18.8401 67.5512 19.4758 67.5521H19.911C20.5467 67.5512 21.156 67.2963 21.6055 66.8434C22.0551 66.3905 22.308 65.7764 22.3089 65.1359V60.125H17.0778Z" fill="#270089"/>
<path d="M57.7172 68.9896H57.2821C56.268 68.9887 55.2957 68.5823 54.5787 67.8598C53.8616 67.1373 53.4584 66.1577 53.4574 65.1359V59.4063C53.4574 59.2157 53.5326 59.0328 53.6664 58.898C53.8001 58.7633 53.9816 58.6875 54.1708 58.6875H60.8285C61.0177 58.6875 61.1992 58.7633 61.3329 58.898C61.4667 59.0328 61.5419 59.2157 61.5419 59.4063V65.1359C61.5409 66.1577 61.1377 67.1373 60.4206 67.8598C59.7036 68.5823 58.7313 68.9887 57.7172 68.9896ZM54.8841 60.125V65.1359C54.885 65.7764 55.138 66.3905 55.5875 66.8434C56.037 67.2963 56.6464 67.5512 57.2821 67.5521H57.7172C58.3529 67.5512 58.9623 67.2963 59.4118 66.8434C59.8613 66.3905 60.1143 65.7764 60.1152 65.1359V60.125H54.8841Z" fill="#270089"/>
<path d="M16.4132 48.0261C16.224 48.0261 16.0425 47.9504 15.9088 47.8156C15.775 47.6808 15.6998 47.498 15.6998 47.3073V20.1721C15.6963 18.9431 16.0843 17.7453 16.8068 16.7551C17.5293 15.7649 18.5482 15.0345 19.7135 14.6713L22.8201 13.6926C33.0443 10.4553 44.0065 10.4453 54.2365 13.6638L57.4703 14.6749C58.6391 15.0365 59.6614 15.7676 60.386 16.7599C61.1105 17.7523 61.4988 18.9533 61.4935 20.1853V22.8698C61.4935 23.0605 61.4183 23.2433 61.2845 23.3781C61.1508 23.5129 60.9693 23.5886 60.7801 23.5886C60.5909 23.5886 60.4095 23.5129 60.2757 23.3781C60.1419 23.2433 60.0668 23.0605 60.0668 22.8698V20.1793C60.069 19.2556 59.7767 18.3555 59.2331 17.6117C58.6895 16.8679 57.9232 16.3197 57.047 16.0477L53.8144 15.0367C43.8608 11.9053 33.195 11.9149 23.2469 15.0642L20.1391 16.0417C19.2647 16.3148 18.5003 16.8633 17.958 17.6065C17.4158 18.3497 17.1244 19.2485 17.1265 20.1709V47.3073C17.1265 47.498 17.0513 47.6808 16.9176 47.8156C16.7838 47.9504 16.6024 48.0261 16.4132 48.0261Z" fill="#270089"/>
<path d="M16.413 51.6198C16.2238 51.6198 16.0424 51.5441 15.9086 51.4093C15.7748 51.2745 15.6997 51.0917 15.6997 50.9011V49.2504C15.6997 49.0597 15.7748 48.8769 15.9086 48.7421C16.0424 48.6073 16.2238 48.5316 16.413 48.5316C16.6022 48.5316 16.7836 48.6073 16.9174 48.7421C17.0512 48.8769 17.1263 49.0597 17.1263 49.2504V50.9011C17.1263 51.0917 17.0512 51.2745 16.9174 51.4093C16.7836 51.5441 16.6022 51.6198 16.413 51.6198Z" fill="#270089"/>
<path d="M60.78 60.125H16.413C16.2238 60.125 16.0424 60.0493 15.9086 59.9145C15.7748 59.7797 15.6997 59.5969 15.6997 59.4063V52.9507C15.6997 52.7601 15.7748 52.5773 15.9086 52.4425C16.0424 52.3077 16.2238 52.232 16.413 52.232C16.6022 52.232 16.7836 52.3077 16.9174 52.4425C17.0512 52.5773 17.1263 52.7601 17.1263 52.9507V58.6875H60.0666V25.213C60.0666 25.0223 60.1418 24.8395 60.2756 24.7047C60.4093 24.5699 60.5908 24.4942 60.78 24.4942C60.9692 24.4942 61.1506 24.5699 61.2844 24.7047C61.4181 24.8395 61.4933 25.0223 61.4933 25.213V59.4063C61.4933 59.5969 61.4181 59.7797 61.2844 59.9145C61.1506 60.0493 60.9692 60.125 60.78 60.125Z" fill="#270089"/>
<path d="M53.5371 39.2813H23.5367C22.7698 39.2803 22.0346 38.9729 21.4924 38.4266C20.9501 37.8802 20.6451 37.1394 20.6441 36.3667V25.5447C20.6451 24.7721 20.9501 24.0313 21.4924 23.4849C22.0346 22.9385 22.7698 22.6312 23.5367 22.6302H53.5371C54.304 22.6312 55.0392 22.9385 55.5814 23.4849C56.1237 24.0313 56.4287 24.7721 56.4297 25.5447V36.3667C56.4287 37.1394 56.1237 37.8802 55.5814 38.4266C55.0392 38.9729 54.304 39.2803 53.5371 39.2813ZM23.5367 24.0677C23.148 24.068 22.7753 24.2238 22.5005 24.5007C22.2256 24.7776 22.0711 25.1531 22.0708 25.5447V36.3667C22.0711 36.7584 22.2256 37.1339 22.5005 37.4108C22.7753 37.6877 23.148 37.8434 23.5367 37.8438H53.5371C53.9258 37.8434 54.2985 37.6877 54.5733 37.4108C54.8481 37.1339 55.0027 36.7584 55.003 36.3667V25.5447C55.0027 25.1531 54.8481 24.7776 54.5733 24.5007C54.2985 24.2238 53.9258 24.068 53.5371 24.0677H23.5367Z" fill="#E3D9FA"/>
<path d="M48.1466 20.3542H29.0459C28.489 20.3536 27.955 20.1303 27.5612 19.7335C27.1673 19.3367 26.9458 18.7987 26.9452 18.2375V18.1584C26.9458 17.5972 27.1673 17.0592 27.5612 16.6624C27.955 16.2655 28.489 16.0423 29.0459 16.0417H48.1466C48.7036 16.0423 49.2375 16.2655 49.6314 16.6624C50.0252 17.0592 50.2467 17.5972 50.2474 18.1584V18.2375C50.2467 18.7987 50.0252 19.3367 49.6314 19.7335C49.2375 20.1303 48.7036 20.3536 48.1466 20.3542ZM29.0459 17.4792C28.9574 17.4792 28.8697 17.4968 28.788 17.5309C28.7062 17.565 28.6319 17.6151 28.5693 17.6781C28.5067 17.7412 28.457 17.8161 28.4231 17.8985C28.3893 17.9809 28.3718 18.0692 28.3718 18.1584V18.2375C28.3718 18.4176 28.4428 18.5904 28.5693 18.7177C28.6957 18.8451 28.8671 18.9167 29.0459 18.9167H48.1466C48.3254 18.9167 48.4969 18.8451 48.6233 18.7177C48.7497 18.5904 48.8207 18.4176 48.8207 18.2375V18.1584C48.8207 18.0692 48.8033 17.9809 48.7694 17.8985C48.7355 17.8161 48.6859 17.7412 48.6233 17.6781C48.5607 17.6151 48.4864 17.565 48.4046 17.5309C48.3228 17.4968 48.2351 17.4792 48.1466 17.4792H29.0459Z" fill="#E3D9FA"/>
<path d="M41.7271 50.2626H35.4664C34.9092 50.2626 34.3749 50.0395 33.9809 49.6426C33.587 49.2456 33.3656 48.7072 33.3656 48.1458C33.3656 47.5844 33.587 47.0461 33.9809 46.6491C34.3749 46.2521 34.9092 46.0291 35.4664 46.0291H41.7271C42.2842 46.0291 42.8186 46.2521 43.2126 46.6491C43.6065 47.0461 43.8279 47.5844 43.8279 48.1458C43.8279 48.7072 43.6065 49.2456 43.2126 49.6426C42.8186 50.0395 42.2842 50.2626 41.7271 50.2626ZM35.4664 47.4666C35.2876 47.4666 35.1162 47.5382 34.9897 47.6656C34.8633 47.7929 34.7923 47.9657 34.7923 48.1458C34.7923 48.326 34.8633 48.4987 34.9897 48.6261C35.1162 48.7535 35.2876 48.8251 35.4664 48.8251H41.7271C41.9059 48.8251 42.0773 48.7535 42.2037 48.6261C42.3302 48.4987 42.4012 48.326 42.4012 48.1458C42.4012 47.9657 42.3302 47.7929 42.2037 47.6656C42.0773 47.5382 41.9059 47.4666 41.7271 47.4666H35.4664Z" fill="#E3D9FA"/>
<path d="M64.039 42.6354H60.829C60.6398 42.6354 60.4583 42.5597 60.3246 42.4249C60.1908 42.2901 60.1156 42.1073 60.1156 41.9167C60.1156 41.7261 60.1908 41.5432 60.3246 41.4085C60.4583 41.2737 60.6398 41.1979 60.829 41.1979H64.039C64.2282 41.1979 64.4096 41.1222 64.5434 40.9874C64.6771 40.8526 64.7523 40.6698 64.7523 40.4792V35.8073C64.7523 35.6167 64.6771 35.4339 64.5434 35.2991C64.4096 35.1643 64.2282 35.0886 64.039 35.0886H60.829C60.6398 35.0886 60.4583 35.0128 60.3246 34.878C60.1908 34.7433 60.1156 34.5604 60.1156 34.3698C60.1156 34.1792 60.1908 33.9964 60.3246 33.8616C60.4583 33.7268 60.6398 33.6511 60.829 33.6511H64.039C64.6065 33.6511 65.1508 33.8782 65.5522 34.2826C65.9535 34.687 66.179 35.2354 66.179 35.8073V40.4792C66.179 41.0511 65.9535 41.5995 65.5522 42.0039C65.1508 42.4083 64.6065 42.6354 64.039 42.6354Z" fill="#270089"/>
<path d="M16.2454 42.6354H13.0354C12.4678 42.6354 11.9235 42.4083 11.5222 42.0039C11.1208 41.5995 10.8954 41.0511 10.8954 40.4792V35.8073C10.8954 35.2354 11.1208 34.687 11.5222 34.2826C11.9235 33.8782 12.4678 33.6511 13.0354 33.6511H16.2454C16.4346 33.6511 16.616 33.7268 16.7498 33.8616C16.8836 33.9964 16.9587 34.1792 16.9587 34.3698C16.9587 34.5604 16.8836 34.7433 16.7498 34.878C16.616 35.0128 16.4346 35.0886 16.2454 35.0886H13.0354C12.8462 35.0886 12.6648 35.1643 12.531 35.2991C12.3972 35.4339 12.3221 35.6167 12.3221 35.8073V40.4792C12.3221 40.6698 12.3972 40.8526 12.531 40.9874C12.6648 41.1222 12.8462 41.1979 13.0354 41.1979H16.2454C16.4346 41.1979 16.616 41.2737 16.7498 41.4085C16.8836 41.5432 16.9587 41.7261 16.9587 41.9167C16.9587 42.1073 16.8836 42.2901 16.7498 42.4249C16.616 42.5597 16.4346 42.6354 16.2454 42.6354Z" fill="#270089"/>
<path d="M45.9678 59.8854C45.7787 59.8854 45.5972 59.8097 45.4634 59.6749C45.3297 59.5401 45.2545 59.3573 45.2545 59.1667V54.6146H31.8201V59.1667C31.8201 59.3573 31.7449 59.5401 31.6111 59.6749C31.4774 59.8097 31.2959 59.8854 31.1067 59.8854C30.9175 59.8854 30.7361 59.8097 30.6023 59.6749C30.4686 59.5401 30.3934 59.3573 30.3934 59.1667V53.8958C30.3934 53.7052 30.4686 53.5224 30.6023 53.3876C30.7361 53.2528 30.9175 53.1771 31.1067 53.1771H45.9678C46.157 53.1771 46.3385 53.2528 46.4723 53.3876C46.606 53.5224 46.6812 53.7052 46.6812 53.8958V59.1667C46.6812 59.3573 46.606 59.5401 46.4723 59.6749C46.3385 59.8097 46.157 59.8854 45.9678 59.8854Z" fill="#270089"/>
</svg>
