<svg width="80" height="80" viewBox="0 0 80 80" fill="none" xmlns="http://www.w3.org/2000/svg">
<path d="M14 37.5543V32.0343L39.7983 16L65.3334 32.0343V37.5543L59.2787 33.8743V62H20.5812V33.8743L14 37.5543Z" fill="white"/>
<path d="M59.9091 63.2319H20.1979C19.7447 63.2319 19.3763 62.8635 19.3763 62.4103V34.6124C19.3763 34.1592 19.7447 33.7908 20.1979 33.7908C20.6512 33.7908 21.0195 34.1592 21.0195 34.6124V61.5887H59.0875V41.5523C59.0875 41.0991 59.4559 40.7307 59.9091 40.7307C60.3624 40.7307 60.7307 41.0991 60.7307 41.5523V62.4103C60.7307 62.8635 60.3624 63.2319 59.9091 63.2319Z" fill="#270089"/>
<path d="M59.9095 40.0953C59.4563 40.0953 59.0879 39.727 59.0879 39.2737V38.1727C59.0879 37.7195 59.4563 37.3511 59.9095 37.3511C60.3628 37.3511 60.7311 37.7195 60.7311 38.1727V39.2737C60.7311 39.727 60.3628 40.0953 59.9095 40.0953Z" fill="#270089"/>
<path d="M59.9095 37.0321C59.4563 37.0321 59.0879 36.6637 59.0879 36.2105V34.6124C59.0879 34.1592 59.4563 33.7908 59.9095 33.7908C60.3628 33.7908 60.7311 34.1592 60.7311 34.6124V36.2105C60.7311 36.6637 60.3628 37.0321 59.9095 37.0321Z" fill="#270089"/>
<path d="M13.9278 38.9943C13.7895 38.9943 13.6512 38.9601 13.5252 38.8889C13.2664 38.7437 13.1062 38.4699 13.1062 38.1727V32.0106C13.1062 31.7217 13.2582 31.4533 13.506 31.3054L19.9132 27.4712C20.3021 27.2385 20.8074 27.3644 21.0402 27.7547C21.273 28.145 21.147 28.6489 20.7567 28.8817L14.7494 32.4762V36.7089L39.4894 21.6159C39.751 21.4571 40.0796 21.4557 40.3425 21.6145L65.3592 36.7171V32.4749L39.9194 17.1162L23.3229 27.2412C22.9354 27.4767 22.4301 27.3549 22.1932 26.9673C21.9563 26.5798 22.0795 26.0745 22.467 25.8376L39.4881 15.4525C39.7496 15.2936 40.0782 15.2922 40.3412 15.4511L66.6039 31.3068C66.8504 31.4561 67.001 31.7231 67.001 32.0106V38.1727C67.001 38.4699 66.8408 38.7424 66.5834 38.8889C66.3259 39.034 66.0083 39.0299 65.7549 38.8766L39.9194 23.2783L14.3564 38.8738C14.2249 38.9546 14.0757 38.9943 13.9278 38.9943Z" fill="#270089"/>
<path d="M48.2547 34.9766C47.0154 34.1249 45.4721 33.8031 44.0056 34.1345C40.5794 34.9081 39.9167 38.5547 39.9167 38.5547C39.9167 38.5547 39.2539 34.9081 35.8278 34.1345C34.3612 33.8031 32.818 34.1249 31.5787 34.9766C27.9472 37.4716 28.6223 42.6888 30.4408 46.1313C31.2391 47.6417 39.918 56.4535 39.918 56.2193C39.918 56.4535 48.597 47.6417 49.3953 46.1313C51.2111 42.6888 51.8862 37.4729 48.2547 34.9766Z" fill="#A1005E"/>
<path d="M48.2548 34.9767C47.0155 34.1249 45.4722 33.8031 44.0057 34.1345C43.4908 34.2509 43.0389 34.433 42.6418 34.6576C42.839 34.9109 43.0266 35.1684 43.2032 35.4327C45.6681 39.1299 45.5311 43.6488 44.1618 47.6199C43.2416 50.6872 41.2533 53.1425 39.1075 55.5019C39.61 55.988 39.9168 56.2632 39.9168 56.2194C39.9168 56.4536 48.5957 47.6418 49.3941 46.1314C51.2112 42.6889 51.8863 37.473 48.2548 34.9767Z" fill="#F154A9"/>
<path d="M24.6348 57.2149C24.25 57.2149 23.8871 57.3053 23.5639 57.4655C23.2627 56.0044 21.9687 54.9048 20.4172 54.9048C18.8109 54.9048 17.4799 56.0838 17.2417 57.6229C16.8582 57.3641 16.3954 57.2135 15.8983 57.2135C14.5673 57.2135 13.4883 58.2926 13.4883 59.6236V63.3386H27.0448V59.6236C27.0448 58.2939 25.9658 57.2149 24.6348 57.2149Z" fill="white"/>
<path d="M27.0449 64.163H13.4883C13.035 64.163 12.6667 63.7946 12.6667 63.3414V59.6263C12.6667 57.8448 14.1168 56.3947 15.8984 56.3947C16.1777 56.3947 16.4529 56.4303 16.7172 56.5001C17.343 55.0554 18.7685 54.0859 20.4172 54.0859C22.0139 54.0859 23.4407 55.0363 24.0857 56.4412C24.2651 56.4111 24.4486 56.3947 24.6334 56.3947C26.415 56.3947 27.8651 57.8448 27.8651 59.6263V63.3414C27.8665 63.7946 27.4981 64.163 27.0449 64.163ZM14.3099 62.5198H26.2233V59.6263C26.2233 58.7499 25.5112 58.0379 24.6348 58.0379C24.387 58.0379 24.1501 58.094 23.9296 58.2036C23.7009 58.3172 23.4339 58.3172 23.2038 58.2063C22.9752 58.0954 22.8108 57.8831 22.7588 57.6339C22.5315 56.5302 21.5456 55.7292 20.4172 55.7292C19.2478 55.7292 18.2317 56.5987 18.0537 57.7517C18.0113 58.0297 17.8291 58.2666 17.5717 58.3788C17.3143 58.4911 17.0171 58.4651 16.7843 58.3076C16.5228 58.131 16.2161 58.0379 15.8997 58.0379C15.0233 58.0379 14.3113 58.7499 14.3113 59.6263V62.5198H14.3099Z" fill="#270089"/>
<path d="M63.6608 57.2149C63.276 57.2149 62.9132 57.3053 62.59 57.4655C62.2887 56.0044 60.9947 54.9048 59.4432 54.9048C57.837 54.9048 56.506 56.0839 56.2677 57.623C55.8843 57.3642 55.4215 57.2136 54.9244 57.2136C53.5934 57.2136 52.5143 58.2926 52.5143 59.6236V63.3387H66.0709V59.6236C66.0709 58.294 64.9918 57.2149 63.6608 57.2149Z" fill="white"/>
<path d="M66.0709 64.163H52.5143C52.0611 64.163 51.6927 63.7947 51.6927 63.3414V59.6264C51.6927 57.8449 53.1429 56.3947 54.9244 56.3947C55.2038 56.3947 55.479 56.4303 55.7433 56.5002C56.3691 55.0555 57.7946 54.086 59.4433 54.086C61.0399 54.086 62.4668 55.0363 63.1118 56.4413C63.2911 56.4112 63.4746 56.3947 63.6595 56.3947C65.441 56.3947 66.8912 57.8449 66.8912 59.6264V63.3414C66.8925 63.7947 66.5242 64.163 66.0709 64.163ZM53.336 62.5198H65.2493V59.6264C65.2493 58.75 64.5373 58.0379 63.6609 58.0379C63.413 58.0379 63.1761 58.0941 62.9557 58.2036C62.727 58.3173 62.4599 58.3173 62.2299 58.2064C62.0012 58.0955 61.8369 57.8832 61.7849 57.634C61.5575 56.5303 60.5716 55.7292 59.4433 55.7292C58.2738 55.7292 57.2578 56.5988 57.0798 57.7517C57.0373 58.0297 56.8552 58.2666 56.5978 58.3789C56.3403 58.4912 56.0432 58.4652 55.8104 58.3077C55.5488 58.1311 55.2421 58.0379 54.9258 58.0379C54.0494 58.0379 53.3373 58.75 53.3373 59.6264V62.5198H53.336Z" fill="#270089"/>
<path d="M39.8961 57.0492C39.551 57.0492 39.3004 56.815 38.9266 56.4645C38.6705 56.2248 38.3214 55.8866 37.89 55.4593C37.004 54.5816 35.8825 53.4382 34.8117 52.3235C32.7508 50.1764 30.1929 47.4254 29.7122 46.5148C27.6117 42.5382 27.1543 37.0183 31.1117 34.2988C32.5536 33.3074 34.3379 32.9554 36.0072 33.3334C38.0557 33.7962 39.2443 35.119 39.9153 36.2994C40.5863 35.119 41.7749 33.7962 43.8234 33.3334C45.4926 32.9568 47.2769 33.3087 48.7188 34.2988C52.6763 37.0183 52.2189 42.5382 50.1183 46.5148C49.9061 46.916 49.409 47.0693 49.0078 46.8571C48.6066 46.6448 48.4532 46.1478 48.6654 45.7465C50.1443 42.9476 51.1303 37.9495 47.7877 35.6531C46.7223 34.9205 45.4091 34.6603 44.1849 34.9355C41.3463 35.5764 40.7465 38.5766 40.7232 38.704C40.6493 39.0915 40.3097 39.3736 39.9153 39.3736C39.9139 39.3736 39.9125 39.3736 39.9125 39.3736C39.5168 39.3722 39.1772 39.0901 39.1074 38.6999C39.0841 38.5753 38.4843 35.575 35.6456 34.9342C34.4214 34.6575 33.1082 34.9191 32.0429 35.6517C28.7017 37.9481 29.6876 42.9462 31.1651 45.7452C31.7745 46.8982 38.0831 53.3985 39.9084 55.1334C41.1778 53.9243 44.6943 50.3982 47.0332 47.8978C47.3426 47.5664 47.863 47.5486 48.1944 47.8595C48.5258 48.1689 48.5436 48.6893 48.2327 49.0207C47.0017 50.3366 45.1887 52.2044 43.3811 54.0174C42.5773 54.824 41.8762 55.5169 41.3558 56.0208C41.0861 56.2823 40.8725 56.485 40.7191 56.6233C40.5096 56.8136 40.2617 57.0396 39.9331 57.0451C39.9221 57.0492 39.9098 57.0492 39.8961 57.0492Z" fill="#E3D9FA"/>
</svg>
