<svg width="80" height="80" viewBox="0 0 80 80" fill="none" xmlns="http://www.w3.org/2000/svg">
<path d="M32.5683 45.0595C27.4483 37.1514 29.9017 32.9522 31.7683 31.8411L24.9112 19.6572C21.1626 21.4963 19.7683 24.2549 19.5398 25.4043C18.8541 28.2779 19.3341 36.9675 26.7398 48.7376C35.9969 63.4503 41.8255 64.8296 44.4541 65.0595C46.5569 65.2434 49.2922 63.6035 50.3969 62.7606L43.6541 50.6917C42.0922 52.1093 37.6883 52.9675 32.5683 45.0595Z" fill="white"/>
<path fill-rule="evenodd" clip-rule="evenodd" d="M25.2368 18.6022L32.8511 32.1315L32.1758 32.5335C31.4764 32.9498 30.5287 34.0401 30.3447 35.9779C30.1606 37.9172 30.7414 40.7632 33.2387 44.6204C35.7431 48.4885 37.9907 50.0828 39.6799 50.6034C41.3515 51.1186 42.5494 50.6105 43.1181 50.0943L43.8612 49.4199L51.4359 62.9778L50.8804 63.4016C50.2852 63.8558 49.2738 64.5088 48.1288 65.0285C47.0027 65.5396 45.6414 65.971 44.3848 65.8611C42.9363 65.7344 40.6768 65.2846 37.6036 62.974C34.5555 60.6822 30.7226 56.5723 26.0638 49.1679C22.3175 43.2139 20.3098 38.018 19.3278 33.9234C18.3538 29.8624 18.3788 26.8393 18.7584 25.2309C19.0484 23.8091 20.6211 20.8667 24.5605 18.934L25.2368 18.6022ZM24.5964 20.7312C21.5637 22.4464 20.4883 24.7368 20.3242 25.5621L20.3212 25.5771L20.3177 25.5921C20.0149 26.8609 19.94 29.6135 20.8832 33.5461C21.8212 37.4573 23.7563 42.4913 27.4158 48.3074C32.0141 55.6157 35.7241 59.5517 38.5616 61.6852C41.3742 63.7998 43.3433 64.1547 44.5234 64.2579C45.3696 64.3319 46.4273 64.0353 47.4707 63.5617C48.1835 63.2382 48.8401 62.855 49.3453 62.5209L43.3859 51.8541C42.3558 52.4106 40.9069 52.6646 39.2111 52.142C37.0279 51.4691 34.5136 49.5385 31.8979 45.4985C29.2753 41.4477 28.5227 38.2401 28.752 35.825C28.9394 33.8499 29.7834 32.4438 30.7227 31.6166L24.5964 20.7312Z" fill="#270089"/>
<path d="M25.7377 20.2776C25.0936 19.1857 25.4515 17.7754 26.5372 17.1276L28.503 15.9546C29.5886 15.3067 30.9909 15.6668 31.635 16.7587L37.9337 27.4362C38.5778 28.5281 38.2199 29.9384 37.1342 30.5862L35.1685 31.7592C34.0828 32.407 32.6805 32.047 32.0364 30.9551L25.7377 20.2776Z" fill="white"/>
<path fill-rule="evenodd" clip-rule="evenodd" d="M25.7208 15.7436L27.6866 14.5706C29.5322 13.4693 31.9161 14.0813 33.0111 15.9376L39.3098 26.6151C40.4048 28.4713 39.7963 30.8689 37.9506 31.9702L35.9849 33.1431C34.1392 34.2444 31.7554 33.6324 30.6604 31.7762L24.3617 21.0987C23.2666 19.2425 23.8752 16.8449 25.7208 15.7436ZM26.5372 17.1276C25.4515 17.7754 25.0936 19.1857 25.7377 20.2776L32.0364 30.9551C32.6805 32.047 34.0828 32.407 35.1685 31.7592L37.1342 30.5862C38.2199 29.9384 38.5778 28.5281 37.9337 27.4362L31.635 16.7587C30.9909 15.6668 29.5886 15.3067 28.503 15.9546L26.5372 17.1276Z" fill="#270089"/>
<path d="M44.0441 50.5C43.4 49.4081 43.758 47.9977 44.8436 47.3499L46.8094 46.1769C47.8951 45.5291 49.2973 45.8891 49.9415 46.981L56.448 58.0109C57.0921 59.1028 56.7342 60.5131 55.6485 61.1609L53.6827 62.3339C52.5971 62.9817 51.1948 62.6217 50.5507 61.5298L44.0441 50.5Z" fill="white"/>
<path fill-rule="evenodd" clip-rule="evenodd" d="M44.0272 45.966L45.993 44.793C47.8386 43.6917 50.2225 44.3037 51.3175 46.1599L57.824 57.1898C58.9191 59.046 58.3105 61.4436 56.4649 62.5449L54.4991 63.7179C52.6535 64.8191 50.2696 64.2071 49.1746 62.3509L42.6681 51.3211C41.5731 49.4648 42.1816 47.0673 44.0272 45.966ZM44.8436 47.3499C43.758 47.9977 43.4 49.4081 44.0441 50.5L50.5507 61.5298C51.1948 62.6217 52.5971 62.9817 53.6827 62.3339L55.6485 61.1609C56.7342 60.5131 57.0921 59.1028 56.448 58.0109L49.9415 46.981C49.2973 45.8891 47.8951 45.5291 46.8094 46.1769L44.8436 47.3499Z" fill="#270089"/>
<path fill-rule="evenodd" clip-rule="evenodd" d="M43.3143 22.349C43.3247 21.0794 44.3563 20.0587 45.6186 20.069C54.3942 20.1411 61.4857 27.3177 61.4857 36.1604C61.4857 36.3394 61.4828 36.5177 61.477 36.6954C61.4357 37.9644 60.3794 38.9594 59.1177 38.9178C57.856 38.8762 56.8667 37.8139 56.908 36.5449C56.9122 36.4174 56.9143 36.2892 56.9143 36.1604C56.9143 29.8444 51.8489 24.718 45.5813 24.6666C44.319 24.6562 43.304 23.6186 43.3143 22.349Z" fill="#F154A9"/>
<path d="M57.129 25.1264C59.7561 27.9457 61.3714 31.7786 61.3714 36.0015C61.3714 36.1758 61.3687 36.3496 61.3632 36.5228C61.324 37.7593 60.3221 38.7289 59.1255 38.6884C57.9288 38.6479 56.9906 37.6127 57.0297 36.3761C57.0337 36.2518 57.0357 36.1269 57.0357 36.0015C57.0357 35.8983 57.0343 35.7954 57.0316 35.6929C59.9456 34.6971 58.8318 29.4452 57.129 25.1264Z" fill="#A1005E"/>
<path fill-rule="evenodd" clip-rule="evenodd" d="M45.6093 21.2184C44.9782 21.2132 44.4623 21.7236 44.4572 22.3584C44.452 22.9932 44.9595 23.512 45.5907 23.5172C52.4853 23.5738 58.0571 29.2127 58.0571 36.1604C58.0571 36.3017 58.0548 36.4425 58.0503 36.5826C58.0296 37.217 58.5243 37.7482 59.1551 37.769C59.7859 37.7898 60.3141 37.2923 60.3348 36.6578C60.3401 36.4926 60.3428 36.3268 60.3428 36.1604C60.3428 27.9494 53.7579 21.2853 45.6093 21.2184ZM45.6186 20.069C44.3563 20.0587 43.3247 21.0794 43.3143 22.349C43.304 23.6186 44.319 24.6562 45.5813 24.6666C51.8489 24.718 56.9143 29.8444 56.9143 36.1604C56.9143 36.2892 56.9122 36.4174 56.908 36.5449C56.8667 37.8139 57.856 38.8762 59.1177 38.9178C60.3794 38.9594 61.4357 37.9644 61.477 36.6954C61.4828 36.5177 61.4857 36.3394 61.4857 36.1604C61.4857 27.3177 54.3942 20.1411 45.6186 20.069Z" fill="#E3D9FA"/>
<path fill-rule="evenodd" clip-rule="evenodd" d="M45.7143 31.7931C45.6888 31.7931 45.6633 31.7933 45.638 31.7937C44.3758 31.8148 43.3356 30.8028 43.3146 29.5334C43.2936 28.2639 44.2998 27.2177 45.562 27.1966C45.6127 27.1958 45.6634 27.1954 45.7143 27.1954C50.7006 27.1954 54.7428 31.2608 54.7428 36.2758C54.7428 37.5455 53.7195 38.5747 52.4571 38.5747C51.1948 38.5747 50.1714 37.5455 50.1714 36.2758C50.1714 33.8001 48.1759 31.7931 45.7143 31.7931Z" fill="#F154A9"/>
<path d="M49.4857 33.862C49.9174 34.5524 50.167 35.3695 50.167 36.2452C50.167 37.5148 51.1904 38.5441 52.4528 38.5441C53.7151 38.5441 54.7385 37.5148 54.7385 36.2452C54.7385 36.1284 54.7363 36.0122 54.7319 35.8965C53.3953 35.6771 51.6731 35.0379 49.4857 33.862Z" fill="#A1005E"/>
<path fill-rule="evenodd" clip-rule="evenodd" d="M45.619 30.6444C45.6507 30.6439 45.6824 30.6436 45.7143 30.6436C48.8071 30.6436 51.3143 33.1653 51.3143 36.2758C51.3143 36.9106 51.826 37.4253 52.4571 37.4253C53.0883 37.4253 53.6 36.9106 53.6 36.2758C53.6 31.8956 50.0694 28.3448 45.7143 28.3448C45.6698 28.3448 45.6254 28.3452 45.581 28.3459M45.619 30.6444C44.9879 30.655 44.4678 30.149 44.4573 29.5143L45.619 30.6444ZM44.4573 29.5143C44.4468 28.8796 44.9499 28.3565 45.581 28.3459L44.4573 29.5143ZM45.638 31.7937C45.6633 31.7933 45.6888 31.7931 45.7143 31.7931C48.1759 31.7931 50.1714 33.8001 50.1714 36.2758C50.1714 37.5455 51.1948 38.5747 52.4571 38.5747C53.7195 38.5747 54.7428 37.5455 54.7428 36.2758C54.7428 31.2608 50.7006 27.1954 45.7143 27.1954C45.6634 27.1954 45.6127 27.1958 45.562 27.1966C44.2998 27.2177 43.2936 28.2639 43.3146 29.5334C43.3356 30.8028 44.3758 31.8148 45.638 31.7937Z" fill="#E3D9FA"/>
<path d="M46.5143 29.4942C46.5143 30.129 46.0538 30.6436 45.4857 30.6436C44.9176 30.6436 44.4571 30.129 44.4571 29.4942C44.4571 28.8594 44.9176 28.3448 45.4857 28.3448C46.0538 28.3448 46.5143 28.8594 46.5143 29.4942Z" fill="#F154A9"/>
</svg>
