<svg width="80" height="80" viewBox="0 0 80 80" fill="none" xmlns="http://www.w3.org/2000/svg">
<g clip-path="url(#clip0_9_798)">
<rect x="14.6667" y="13.3251" width="5.33333" height="7.33333" rx="2.66667" transform="rotate(-14.3867 14.6667 13.3251)" fill="white"/>
<rect x="42.6667" y="7.99176" width="5.33333" height="7.33333" rx="2.66667" transform="rotate(-14.3867 42.6667 7.99176)" fill="white"/>
<circle cx="59.6667" cy="55" r="6.33333" fill="white"/>
<path d="M43.0553 56.5608C41.6688 51.8781 36.5859 49.5053 32.0214 51.24C30.4143 51.8513 29.6549 52.7353 29.3114 53.5546C28.9679 52.7353 28.2069 51.8513 26.6014 51.24C22.0369 49.5037 16.954 51.8781 15.5675 56.5608C14.1211 61.4435 16.8989 66.9755 20.3164 70.4039C21.5311 71.6235 22.7018 72.4869 24.4082 72.928C25.0762 73.1014 28.5346 72.3466 29.3114 71.4675C30.0882 72.3466 33.5466 73.1014 34.2147 72.928C35.921 72.4869 37.0901 71.6219 38.3065 70.4039C41.7239 66.9755 44.5017 61.4435 43.0553 56.5608Z" fill="#A1005E"/>
<path d="M59.7414 61.7397C56.6218 61.7397 53.8204 59.5433 53.1791 56.3685C52.8246 54.6148 53.1744 52.8297 54.1638 51.3392C55.1533 49.8487 56.6627 48.8324 58.4164 48.4795C60.17 48.125 61.9551 48.4748 63.4456 49.4642C64.9362 50.4537 65.9524 51.9631 66.3053 53.7168C67.0364 57.3359 64.6872 60.8747 61.0681 61.6073C60.6253 61.6955 60.1794 61.7397 59.7414 61.7397ZM59.754 50.2363C59.4342 50.2363 59.1128 50.2678 58.7929 50.3324C57.534 50.5861 56.4516 51.3156 55.741 52.3854C55.0304 53.4552 54.7799 54.7362 55.0351 55.9951C55.5598 58.5916 58.0997 60.2775 60.6978 59.7544C63.2944 59.2298 64.9818 56.6899 64.4556 54.0917C64.2019 52.8328 63.4724 51.7504 62.4026 51.0398C61.6054 50.5104 60.6899 50.2363 59.754 50.2363Z" fill="#E3D9FA"/>
<path d="M36.4411 50.1039C33.4963 50.1039 30.6161 49.2405 28.1078 47.5751C24.7423 45.3409 22.4466 41.9298 21.6462 37.9687L18.1831 20.8263C18.0791 20.3142 18.41 19.8163 18.922 19.7123C19.4341 19.6083 19.932 19.9392 20.036 20.4513L23.5007 37.5937C24.9455 44.7469 31.9412 49.3918 39.0944 47.9454C46.2476 46.5006 50.8908 39.5049 49.446 32.3517L45.9813 15.2093C45.8773 14.6972 46.2082 14.1993 46.7202 14.0953C47.2323 13.9913 47.7302 14.3238 47.8342 14.8343L51.2989 31.9767C52.9501 40.1525 47.6435 48.1471 39.4694 49.7983C38.461 50.0031 37.4479 50.1039 36.4411 50.1039Z" fill="#270089"/>
<path d="M49.6333 72.3419C45.9906 72.3419 42.7039 69.7847 41.9287 66.0899L38.3568 49.0656C38.2497 48.5551 38.5774 48.0541 39.0879 47.947C39.6 47.8414 40.0994 48.1675 40.2066 48.678L43.7784 65.7023C44.4496 68.9039 47.6055 70.9805 50.8119 70.333L55.6285 69.3593C57.193 69.0426 58.5417 68.1366 59.4241 66.8068C60.3064 65.477 60.6184 63.8825 60.3032 62.3179L58.8663 55.2026C58.7623 54.6905 59.0932 54.1926 59.6053 54.0886C60.1173 53.9846 60.6152 54.3171 60.7192 54.8276L62.1561 61.9429C63.0148 66.1955 60.2544 70.3535 56.0034 71.2122L51.1869 72.1859C50.6653 72.2914 50.1454 72.3419 49.6333 72.3419Z" fill="#270089"/>
<path d="M18.3597 21.3525C16.4879 21.3525 14.8068 20.0338 14.4223 18.1305L14.0804 16.432C13.6424 14.2608 15.051 12.1369 17.2221 11.6973C18.2746 11.4846 19.346 11.6942 20.2394 12.2882C21.1328 12.8822 21.7425 13.7881 21.9552 14.8406L22.2987 16.5391C22.5114 17.5916 22.3019 18.663 21.7079 19.5564C21.1139 20.4497 20.2079 21.0595 19.157 21.2722C18.8907 21.3273 18.6228 21.3525 18.3597 21.3525ZM18.0225 13.5077C17.8807 13.5077 17.7389 13.5218 17.5971 13.5502C16.447 13.7834 15.7017 14.9068 15.9333 16.057L16.2768 17.7555C16.5084 18.9056 17.6334 19.6509 18.7836 19.4193C19.3397 19.3074 19.8203 18.9844 20.1338 18.5102C20.4474 18.0359 20.5593 17.4687 20.4458 16.9125L20.1023 15.214C19.9905 14.6563 19.6675 14.1773 19.1932 13.8637C18.8419 13.629 18.4369 13.5077 18.0225 13.5077Z" fill="#E3D9FA"/>
<path d="M46.1516 15.7371C45.3701 15.7371 44.6043 15.5071 43.9379 15.0659C43.0445 14.4719 42.4348 13.566 42.2221 12.515L41.8786 10.8166C41.6659 9.76406 41.8754 8.69266 42.4694 7.7993C43.0634 6.90594 43.9694 6.29618 45.0203 6.08348C46.0728 5.87077 47.1442 6.08033 48.0376 6.67432C48.9325 7.26832 49.5407 8.17429 49.7534 9.22678L50.0969 10.9253C50.3096 11.9778 50.1 13.0492 49.506 13.9425C48.912 14.8359 48.0061 15.4456 46.9551 15.6584C46.6889 15.7103 46.4194 15.7371 46.1516 15.7371ZM45.8223 7.89068C45.6805 7.89068 45.5387 7.90486 45.3969 7.93322C44.8391 8.04509 44.3601 8.36809 44.0466 8.84234C43.733 9.31659 43.6212 9.88381 43.7346 10.44L44.0781 12.1385C44.19 12.6947 44.513 13.1752 44.9872 13.4888C45.4599 13.8039 46.0287 13.9142 46.5849 13.8023C47.1411 13.6904 47.6216 13.3674 47.9352 12.8932C48.2487 12.4205 48.3606 11.8517 48.2487 11.2955L47.9052 9.59705C47.7933 9.03929 47.4704 8.56031 46.9961 8.24677C46.64 8.012 46.2351 7.89068 45.8223 7.89068Z" fill="#E3D9FA"/>
<path d="M43.0558 56.5608C41.6692 51.8781 36.5864 49.5053 32.0219 51.24C31.5208 51.4306 31.1017 51.6481 30.752 51.8813C31.1238 52.4233 31.4815 52.9621 31.8328 53.4773C35.6142 58.9919 35.1416 65.6094 33.2508 71.7542C33.0933 71.9118 32.7782 71.7542 32.6206 71.9118C32.4662 72.1686 32.3134 72.4254 32.1605 72.6807C33.076 72.8981 33.9189 73.0037 34.2151 72.9264C35.9215 72.4853 37.0906 71.6203 38.3069 70.4023C41.7244 66.9754 44.5022 61.4435 43.0558 56.5608Z" fill="#F154A9"/>
<path d="M33.9833 73.8876C32.8536 73.8876 30.602 73.385 29.3116 72.6381C27.8006 73.5126 24.9756 74.0514 24.1705 73.8435C22.086 73.303 20.764 72.1922 19.6469 71.072C16.3177 67.7317 13.0137 61.8579 14.6602 56.2929C14.8083 55.7919 15.3345 55.5051 15.8356 55.6548C16.3366 55.8029 16.6218 56.3292 16.4737 56.8302C15.1518 61.2938 17.7877 66.5295 20.9862 69.7375C22.0529 70.8073 23.0801 71.603 24.6211 72.0079C25.2939 72.0756 28.1441 71.3619 28.6042 70.8419C28.7838 70.6387 29.0422 70.5221 29.3116 70.5221C29.581 70.5221 29.841 70.6387 30.0191 70.8419C30.4791 71.3619 33.3278 72.0756 34.0022 72.0079C35.5431 71.603 36.5704 70.8073 37.6371 69.7375C38.4185 68.9544 39.1386 68.0831 39.7814 67.1456C40.1265 66.643 40.4463 66.1215 40.7315 65.5999C40.9237 65.2486 41.1034 64.8909 41.2656 64.5348C42.1417 62.6205 43.0067 59.7293 42.1495 56.8318C41.5697 54.8749 40.2447 53.3009 38.4185 52.3965C36.5499 51.4716 34.3409 51.3723 32.3588 52.127C31.237 52.554 30.5059 53.1575 30.1845 53.9232C30.0364 54.2746 29.6929 54.503 29.3132 54.503C28.9335 54.503 28.5884 54.2746 28.4419 53.9232C28.1205 53.1575 27.3894 52.5525 26.2676 52.127C24.6967 51.5299 23.0266 51.4574 21.4368 51.9175C21.0319 52.0357 20.6348 52.1885 20.2567 52.3713C19.9353 52.5272 19.6233 52.7084 19.3287 52.9085C18.8796 53.2142 18.4668 53.5703 18.1013 53.9642C17.7468 54.3471 17.148 54.3707 16.7652 54.0146C16.3823 53.6601 16.3602 53.0614 16.7148 52.6785C17.178 52.179 17.6995 51.7316 18.2636 51.3456C18.6338 51.0935 19.0261 50.865 19.4311 50.6696C19.9038 50.4396 20.4016 50.2489 20.9106 50.1008C22.8974 49.5242 24.9819 49.614 26.9404 50.3577C27.933 50.7358 28.7271 51.2368 29.3148 51.8592C29.9025 51.2368 30.6966 50.7342 31.6892 50.3577C34.1629 49.417 36.9217 49.5415 39.2615 50.6996C41.565 51.8403 43.2351 53.8271 43.9662 56.2929C44.7776 59.0313 44.4389 62.1525 42.9893 65.3211C42.8081 65.7165 42.608 66.1152 42.3953 66.5059C42.0786 67.0842 41.7257 67.6592 41.346 68.2139C40.6386 69.2459 39.8429 70.2086 38.981 71.072C37.8639 72.1922 36.542 73.3046 34.4575 73.8435C34.3362 73.8734 34.1755 73.8876 33.9833 73.8876Z" fill="#270089"/>
<path d="M29.3131 54.2667C29.2705 54.2667 29.228 54.2636 29.1855 54.2589C28.6687 54.1895 28.3063 53.7137 28.374 53.1969C28.3788 53.1607 28.8341 49.5116 27.0411 47.468C26.217 46.529 25.0527 46.0736 23.4818 46.0736C22.9603 46.0736 22.5365 45.6498 22.5365 45.1283C22.5365 44.6068 22.9603 44.1829 23.4818 44.1829C25.6041 44.1829 27.2821 44.8715 28.4701 46.228C30.8272 48.9239 30.2742 53.2631 30.249 53.4474C30.1844 53.9217 29.7779 54.2667 29.3131 54.2667Z" fill="#270089"/>
<path d="M29.9258 50.8461C29.9258 50.8461 28.3928 45.1282 37.0601 43.7764C37.0601 43.7764 38.6436 52.2735 29.9258 50.8461Z" fill="white"/>
<path d="M31.7771 51.9537C31.1516 51.9537 30.4835 51.8954 29.7729 51.7788C29.4058 51.7189 29.1096 51.4495 29.0119 51.0903C28.9867 50.9973 28.4132 48.7726 29.8391 46.5825C31.1059 44.6351 33.4866 43.3777 36.9135 42.842C37.4177 42.7633 37.8951 43.1004 37.9881 43.6031C38.0196 43.7748 38.7444 47.8351 36.3715 50.2631C35.2718 51.3881 33.7308 51.9537 31.7771 51.9537ZM30.7656 50.0063C32.6925 50.2127 34.12 49.855 35.0149 48.9459C36.1352 47.8067 36.2628 45.9932 36.2187 44.8935C33.8978 45.3961 32.2939 46.2989 31.4415 47.5862C30.8349 48.5031 30.7435 49.4264 30.7656 50.0063Z" fill="#270089"/>
</g>
<defs>
<clipPath id="clip0_9_798">
<rect width="52.4405" height="67.8876" fill="white" transform="translate(14 6)"/>
</clipPath>
</defs>
</svg>
