<svg width="80" height="80" viewBox="0 0 80 80" fill="none" xmlns="http://www.w3.org/2000/svg">
<path d="M69.3333 40C69.3333 56.2003 56.2004 69.3333 40 69.3333C23.7997 69.3333 10.6667 56.2003 10.6667 40C10.6667 23.7996 23.7997 10.6667 40 10.6667C56.2004 10.6667 69.3333 23.7996 69.3333 40Z" fill="#A1005E"/>
<path d="M46.7692 12.3271C34.277 15.4217 25.0166 26.7077 25.0166 40.1566C25.0166 53.6055 34.277 64.8915 46.7692 67.9861C44.5541 68.5348 42.2373 68.826 39.8525 68.826C24.0188 68.826 11.1831 55.9903 11.1831 40.1566C11.1831 24.3229 24.0188 11.4872 39.8525 11.4872C42.2373 11.4872 44.5541 11.7784 46.7692 12.3271Z" fill="#F154A9"/>
<path d="M48.1098 41.474C49.0269 42.9904 50.4308 43.8346 51.916 44.7271C52.791 45.1586 54.8632 46.5983 56.1513 48.9047C56.4506 49.6566 56.603 50.4589 56.6003 51.2682C56.6003 54.6669 53.958 57.4321 50.7106 57.4321C49.043 57.4321 47.2825 56.8612 45.4154 56.2556L45.3644 56.2391C43.554 55.6472 41.6803 55.0356 40.0561 55.0356C38.4319 55.0356 36.5534 55.6472 34.7364 56.2391C32.8466 56.8545 31.0607 57.4359 29.3827 57.4359C26.1305 57.4359 23.4835 54.6707 23.4835 51.272C23.4776 50.4633 23.6268 49.661 23.9231 48.9085C24.5762 46.7558 27.0188 45.2283 28.1584 44.7337L28.1631 44.7309C29.6513 43.8357 31.056 42.9907 31.974 41.474C34.5095 37.2765 36.041 34.7429 40.0466 34.7429C44.0522 34.7429 45.58 37.2765 48.1098 41.474Z" fill="white"/>
<path fill-rule="evenodd" clip-rule="evenodd" d="M51.2838 45.8853L51.2369 45.8571C51.2057 45.8384 51.1744 45.8196 51.143 45.8008C49.72 44.9462 48.0695 43.9551 46.9817 42.1562L46.9807 42.1546C45.6845 40.004 44.7632 38.4945 43.7157 37.4826C42.76 36.5595 41.7041 36.0612 40.0466 36.0612C38.3891 36.0612 37.3319 36.5595 36.3743 37.4832C35.3251 38.4954 34.4014 40.0053 33.1025 42.1557L33.1019 42.1566C32.0138 43.9544 30.364 44.9461 28.9391 45.8027C28.9068 45.822 28.8747 45.8414 28.8426 45.8606L28.7633 45.9084L28.6833 45.9431C28.2245 46.1422 27.4424 46.5803 26.7144 47.2019C25.976 47.8325 25.4087 48.5531 25.1847 49.2913L25.1693 49.3421L25.1498 49.3914C24.9153 49.9871 24.7972 50.6223 24.8018 51.2625L24.8018 51.2672V51.272C24.8018 53.9976 26.9125 56.1175 29.3827 56.1175C30.8101 56.1175 32.3836 55.6187 34.3281 54.9855C34.3665 54.973 34.4051 54.9604 34.4438 54.9478C36.1745 54.3838 38.2201 53.7172 40.0561 53.7172C41.8947 53.7172 43.9384 54.3856 45.6644 54.9501C45.7006 54.9619 45.7366 54.9737 45.7725 54.9854C45.773 54.9856 45.7735 54.9857 45.7741 54.9859L45.8221 55.0015L45.4154 56.2556L45.3644 56.2391C43.554 55.6472 41.6803 55.0356 40.0561 55.0356C38.4319 55.0356 36.5534 55.6472 34.7364 56.2391C32.8466 56.8545 31.0607 57.4359 29.3827 57.4359C26.1305 57.4359 23.4835 54.6707 23.4835 51.272C23.4776 50.4633 23.6268 49.661 23.9231 48.9085C24.5762 46.7558 27.0188 45.2283 28.1584 44.7337L28.1631 44.7309C29.6513 43.8357 31.056 42.9907 31.974 41.474C34.5095 37.2765 36.041 34.7429 40.0466 34.7429C44.0522 34.7429 45.58 37.2765 48.1098 41.474C49.0269 42.9904 50.4308 43.8346 51.916 44.7271C52.791 45.1586 54.8632 46.5983 56.1513 48.9047C56.4506 49.6566 56.603 50.4589 56.6003 51.2682C56.6003 54.6669 53.958 57.4321 50.7106 57.4321C49.043 57.4321 47.2825 56.8612 45.4154 56.2556L45.8221 55.0015C47.7428 55.6244 49.2923 56.1137 50.7106 56.1137C53.174 56.1137 55.282 53.9959 55.282 51.2682V51.266L55.282 51.2639C55.284 50.6512 55.1737 50.0435 54.9569 49.471C53.8232 47.4914 52.0155 46.2462 51.3328 45.9095L51.2838 45.8853Z" fill="#E3D9FA"/>
<path d="M61.7205 39.5347C60.0357 43.3838 56.4006 45.5107 53.6013 44.2854C50.802 43.0601 49.8985 38.9466 51.5833 35.0975C53.2681 31.2485 56.9032 29.1215 59.7025 30.3468C62.5018 31.5721 63.4053 35.6857 61.7205 39.5347Z" fill="white"/>
<path fill-rule="evenodd" clip-rule="evenodd" d="M57.413 42.6751C58.617 41.9706 59.77 40.703 60.5127 39.0061C61.2555 37.3091 61.4046 35.6021 61.1053 34.2397C60.8057 32.8757 60.0919 31.9564 59.1738 31.5545C58.2558 31.1527 57.0961 31.2519 55.8908 31.9572C54.6868 32.6616 53.5338 33.9292 52.791 35.6262C52.0483 37.3232 51.8992 39.0301 52.1985 40.3926C52.498 41.7565 53.2119 42.6758 54.13 43.0777C55.048 43.4795 56.2077 43.3803 57.413 42.6751ZM53.6013 44.2854C56.4006 45.5107 60.0357 43.3838 61.7205 39.5347C63.4053 35.6857 62.5018 31.5721 59.7025 30.3468C56.9032 29.1215 53.2681 31.2485 51.5833 35.0975C49.8985 38.9466 50.802 43.0601 53.6013 44.2854Z" fill="#E3D9FA"/>
<path d="M18.4352 39.7003C20.12 43.5494 23.7551 45.6764 26.5544 44.4511C29.3537 43.2258 30.2572 39.1122 28.5724 35.2631C26.8876 31.4141 23.2525 29.2871 20.4532 30.5124C17.6539 31.7377 16.7504 35.8513 18.4352 39.7003Z" fill="white"/>
<path fill-rule="evenodd" clip-rule="evenodd" d="M22.7427 42.8407C21.5387 42.1362 20.3857 40.8687 19.643 39.1717C18.9002 37.4747 18.7511 35.7677 19.0504 34.4053C19.35 33.0413 20.0638 32.122 20.9819 31.7202C21.8999 31.3183 23.0596 31.4175 24.2649 32.1228C25.4689 32.8272 26.6219 34.0948 27.3647 35.7918C28.1074 37.4888 28.2565 39.1958 27.9572 40.5582C27.6577 41.9221 26.9438 42.8415 26.0257 43.2433C25.1077 43.6452 23.948 43.5459 22.7427 42.8407ZM26.5544 44.4511C23.7551 45.6764 20.12 43.5494 18.4352 39.7003C16.7504 35.8513 17.6539 31.7377 20.4532 30.5124C23.2525 29.2871 26.8876 31.4141 28.5724 35.2631C30.2572 39.1122 29.3537 43.2258 26.5544 44.4511Z" fill="#E3D9FA"/>
<path d="M51.9734 28.3828C51.463 32.5533 48.5904 35.6333 45.5573 35.2621C42.5242 34.8909 40.4791 31.2091 40.9895 27.0386C41.4999 22.8681 44.3725 19.7881 47.4056 20.1593C50.4387 20.5305 52.4838 24.2123 51.9734 28.3828Z" fill="white"/>
<path fill-rule="evenodd" clip-rule="evenodd" d="M48.7472 32.6264C49.6986 31.6063 50.4397 30.0614 50.6648 28.2227C50.8898 26.3839 50.5431 24.7059 49.8658 23.4865C49.1877 22.2657 48.2402 21.5897 47.2455 21.4679C46.2507 21.3462 45.1682 21.7738 44.2157 22.795C43.2643 23.8151 42.5232 25.36 42.2982 27.1987C42.0731 29.0375 42.4198 30.7155 43.0971 31.9349C43.7752 33.1557 44.7227 33.8317 45.7174 33.9535C46.7122 34.0752 47.7947 33.6476 48.7472 32.6264ZM45.5573 35.2621C48.5904 35.6333 51.463 32.5533 51.9734 28.3828C52.4838 24.2123 50.4387 20.5305 47.4056 20.1593C44.3725 19.7881 41.4999 22.8681 40.9895 27.0386C40.4791 31.2091 42.5242 34.8909 45.5573 35.2621Z" fill="#E3D9FA"/>
<path d="M28.1823 28.5484C28.6927 32.719 31.5653 35.7989 34.5984 35.4277C37.6315 35.0565 39.6766 31.3747 39.1662 27.2042C38.6558 23.0337 35.7832 19.9537 32.7501 20.3249C29.717 20.6961 27.6719 24.3779 28.1823 28.5484Z" fill="white"/>
<path fill-rule="evenodd" clip-rule="evenodd" d="M31.4085 32.792C30.4571 31.7719 29.716 30.227 29.4909 28.3883C29.2659 26.5496 29.6126 24.8715 30.2899 23.6521C30.968 22.4313 31.9155 21.7553 32.9102 21.6335C33.9049 21.5118 34.9875 21.9394 35.94 22.9606C36.8914 23.9807 37.6325 25.5256 37.8575 27.3644C38.0826 29.2031 37.7359 30.8811 37.0586 32.1005C36.3805 33.3213 35.433 33.9973 34.4382 34.1191C33.4435 34.2408 32.361 33.8132 31.4085 32.792ZM34.5984 35.4277C31.5653 35.7989 28.6927 32.719 28.1823 28.5484C27.6719 24.3779 29.717 20.6961 32.7501 20.3249C35.7832 19.9537 38.6558 23.0337 39.1662 27.2042C39.6766 31.3747 37.6315 35.0565 34.5984 35.4277Z" fill="#E3D9FA"/>
<path fill-rule="evenodd" clip-rule="evenodd" d="M40 67.8974C55.4073 67.8974 67.8974 55.4073 67.8974 40C67.8974 24.5927 55.4073 12.1026 40 12.1026C24.5927 12.1026 12.1026 24.5927 12.1026 40C12.1026 55.4073 24.5927 67.8974 40 67.8974ZM40 69.3333C56.2004 69.3333 69.3333 56.2003 69.3333 40C69.3333 23.7996 56.2004 10.6667 40 10.6667C23.7997 10.6667 10.6667 23.7996 10.6667 40C10.6667 56.2003 23.7997 69.3333 40 69.3333Z" fill="#270089"/>
</svg>
