<svg width="80" height="80" viewBox="0 0 80 80" fill="none" xmlns="http://www.w3.org/2000/svg">
<path d="M65.9829 31.1623V22.6781H57.8917H51.2821H13.3333V31.1623C15.9421 31.6336 21.1596 33.2126 21.1596 38.586C21.1596 43.9593 15.9421 46.0097 13.3333 46.0097V57.3219H65.9829V46.0097C63.6113 46.2453 58.5124 44.5249 58.5124 38.586C58.5124 32.647 63.6113 31.398 65.9829 31.1623Z" fill="white"/>
<path fill-rule="evenodd" clip-rule="evenodd" d="M12.7635 22.6781C12.7635 22.2375 13.1207 21.8803 13.5613 21.8803H51.51C51.9506 21.8803 52.3077 22.2375 52.3077 22.6781C52.3077 23.1186 51.9506 23.4758 51.51 23.4758H14.359V30.5087C15.6727 30.7985 17.4044 31.3431 18.9058 32.3793C20.7073 33.6227 22.1853 35.5871 22.1853 38.586C22.1853 41.5722 20.7201 43.6519 18.9215 44.9582C17.4523 46.0254 15.7397 46.5956 14.359 46.7581V56.5242H65.4131V46.8177C64.1179 46.7438 62.5091 46.2712 61.1169 45.2584C59.3468 43.9707 57.9426 41.8197 57.9426 38.586C57.9426 35.3414 59.357 33.3044 61.1332 32.0788C62.5613 31.0934 64.1878 30.654 65.4131 30.4609V23.4758H58.1197C57.6791 23.4758 57.3219 23.1186 57.3219 22.6781C57.3219 22.2375 57.6791 21.8803 58.1197 21.8803H66.2108C66.6514 21.8803 67.0086 22.2375 67.0086 22.6781V31.1623C67.0086 31.5723 66.6977 31.9155 66.2897 31.9561C65.1644 32.0679 63.4511 32.4179 62.0393 33.392C60.6731 34.3346 59.538 35.8915 59.538 38.586C59.538 41.2912 60.6832 42.9699 62.0555 43.9682C63.4692 44.9967 65.1419 45.3142 66.132 45.2158C66.3561 45.1936 66.5793 45.2671 66.7463 45.4183C66.9133 45.5696 67.0086 45.7844 67.0086 46.0096V57.3219C67.0086 57.7625 66.6514 58.1197 66.2108 58.1197H13.5613C13.1207 58.1197 12.7635 57.7625 12.7635 57.3219V46.0096C12.7635 45.5691 13.1207 45.2119 13.5613 45.2119C14.6994 45.2119 16.4915 44.7513 17.9839 43.6674C19.4463 42.6052 20.5898 40.9731 20.5898 38.586C20.5898 36.2115 19.459 34.6997 17.9996 33.6924C16.5062 32.6617 14.68 32.175 13.4194 31.9473C13.0397 31.8787 12.7635 31.5481 12.7635 31.1623V22.6781ZM53.1054 22.6781C53.1054 22.2375 53.4626 21.8803 53.9031 21.8803H55.6125C56.0531 21.8803 56.4103 22.2375 56.4103 22.6781C56.4103 23.1186 56.0531 23.4758 55.6125 23.4758H53.9031C53.4626 23.4758 53.1054 23.1186 53.1054 22.6781Z" fill="#270089"/>
<circle cx="39.886" cy="40.3419" r="11.9658" fill="#F154A9"/>
<path d="M39.4726 32.4572C39.636 32.1054 40.1361 32.1054 40.2995 32.4572L42.3298 36.8291C42.3963 36.9722 42.5319 37.0707 42.6884 37.0897L47.4738 37.6696C47.8589 37.7163 48.0134 38.192 47.7293 38.456L44.1988 41.738C44.0833 41.8454 44.0315 42.0048 44.0618 42.1596L44.989 46.89C45.0636 47.2706 44.659 47.5646 44.32 47.376L40.1077 45.0324C39.9699 44.9558 39.8022 44.9558 39.6644 45.0324L35.452 47.376C35.1131 47.5646 34.7085 47.2706 34.7831 46.89L35.7103 42.1596C35.7406 42.0048 35.6888 41.8454 35.5733 41.738L32.0427 38.456C31.7586 38.192 31.9132 37.7163 32.2982 37.6696L37.0836 37.0897C37.2402 37.0707 37.3758 36.9722 37.4422 36.8291L39.4726 32.4572Z" fill="#A1005E"/>
<path fill-rule="evenodd" clip-rule="evenodd" d="M38.7491 32.1212C39.1984 31.1538 40.5737 31.1538 41.023 32.1212L42.9732 36.3206L47.5698 36.8777C48.6287 37.0061 49.0537 38.3141 48.2725 39.0403L44.8812 42.1928L45.7718 46.7366C45.977 47.7833 44.8643 48.5917 43.9322 48.0731L39.886 45.822L35.8399 48.0731C34.9078 48.5917 33.7951 47.7833 34.0003 46.7366L34.8909 42.1928L31.4996 39.0403C30.7184 38.3141 31.1434 37.0061 32.2023 36.8777L36.7988 36.3206L38.7491 32.1212ZM39.886 33.4609L38.1657 37.1652C37.9831 37.5585 37.6101 37.8294 37.1796 37.8816L33.125 38.373L36.1164 41.1538C36.434 41.4491 36.5765 41.8875 36.4931 42.313L35.7075 46.321L39.2766 44.3354C39.6555 44.1245 40.1165 44.1245 40.4955 44.3354L44.0646 46.321L43.279 42.313C43.1956 41.8875 43.338 41.4491 43.6556 41.1538L46.647 38.373L42.5924 37.8816C42.1619 37.8294 41.789 37.5585 41.6063 37.1652L39.886 33.4609Z" fill="#E3D9FA"/>
</svg>
