<svg width="547" height="140" viewBox="0 0 547 140" fill="none" xmlns="http://www.w3.org/2000/svg">
<g filter="url(#filter0_d_52_17)">
<path d="M15.0623 107.971H20.3295L15.8269 100.951C17.8942 99.9009 19.1685 97.9386 19.1685 95.2301C19.1685 90.9739 16.1384 88.3483 11.834 88.3483H4.32959V107.971H9.31365V101.808H11.2676L15.0623 107.971ZM9.31365 97.6622V92.798H11.3526C12.9101 92.798 14.1278 93.3231 14.1278 95.2301C14.1278 97.1648 12.9101 97.6622 11.3526 97.6622H9.31365Z" fill="black"/>
<path d="M23.6658 107.971H35.7578V103.521H28.6499V100.288H34.3702V95.8934H28.6499V92.798H35.5313V88.3483H23.6658V107.971Z" fill="black"/>
<path d="M47.1695 108.247C51.5023 108.247 55.0421 105.539 55.0421 100.454V88.3483H50.058V100.481C50.058 103.245 48.3023 103.687 47.1695 103.687C46.0085 103.687 44.2527 103.245 44.2527 100.481V88.3483H39.2687V100.454C39.2687 105.539 42.8085 108.247 47.1695 108.247Z" fill="black"/>
<path d="M58.9367 107.971H63.9208V96.308H64.0624L71.765 107.971H76.7491V88.3483H71.765V100.011H71.6234L63.9208 88.3483H58.9367V107.971Z" fill="black"/>
<path d="M80.6513 107.971H85.6353V88.3483H80.6513V107.971Z" fill="black"/>
<path d="M99.7287 108.247C105.449 108.247 110.178 104.157 110.178 98.1597C110.178 92.1623 105.449 88.072 99.7287 88.072C93.98 88.072 89.2508 92.1623 89.2508 98.1597C89.2508 104.157 93.98 108.247 99.7287 108.247ZM94.3765 98.1597C94.3765 94.8156 96.7552 92.6875 99.7287 92.6875C102.674 92.6875 105.053 94.8156 105.053 98.1597C105.053 101.504 102.674 103.632 99.7287 103.632C96.7552 103.632 94.3765 101.504 94.3765 98.1597ZM98.0012 86.6348H101.711L104.798 82.2681H101.003L98.0012 86.6348Z" fill="black"/>
<path d="M113.793 107.971H118.777V96.308H118.918L126.621 107.971H131.605V88.3483H126.621V100.011H126.479L118.777 88.3483H113.793V107.971Z" fill="black"/>
<path d="M142.565 107.971H150.806C156.073 107.971 160.406 103.881 160.406 98.1597C160.406 92.4387 156.073 88.3483 150.806 88.3483H142.565V107.971ZM147.549 103.383V92.9362H150.636C153.694 92.9362 155.195 95.1196 155.195 98.1597C155.195 101.2 153.694 103.383 150.636 103.383H147.549Z" fill="black"/>
<path d="M163.754 107.971H175.846V103.521H168.738V100.288H174.458V95.8934H168.738V92.798H175.619V88.3483H163.754V107.971Z" fill="black"/>
<path d="M186.414 107.971H191.398V100.205H197.798V96.0316H191.398V92.798H198.082V88.3483H186.414V107.971Z" fill="black"/>
<path d="M209.476 108.247C213.808 108.247 217.348 105.539 217.348 100.454V88.3483H212.364V100.481C212.364 103.245 210.608 103.687 209.476 103.687C208.314 103.687 206.559 103.245 206.559 100.481V88.3483H201.575V100.454C201.575 105.539 205.114 108.247 209.476 108.247Z" fill="black"/>
<path d="M221.243 107.971H226.227V96.308H226.368L234.071 107.971H239.055V88.3483H234.071V100.011H233.929L226.227 88.3483H221.243V107.971Z" fill="black"/>
<path d="M253.152 108.247C256.097 108.247 259.467 107.197 261.534 103.687L257.938 101.255C256.89 102.803 255.389 103.632 253.35 103.632C250.348 103.632 247.8 101.642 247.8 98.1597C247.8 94.7326 250.292 92.6875 253.294 92.6875C255.276 92.6875 256.89 93.5166 257.938 95.0367L261.534 92.6322C259.467 89.1222 256.125 88.072 253.18 88.072C247.488 88.072 242.674 91.9965 242.674 98.1597C242.674 104.323 247.46 108.247 253.152 108.247Z" fill="black"/>
<path d="M264.865 107.971H269.849V88.3483H264.865V107.971Z" fill="black"/>
<path d="M283.943 108.247C289.663 108.247 294.392 104.157 294.392 98.1597C294.392 92.1623 289.663 88.072 283.943 88.072C278.194 88.072 273.465 92.1623 273.465 98.1597C273.465 104.157 278.194 108.247 283.943 108.247ZM278.591 98.1597C278.591 94.8156 280.969 92.6875 283.943 92.6875C286.888 92.6875 289.267 94.8156 289.267 98.1597C289.267 101.504 286.888 103.632 283.943 103.632C280.969 103.632 278.591 101.504 278.591 98.1597Z" fill="black"/>
<path d="M298.007 107.971H302.991V96.308H303.133L310.835 107.971H315.819V88.3483H310.835V100.011H310.694L302.991 88.3483H298.007V107.971Z" fill="black"/>
<path d="M326.178 88.3483L318.589 107.971H323.998L324.989 105.18H332.748L333.739 107.971H339.12L331.53 88.3483H326.178ZM326.575 100.73L328.84 94.3181L331.134 100.73H326.575Z" fill="black"/>
<path d="M352.639 107.971H357.906L353.403 100.951C355.471 99.9009 356.745 97.9386 356.745 95.2301C356.745 90.9739 353.715 88.3483 349.411 88.3483H341.906V107.971H346.89V101.808H348.844L352.639 107.971ZM346.89 97.6622V92.798H348.929C350.487 92.798 351.704 93.3231 351.704 95.2301C351.704 97.1648 350.487 97.6622 348.929 97.6622H346.89Z" fill="black"/>
<path d="M360.966 107.971H365.95V88.3483H360.966V107.971Z" fill="black"/>
<path d="M380.043 108.247C385.764 108.247 390.493 104.157 390.493 98.1597C390.493 92.1623 385.764 88.072 380.043 88.072C374.295 88.072 369.565 92.1623 369.565 98.1597C369.565 104.157 374.295 108.247 380.043 108.247ZM374.691 98.1597C374.691 94.8156 377.07 92.6875 380.043 92.6875C382.988 92.6875 385.367 94.8156 385.367 98.1597C385.367 101.504 382.988 103.632 380.043 103.632C377.07 103.632 374.691 101.504 374.691 98.1597Z" fill="black"/>
<path d="M399.877 108.247C403.303 108.247 407.183 106.285 407.183 102.057C407.183 99.431 405.71 97.8004 402 96.3356L400.641 95.8105C398.602 95.0367 398.177 94.4563 398.177 93.7377C398.177 92.798 398.97 92.3558 400.018 92.3558C401.066 92.3558 402.029 92.8809 402.907 94.3181L406.588 92.2729C405.597 90.2001 403.388 88.072 399.82 88.072C396.28 88.072 393.278 90.1724 393.278 93.6548C393.278 96.9989 395.912 98.4084 398.517 99.431L399.763 99.9009C401.547 100.592 402 101.062 402 102.001C402 103.328 400.953 103.881 399.792 103.881C398.036 103.881 397.13 102.609 396.563 101.476L392.542 103.3C393.307 106.175 396.308 108.247 399.877 108.247Z" fill="black"/>
<path d="M417.431 107.971H422.415V100.205H428.815V96.0316H422.415V92.798H429.099V88.3483H417.431V107.971Z" fill="black"/>
<path d="M432.592 107.971H437.576V88.3483H432.592V107.971Z" fill="black"/>
<path d="M448.101 108.247C451.528 108.247 455.407 106.285 455.407 102.057C455.407 99.431 453.935 97.8004 450.225 96.3356L448.866 95.8105C446.827 95.0367 446.402 94.4563 446.402 93.7377C446.402 92.798 447.195 92.3558 448.243 92.3558C449.29 92.3558 450.253 92.8809 451.131 94.3181L454.812 92.2729C453.821 90.2001 451.612 88.072 448.044 88.072C444.504 88.072 441.503 90.1724 441.503 93.6548C441.503 96.9989 444.136 98.4084 446.742 99.431L447.988 99.9009C449.772 100.592 450.225 101.062 450.225 102.001C450.225 103.328 449.177 103.881 448.016 103.881C446.26 103.881 445.354 102.609 444.788 101.476L440.766 103.3C441.531 106.175 444.533 108.247 448.101 108.247Z" fill="black"/>
<path d="M468.655 108.247C471.6 108.247 474.97 107.197 477.037 103.687L473.441 101.255C472.393 102.803 470.892 103.632 468.853 103.632C465.851 103.632 463.302 101.642 463.302 98.1597C463.302 94.7326 465.794 92.6875 468.796 92.6875C470.779 92.6875 472.393 93.5166 473.441 95.0367L477.037 92.6322C474.97 89.1222 471.628 88.072 468.683 88.072C462.991 88.072 458.177 91.9965 458.177 98.1597C458.177 104.323 462.963 108.247 468.655 108.247Z" fill="black"/>
<path d="M486.272 88.3483L478.682 107.971H484.091L485.082 105.18H492.842L493.833 107.971H499.213L491.624 88.3483H486.272ZM486.668 100.73L488.934 94.3181L491.227 100.73H486.668Z" fill="black"/>
<path d="M502 107.971H514.12V103.521H506.984V88.3483H502V107.971Z" fill="black"/>
<path d="M517.464 107.971H529.556V103.521H522.448V100.288H528.169V95.8934H522.448V92.798H529.33V88.3483H517.464V107.971Z" fill="black"/>
<path d="M539.694 108.247C543.12 108.247 547 106.285 547 102.057C547 99.431 545.527 97.8004 541.818 96.3356L540.458 95.8105C538.419 95.0367 537.995 94.4563 537.995 93.7377C537.995 92.798 538.787 92.3558 539.835 92.3558C540.883 92.3558 541.846 92.8809 542.724 94.3181L546.405 92.2729C545.414 90.2001 543.205 88.072 539.637 88.072C536.097 88.072 533.095 90.1724 533.095 93.6548C533.095 96.9989 535.729 98.4084 538.334 99.431L539.58 99.9009C541.364 100.592 541.818 101.062 541.818 102.001C541.818 103.328 540.77 103.881 539.609 103.881C537.853 103.881 536.947 102.609 536.38 101.476L532.359 103.3C533.124 106.175 536.125 108.247 539.694 108.247Z" fill="black"/>
</g>
<g filter="url(#filter1_d_52_17)">
<path d="M33.467 63.5052H40.2763L27.4545 44.3084C34.3363 42.1352 38.3929 36.4848 38.3929 28.8061C38.3929 19.0266 31.7284 12.0722 20.8625 12.0722H4.27393V63.5052H10.5037V45.2501H20.8625H21.4421L33.467 63.5052ZM10.5037 39.7446V17.8675H20.1381C27.3821 17.8675 32.0182 21.562 32.0182 28.8061C32.0182 36.0501 27.3821 39.7446 20.1381 39.7446H10.5037Z" fill="#FF008C"/>
<path d="M62.5678 63.5052H90.8192V57.7099H68.7976V40.5415H86.9799V34.8186H68.7976V17.8675H90.1672V12.0722H62.5678V63.5052Z" fill="#FF008C"/>
<path d="M135.958 64.2296C149.577 64.2296 160.95 54.1603 159.646 37.3541H139V42.6422H153.561C152.329 53.5808 144.723 58.4343 136.248 58.4343C125.237 58.4343 116.254 50.1761 116.254 37.7887C116.254 25.4013 125.164 17.3604 136.248 17.3604C141.318 17.3604 147.403 19.0266 151.677 24.7494L156.169 21.4171C150.591 13.4486 142.405 11.3478 136.103 11.3478C121.76 11.3478 109.88 22.0691 109.88 37.7887C109.88 53.5083 121.76 64.2296 135.958 64.2296Z" fill="#FF008C"/>
<path d="M182.834 63.5052H189.064V12.0722H182.834V63.5052Z" fill="#FF008C"/>
<path d="M228.261 64.2296C236.881 64.2296 244.777 59.1587 244.777 49.669C244.777 41.7729 239.489 38.006 231.086 34.6738L227.609 33.2974C221.524 30.9068 219.351 28.0816 219.351 24.4596C219.351 19.8234 223.118 17.0707 228.044 17.0707C233.259 17.0707 236.592 19.8958 238.62 24.5321L243.401 22.0691C241.373 16.4911 236.374 11.3478 227.899 11.3478C219.568 11.3478 213.121 16.4187 213.121 24.3872C213.121 31.0517 217.685 35.2533 225.219 38.2958L228.623 39.5997C234.636 41.9903 238.403 44.3084 238.403 49.5965C238.403 55.4642 233.694 58.4343 228.261 58.4343C222.104 58.4343 217.612 54.6674 216.164 49.3068L211.02 51.6973C212.759 59.0863 219.568 64.2296 228.261 64.2296Z" fill="#FF008C"/>
<path d="M276.354 63.5052H282.584V17.8675H296.202V12.0722H262.735V17.8675H276.354V63.5052Z" fill="#FF008C"/>
<path d="M347.364 63.5052H354.174L341.352 44.3084C348.234 42.1352 352.29 36.4848 352.29 28.8061C352.29 19.0266 345.626 12.0722 334.76 12.0722H318.171V63.5052H324.401V45.2501H334.76H335.339L347.364 63.5052ZM324.401 39.7446V17.8675H334.035C341.279 17.8675 345.916 21.562 345.916 28.8061C345.916 36.0501 341.279 39.7446 334.035 39.7446H324.401Z" fill="#FF008C"/>
<path d="M398.637 64.2296C412.546 64.2296 424.715 53.5808 424.715 37.7887C424.715 21.9966 412.546 11.3478 398.637 11.3478C384.656 11.3478 372.487 21.9966 372.487 37.7887C372.487 53.5808 384.656 64.2296 398.637 64.2296ZM378.861 37.7887C378.861 25.3289 388.206 17.3604 398.637 17.3604C408.996 17.3604 418.341 25.3289 418.341 37.7887C418.341 50.2485 408.996 58.217 398.637 58.217C388.206 58.217 378.861 50.2485 378.861 37.7887Z" fill="#FF008C"/>
</g>
<path d="M0 116.907H547V140H0V116.907Z" fill="black"/>
<path d="M10.103 129.82H13.4354V128.707H11.3566V127.624H13.0387V126.527H11.3566V125.483H13.364V124.369H10.103V129.82Z" fill="white"/>
<path d="M15.9269 129.82H19.2751V128.707H17.1805V124.369H15.9269V129.82Z" fill="white"/>
<path d="M25.1959 129.82H28.5282V128.707H26.4494V127.624H28.1315V126.527H26.4494V125.483H28.4568V124.369H25.1959V129.82Z" fill="white"/>
<path d="M32.8921 129.82H34.2251L36.3752 124.369H35.0185L33.5586 128.323L32.0987 124.369H30.742L32.8921 129.82Z" fill="white"/>
<path d="M38.7108 129.82H42.0432V128.707H39.9644V127.624H41.6465V126.527H39.9644V125.483H41.9718V124.369H38.7108V129.82Z" fill="white"/>
<path d="M44.5347 129.82H45.7883V126.358H45.8279L48.1844 129.82H49.438V124.369H48.1844V127.832H48.1447L45.7883 124.369H44.5347V129.82Z" fill="white"/>
<path d="M53.1505 129.82H54.404V125.483H55.7052V124.369H51.8493V125.483H53.1505V129.82Z" fill="white"/>
<path d="M60.5647 129.897C62.1515 129.897 63.4844 128.761 63.4844 127.095C63.4844 125.429 62.1515 124.293 60.5647 124.293C58.9699 124.293 57.6449 125.429 57.6449 127.095C57.6449 128.761 58.9699 129.897 60.5647 129.897ZM58.9382 127.095C58.9382 126.089 59.676 125.444 60.5647 125.444C61.4533 125.444 62.1912 126.089 62.1912 127.095C62.1912 128.1 61.4533 128.745 60.5647 128.745C59.676 128.745 58.9382 128.1 58.9382 127.095Z" fill="white"/>
<path d="M69.4804 129.82H71.6702C73.1777 129.82 74.3678 128.692 74.3678 127.095C74.3678 125.498 73.1777 124.369 71.6702 124.369H69.4804V129.82ZM70.734 128.676V125.513H71.6226C72.5747 125.513 73.0666 126.166 73.0666 127.095C73.0666 128.024 72.5747 128.676 71.6226 128.676H70.734Z" fill="white"/>
<path d="M76.8229 129.82H80.1552V128.707H78.0765V127.624H79.7585V126.527H78.0765V125.483H80.0838V124.369H76.8229V129.82Z" fill="white"/>
<path d="M86.1151 129.82H87.3687V127.601H89.2332V126.565H87.3687V125.475H89.3364V124.369H86.1151V129.82Z" fill="white"/>
<path d="M94.0044 129.897C95.2025 129.897 96.1784 129.152 96.1784 127.755V124.369H94.9248V127.763C94.9248 128.576 94.4091 128.761 94.0044 128.761C93.5998 128.761 93.0841 128.576 93.0841 127.763V124.369H91.8305V127.755C91.8305 129.152 92.7984 129.897 94.0044 129.897Z" fill="white"/>
<path d="M98.7855 129.82H100.039V126.358H100.079L102.435 129.82H103.689V124.369H102.435V127.832H102.396L100.039 124.369H98.7855V129.82Z" fill="white"/>
<path d="M109.139 129.897C109.94 129.897 110.876 129.621 111.456 128.669L110.551 128.062C110.226 128.523 109.758 128.745 109.186 128.745C108.274 128.745 107.512 128.131 107.512 127.095C107.512 126.074 108.258 125.444 109.179 125.444C109.726 125.444 110.226 125.667 110.551 126.127L111.456 125.521C110.876 124.569 109.948 124.293 109.147 124.293C107.56 124.293 106.219 125.39 106.219 127.095C106.219 128.799 107.552 129.897 109.139 129.897Z" fill="white"/>
<path d="M113.904 129.82H115.158V124.369H113.904V129.82Z" fill="white"/>
<path d="M120.608 129.897C122.195 129.897 123.528 128.761 123.528 127.095C123.528 125.429 122.195 124.293 120.608 124.293C119.014 124.293 117.689 125.429 117.689 127.095C117.689 128.761 119.014 129.897 120.608 129.897ZM118.982 127.095C118.982 126.089 119.72 125.444 120.608 125.444C121.497 125.444 122.235 126.089 122.235 127.095C122.235 128.1 121.497 128.745 120.608 128.745C119.72 128.745 118.982 128.1 118.982 127.095Z" fill="white"/>
<path d="M126.056 129.82H127.309V126.358H127.349L129.705 129.82H130.959V124.369H129.705V127.832H129.666L127.309 124.369H126.056V129.82Z" fill="white"/>
<path d="M135.401 124.369L133.251 129.82H134.608L134.925 128.953H137.21L137.528 129.82H138.884L136.734 124.369H135.401ZM135.346 127.832L136.068 125.866L136.79 127.832H135.346Z" fill="white"/>
<path d="M144.221 129.82H145.546L144.261 127.855C144.872 127.571 145.245 127.026 145.245 126.258C145.245 125.099 144.42 124.369 143.222 124.369H141.175V129.82H142.428V128.062H143.11L144.221 129.82ZM142.428 127.026V125.483H143.095C143.602 125.483 143.975 125.674 143.975 126.258C143.975 126.841 143.602 127.026 143.095 127.026H142.428Z" fill="white"/>
<path d="M147.92 129.82H149.174V124.369H147.92V129.82Z" fill="white"/>
<path d="M154.624 129.897C156.211 129.897 157.544 128.761 157.544 127.095C157.544 125.429 156.211 124.293 154.624 124.293C153.03 124.293 151.705 125.429 151.705 127.095C151.705 128.761 153.03 129.897 154.624 129.897ZM152.998 127.095C152.998 126.089 153.736 125.444 154.624 125.444C155.513 125.444 156.251 126.089 156.251 127.095C156.251 128.1 155.513 128.745 154.624 128.745C153.736 128.745 152.998 128.1 152.998 127.095Z" fill="white"/>
<path d="M161.656 129.897C162.608 129.897 163.656 129.352 163.656 128.216C163.656 127.463 163.204 127.018 162.188 126.626L161.807 126.481C161.22 126.25 161.077 126.066 161.077 125.828C161.077 125.521 161.339 125.367 161.68 125.367C162.029 125.367 162.315 125.544 162.561 125.959L163.489 125.452C163.219 124.876 162.624 124.293 161.633 124.293C160.657 124.293 159.839 124.868 159.839 125.813C159.839 126.696 160.53 127.095 161.283 127.386L161.633 127.517C162.172 127.724 162.355 127.878 162.355 128.2C162.355 128.623 162.013 128.799 161.641 128.799C161.109 128.799 160.807 128.446 160.649 128.077L159.633 128.53C159.847 129.329 160.665 129.897 161.656 129.897Z" fill="white"/>
<path d="M169.534 129.82H170.788V126.696H170.828L172.153 129.82H173.073L174.398 126.696H174.438V129.82H175.691V124.369H174.311L172.613 128.277L170.915 124.369H169.534V129.82Z" fill="#21B4E9"/>
<path d="M180.135 124.369L177.985 129.82H179.342L179.659 128.953H181.944L182.262 129.82H183.618L181.468 124.369H180.135ZM180.08 127.832L180.802 125.866L181.524 127.832H180.08ZM180.373 123.893H181.318L182.159 122.68H181.191L180.373 123.893Z" fill="#21B4E9"/>
<path d="M187.54 129.897C188.492 129.897 189.539 129.352 189.539 128.216C189.539 127.463 189.087 127.018 188.071 126.626L187.69 126.481C187.103 126.25 186.96 126.066 186.96 125.828C186.96 125.521 187.222 125.367 187.563 125.367C187.913 125.367 188.198 125.544 188.444 125.959L189.372 125.452C189.103 124.876 188.508 124.293 187.516 124.293C186.54 124.293 185.723 124.868 185.723 125.813C185.723 126.696 186.413 127.095 187.167 127.386L187.516 127.517C188.055 127.724 188.238 127.878 188.238 128.2C188.238 128.623 187.897 128.799 187.524 128.799C186.992 128.799 186.691 128.446 186.532 128.077L185.516 128.53C185.731 129.329 186.548 129.897 187.54 129.897Z" fill="#21B4E9"/>
<path d="M198.25 129.897C199.821 129.897 201.122 128.761 200.829 126.826H198.361V127.832H199.615C199.432 128.538 198.885 128.784 198.298 128.784C197.346 128.784 196.632 128.131 196.632 127.095C196.632 126.058 197.369 125.444 198.298 125.444C198.885 125.444 199.361 125.667 199.686 126.127L200.591 125.521C200.012 124.569 199.067 124.293 198.282 124.293C196.695 124.293 195.338 125.39 195.338 127.095C195.338 128.799 196.679 129.897 198.25 129.897Z" fill="#21B4E9"/>
<path d="M206.434 129.82H207.759L206.474 127.855C207.085 127.571 207.458 127.026 207.458 126.258C207.458 125.099 206.633 124.369 205.435 124.369H203.388V129.82H204.641V128.062H205.324L206.434 129.82ZM204.641 127.026V125.483H205.308C205.816 125.483 206.188 125.674 206.188 126.258C206.188 126.841 205.816 127.026 205.308 127.026H204.641Z" fill="#21B4E9"/>
<path d="M211.966 124.369L209.816 129.82H211.173L211.49 128.953H213.775L214.093 129.82H215.449L213.299 124.369H211.966ZM211.911 127.832L212.633 125.866L213.355 127.832H211.911Z" fill="#21B4E9"/>
<path d="M217.74 129.82H218.993V126.358H219.033L221.389 129.82H222.643V124.369H221.389V127.832H221.35L218.993 124.369H217.74V129.82Z" fill="#21B4E9"/>
<path d="M225.252 129.82H227.442C228.95 129.82 230.14 128.692 230.14 127.095C230.14 125.498 228.95 124.369 227.442 124.369H225.252V129.82ZM226.506 128.676V125.513H227.395C228.347 125.513 228.839 126.166 228.839 127.095C228.839 128.024 228.347 128.676 227.395 128.676H226.506Z" fill="#21B4E9"/>
<path d="M232.595 129.82H235.927V128.707H233.849V127.624H235.531V126.527H233.849V125.483H235.856V124.369H232.595V129.82Z" fill="#21B4E9"/>
<path d="M241.887 129.82H244.077C245.584 129.82 246.775 128.692 246.775 127.095C246.775 125.498 245.584 124.369 244.077 124.369H241.887V129.82ZM243.141 128.676V125.513H244.029C244.981 125.513 245.473 126.166 245.473 127.095C245.473 128.024 244.981 128.676 244.029 128.676H243.141Z" fill="#21B4E9"/>
<path d="M249.23 129.82H252.562V128.707H250.483V127.624H252.165V126.527H250.483V125.483H252.491V124.369H249.23V129.82Z" fill="#21B4E9"/>
<path d="M258.522 129.82H259.775V126.696H259.815L261.14 129.82H262.061L263.386 126.696H263.425V129.82H264.679V124.369H263.298L261.6 128.277L259.902 124.369H258.522V129.82Z" fill="#21B4E9"/>
<path d="M267.29 129.82H270.622V128.707H268.544V127.624H270.226V126.527H268.544V125.483H270.551V124.369H267.29V129.82ZM268.591 123.893H269.535L270.376 122.68H269.408L268.591 123.893Z" fill="#21B4E9"/>
<path d="M276.442 129.82H277.91L276.021 127.064L277.87 124.369H276.41L275.299 125.997L274.181 124.369H272.713L274.562 127.072L272.681 129.82H274.141L275.292 128.139L276.442 129.82Z" fill="#21B4E9"/>
<path d="M280.239 129.82H281.493V124.369H280.239V129.82Z" fill="#21B4E9"/>
<path d="M286.943 129.897C287.745 129.897 288.681 129.621 289.26 128.669L288.356 128.062C288.03 128.523 287.562 128.745 286.991 128.745C286.079 128.745 285.317 128.131 285.317 127.095C285.317 126.074 286.063 125.444 286.983 125.444C287.531 125.444 288.03 125.667 288.356 126.127L289.26 125.521C288.681 124.569 287.753 124.293 286.951 124.293C285.364 124.293 284.024 125.39 284.024 127.095C284.024 128.799 285.357 129.897 286.943 129.897Z" fill="#21B4E9"/>
<path d="M294.394 129.897C295.981 129.897 297.314 128.761 297.314 127.095C297.314 125.429 295.981 124.293 294.394 124.293C292.8 124.293 291.475 125.429 291.475 127.095C291.475 128.761 292.8 129.897 294.394 129.897ZM292.768 127.095C292.768 126.089 293.506 125.444 294.394 125.444C295.283 125.444 296.021 126.089 296.021 127.095C296.021 128.1 295.283 128.745 294.394 128.745C293.506 128.745 292.768 128.1 292.768 127.095Z" fill="#21B4E9"/>
<defs>
<filter id="filter0_d_52_17" x="1.65045" y="82.2681" width="545.349" height="28.1227" filterUnits="userSpaceOnUse" color-interpolation-filters="sRGB">
<feFlood flood-opacity="0" result="BackgroundImageFix"/>
<feColorMatrix in="SourceAlpha" type="matrix" values="0 0 0 0 0 0 0 0 0 0 0 0 0 0 0 0 0 0 127 0" result="hardAlpha"/>
<feOffset dx="-2.67914" dy="2.14331"/>
<feComposite in2="hardAlpha" operator="out"/>
<feColorMatrix type="matrix" values="0 0 0 0 1 0 0 0 0 0 0 0 0 0 0.547826 0 0 0 0.15 0"/>
<feBlend mode="normal" in2="BackgroundImageFix" result="effect1_dropShadow_52_17"/>
<feBlend mode="normal" in="SourceGraphic" in2="effect1_dropShadow_52_17" result="shape"/>
</filter>
<filter id="filter1_d_52_17" x="0.352747" y="11.3478" width="424.363" height="56.0187" filterUnits="userSpaceOnUse" color-interpolation-filters="sRGB">
<feFlood flood-opacity="0" result="BackgroundImageFix"/>
<feColorMatrix in="SourceAlpha" type="matrix" values="0 0 0 0 0 0 0 0 0 0 0 0 0 0 0 0 0 0 127 0" result="hardAlpha"/>
<feOffset dx="-3.92118" dy="3.13694"/>
<feComposite in2="hardAlpha" operator="out"/>
<feColorMatrix type="matrix" values="0 0 0 0 1 0 0 0 0 0 0 0 0 0 0.547826 0 0 0 0.15 0"/>
<feBlend mode="normal" in2="BackgroundImageFix" result="effect1_dropShadow_52_17"/>
<feBlend mode="normal" in="SourceGraphic" in2="effect1_dropShadow_52_17" result="shape"/>
</filter>
</defs>
</svg>
