<svg width="993" height="72" viewBox="0 0 993 72" fill="none" xmlns="http://www.w3.org/2000/svg">
<g filter="url(#filter0_d_52_16)">
<path d="M18.2569 32H24.6354L19.1828 23.2896C21.6862 21.9864 23.2294 19.5516 23.2294 16.1909C23.2294 10.9098 19.56 7.65197 14.3475 7.65197H5.25987V32H11.2954V24.3527H13.6617L18.2569 32ZM11.2954 19.2087V13.1731H13.7645C15.6506 13.1731 17.1252 13.8247 17.1252 16.1909C17.1252 18.5914 15.6506 19.2087 13.7645 19.2087H11.2954ZM28.6756 32H43.3187V26.4788H34.7111V22.4665H41.6383V17.014H34.7111V13.1731H43.0443V7.65197H28.6756V32ZM57.1379 32.3429C62.3848 32.3429 66.6714 28.9822 66.6714 22.6723V7.65197H60.6358V22.7066C60.6358 26.1359 58.5097 26.6846 57.1379 26.6846C55.7319 26.6846 53.6058 26.1359 53.6058 22.7066V7.65197H47.5702V22.6723C47.5702 28.9822 51.8568 32.3429 57.1379 32.3429ZM71.3877 32H77.4233V17.5284H77.5948L86.9225 32H92.958V7.65197H86.9225V22.1236H86.751L77.4233 7.65197H71.3877V32ZM97.6835 32H103.719V7.65197H97.6835V32ZM120.786 32.3429C127.713 32.3429 133.44 27.2676 133.44 19.826C133.44 12.3844 127.713 7.30905 120.786 7.30905C113.824 7.30905 108.097 12.3844 108.097 19.826C108.097 27.2676 113.824 32.3429 120.786 32.3429ZM114.304 19.826C114.304 15.6765 117.185 13.036 120.786 13.036C124.352 13.036 127.233 15.6765 127.233 19.826C127.233 23.9754 124.352 26.616 120.786 26.616C117.185 26.616 114.304 23.9754 114.304 19.826ZM118.694 5.52581H123.186L126.924 0.107515H122.329L118.694 5.52581ZM137.817 32H143.853V17.5284H144.024L153.352 32H159.387V7.65197H153.352V22.1236H153.18L143.853 7.65197H137.817V32ZM172.659 32H182.638C189.017 32 194.264 26.9246 194.264 19.826C194.264 12.7273 189.017 7.65197 182.638 7.65197H172.659V32ZM178.695 26.3074V13.3446H182.433C186.136 13.3446 187.954 16.0538 187.954 19.826C187.954 23.5982 186.136 26.3074 182.433 26.3074H178.695ZM198.319 32H212.962V26.4788H204.354V22.4665H211.281V17.014H204.354V13.1731H212.687V7.65197H198.319V32ZM225.76 32H231.795V22.3637H239.546V17.1854H231.795V13.1731H239.889V7.65197H225.76V32ZM253.686 32.3429C258.933 32.3429 263.22 28.9822 263.22 22.6723V7.65197H257.184V22.7066C257.184 26.1359 255.058 26.6846 253.686 26.6846C252.28 26.6846 250.154 26.1359 250.154 22.7066V7.65197H244.119V22.6723C244.119 28.9822 248.405 32.3429 253.686 32.3429ZM267.936 32H273.972V17.5284H274.143L283.471 32H289.506V7.65197H283.471V22.1236H283.299L273.972 7.65197H267.936V32ZM306.577 32.3429C310.144 32.3429 314.225 31.0398 316.728 26.6846L312.373 23.6668C311.104 25.5872 309.287 26.616 306.817 26.616C303.182 26.616 300.096 24.1469 300.096 19.826C300.096 15.5737 303.114 13.036 306.749 13.036C309.149 13.036 311.104 14.0648 312.373 15.9509L316.728 12.9674C314.225 8.61218 310.178 7.30905 306.612 7.30905C299.719 7.30905 293.889 12.1787 293.889 19.826C293.889 27.4733 299.685 32.3429 306.577 32.3429ZM320.762 32H326.798V7.65197H320.762V32ZM343.864 32.3429C350.792 32.3429 356.518 27.2676 356.518 19.826C356.518 12.3844 350.792 7.30905 343.864 7.30905C336.903 7.30905 331.176 12.3844 331.176 19.826C331.176 27.2676 336.903 32.3429 343.864 32.3429ZM337.383 19.826C337.383 15.6765 340.264 13.036 343.864 13.036C347.431 13.036 350.311 15.6765 350.311 19.826C350.311 23.9754 347.431 26.616 343.864 26.616C340.264 26.616 337.383 23.9754 337.383 19.826ZM360.896 32H366.931V17.5284H367.103L376.43 32H382.466V7.65197H376.43V22.1236H376.259L366.931 7.65197H360.896V32ZM395.01 7.65197L385.82 32H392.37L393.57 28.5364H402.966L404.166 32H410.682L401.492 7.65197H395.01ZM395.49 23.0152L398.234 15.0593L401.011 23.0152H395.49ZM427.053 32H433.432L427.979 23.2896C430.483 21.9864 432.026 19.5516 432.026 16.1909C432.026 10.9098 428.357 7.65197 423.144 7.65197H414.056V32H420.092V24.3527H422.458L427.053 32ZM420.092 19.2087V13.1731H422.561C424.447 13.1731 425.922 13.8247 425.922 16.1909C425.922 18.5914 424.447 19.2087 422.561 19.2087H420.092ZM437.137 32H443.173V7.65197H437.137V32ZM460.239 32.3429C467.167 32.3429 472.894 27.2676 472.894 19.826C472.894 12.3844 467.167 7.30905 460.239 7.30905C453.278 7.30905 447.551 12.3844 447.551 19.826C447.551 27.2676 453.278 32.3429 460.239 32.3429ZM453.758 19.826C453.758 15.6765 456.639 13.036 460.239 13.036C463.806 13.036 466.687 15.6765 466.687 19.826C466.687 23.9754 463.806 26.616 460.239 26.616C456.639 26.616 453.758 23.9754 453.758 19.826ZM484.257 32.3429C488.407 32.3429 493.105 29.9081 493.105 24.6613C493.105 21.4035 491.322 19.3802 486.829 17.5626L485.183 16.9111C482.714 15.9509 482.2 15.2307 482.2 14.3391C482.2 13.1731 483.16 12.6245 484.429 12.6245C485.697 12.6245 486.863 13.276 487.926 15.0593L492.385 12.5216C491.184 9.94961 488.509 7.30905 484.189 7.30905C479.902 7.30905 476.267 9.91531 476.267 14.2362C476.267 18.3857 479.456 20.1346 482.611 21.4035L484.12 21.9864C486.28 22.8438 486.829 23.4268 486.829 24.5927C486.829 26.2388 485.56 26.9246 484.154 26.9246C482.028 26.9246 480.931 25.3472 480.245 23.9411L475.375 26.2045C476.301 29.771 479.936 32.3429 484.257 32.3429ZM505.516 32H511.551V22.3637H519.301V17.1854H511.551V13.1731H519.644V7.65197H505.516V32ZM523.874 32H529.91V7.65197H523.874V32ZM542.656 32.3429C546.805 32.3429 551.503 29.9081 551.503 24.6613C551.503 21.4035 549.72 19.3802 545.228 17.5626L543.582 16.9111C541.113 15.9509 540.598 15.2307 540.598 14.3391C540.598 13.1731 541.558 12.6245 542.827 12.6245C544.096 12.6245 545.262 13.276 546.325 15.0593L550.783 12.5216C549.583 9.94961 546.908 7.30905 542.587 7.30905C538.3 7.30905 534.665 9.91531 534.665 14.2362C534.665 18.3857 537.855 20.1346 541.01 21.4035L542.519 21.9864C544.679 22.8438 545.228 23.4268 545.228 24.5927C545.228 26.2388 543.959 26.9246 542.553 26.9246C540.427 26.9246 539.329 25.3472 538.643 23.9411L533.774 26.2045C534.7 29.771 538.335 32.3429 542.656 32.3429ZM567.546 32.3429C571.112 32.3429 575.193 31.0398 577.696 26.6846L573.341 23.6668C572.072 25.5872 570.255 26.616 567.786 26.616C564.151 26.616 561.064 24.1469 561.064 19.826C561.064 15.5737 564.082 13.036 567.717 13.036C570.118 13.036 572.072 14.0648 573.341 15.9509L577.696 12.9674C575.193 8.61218 571.146 7.30905 567.58 7.30905C560.687 7.30905 554.857 12.1787 554.857 19.826C554.857 27.4733 560.653 32.3429 567.546 32.3429ZM588.879 7.65197L579.689 32H586.239L587.439 28.5364H596.835L598.036 32H604.551L595.361 7.65197H588.879ZM589.36 23.0152L592.103 15.0593L594.881 23.0152H589.36ZM607.926 32H622.603V26.4788H613.961V7.65197H607.926V32ZM626.653 32H641.296V26.4788H632.688V22.4665H639.616V17.014H632.688V13.1731H641.022V7.65197H626.653V32ZM653.572 32.3429C657.722 32.3429 662.42 29.9081 662.42 24.6613C662.42 21.4035 660.636 19.3802 656.144 17.5626L654.498 16.9111C652.029 15.9509 651.515 15.2307 651.515 14.3391C651.515 13.1731 652.475 12.6245 653.744 12.6245C655.012 12.6245 656.178 13.276 657.241 15.0593L661.7 12.5216C660.499 9.94961 657.824 7.30905 653.504 7.30905C649.217 7.30905 645.582 9.91531 645.582 14.2362C645.582 18.3857 648.771 20.1346 651.926 21.4035L653.435 21.9864C655.595 22.8438 656.144 23.4268 656.144 24.5927C656.144 26.2388 654.875 26.9246 653.469 26.9246C651.343 26.9246 650.246 25.3472 649.56 23.9411L644.69 26.2045C645.616 29.771 649.251 32.3429 653.572 32.3429Z" fill="black"/>
</g>
<g filter="url(#filter1_d_52_16)">
<path d="M719.188 52H723.906L715.022 38.6994C719.791 37.1936 722.601 33.2787 722.601 27.9585C722.601 21.1827 717.984 16.3643 710.455 16.3643H698.961V52H703.278V39.3518H710.455H710.857L719.188 52ZM703.278 35.5373V20.3796H709.953C714.972 20.3796 718.184 22.9394 718.184 27.9585C718.184 32.9776 714.972 35.5373 709.953 35.5373H703.278ZM739.351 52H758.926V47.9847H743.668V36.0894H756.266V32.1243H743.668V20.3796H758.474V16.3643H739.351V52ZM790.201 52.5019C799.637 52.5019 807.517 45.5254 806.614 33.881H792.309V37.545H802.398C801.544 45.1238 796.274 48.4866 790.402 48.4866C782.773 48.4866 776.549 42.7648 776.549 34.1822C776.549 25.5995 782.723 20.0283 790.402 20.0283C793.915 20.0283 798.131 21.1827 801.093 25.1478L804.205 22.839C800.34 17.318 794.668 15.8624 790.302 15.8624C780.364 15.8624 772.132 23.2907 772.132 34.1822C772.132 45.0736 780.364 52.5019 790.201 52.5019ZM822.68 52H826.997V16.3643H822.68V52ZM854.155 52.5019C860.128 52.5019 865.599 48.9885 865.599 42.4135C865.599 36.9427 861.935 34.3327 856.113 32.0239L853.704 31.0703C849.487 29.414 847.982 27.4566 847.982 24.947C847.982 21.7348 850.592 19.8275 854.005 19.8275C857.618 19.8275 859.927 21.785 861.333 24.9972L864.645 23.2907C863.24 19.426 859.777 15.8624 853.904 15.8624C848.132 15.8624 843.665 19.3758 843.665 24.8968C843.665 29.5144 846.827 32.4255 852.047 34.5335L854.406 35.4369C858.572 37.0932 861.182 38.6994 861.182 42.3633C861.182 46.4288 857.92 48.4866 854.155 48.4866C849.889 48.4866 846.777 45.8767 845.773 42.1625L842.21 43.8189C843.414 48.9383 848.132 52.5019 854.155 52.5019ZM887.477 52H891.794V20.3796H901.23V16.3643H878.041V20.3796H887.477V52ZM936.678 52H941.396L932.513 38.6994C937.281 37.1936 940.091 33.2787 940.091 27.9585C940.091 21.1827 935.474 16.3643 927.945 16.3643H916.451V52H920.768V39.3518H927.945H928.347L936.678 52ZM920.768 35.5373V20.3796H927.443C932.462 20.3796 935.675 22.9394 935.675 27.9585C935.675 32.9776 932.462 35.5373 927.443 35.5373H920.768ZM972.204 52.5019C981.841 52.5019 990.273 45.1238 990.273 34.1822C990.273 23.2405 981.841 15.8624 972.204 15.8624C962.517 15.8624 954.085 23.2405 954.085 34.1822C954.085 45.1238 962.517 52.5019 972.204 52.5019ZM958.502 34.1822C958.502 25.5493 964.976 20.0283 972.204 20.0283C979.381 20.0283 985.856 25.5493 985.856 34.1822C985.856 42.815 979.381 48.3361 972.204 48.3361C964.976 48.3361 958.502 42.815 958.502 34.1822Z" fill="#FF008C"/>
</g>
<rect y="42.0294" width="663" height="29.25" fill="black"/>
<path d="M11.7058 58.5454H15.7566V57.1469H13.2296V55.787H15.2744V54.4077H13.2296V53.096H15.6698V51.6975H11.7058V58.5454ZM18.7853 58.5454H22.8555V57.1469H20.3092V51.6975H18.7853V58.5454ZM30.0529 58.5454H34.1038V57.1469H31.5768V55.787H33.6215V54.4077H31.5768V53.096H34.017V51.6975H30.0529V58.5454ZM39.4087 58.5454H41.029L43.6428 51.6975H41.9935L40.2189 56.6647L38.4442 51.6975H36.7949L39.4087 58.5454ZM46.482 58.5454H50.5329V57.1469H48.0059V55.787H50.0506V54.4077H48.0059V53.096H50.4461V51.6975H46.482V58.5454ZM53.5616 58.5454H55.0855V54.1956H55.1337L57.9983 58.5454H59.5222V51.6975H57.9983V56.0474H57.95L55.0855 51.6975H53.5616V58.5454ZM64.0352 58.5454H65.559V53.096H67.1408V51.6975H62.4534V53.096H64.0352V58.5454ZM73.048 58.6419C74.977 58.6419 76.5973 57.2144 76.5973 55.1215C76.5973 53.0285 74.977 51.6011 73.048 51.6011C71.1094 51.6011 69.4987 53.0285 69.4987 55.1215C69.4987 57.2144 71.1094 58.6419 73.048 58.6419ZM71.0708 55.1215C71.0708 53.858 71.9678 53.0478 73.048 53.0478C74.1282 53.0478 75.0252 53.858 75.0252 55.1215C75.0252 56.385 74.1282 57.1951 73.048 57.1951C71.9678 57.1951 71.0708 56.385 71.0708 55.1215ZM83.8862 58.5454H86.5482C88.3807 58.5454 89.8274 57.1276 89.8274 55.1215C89.8274 53.1153 88.3807 51.6975 86.5482 51.6975H83.8862V58.5454ZM85.4101 57.1083V53.1346H86.4903C87.6477 53.1346 88.2457 53.9544 88.2457 55.1215C88.2457 56.2885 87.6477 57.1083 86.4903 57.1083H85.4101ZM92.8119 58.5454H96.8627V57.1469H94.3357V55.787H96.3805V54.4077H94.3357V53.096H96.7759V51.6975H92.8119V58.5454ZM104.108 58.5454H105.632V55.758H107.898V54.456H105.632V53.0864H108.024V51.6975H104.108V58.5454ZM113.698 58.6419C115.154 58.6419 116.341 57.7063 116.341 55.9509V51.6975H114.817V55.9606C114.817 56.9829 114.19 57.2144 113.698 57.2144C113.206 57.2144 112.579 56.9829 112.579 55.9606V51.6975H111.055V55.9509C111.055 57.7063 112.232 58.6419 113.698 58.6419ZM119.51 58.5454H121.034V54.1956H121.082L123.947 58.5454H125.471V51.6975H123.947V56.0474H123.899L121.034 51.6975H119.51V58.5454ZM132.096 58.6419C133.07 58.6419 134.208 58.2946 134.912 57.0987L133.813 56.3367C133.417 56.9154 132.848 57.1951 132.154 57.1951C131.045 57.1951 130.119 56.4235 130.119 55.1215C130.119 53.8387 131.025 53.0478 132.144 53.0478C132.81 53.0478 133.417 53.3275 133.813 53.9062L134.912 53.1443C134.208 51.9483 133.08 51.6011 132.106 51.6011C130.177 51.6011 128.547 52.9803 128.547 55.1215C128.547 57.2626 130.167 58.6419 132.096 58.6419ZM137.889 58.5454H139.413V51.6975H137.889V58.5454ZM146.038 58.6419C147.967 58.6419 149.588 57.2144 149.588 55.1215C149.588 53.0285 147.967 51.6011 146.038 51.6011C144.1 51.6011 142.489 53.0285 142.489 55.1215C142.489 57.2144 144.1 58.6419 146.038 58.6419ZM144.061 55.1215C144.061 53.858 144.958 53.0478 146.038 53.0478C147.119 53.0478 148.016 53.858 148.016 55.1215C148.016 56.385 147.119 57.1951 146.038 57.1951C144.958 57.1951 144.061 56.385 144.061 55.1215ZM152.66 58.5454H154.184V54.1956H154.232L157.097 58.5454H158.621V51.6975H157.097V56.0474H157.049L154.184 51.6975H152.66V58.5454ZM164.021 51.6975L161.407 58.5454H163.057L163.443 57.4555H166.22L166.606 58.5454H168.255L165.642 51.6975H164.021ZM163.954 56.0474L164.831 53.5783L165.709 56.0474H163.954ZM174.743 58.5454H176.354L174.791 56.0763C175.534 55.7195 175.987 55.0347 175.987 54.0702C175.987 52.6138 174.984 51.6975 173.528 51.6975H171.039V58.5454H172.563V56.3367H173.393L174.743 58.5454ZM172.563 55.0347V53.096H173.373C173.991 53.096 174.444 53.3372 174.444 54.0702C174.444 54.8032 173.991 55.0347 173.373 55.0347H172.563ZM179.24 58.5454H180.763V51.6975H179.24V58.5454ZM187.389 58.6419C189.318 58.6419 190.938 57.2144 190.938 55.1215C190.938 53.0285 189.318 51.6011 187.389 51.6011C185.45 51.6011 183.84 53.0285 183.84 55.1215C183.84 57.2144 185.45 58.6419 187.389 58.6419ZM185.412 55.1215C185.412 53.858 186.309 53.0478 187.389 53.0478C188.469 53.0478 189.366 53.858 189.366 55.1215C189.366 56.385 188.469 57.1951 187.389 57.1951C186.309 57.1951 185.412 56.385 185.412 55.1215ZM195.937 58.6419C197.095 58.6419 198.368 57.9571 198.368 56.5296C198.368 55.5844 197.818 55.025 196.584 54.5331L196.121 54.3499C195.407 54.0605 195.233 53.8291 195.233 53.5301C195.233 53.1443 195.552 52.9514 195.966 52.9514C196.391 52.9514 196.738 53.1732 197.037 53.694L198.165 53.0575C197.837 52.3341 197.114 51.6011 195.908 51.6011C194.722 51.6011 193.729 52.3244 193.729 53.5108C193.729 54.6199 194.568 55.1215 195.484 55.488L195.908 55.6519C196.564 55.9124 196.786 56.1052 196.786 56.5103C196.786 57.0408 196.371 57.2626 195.918 57.2626C195.272 57.2626 194.905 56.819 194.712 56.356L193.478 56.9251C193.738 57.9281 194.732 58.6419 195.937 58.6419Z" fill="white"/>
<path d="M205.514 58.5454H207.038V54.6199H207.086L208.697 58.5454H209.816L211.426 54.6199H211.475V58.5454H212.999V51.6975H211.32L209.256 56.6068L207.192 51.6975H205.514V58.5454ZM218.401 51.6975L215.787 58.5454H217.436L217.822 57.4555H220.6L220.986 58.5454H222.635L220.021 51.6975H218.401ZM218.333 56.0474L219.211 53.5783L220.089 56.0474H218.333ZM218.69 51.0995H219.838L220.86 49.5756H219.684L218.69 51.0995ZM227.402 58.6419C228.559 58.6419 229.832 57.9571 229.832 56.5296C229.832 55.5844 229.282 55.025 228.048 54.5331L227.585 54.3499C226.871 54.0605 226.697 53.8291 226.697 53.5301C226.697 53.1443 227.016 52.9514 227.431 52.9514C227.855 52.9514 228.202 53.1732 228.501 53.694L229.63 53.0575C229.302 52.3341 228.578 51.6011 227.373 51.6011C226.186 51.6011 225.193 52.3244 225.193 53.5108C225.193 54.6199 226.032 55.1215 226.948 55.488L227.373 55.6519C228.028 55.9124 228.25 56.1052 228.25 56.5103C228.25 57.0408 227.836 57.2626 227.382 57.2626C226.736 57.2626 226.37 56.819 226.177 56.356L224.942 56.9251C225.203 57.9281 226.196 58.6419 227.402 58.6419ZM240.422 58.6419C242.331 58.6419 243.913 57.2144 243.556 54.7839H240.557V56.0474H242.08C241.859 56.9347 241.193 57.2433 240.479 57.2433C239.322 57.2433 238.454 56.4235 238.454 55.1215C238.454 53.8194 239.351 53.0478 240.479 53.0478C241.193 53.0478 241.772 53.3275 242.167 53.9062L243.267 53.1443C242.563 51.9483 241.415 51.6011 240.46 51.6011C238.531 51.6011 236.882 52.9803 236.882 55.1215C236.882 57.2626 238.512 58.6419 240.422 58.6419ZM250.371 58.5454H251.981L250.419 56.0763C251.161 55.7195 251.615 55.0347 251.615 54.0702C251.615 52.6138 250.612 51.6975 249.155 51.6975H246.667V58.5454H248.191V56.3367H249.02L250.371 58.5454ZM248.191 55.0347V53.096H249.001C249.618 53.096 250.072 53.3372 250.072 54.0702C250.072 54.8032 249.618 55.0347 249.001 55.0347H248.191ZM257.095 51.6975L254.482 58.5454H256.131L256.517 57.4555H259.294L259.68 58.5454H261.329L258.716 51.6975H257.095ZM257.028 56.0474L257.905 53.5783L258.783 56.0474H257.028ZM264.113 58.5454H265.637V54.1956H265.685L268.55 58.5454H270.074V51.6975H268.55V56.0474H268.502L265.637 51.6975H264.113V58.5454ZM273.246 58.5454H275.908C277.741 58.5454 279.187 57.1276 279.187 55.1215C279.187 53.1153 277.741 51.6975 275.908 51.6975H273.246V58.5454ZM274.77 57.1083V53.1346H275.85C277.008 53.1346 277.606 53.9544 277.606 55.1215C277.606 56.2885 277.008 57.1083 275.85 57.1083H274.77ZM282.172 58.5454H286.223V57.1469H283.696V55.787H285.74V54.4077H283.696V53.096H286.136V51.6975H282.172V58.5454ZM293.468 58.5454H296.13C297.962 58.5454 299.409 57.1276 299.409 55.1215C299.409 53.1153 297.962 51.6975 296.13 51.6975H293.468V58.5454ZM294.992 57.1083V53.1346H296.072C297.229 53.1346 297.827 53.9544 297.827 55.1215C297.827 56.2885 297.229 57.1083 296.072 57.1083H294.992ZM302.393 58.5454H306.444V57.1469H303.917V55.787H305.962V54.4077H303.917V53.096H306.357V51.6975H302.393V58.5454ZM313.689 58.5454H315.213V54.6199H315.261L316.872 58.5454H317.991L319.602 54.6199H319.65V58.5454H321.174V51.6975H319.495L317.431 56.6068L315.367 51.6975H313.689V58.5454ZM324.348 58.5454H328.399V57.1469H325.872V55.787H327.917V54.4077H325.872V53.096H328.312V51.6975H324.348V58.5454ZM325.93 51.0995H327.077L328.1 49.5756H326.923L325.93 51.0995ZM335.473 58.5454H337.258L334.962 55.0829L337.209 51.6975H335.435L334.084 53.7422L332.724 51.6975H330.94L333.187 55.0925L330.902 58.5454H332.676L334.075 56.4332L335.473 58.5454ZM340.089 58.5454H341.613V51.6975H340.089V58.5454ZM348.239 58.6419C349.213 58.6419 350.351 58.2946 351.055 57.0987L349.956 56.3367C349.56 56.9154 348.991 57.1951 348.297 57.1951C347.188 57.1951 346.262 56.4235 346.262 55.1215C346.262 53.8387 347.168 53.0478 348.287 53.0478C348.953 53.0478 349.56 53.3275 349.956 53.9062L351.055 53.1443C350.351 51.9483 349.223 51.6011 348.249 51.6011C346.32 51.6011 344.69 52.9803 344.69 55.1215C344.69 57.2626 346.31 58.6419 348.239 58.6419ZM357.297 58.6419C359.225 58.6419 360.846 57.2144 360.846 55.1215C360.846 53.0285 359.225 51.6011 357.297 51.6011C355.358 51.6011 353.747 53.0285 353.747 55.1215C353.747 57.2144 355.358 58.6419 357.297 58.6419ZM355.319 55.1215C355.319 53.858 356.216 53.0478 357.297 53.0478C358.377 53.0478 359.274 53.858 359.274 55.1215C359.274 56.385 358.377 57.1951 357.297 57.1951C356.216 57.1951 355.319 56.385 355.319 55.1215Z" fill="#21B4E9"/>
<defs>
<filter id="filter0_d_52_16" x="2.58063" y="0.107544" width="659.839" height="34.3787" filterUnits="userSpaceOnUse" color-interpolation-filters="sRGB">
<feFlood flood-opacity="0" result="BackgroundImageFix"/>
<feColorMatrix in="SourceAlpha" type="matrix" values="0 0 0 0 0 0 0 0 0 0 0 0 0 0 0 0 0 0 127 0" result="hardAlpha"/>
<feOffset dx="-2.67914" dy="2.14331"/>
<feComposite in2="hardAlpha" operator="out"/>
<feColorMatrix type="matrix" values="0 0 0 0 1 0 0 0 0 0 0 0 0 0 0.547826 0 0 0 0.15 0"/>
<feBlend mode="normal" in2="BackgroundImageFix" result="effect1_dropShadow_52_16"/>
<feBlend mode="normal" in="SourceGraphic" in2="effect1_dropShadow_52_16" result="shape"/>
</filter>
<filter id="filter1_d_52_16" x="695.04" y="15.8624" width="295.233" height="39.7764" filterUnits="userSpaceOnUse" color-interpolation-filters="sRGB">
<feFlood flood-opacity="0" result="BackgroundImageFix"/>
<feColorMatrix in="SourceAlpha" type="matrix" values="0 0 0 0 0 0 0 0 0 0 0 0 0 0 0 0 0 0 127 0" result="hardAlpha"/>
<feOffset dx="-3.92118" dy="3.13694"/>
<feComposite in2="hardAlpha" operator="out"/>
<feColorMatrix type="matrix" values="0 0 0 0 1 0 0 0 0 0 0 0 0 0 0.547826 0 0 0 0.15 0"/>
<feBlend mode="normal" in2="BackgroundImageFix" result="effect1_dropShadow_52_16"/>
<feBlend mode="normal" in="SourceGraphic" in2="effect1_dropShadow_52_16" result="shape"/>
</filter>
</defs>
</svg>
